M48
;DRILL file {KiCad (5.0.0)} date 08/12/18 22:18:13
;FORMAT={-:-/ absolute / inch / decimal}
FMAT,2
INCH,TZ
T1C0.0157
T2C0.0197
T3C0.0236
T4C0.0315
T5C0.0354
T6C0.0394
%
G90
G05
M72
T1
X3.35Y-3.26
X3.4984Y-3.3187
X3.5Y-3.45
X3.72Y-2.44
X3.75Y-3.37
X3.7998Y-4.2502
X3.81Y-3.54
X3.82Y-2.5
X3.8202Y-1.8798
X3.826Y-1.78
X3.83Y-2.58
X3.83Y-3.27
X3.89Y-3.21
X3.89Y-4.01
X3.96Y-3.56
X3.96Y-4.01
X3.96Y-4.35
X4.Y-4.51
X4.01Y-1.97
X4.1Y-3.21
X4.1012Y-2.7548
X4.11Y-4.01
X4.17Y-1.97
X4.1798Y-3.5298
X4.1802Y-3.2698
X4.19Y-2.64
X4.2Y-4.25
X4.2002Y-2.7702
X4.25Y-3.56
X4.26Y-3.37
X4.5Y-2.74
X4.51Y-3.33
X4.51Y-3.45
X4.6502Y-3.2502
T4
X3.87Y-2.93
X3.87Y-3.03
X3.87Y-3.13
X4.65Y-2.93
X4.65Y-3.03
X4.65Y-3.13
X3.34Y-2.93
X3.34Y-3.03
X3.34Y-3.13
X3.3012Y-3.5329
X3.3012Y-3.7298
X3.325Y-3.925
X3.325Y-4.025
X3.325Y-4.125
X4.675Y-3.925
X4.675Y-4.025
X4.675Y-4.125
X4.675Y-4.325
X4.675Y-4.425
X4.675Y-4.525
X3.325Y-4.325
X3.325Y-4.425
X3.325Y-4.525
X3.9043Y-4.8798
X4.1012Y-4.8798
X4.14Y-2.93
X4.14Y-3.03
X4.14Y-3.13
X4.7012Y-3.5329
X4.7012Y-3.7298
X3.9043Y-4.6798
X4.1012Y-4.6798
T5
X4.0012Y-1.7798
X4.0012Y-1.8798
X4.0012Y-2.5798
X4.0012Y-2.6798
T6
X3.5028Y-2.5251
X3.6028Y-2.5251
X3.6996Y-2.5251
X4.3028Y-1.7251
X4.4028Y-1.7251
X4.4996Y-1.7251
X3.9512Y-1.1798
X3.9512Y-1.2798
X3.9512Y-1.3798
X3.9512Y-1.4798
X3.9512Y-1.5798
X4.0512Y-1.1798
X4.0512Y-1.2798
X4.0512Y-1.3798
X4.0512Y-1.4798
X4.0512Y-1.5798
X3.5028Y-1.7251
X3.6028Y-1.7251
X3.6996Y-1.7251
X4.3028Y-2.5251
X4.4028Y-2.5251
X4.4996Y-2.5251
T2
X3.5795Y-3.4361G85X3.6229Y-3.4361
G05
X3.7949Y-4.8081G85X3.7949Y-4.8515
G05
X3.5795Y-4.0361G85X3.6229Y-4.0361
G05
X4.3795Y-3.4361G85X4.4229Y-3.4361
G05
X4.3795Y-4.0361G85X4.4229Y-4.0361
G05
X4.2075Y-4.8515G85X4.2075Y-4.8081
G05
T3
X3.5815Y-3.7629G85X3.6209Y-3.7629
G05
X3.5855Y-3.8849G85X3.6169Y-3.8849
G05
X3.3461Y-4.8141G85X3.3461Y-4.8455
G05
X3.4681Y-4.8101G85X3.4681Y-4.8495
G05
X3.5815Y-4.3629G85X3.6209Y-4.3629
G05
X3.5855Y-4.4849G85X3.6169Y-4.4849
G05
X4.3815Y-3.7629G85X4.4209Y-3.7629
G05
X4.3855Y-3.8849G85X4.4169Y-3.8849
G05
X4.3815Y-4.3629G85X4.4209Y-4.3629
G05
X4.3855Y-4.4849G85X4.4169Y-4.4849
G05
X4.5343Y-4.8495G85X4.5343Y-4.8101
G05
X4.6563Y-4.8455G85X4.6563Y-4.8141
G05
T5
X3.5744Y-2.845G85X3.6256Y-2.845
G05
X3.5744Y-3.03G85X3.6256Y-3.03
G05
X3.5744Y-3.215G85X3.6256Y-3.215
G05
X4.3744Y-2.845G85X4.4256Y-2.845
G05
X4.3744Y-3.03G85X4.4256Y-3.03
G05
X4.3744Y-3.215G85X4.4256Y-3.215
G05
T0
M30
