G04 #@! TF.GenerationSoftware,KiCad,Pcbnew,(5.0.0)*
G04 #@! TF.CreationDate,2018-08-12T23:07:36+08:00*
G04 #@! TF.ProjectId,VCA,5643412E6B696361645F706362000000,rev?*
G04 #@! TF.SameCoordinates,PX18392c0PY18392c0*
G04 #@! TF.FileFunction,Legend,Top*
G04 #@! TF.FilePolarity,Positive*
%FSLAX46Y46*%
G04 Gerber Fmt 4.6, Leading zero omitted, Abs format (unit mm)*
G04 Created by KiCad (PCBNEW (5.0.0)) date 08/12/18 23:07:36*
%MOMM*%
%LPD*%
G01*
G04 APERTURE LIST*
%ADD10C,0.120000*%
%ADD11C,0.150000*%
G04 APERTURE END LIST*
D10*
G04 #@! TO.C,Q3*
X97185736Y-79264383D02*
G75*
G02X96598000Y-78872000I1112264J2302383D01*
G01*
X99396807Y-79318400D02*
G75*
G03X100898000Y-76962000I-1098807J2356400D01*
G01*
X99396807Y-74605600D02*
G75*
G02X100898000Y-76962000I-1098807J-2356400D01*
G01*
X97175955Y-74639369D02*
G75*
G03X96598000Y-75022000I1122045J-2322631D01*
G01*
X96598000Y-75022000D02*
X96598000Y-78872000D01*
G04 #@! TO.C,Q4*
X103456000Y-75022000D02*
X103456000Y-78872000D01*
X104033955Y-74639369D02*
G75*
G03X103456000Y-75022000I1122045J-2322631D01*
G01*
X106254807Y-74605600D02*
G75*
G02X107756000Y-76962000I-1098807J-2356400D01*
G01*
X106254807Y-79318400D02*
G75*
G03X107756000Y-76962000I-1098807J2356400D01*
G01*
X104043736Y-79264383D02*
G75*
G02X103456000Y-78872000I1112264J2302383D01*
G01*
G04 #@! TO.C,Q1*
X83723736Y-79264383D02*
G75*
G02X83136000Y-78872000I1112264J2302383D01*
G01*
X85934807Y-79318400D02*
G75*
G03X87436000Y-76962000I-1098807J2356400D01*
G01*
X85934807Y-74605600D02*
G75*
G02X87436000Y-76962000I-1098807J-2356400D01*
G01*
X83713955Y-74639369D02*
G75*
G03X83136000Y-75022000I1122045J-2322631D01*
G01*
X83136000Y-75022000D02*
X83136000Y-78872000D01*
G04 #@! TO.C,Q2*
X116410000Y-75022000D02*
X116410000Y-78872000D01*
X116987955Y-74639369D02*
G75*
G03X116410000Y-75022000I1122045J-2322631D01*
G01*
X119208807Y-74605600D02*
G75*
G02X120710000Y-76962000I-1098807J-2356400D01*
G01*
X119208807Y-79318400D02*
G75*
G03X120710000Y-76962000I-1098807J2356400D01*
G01*
X116997736Y-79264383D02*
G75*
G02X116410000Y-78872000I1112264J2302383D01*
G01*
D11*
G04 #@! TO.C,J2*
X93270480Y-107436920D02*
G75*
G03X93270480Y-107436920I-1800000J0D01*
G01*
X94477139Y-107436920D02*
G75*
G03X94477139Y-107436920I-3006659J0D01*
G01*
X86970480Y-101436920D02*
X86970480Y-111936920D01*
X95970480Y-101436920D02*
X86970480Y-101436920D01*
X95970480Y-111936920D02*
X95970480Y-101436920D01*
X86970480Y-111936920D02*
X95970480Y-111936920D01*
X91470480Y-105636920D02*
X91470480Y-109236920D01*
X93270480Y-107436920D02*
X89670480Y-107436920D01*
D10*
G04 #@! TO.C,RV8*
X106809480Y-63376920D02*
X106809480Y-59439920D01*
X106809480Y-55072920D02*
X106809480Y-51136920D01*
X116850480Y-63376920D02*
X116850480Y-59439920D01*
X116850480Y-55072920D02*
X116850480Y-51136920D01*
X106809480Y-63376920D02*
X108459480Y-63376920D01*
X110201480Y-63376920D02*
X110960480Y-63376920D01*
X112701480Y-63376920D02*
X113460480Y-63376920D01*
X115200480Y-63376920D02*
X116850480Y-63376920D01*
X106809480Y-51136920D02*
X116850480Y-51136920D01*
G04 #@! TO.C,RV7*
X86489480Y-63376920D02*
X86489480Y-59439920D01*
X86489480Y-55072920D02*
X86489480Y-51136920D01*
X96530480Y-63376920D02*
X96530480Y-59439920D01*
X96530480Y-55072920D02*
X96530480Y-51136920D01*
X86489480Y-63376920D02*
X88139480Y-63376920D01*
X89881480Y-63376920D02*
X90640480Y-63376920D01*
X92381480Y-63376920D02*
X93140480Y-63376920D01*
X94880480Y-63376920D02*
X96530480Y-63376920D01*
X86489480Y-51136920D02*
X96530480Y-51136920D01*
G04 #@! TO.C,RV2*
X106809480Y-43056920D02*
X106809480Y-39119920D01*
X106809480Y-34752920D02*
X106809480Y-30816920D01*
X116850480Y-43056920D02*
X116850480Y-39119920D01*
X116850480Y-34752920D02*
X116850480Y-30816920D01*
X106809480Y-43056920D02*
X108459480Y-43056920D01*
X110201480Y-43056920D02*
X110960480Y-43056920D01*
X112701480Y-43056920D02*
X113460480Y-43056920D01*
X115200480Y-43056920D02*
X116850480Y-43056920D01*
X106809480Y-30816920D02*
X116850480Y-30816920D01*
G04 #@! TO.C,RV1*
X86489480Y-43056920D02*
X86489480Y-39119920D01*
X86489480Y-34752920D02*
X86489480Y-30816920D01*
X96530480Y-43056920D02*
X96530480Y-39119920D01*
X96530480Y-34752920D02*
X96530480Y-30816920D01*
X86489480Y-43056920D02*
X88139480Y-43056920D01*
X89881480Y-43056920D02*
X90640480Y-43056920D01*
X92381480Y-43056920D02*
X93140480Y-43056920D01*
X94880480Y-43056920D02*
X96530480Y-43056920D01*
X86489480Y-30816920D02*
X96530480Y-30816920D01*
G04 #@! TO.C,D3*
X100550480Y-44916920D02*
X100394480Y-44916920D01*
X102866480Y-44916920D02*
X102710480Y-44916920D01*
X100550643Y-47518050D02*
G75*
G02X100550480Y-45435959I1079837J1041130D01*
G01*
X102710317Y-47518050D02*
G75*
G03X102710480Y-45435959I-1079837J1041130D01*
G01*
X100551872Y-48149255D02*
G75*
G02X100394964Y-44916920I1078608J1672335D01*
G01*
X102709088Y-48149255D02*
G75*
G03X102865996Y-44916920I-1078608J1672335D01*
G01*
G04 #@! TO.C,D4*
X100550480Y-65236920D02*
X100394480Y-65236920D01*
X102866480Y-65236920D02*
X102710480Y-65236920D01*
X100550643Y-67838050D02*
G75*
G02X100550480Y-65755959I1079837J1041130D01*
G01*
X102710317Y-67838050D02*
G75*
G03X102710480Y-65755959I-1079837J1041130D01*
G01*
X100551872Y-68469255D02*
G75*
G02X100394964Y-65236920I1078608J1672335D01*
G01*
X102709088Y-68469255D02*
G75*
G03X102865996Y-65236920I-1078608J1672335D01*
G01*
D11*
G04 #@! TO.C,J5*
X113590480Y-107436920D02*
G75*
G03X113590480Y-107436920I-1800000J0D01*
G01*
X114797139Y-107436920D02*
G75*
G03X114797139Y-107436920I-3006659J0D01*
G01*
X107290480Y-101436920D02*
X107290480Y-111936920D01*
X116290480Y-101436920D02*
X107290480Y-101436920D01*
X116290480Y-111936920D02*
X116290480Y-101436920D01*
X107290480Y-111936920D02*
X116290480Y-111936920D01*
X111790480Y-105636920D02*
X111790480Y-109236920D01*
X113590480Y-107436920D02*
X109990480Y-107436920D01*
G04 #@! TO.C,J4*
X113590480Y-92196920D02*
G75*
G03X113590480Y-92196920I-1800000J0D01*
G01*
X114797139Y-92196920D02*
G75*
G03X114797139Y-92196920I-3006659J0D01*
G01*
X107290480Y-86196920D02*
X107290480Y-96696920D01*
X116290480Y-86196920D02*
X107290480Y-86196920D01*
X116290480Y-96696920D02*
X116290480Y-86196920D01*
X107290480Y-96696920D02*
X116290480Y-96696920D01*
X111790480Y-90396920D02*
X111790480Y-93996920D01*
X113590480Y-92196920D02*
X109990480Y-92196920D01*
G04 #@! TO.C,J3*
X93270480Y-122676920D02*
G75*
G03X93270480Y-122676920I-1800000J0D01*
G01*
X94477139Y-122676920D02*
G75*
G03X94477139Y-122676920I-3006659J0D01*
G01*
X97470480Y-118176920D02*
X86970480Y-118176920D01*
X97470480Y-127176920D02*
X97470480Y-118176920D01*
X86970480Y-127176920D02*
X97470480Y-127176920D01*
X86970480Y-118176920D02*
X86970480Y-127176920D01*
X93270480Y-122676920D02*
X89670480Y-122676920D01*
X91470480Y-124476920D02*
X91470480Y-120876920D01*
G04 #@! TO.C,J1*
X93270480Y-92196920D02*
G75*
G03X93270480Y-92196920I-1800000J0D01*
G01*
X94477139Y-92196920D02*
G75*
G03X94477139Y-92196920I-3006659J0D01*
G01*
X86970480Y-86196920D02*
X86970480Y-96696920D01*
X95970480Y-86196920D02*
X86970480Y-86196920D01*
X95970480Y-96696920D02*
X95970480Y-86196920D01*
X86970480Y-96696920D02*
X95970480Y-96696920D01*
X91470480Y-90396920D02*
X91470480Y-93996920D01*
X93270480Y-92196920D02*
X89670480Y-92196920D01*
G04 #@! TO.C,J6*
X113590480Y-122676920D02*
G75*
G03X113590480Y-122676920I-1800000J0D01*
G01*
X114797139Y-122676920D02*
G75*
G03X114797139Y-122676920I-3006659J0D01*
G01*
X105790480Y-127176920D02*
X116290480Y-127176920D01*
X105790480Y-118176920D02*
X105790480Y-127176920D01*
X116290480Y-118176920D02*
X105790480Y-118176920D01*
X116290480Y-127176920D02*
X116290480Y-118176920D01*
X109990480Y-122676920D02*
X113590480Y-122676920D01*
X111790480Y-120876920D02*
X111790480Y-124476920D01*
G04 #@! TO.C,Q3*
X98202761Y-82589619D02*
X98107523Y-82542000D01*
X98012285Y-82446761D01*
X97869428Y-82303904D01*
X97774190Y-82256285D01*
X97678952Y-82256285D01*
X97726571Y-82494380D02*
X97631333Y-82446761D01*
X97536095Y-82351523D01*
X97488476Y-82161047D01*
X97488476Y-81827714D01*
X97536095Y-81637238D01*
X97631333Y-81542000D01*
X97726571Y-81494380D01*
X97917047Y-81494380D01*
X98012285Y-81542000D01*
X98107523Y-81637238D01*
X98155142Y-81827714D01*
X98155142Y-82161047D01*
X98107523Y-82351523D01*
X98012285Y-82446761D01*
X97917047Y-82494380D01*
X97726571Y-82494380D01*
X98488476Y-81494380D02*
X99107523Y-81494380D01*
X98774190Y-81875333D01*
X98917047Y-81875333D01*
X99012285Y-81922952D01*
X99059904Y-81970571D01*
X99107523Y-82065809D01*
X99107523Y-82303904D01*
X99059904Y-82399142D01*
X99012285Y-82446761D01*
X98917047Y-82494380D01*
X98631333Y-82494380D01*
X98536095Y-82446761D01*
X98488476Y-82399142D01*
G04 #@! TO.C,Q4*
X105060761Y-82589619D02*
X104965523Y-82542000D01*
X104870285Y-82446761D01*
X104727428Y-82303904D01*
X104632190Y-82256285D01*
X104536952Y-82256285D01*
X104584571Y-82494380D02*
X104489333Y-82446761D01*
X104394095Y-82351523D01*
X104346476Y-82161047D01*
X104346476Y-81827714D01*
X104394095Y-81637238D01*
X104489333Y-81542000D01*
X104584571Y-81494380D01*
X104775047Y-81494380D01*
X104870285Y-81542000D01*
X104965523Y-81637238D01*
X105013142Y-81827714D01*
X105013142Y-82161047D01*
X104965523Y-82351523D01*
X104870285Y-82446761D01*
X104775047Y-82494380D01*
X104584571Y-82494380D01*
X105870285Y-81827714D02*
X105870285Y-82494380D01*
X105632190Y-81446761D02*
X105394095Y-82161047D01*
X106013142Y-82161047D01*
G04 #@! TO.C,Q1*
X84740761Y-82589619D02*
X84645523Y-82542000D01*
X84550285Y-82446761D01*
X84407428Y-82303904D01*
X84312190Y-82256285D01*
X84216952Y-82256285D01*
X84264571Y-82494380D02*
X84169333Y-82446761D01*
X84074095Y-82351523D01*
X84026476Y-82161047D01*
X84026476Y-81827714D01*
X84074095Y-81637238D01*
X84169333Y-81542000D01*
X84264571Y-81494380D01*
X84455047Y-81494380D01*
X84550285Y-81542000D01*
X84645523Y-81637238D01*
X84693142Y-81827714D01*
X84693142Y-82161047D01*
X84645523Y-82351523D01*
X84550285Y-82446761D01*
X84455047Y-82494380D01*
X84264571Y-82494380D01*
X85645523Y-82494380D02*
X85074095Y-82494380D01*
X85359809Y-82494380D02*
X85359809Y-81494380D01*
X85264571Y-81637238D01*
X85169333Y-81732476D01*
X85074095Y-81780095D01*
G04 #@! TO.C,Q2*
X118014761Y-82589619D02*
X117919523Y-82542000D01*
X117824285Y-82446761D01*
X117681428Y-82303904D01*
X117586190Y-82256285D01*
X117490952Y-82256285D01*
X117538571Y-82494380D02*
X117443333Y-82446761D01*
X117348095Y-82351523D01*
X117300476Y-82161047D01*
X117300476Y-81827714D01*
X117348095Y-81637238D01*
X117443333Y-81542000D01*
X117538571Y-81494380D01*
X117729047Y-81494380D01*
X117824285Y-81542000D01*
X117919523Y-81637238D01*
X117967142Y-81827714D01*
X117967142Y-82161047D01*
X117919523Y-82351523D01*
X117824285Y-82446761D01*
X117729047Y-82494380D01*
X117538571Y-82494380D01*
X118348095Y-81589619D02*
X118395714Y-81542000D01*
X118490952Y-81494380D01*
X118729047Y-81494380D01*
X118824285Y-81542000D01*
X118871904Y-81589619D01*
X118919523Y-81684857D01*
X118919523Y-81780095D01*
X118871904Y-81922952D01*
X118300476Y-82494380D01*
X118919523Y-82494380D01*
G04 #@! TO.C,J2*
X91137146Y-99989300D02*
X91137146Y-100703586D01*
X91089527Y-100846443D01*
X90994289Y-100941681D01*
X90851432Y-100989300D01*
X90756194Y-100989300D01*
X91565718Y-100084539D02*
X91613337Y-100036920D01*
X91708575Y-99989300D01*
X91946670Y-99989300D01*
X92041908Y-100036920D01*
X92089527Y-100084539D01*
X92137146Y-100179777D01*
X92137146Y-100275015D01*
X92089527Y-100417872D01*
X91518099Y-100989300D01*
X92137146Y-100989300D01*
G04 #@! TO.C,RV8*
X111195241Y-53279300D02*
X110861908Y-52803110D01*
X110623813Y-53279300D02*
X110623813Y-52279300D01*
X111004765Y-52279300D01*
X111100003Y-52326920D01*
X111147622Y-52374539D01*
X111195241Y-52469777D01*
X111195241Y-52612634D01*
X111147622Y-52707872D01*
X111100003Y-52755491D01*
X111004765Y-52803110D01*
X110623813Y-52803110D01*
X111480956Y-52279300D02*
X111814289Y-53279300D01*
X112147622Y-52279300D01*
X112623813Y-52707872D02*
X112528575Y-52660253D01*
X112480956Y-52612634D01*
X112433337Y-52517396D01*
X112433337Y-52469777D01*
X112480956Y-52374539D01*
X112528575Y-52326920D01*
X112623813Y-52279300D01*
X112814289Y-52279300D01*
X112909527Y-52326920D01*
X112957146Y-52374539D01*
X113004765Y-52469777D01*
X113004765Y-52517396D01*
X112957146Y-52612634D01*
X112909527Y-52660253D01*
X112814289Y-52707872D01*
X112623813Y-52707872D01*
X112528575Y-52755491D01*
X112480956Y-52803110D01*
X112433337Y-52898348D01*
X112433337Y-53088824D01*
X112480956Y-53184062D01*
X112528575Y-53231681D01*
X112623813Y-53279300D01*
X112814289Y-53279300D01*
X112909527Y-53231681D01*
X112957146Y-53184062D01*
X113004765Y-53088824D01*
X113004765Y-52898348D01*
X112957146Y-52803110D01*
X112909527Y-52755491D01*
X112814289Y-52707872D01*
G04 #@! TO.C,RV7*
X90875241Y-53279300D02*
X90541908Y-52803110D01*
X90303813Y-53279300D02*
X90303813Y-52279300D01*
X90684765Y-52279300D01*
X90780003Y-52326920D01*
X90827622Y-52374539D01*
X90875241Y-52469777D01*
X90875241Y-52612634D01*
X90827622Y-52707872D01*
X90780003Y-52755491D01*
X90684765Y-52803110D01*
X90303813Y-52803110D01*
X91160956Y-52279300D02*
X91494289Y-53279300D01*
X91827622Y-52279300D01*
X92065718Y-52279300D02*
X92732384Y-52279300D01*
X92303813Y-53279300D01*
G04 #@! TO.C,RV2*
X111195241Y-32959300D02*
X110861908Y-32483110D01*
X110623813Y-32959300D02*
X110623813Y-31959300D01*
X111004765Y-31959300D01*
X111100003Y-32006920D01*
X111147622Y-32054539D01*
X111195241Y-32149777D01*
X111195241Y-32292634D01*
X111147622Y-32387872D01*
X111100003Y-32435491D01*
X111004765Y-32483110D01*
X110623813Y-32483110D01*
X111480956Y-31959300D02*
X111814289Y-32959300D01*
X112147622Y-31959300D01*
X112433337Y-32054539D02*
X112480956Y-32006920D01*
X112576194Y-31959300D01*
X112814289Y-31959300D01*
X112909527Y-32006920D01*
X112957146Y-32054539D01*
X113004765Y-32149777D01*
X113004765Y-32245015D01*
X112957146Y-32387872D01*
X112385718Y-32959300D01*
X113004765Y-32959300D01*
G04 #@! TO.C,RV1*
X90875241Y-32959300D02*
X90541908Y-32483110D01*
X90303813Y-32959300D02*
X90303813Y-31959300D01*
X90684765Y-31959300D01*
X90780003Y-32006920D01*
X90827622Y-32054539D01*
X90875241Y-32149777D01*
X90875241Y-32292634D01*
X90827622Y-32387872D01*
X90780003Y-32435491D01*
X90684765Y-32483110D01*
X90303813Y-32483110D01*
X91160956Y-31959300D02*
X91494289Y-32959300D01*
X91827622Y-31959300D01*
X92684765Y-32959300D02*
X92113337Y-32959300D01*
X92399051Y-32959300D02*
X92399051Y-31959300D01*
X92303813Y-32102158D01*
X92208575Y-32197396D01*
X92113337Y-32245015D01*
G04 #@! TO.C,D3*
X100861904Y-50998380D02*
X100861904Y-49998380D01*
X101100000Y-49998380D01*
X101242857Y-50046000D01*
X101338095Y-50141238D01*
X101385714Y-50236476D01*
X101433333Y-50426952D01*
X101433333Y-50569809D01*
X101385714Y-50760285D01*
X101338095Y-50855523D01*
X101242857Y-50950761D01*
X101100000Y-50998380D01*
X100861904Y-50998380D01*
X101766666Y-49998380D02*
X102385714Y-49998380D01*
X102052380Y-50379333D01*
X102195238Y-50379333D01*
X102290476Y-50426952D01*
X102338095Y-50474571D01*
X102385714Y-50569809D01*
X102385714Y-50807904D01*
X102338095Y-50903142D01*
X102290476Y-50950761D01*
X102195238Y-50998380D01*
X101909523Y-50998380D01*
X101814285Y-50950761D01*
X101766666Y-50903142D01*
G04 #@! TO.C,D4*
X100861904Y-71064380D02*
X100861904Y-70064380D01*
X101100000Y-70064380D01*
X101242857Y-70112000D01*
X101338095Y-70207238D01*
X101385714Y-70302476D01*
X101433333Y-70492952D01*
X101433333Y-70635809D01*
X101385714Y-70826285D01*
X101338095Y-70921523D01*
X101242857Y-71016761D01*
X101100000Y-71064380D01*
X100861904Y-71064380D01*
X102290476Y-70397714D02*
X102290476Y-71064380D01*
X102052380Y-70016761D02*
X101814285Y-70731047D01*
X102433333Y-70731047D01*
G04 #@! TO.C,J5*
X111457146Y-99989300D02*
X111457146Y-100703586D01*
X111409527Y-100846443D01*
X111314289Y-100941681D01*
X111171432Y-100989300D01*
X111076194Y-100989300D01*
X112409527Y-99989300D02*
X111933337Y-99989300D01*
X111885718Y-100465491D01*
X111933337Y-100417872D01*
X112028575Y-100370253D01*
X112266670Y-100370253D01*
X112361908Y-100417872D01*
X112409527Y-100465491D01*
X112457146Y-100560729D01*
X112457146Y-100798824D01*
X112409527Y-100894062D01*
X112361908Y-100941681D01*
X112266670Y-100989300D01*
X112028575Y-100989300D01*
X111933337Y-100941681D01*
X111885718Y-100894062D01*
G04 #@! TO.C,J4*
X111457146Y-84749300D02*
X111457146Y-85463586D01*
X111409527Y-85606443D01*
X111314289Y-85701681D01*
X111171432Y-85749300D01*
X111076194Y-85749300D01*
X112361908Y-85082634D02*
X112361908Y-85749300D01*
X112123813Y-84701681D02*
X111885718Y-85415967D01*
X112504765Y-85415967D01*
G04 #@! TO.C,J3*
X91106666Y-116546380D02*
X91106666Y-117260666D01*
X91059047Y-117403523D01*
X90963809Y-117498761D01*
X90820952Y-117546380D01*
X90725714Y-117546380D01*
X91487619Y-116546380D02*
X92106666Y-116546380D01*
X91773333Y-116927333D01*
X91916190Y-116927333D01*
X92011428Y-116974952D01*
X92059047Y-117022571D01*
X92106666Y-117117809D01*
X92106666Y-117355904D01*
X92059047Y-117451142D01*
X92011428Y-117498761D01*
X91916190Y-117546380D01*
X91630476Y-117546380D01*
X91535238Y-117498761D01*
X91487619Y-117451142D01*
G04 #@! TO.C,J1*
X91137146Y-84749300D02*
X91137146Y-85463586D01*
X91089527Y-85606443D01*
X90994289Y-85701681D01*
X90851432Y-85749300D01*
X90756194Y-85749300D01*
X92137146Y-85749300D02*
X91565718Y-85749300D01*
X91851432Y-85749300D02*
X91851432Y-84749300D01*
X91756194Y-84892158D01*
X91660956Y-84987396D01*
X91565718Y-85035015D01*
G04 #@! TO.C,J6*
X111426666Y-116546380D02*
X111426666Y-117260666D01*
X111379047Y-117403523D01*
X111283809Y-117498761D01*
X111140952Y-117546380D01*
X111045714Y-117546380D01*
X112331428Y-116546380D02*
X112140952Y-116546380D01*
X112045714Y-116594000D01*
X111998095Y-116641619D01*
X111902857Y-116784476D01*
X111855238Y-116974952D01*
X111855238Y-117355904D01*
X111902857Y-117451142D01*
X111950476Y-117498761D01*
X112045714Y-117546380D01*
X112236190Y-117546380D01*
X112331428Y-117498761D01*
X112379047Y-117451142D01*
X112426666Y-117355904D01*
X112426666Y-117117809D01*
X112379047Y-117022571D01*
X112331428Y-116974952D01*
X112236190Y-116927333D01*
X112045714Y-116927333D01*
X111950476Y-116974952D01*
X111902857Y-117022571D01*
X111855238Y-117117809D01*
G04 #@! TO.C,SW2*
X110426666Y-79906761D02*
X110569523Y-79954380D01*
X110807619Y-79954380D01*
X110902857Y-79906761D01*
X110950476Y-79859142D01*
X110998095Y-79763904D01*
X110998095Y-79668666D01*
X110950476Y-79573428D01*
X110902857Y-79525809D01*
X110807619Y-79478190D01*
X110617142Y-79430571D01*
X110521904Y-79382952D01*
X110474285Y-79335333D01*
X110426666Y-79240095D01*
X110426666Y-79144857D01*
X110474285Y-79049619D01*
X110521904Y-79002000D01*
X110617142Y-78954380D01*
X110855238Y-78954380D01*
X110998095Y-79002000D01*
X111331428Y-78954380D02*
X111569523Y-79954380D01*
X111760000Y-79240095D01*
X111950476Y-79954380D01*
X112188571Y-78954380D01*
X112521904Y-79049619D02*
X112569523Y-79002000D01*
X112664761Y-78954380D01*
X112902857Y-78954380D01*
X112998095Y-79002000D01*
X113045714Y-79049619D01*
X113093333Y-79144857D01*
X113093333Y-79240095D01*
X113045714Y-79382952D01*
X112474285Y-79954380D01*
X113093333Y-79954380D01*
G04 #@! TO.C,SW1*
X90106666Y-79906761D02*
X90249523Y-79954380D01*
X90487619Y-79954380D01*
X90582857Y-79906761D01*
X90630476Y-79859142D01*
X90678095Y-79763904D01*
X90678095Y-79668666D01*
X90630476Y-79573428D01*
X90582857Y-79525809D01*
X90487619Y-79478190D01*
X90297142Y-79430571D01*
X90201904Y-79382952D01*
X90154285Y-79335333D01*
X90106666Y-79240095D01*
X90106666Y-79144857D01*
X90154285Y-79049619D01*
X90201904Y-79002000D01*
X90297142Y-78954380D01*
X90535238Y-78954380D01*
X90678095Y-79002000D01*
X91011428Y-78954380D02*
X91249523Y-79954380D01*
X91440000Y-79240095D01*
X91630476Y-79954380D01*
X91868571Y-78954380D01*
X92773333Y-79954380D02*
X92201904Y-79954380D01*
X92487619Y-79954380D02*
X92487619Y-78954380D01*
X92392380Y-79097238D01*
X92297142Y-79192476D01*
X92201904Y-79240095D01*
G04 #@! TD*
M02*
