G04 #@! TF.GenerationSoftware,KiCad,Pcbnew,(5.0.0)*
G04 #@! TF.CreationDate,2018-08-12T22:18:08+08:00*
G04 #@! TF.ProjectId,VCA,5643412E6B696361645F706362000000,rev?*
G04 #@! TF.SameCoordinates,PX18392c0PY18392c0*
G04 #@! TF.FileFunction,Soldermask,Bot*
G04 #@! TF.FilePolarity,Negative*
%FSLAX46Y46*%
G04 Gerber Fmt 4.6, Leading zero omitted, Abs format (unit mm)*
G04 Created by KiCad (PCBNEW (5.0.0)) date 08/12/18 22:18:08*
%MOMM*%
%LPD*%
G01*
G04 APERTURE LIST*
%ADD10R,1.900000X1.450000*%
%ADD11R,1.900000X2.800000*%
%ADD12R,1.900000X1.900000*%
%ADD13C,1.900000*%
%ADD14O,3.000000X1.900000*%
%ADD15O,2.800000X2.000000*%
%ADD16O,3.000000X2.000000*%
%ADD17C,0.100000*%
%ADD18C,1.375000*%
%ADD19O,3.400000X2.600000*%
%ADD20C,2.200000*%
%ADD21R,2.000000X3.000000*%
%ADD22C,2.000000*%
%ADD23O,2.100000X2.100000*%
%ADD24R,2.100000X2.100000*%
%ADD25R,1.500000X1.500000*%
%ADD26R,2.200000X2.200000*%
%ADD27O,1.900000X3.000000*%
%ADD28O,2.000000X2.800000*%
%ADD29O,2.000000X3.000000*%
%ADD30O,3.956000X2.432000*%
%ADD31R,1.900000X1.000000*%
%ADD32C,1.840000*%
G04 APERTURE END LIST*
D10*
G04 #@! TO.C,D7*
X106426000Y-42927000D03*
D11*
X106426000Y-40552000D03*
G04 #@! TD*
D12*
G04 #@! TO.C,Q3*
X98298000Y-74422000D03*
D13*
X98298000Y-79502000D03*
X98298000Y-76962000D03*
G04 #@! TD*
G04 #@! TO.C,Q4*
X105156000Y-76962000D03*
X105156000Y-79502000D03*
D12*
X105156000Y-74422000D03*
G04 #@! TD*
G04 #@! TO.C,Q1*
X84836000Y-74422000D03*
D13*
X84836000Y-79502000D03*
X84836000Y-76962000D03*
G04 #@! TD*
G04 #@! TO.C,Q2*
X118110000Y-76962000D03*
X118110000Y-79502000D03*
D12*
X118110000Y-74422000D03*
G04 #@! TD*
D14*
G04 #@! TO.C,J2*
X91470480Y-102516920D03*
D15*
X91470480Y-113916920D03*
D16*
X91470480Y-110816920D03*
G04 #@! TD*
D17*
G04 #@! TO.C,R28*
G36*
X108570423Y-102003575D02*
X108603792Y-102008525D01*
X108636515Y-102016722D01*
X108668277Y-102028086D01*
X108698773Y-102042510D01*
X108727707Y-102059852D01*
X108754803Y-102079948D01*
X108779798Y-102102602D01*
X108802452Y-102127597D01*
X108822548Y-102154693D01*
X108839890Y-102183627D01*
X108854314Y-102214123D01*
X108865678Y-102245885D01*
X108873875Y-102278608D01*
X108878825Y-102311977D01*
X108880480Y-102345670D01*
X108880480Y-103033170D01*
X108878825Y-103066863D01*
X108873875Y-103100232D01*
X108865678Y-103132955D01*
X108854314Y-103164717D01*
X108839890Y-103195213D01*
X108822548Y-103224147D01*
X108802452Y-103251243D01*
X108779798Y-103276238D01*
X108754803Y-103298892D01*
X108727707Y-103318988D01*
X108698773Y-103336330D01*
X108668277Y-103350754D01*
X108636515Y-103362118D01*
X108603792Y-103370315D01*
X108570423Y-103375265D01*
X108536730Y-103376920D01*
X107424230Y-103376920D01*
X107390537Y-103375265D01*
X107357168Y-103370315D01*
X107324445Y-103362118D01*
X107292683Y-103350754D01*
X107262187Y-103336330D01*
X107233253Y-103318988D01*
X107206157Y-103298892D01*
X107181162Y-103276238D01*
X107158508Y-103251243D01*
X107138412Y-103224147D01*
X107121070Y-103195213D01*
X107106646Y-103164717D01*
X107095282Y-103132955D01*
X107087085Y-103100232D01*
X107082135Y-103066863D01*
X107080480Y-103033170D01*
X107080480Y-102345670D01*
X107082135Y-102311977D01*
X107087085Y-102278608D01*
X107095282Y-102245885D01*
X107106646Y-102214123D01*
X107121070Y-102183627D01*
X107138412Y-102154693D01*
X107158508Y-102127597D01*
X107181162Y-102102602D01*
X107206157Y-102079948D01*
X107233253Y-102059852D01*
X107262187Y-102042510D01*
X107292683Y-102028086D01*
X107324445Y-102016722D01*
X107357168Y-102008525D01*
X107390537Y-102003575D01*
X107424230Y-102001920D01*
X108536730Y-102001920D01*
X108570423Y-102003575D01*
X108570423Y-102003575D01*
G37*
D18*
X107980480Y-102689420D03*
D17*
G36*
X108570423Y-103878575D02*
X108603792Y-103883525D01*
X108636515Y-103891722D01*
X108668277Y-103903086D01*
X108698773Y-103917510D01*
X108727707Y-103934852D01*
X108754803Y-103954948D01*
X108779798Y-103977602D01*
X108802452Y-104002597D01*
X108822548Y-104029693D01*
X108839890Y-104058627D01*
X108854314Y-104089123D01*
X108865678Y-104120885D01*
X108873875Y-104153608D01*
X108878825Y-104186977D01*
X108880480Y-104220670D01*
X108880480Y-104908170D01*
X108878825Y-104941863D01*
X108873875Y-104975232D01*
X108865678Y-105007955D01*
X108854314Y-105039717D01*
X108839890Y-105070213D01*
X108822548Y-105099147D01*
X108802452Y-105126243D01*
X108779798Y-105151238D01*
X108754803Y-105173892D01*
X108727707Y-105193988D01*
X108698773Y-105211330D01*
X108668277Y-105225754D01*
X108636515Y-105237118D01*
X108603792Y-105245315D01*
X108570423Y-105250265D01*
X108536730Y-105251920D01*
X107424230Y-105251920D01*
X107390537Y-105250265D01*
X107357168Y-105245315D01*
X107324445Y-105237118D01*
X107292683Y-105225754D01*
X107262187Y-105211330D01*
X107233253Y-105193988D01*
X107206157Y-105173892D01*
X107181162Y-105151238D01*
X107158508Y-105126243D01*
X107138412Y-105099147D01*
X107121070Y-105070213D01*
X107106646Y-105039717D01*
X107095282Y-105007955D01*
X107087085Y-104975232D01*
X107082135Y-104941863D01*
X107080480Y-104908170D01*
X107080480Y-104220670D01*
X107082135Y-104186977D01*
X107087085Y-104153608D01*
X107095282Y-104120885D01*
X107106646Y-104089123D01*
X107121070Y-104058627D01*
X107138412Y-104029693D01*
X107158508Y-104002597D01*
X107181162Y-103977602D01*
X107206157Y-103954948D01*
X107233253Y-103934852D01*
X107262187Y-103917510D01*
X107292683Y-103903086D01*
X107324445Y-103891722D01*
X107357168Y-103883525D01*
X107390537Y-103878575D01*
X107424230Y-103876920D01*
X108536730Y-103876920D01*
X108570423Y-103878575D01*
X108570423Y-103878575D01*
G37*
D18*
X107980480Y-104564420D03*
G04 #@! TD*
D19*
G04 #@! TO.C,RV8*
X116590480Y-56636920D03*
D20*
X109290480Y-64136930D03*
X111830480Y-64136930D03*
X114290480Y-64136930D03*
D19*
X106990480Y-56636920D03*
G04 #@! TD*
G04 #@! TO.C,RV7*
X96270480Y-56636920D03*
D20*
X88970480Y-64136930D03*
X91510480Y-64136930D03*
X93970480Y-64136930D03*
D19*
X86670480Y-56636920D03*
G04 #@! TD*
G04 #@! TO.C,RV2*
X116590480Y-36316920D03*
D20*
X109290480Y-43816930D03*
X111830480Y-43816930D03*
X114290480Y-43816930D03*
D19*
X106990480Y-36316920D03*
G04 #@! TD*
G04 #@! TO.C,RV1*
X96270480Y-36316920D03*
D20*
X88970480Y-43816930D03*
X91510480Y-43816930D03*
X93970480Y-43816930D03*
D19*
X86670480Y-36316920D03*
G04 #@! TD*
D21*
G04 #@! TO.C,C10*
X111760000Y-38122000D03*
X111760000Y-34522000D03*
G04 #@! TD*
G04 #@! TO.C,C9*
X91440000Y-38122000D03*
X91440000Y-34522000D03*
G04 #@! TD*
D17*
G04 #@! TO.C,C1*
G36*
X88250423Y-84828575D02*
X88283792Y-84833525D01*
X88316515Y-84841722D01*
X88348277Y-84853086D01*
X88378773Y-84867510D01*
X88407707Y-84884852D01*
X88434803Y-84904948D01*
X88459798Y-84927602D01*
X88482452Y-84952597D01*
X88502548Y-84979693D01*
X88519890Y-85008627D01*
X88534314Y-85039123D01*
X88545678Y-85070885D01*
X88553875Y-85103608D01*
X88558825Y-85136977D01*
X88560480Y-85170670D01*
X88560480Y-85858170D01*
X88558825Y-85891863D01*
X88553875Y-85925232D01*
X88545678Y-85957955D01*
X88534314Y-85989717D01*
X88519890Y-86020213D01*
X88502548Y-86049147D01*
X88482452Y-86076243D01*
X88459798Y-86101238D01*
X88434803Y-86123892D01*
X88407707Y-86143988D01*
X88378773Y-86161330D01*
X88348277Y-86175754D01*
X88316515Y-86187118D01*
X88283792Y-86195315D01*
X88250423Y-86200265D01*
X88216730Y-86201920D01*
X87104230Y-86201920D01*
X87070537Y-86200265D01*
X87037168Y-86195315D01*
X87004445Y-86187118D01*
X86972683Y-86175754D01*
X86942187Y-86161330D01*
X86913253Y-86143988D01*
X86886157Y-86123892D01*
X86861162Y-86101238D01*
X86838508Y-86076243D01*
X86818412Y-86049147D01*
X86801070Y-86020213D01*
X86786646Y-85989717D01*
X86775282Y-85957955D01*
X86767085Y-85925232D01*
X86762135Y-85891863D01*
X86760480Y-85858170D01*
X86760480Y-85170670D01*
X86762135Y-85136977D01*
X86767085Y-85103608D01*
X86775282Y-85070885D01*
X86786646Y-85039123D01*
X86801070Y-85008627D01*
X86818412Y-84979693D01*
X86838508Y-84952597D01*
X86861162Y-84927602D01*
X86886157Y-84904948D01*
X86913253Y-84884852D01*
X86942187Y-84867510D01*
X86972683Y-84853086D01*
X87004445Y-84841722D01*
X87037168Y-84833525D01*
X87070537Y-84828575D01*
X87104230Y-84826920D01*
X88216730Y-84826920D01*
X88250423Y-84828575D01*
X88250423Y-84828575D01*
G37*
D18*
X87660480Y-85514420D03*
D17*
G36*
X88250423Y-82953575D02*
X88283792Y-82958525D01*
X88316515Y-82966722D01*
X88348277Y-82978086D01*
X88378773Y-82992510D01*
X88407707Y-83009852D01*
X88434803Y-83029948D01*
X88459798Y-83052602D01*
X88482452Y-83077597D01*
X88502548Y-83104693D01*
X88519890Y-83133627D01*
X88534314Y-83164123D01*
X88545678Y-83195885D01*
X88553875Y-83228608D01*
X88558825Y-83261977D01*
X88560480Y-83295670D01*
X88560480Y-83983170D01*
X88558825Y-84016863D01*
X88553875Y-84050232D01*
X88545678Y-84082955D01*
X88534314Y-84114717D01*
X88519890Y-84145213D01*
X88502548Y-84174147D01*
X88482452Y-84201243D01*
X88459798Y-84226238D01*
X88434803Y-84248892D01*
X88407707Y-84268988D01*
X88378773Y-84286330D01*
X88348277Y-84300754D01*
X88316515Y-84312118D01*
X88283792Y-84320315D01*
X88250423Y-84325265D01*
X88216730Y-84326920D01*
X87104230Y-84326920D01*
X87070537Y-84325265D01*
X87037168Y-84320315D01*
X87004445Y-84312118D01*
X86972683Y-84300754D01*
X86942187Y-84286330D01*
X86913253Y-84268988D01*
X86886157Y-84248892D01*
X86861162Y-84226238D01*
X86838508Y-84201243D01*
X86818412Y-84174147D01*
X86801070Y-84145213D01*
X86786646Y-84114717D01*
X86775282Y-84082955D01*
X86767085Y-84050232D01*
X86762135Y-84016863D01*
X86760480Y-83983170D01*
X86760480Y-83295670D01*
X86762135Y-83261977D01*
X86767085Y-83228608D01*
X86775282Y-83195885D01*
X86786646Y-83164123D01*
X86801070Y-83133627D01*
X86818412Y-83104693D01*
X86838508Y-83077597D01*
X86861162Y-83052602D01*
X86886157Y-83029948D01*
X86913253Y-83009852D01*
X86942187Y-82992510D01*
X86972683Y-82978086D01*
X87004445Y-82966722D01*
X87037168Y-82958525D01*
X87070537Y-82953575D01*
X87104230Y-82951920D01*
X88216730Y-82951920D01*
X88250423Y-82953575D01*
X88250423Y-82953575D01*
G37*
D18*
X87660480Y-83639420D03*
G04 #@! TD*
D17*
G04 #@! TO.C,C2*
G36*
X116190423Y-84828575D02*
X116223792Y-84833525D01*
X116256515Y-84841722D01*
X116288277Y-84853086D01*
X116318773Y-84867510D01*
X116347707Y-84884852D01*
X116374803Y-84904948D01*
X116399798Y-84927602D01*
X116422452Y-84952597D01*
X116442548Y-84979693D01*
X116459890Y-85008627D01*
X116474314Y-85039123D01*
X116485678Y-85070885D01*
X116493875Y-85103608D01*
X116498825Y-85136977D01*
X116500480Y-85170670D01*
X116500480Y-85858170D01*
X116498825Y-85891863D01*
X116493875Y-85925232D01*
X116485678Y-85957955D01*
X116474314Y-85989717D01*
X116459890Y-86020213D01*
X116442548Y-86049147D01*
X116422452Y-86076243D01*
X116399798Y-86101238D01*
X116374803Y-86123892D01*
X116347707Y-86143988D01*
X116318773Y-86161330D01*
X116288277Y-86175754D01*
X116256515Y-86187118D01*
X116223792Y-86195315D01*
X116190423Y-86200265D01*
X116156730Y-86201920D01*
X115044230Y-86201920D01*
X115010537Y-86200265D01*
X114977168Y-86195315D01*
X114944445Y-86187118D01*
X114912683Y-86175754D01*
X114882187Y-86161330D01*
X114853253Y-86143988D01*
X114826157Y-86123892D01*
X114801162Y-86101238D01*
X114778508Y-86076243D01*
X114758412Y-86049147D01*
X114741070Y-86020213D01*
X114726646Y-85989717D01*
X114715282Y-85957955D01*
X114707085Y-85925232D01*
X114702135Y-85891863D01*
X114700480Y-85858170D01*
X114700480Y-85170670D01*
X114702135Y-85136977D01*
X114707085Y-85103608D01*
X114715282Y-85070885D01*
X114726646Y-85039123D01*
X114741070Y-85008627D01*
X114758412Y-84979693D01*
X114778508Y-84952597D01*
X114801162Y-84927602D01*
X114826157Y-84904948D01*
X114853253Y-84884852D01*
X114882187Y-84867510D01*
X114912683Y-84853086D01*
X114944445Y-84841722D01*
X114977168Y-84833525D01*
X115010537Y-84828575D01*
X115044230Y-84826920D01*
X116156730Y-84826920D01*
X116190423Y-84828575D01*
X116190423Y-84828575D01*
G37*
D18*
X115600480Y-85514420D03*
D17*
G36*
X116190423Y-82953575D02*
X116223792Y-82958525D01*
X116256515Y-82966722D01*
X116288277Y-82978086D01*
X116318773Y-82992510D01*
X116347707Y-83009852D01*
X116374803Y-83029948D01*
X116399798Y-83052602D01*
X116422452Y-83077597D01*
X116442548Y-83104693D01*
X116459890Y-83133627D01*
X116474314Y-83164123D01*
X116485678Y-83195885D01*
X116493875Y-83228608D01*
X116498825Y-83261977D01*
X116500480Y-83295670D01*
X116500480Y-83983170D01*
X116498825Y-84016863D01*
X116493875Y-84050232D01*
X116485678Y-84082955D01*
X116474314Y-84114717D01*
X116459890Y-84145213D01*
X116442548Y-84174147D01*
X116422452Y-84201243D01*
X116399798Y-84226238D01*
X116374803Y-84248892D01*
X116347707Y-84268988D01*
X116318773Y-84286330D01*
X116288277Y-84300754D01*
X116256515Y-84312118D01*
X116223792Y-84320315D01*
X116190423Y-84325265D01*
X116156730Y-84326920D01*
X115044230Y-84326920D01*
X115010537Y-84325265D01*
X114977168Y-84320315D01*
X114944445Y-84312118D01*
X114912683Y-84300754D01*
X114882187Y-84286330D01*
X114853253Y-84268988D01*
X114826157Y-84248892D01*
X114801162Y-84226238D01*
X114778508Y-84201243D01*
X114758412Y-84174147D01*
X114741070Y-84145213D01*
X114726646Y-84114717D01*
X114715282Y-84082955D01*
X114707085Y-84050232D01*
X114702135Y-84016863D01*
X114700480Y-83983170D01*
X114700480Y-83295670D01*
X114702135Y-83261977D01*
X114707085Y-83228608D01*
X114715282Y-83195885D01*
X114726646Y-83164123D01*
X114741070Y-83133627D01*
X114758412Y-83104693D01*
X114778508Y-83077597D01*
X114801162Y-83052602D01*
X114826157Y-83029948D01*
X114853253Y-83009852D01*
X114882187Y-82992510D01*
X114912683Y-82978086D01*
X114944445Y-82966722D01*
X114977168Y-82958525D01*
X115010537Y-82953575D01*
X115044230Y-82951920D01*
X116156730Y-82951920D01*
X116190423Y-82953575D01*
X116190423Y-82953575D01*
G37*
D18*
X115600480Y-83639420D03*
G04 #@! TD*
D17*
G04 #@! TO.C,C3*
G36*
X92060423Y-90573575D02*
X92093792Y-90578525D01*
X92126515Y-90586722D01*
X92158277Y-90598086D01*
X92188773Y-90612510D01*
X92217707Y-90629852D01*
X92244803Y-90649948D01*
X92269798Y-90672602D01*
X92292452Y-90697597D01*
X92312548Y-90724693D01*
X92329890Y-90753627D01*
X92344314Y-90784123D01*
X92355678Y-90815885D01*
X92363875Y-90848608D01*
X92368825Y-90881977D01*
X92370480Y-90915670D01*
X92370480Y-91603170D01*
X92368825Y-91636863D01*
X92363875Y-91670232D01*
X92355678Y-91702955D01*
X92344314Y-91734717D01*
X92329890Y-91765213D01*
X92312548Y-91794147D01*
X92292452Y-91821243D01*
X92269798Y-91846238D01*
X92244803Y-91868892D01*
X92217707Y-91888988D01*
X92188773Y-91906330D01*
X92158277Y-91920754D01*
X92126515Y-91932118D01*
X92093792Y-91940315D01*
X92060423Y-91945265D01*
X92026730Y-91946920D01*
X90914230Y-91946920D01*
X90880537Y-91945265D01*
X90847168Y-91940315D01*
X90814445Y-91932118D01*
X90782683Y-91920754D01*
X90752187Y-91906330D01*
X90723253Y-91888988D01*
X90696157Y-91868892D01*
X90671162Y-91846238D01*
X90648508Y-91821243D01*
X90628412Y-91794147D01*
X90611070Y-91765213D01*
X90596646Y-91734717D01*
X90585282Y-91702955D01*
X90577085Y-91670232D01*
X90572135Y-91636863D01*
X90570480Y-91603170D01*
X90570480Y-90915670D01*
X90572135Y-90881977D01*
X90577085Y-90848608D01*
X90585282Y-90815885D01*
X90596646Y-90784123D01*
X90611070Y-90753627D01*
X90628412Y-90724693D01*
X90648508Y-90697597D01*
X90671162Y-90672602D01*
X90696157Y-90649948D01*
X90723253Y-90629852D01*
X90752187Y-90612510D01*
X90782683Y-90598086D01*
X90814445Y-90586722D01*
X90847168Y-90578525D01*
X90880537Y-90573575D01*
X90914230Y-90571920D01*
X92026730Y-90571920D01*
X92060423Y-90573575D01*
X92060423Y-90573575D01*
G37*
D18*
X91470480Y-91259420D03*
D17*
G36*
X92060423Y-92448575D02*
X92093792Y-92453525D01*
X92126515Y-92461722D01*
X92158277Y-92473086D01*
X92188773Y-92487510D01*
X92217707Y-92504852D01*
X92244803Y-92524948D01*
X92269798Y-92547602D01*
X92292452Y-92572597D01*
X92312548Y-92599693D01*
X92329890Y-92628627D01*
X92344314Y-92659123D01*
X92355678Y-92690885D01*
X92363875Y-92723608D01*
X92368825Y-92756977D01*
X92370480Y-92790670D01*
X92370480Y-93478170D01*
X92368825Y-93511863D01*
X92363875Y-93545232D01*
X92355678Y-93577955D01*
X92344314Y-93609717D01*
X92329890Y-93640213D01*
X92312548Y-93669147D01*
X92292452Y-93696243D01*
X92269798Y-93721238D01*
X92244803Y-93743892D01*
X92217707Y-93763988D01*
X92188773Y-93781330D01*
X92158277Y-93795754D01*
X92126515Y-93807118D01*
X92093792Y-93815315D01*
X92060423Y-93820265D01*
X92026730Y-93821920D01*
X90914230Y-93821920D01*
X90880537Y-93820265D01*
X90847168Y-93815315D01*
X90814445Y-93807118D01*
X90782683Y-93795754D01*
X90752187Y-93781330D01*
X90723253Y-93763988D01*
X90696157Y-93743892D01*
X90671162Y-93721238D01*
X90648508Y-93696243D01*
X90628412Y-93669147D01*
X90611070Y-93640213D01*
X90596646Y-93609717D01*
X90585282Y-93577955D01*
X90577085Y-93545232D01*
X90572135Y-93511863D01*
X90570480Y-93478170D01*
X90570480Y-92790670D01*
X90572135Y-92756977D01*
X90577085Y-92723608D01*
X90585282Y-92690885D01*
X90596646Y-92659123D01*
X90611070Y-92628627D01*
X90628412Y-92599693D01*
X90648508Y-92572597D01*
X90671162Y-92547602D01*
X90696157Y-92524948D01*
X90723253Y-92504852D01*
X90752187Y-92487510D01*
X90782683Y-92473086D01*
X90814445Y-92461722D01*
X90847168Y-92453525D01*
X90880537Y-92448575D01*
X90914230Y-92446920D01*
X92026730Y-92446920D01*
X92060423Y-92448575D01*
X92060423Y-92448575D01*
G37*
D18*
X91470480Y-93134420D03*
G04 #@! TD*
D17*
G04 #@! TO.C,C4*
G36*
X112380423Y-90573575D02*
X112413792Y-90578525D01*
X112446515Y-90586722D01*
X112478277Y-90598086D01*
X112508773Y-90612510D01*
X112537707Y-90629852D01*
X112564803Y-90649948D01*
X112589798Y-90672602D01*
X112612452Y-90697597D01*
X112632548Y-90724693D01*
X112649890Y-90753627D01*
X112664314Y-90784123D01*
X112675678Y-90815885D01*
X112683875Y-90848608D01*
X112688825Y-90881977D01*
X112690480Y-90915670D01*
X112690480Y-91603170D01*
X112688825Y-91636863D01*
X112683875Y-91670232D01*
X112675678Y-91702955D01*
X112664314Y-91734717D01*
X112649890Y-91765213D01*
X112632548Y-91794147D01*
X112612452Y-91821243D01*
X112589798Y-91846238D01*
X112564803Y-91868892D01*
X112537707Y-91888988D01*
X112508773Y-91906330D01*
X112478277Y-91920754D01*
X112446515Y-91932118D01*
X112413792Y-91940315D01*
X112380423Y-91945265D01*
X112346730Y-91946920D01*
X111234230Y-91946920D01*
X111200537Y-91945265D01*
X111167168Y-91940315D01*
X111134445Y-91932118D01*
X111102683Y-91920754D01*
X111072187Y-91906330D01*
X111043253Y-91888988D01*
X111016157Y-91868892D01*
X110991162Y-91846238D01*
X110968508Y-91821243D01*
X110948412Y-91794147D01*
X110931070Y-91765213D01*
X110916646Y-91734717D01*
X110905282Y-91702955D01*
X110897085Y-91670232D01*
X110892135Y-91636863D01*
X110890480Y-91603170D01*
X110890480Y-90915670D01*
X110892135Y-90881977D01*
X110897085Y-90848608D01*
X110905282Y-90815885D01*
X110916646Y-90784123D01*
X110931070Y-90753627D01*
X110948412Y-90724693D01*
X110968508Y-90697597D01*
X110991162Y-90672602D01*
X111016157Y-90649948D01*
X111043253Y-90629852D01*
X111072187Y-90612510D01*
X111102683Y-90598086D01*
X111134445Y-90586722D01*
X111167168Y-90578525D01*
X111200537Y-90573575D01*
X111234230Y-90571920D01*
X112346730Y-90571920D01*
X112380423Y-90573575D01*
X112380423Y-90573575D01*
G37*
D18*
X111790480Y-91259420D03*
D17*
G36*
X112380423Y-92448575D02*
X112413792Y-92453525D01*
X112446515Y-92461722D01*
X112478277Y-92473086D01*
X112508773Y-92487510D01*
X112537707Y-92504852D01*
X112564803Y-92524948D01*
X112589798Y-92547602D01*
X112612452Y-92572597D01*
X112632548Y-92599693D01*
X112649890Y-92628627D01*
X112664314Y-92659123D01*
X112675678Y-92690885D01*
X112683875Y-92723608D01*
X112688825Y-92756977D01*
X112690480Y-92790670D01*
X112690480Y-93478170D01*
X112688825Y-93511863D01*
X112683875Y-93545232D01*
X112675678Y-93577955D01*
X112664314Y-93609717D01*
X112649890Y-93640213D01*
X112632548Y-93669147D01*
X112612452Y-93696243D01*
X112589798Y-93721238D01*
X112564803Y-93743892D01*
X112537707Y-93763988D01*
X112508773Y-93781330D01*
X112478277Y-93795754D01*
X112446515Y-93807118D01*
X112413792Y-93815315D01*
X112380423Y-93820265D01*
X112346730Y-93821920D01*
X111234230Y-93821920D01*
X111200537Y-93820265D01*
X111167168Y-93815315D01*
X111134445Y-93807118D01*
X111102683Y-93795754D01*
X111072187Y-93781330D01*
X111043253Y-93763988D01*
X111016157Y-93743892D01*
X110991162Y-93721238D01*
X110968508Y-93696243D01*
X110948412Y-93669147D01*
X110931070Y-93640213D01*
X110916646Y-93609717D01*
X110905282Y-93577955D01*
X110897085Y-93545232D01*
X110892135Y-93511863D01*
X110890480Y-93478170D01*
X110890480Y-92790670D01*
X110892135Y-92756977D01*
X110897085Y-92723608D01*
X110905282Y-92690885D01*
X110916646Y-92659123D01*
X110931070Y-92628627D01*
X110948412Y-92599693D01*
X110968508Y-92572597D01*
X110991162Y-92547602D01*
X111016157Y-92524948D01*
X111043253Y-92504852D01*
X111072187Y-92487510D01*
X111102683Y-92473086D01*
X111134445Y-92461722D01*
X111167168Y-92453525D01*
X111200537Y-92448575D01*
X111234230Y-92446920D01*
X112346730Y-92446920D01*
X112380423Y-92448575D01*
X112380423Y-92448575D01*
G37*
D18*
X111790480Y-93134420D03*
G04 #@! TD*
D17*
G04 #@! TO.C,C5*
G36*
X108570423Y-107083575D02*
X108603792Y-107088525D01*
X108636515Y-107096722D01*
X108668277Y-107108086D01*
X108698773Y-107122510D01*
X108727707Y-107139852D01*
X108754803Y-107159948D01*
X108779798Y-107182602D01*
X108802452Y-107207597D01*
X108822548Y-107234693D01*
X108839890Y-107263627D01*
X108854314Y-107294123D01*
X108865678Y-107325885D01*
X108873875Y-107358608D01*
X108878825Y-107391977D01*
X108880480Y-107425670D01*
X108880480Y-108113170D01*
X108878825Y-108146863D01*
X108873875Y-108180232D01*
X108865678Y-108212955D01*
X108854314Y-108244717D01*
X108839890Y-108275213D01*
X108822548Y-108304147D01*
X108802452Y-108331243D01*
X108779798Y-108356238D01*
X108754803Y-108378892D01*
X108727707Y-108398988D01*
X108698773Y-108416330D01*
X108668277Y-108430754D01*
X108636515Y-108442118D01*
X108603792Y-108450315D01*
X108570423Y-108455265D01*
X108536730Y-108456920D01*
X107424230Y-108456920D01*
X107390537Y-108455265D01*
X107357168Y-108450315D01*
X107324445Y-108442118D01*
X107292683Y-108430754D01*
X107262187Y-108416330D01*
X107233253Y-108398988D01*
X107206157Y-108378892D01*
X107181162Y-108356238D01*
X107158508Y-108331243D01*
X107138412Y-108304147D01*
X107121070Y-108275213D01*
X107106646Y-108244717D01*
X107095282Y-108212955D01*
X107087085Y-108180232D01*
X107082135Y-108146863D01*
X107080480Y-108113170D01*
X107080480Y-107425670D01*
X107082135Y-107391977D01*
X107087085Y-107358608D01*
X107095282Y-107325885D01*
X107106646Y-107294123D01*
X107121070Y-107263627D01*
X107138412Y-107234693D01*
X107158508Y-107207597D01*
X107181162Y-107182602D01*
X107206157Y-107159948D01*
X107233253Y-107139852D01*
X107262187Y-107122510D01*
X107292683Y-107108086D01*
X107324445Y-107096722D01*
X107357168Y-107088525D01*
X107390537Y-107083575D01*
X107424230Y-107081920D01*
X108536730Y-107081920D01*
X108570423Y-107083575D01*
X108570423Y-107083575D01*
G37*
D18*
X107980480Y-107769420D03*
D17*
G36*
X108570423Y-108958575D02*
X108603792Y-108963525D01*
X108636515Y-108971722D01*
X108668277Y-108983086D01*
X108698773Y-108997510D01*
X108727707Y-109014852D01*
X108754803Y-109034948D01*
X108779798Y-109057602D01*
X108802452Y-109082597D01*
X108822548Y-109109693D01*
X108839890Y-109138627D01*
X108854314Y-109169123D01*
X108865678Y-109200885D01*
X108873875Y-109233608D01*
X108878825Y-109266977D01*
X108880480Y-109300670D01*
X108880480Y-109988170D01*
X108878825Y-110021863D01*
X108873875Y-110055232D01*
X108865678Y-110087955D01*
X108854314Y-110119717D01*
X108839890Y-110150213D01*
X108822548Y-110179147D01*
X108802452Y-110206243D01*
X108779798Y-110231238D01*
X108754803Y-110253892D01*
X108727707Y-110273988D01*
X108698773Y-110291330D01*
X108668277Y-110305754D01*
X108636515Y-110317118D01*
X108603792Y-110325315D01*
X108570423Y-110330265D01*
X108536730Y-110331920D01*
X107424230Y-110331920D01*
X107390537Y-110330265D01*
X107357168Y-110325315D01*
X107324445Y-110317118D01*
X107292683Y-110305754D01*
X107262187Y-110291330D01*
X107233253Y-110273988D01*
X107206157Y-110253892D01*
X107181162Y-110231238D01*
X107158508Y-110206243D01*
X107138412Y-110179147D01*
X107121070Y-110150213D01*
X107106646Y-110119717D01*
X107095282Y-110087955D01*
X107087085Y-110055232D01*
X107082135Y-110021863D01*
X107080480Y-109988170D01*
X107080480Y-109300670D01*
X107082135Y-109266977D01*
X107087085Y-109233608D01*
X107095282Y-109200885D01*
X107106646Y-109169123D01*
X107121070Y-109138627D01*
X107138412Y-109109693D01*
X107158508Y-109082597D01*
X107181162Y-109057602D01*
X107206157Y-109034948D01*
X107233253Y-109014852D01*
X107262187Y-108997510D01*
X107292683Y-108983086D01*
X107324445Y-108971722D01*
X107357168Y-108963525D01*
X107390537Y-108958575D01*
X107424230Y-108956920D01*
X108536730Y-108956920D01*
X108570423Y-108958575D01*
X108570423Y-108958575D01*
G37*
D18*
X107980480Y-109644420D03*
G04 #@! TD*
D17*
G04 #@! TO.C,C6*
G36*
X95870423Y-107083575D02*
X95903792Y-107088525D01*
X95936515Y-107096722D01*
X95968277Y-107108086D01*
X95998773Y-107122510D01*
X96027707Y-107139852D01*
X96054803Y-107159948D01*
X96079798Y-107182602D01*
X96102452Y-107207597D01*
X96122548Y-107234693D01*
X96139890Y-107263627D01*
X96154314Y-107294123D01*
X96165678Y-107325885D01*
X96173875Y-107358608D01*
X96178825Y-107391977D01*
X96180480Y-107425670D01*
X96180480Y-108113170D01*
X96178825Y-108146863D01*
X96173875Y-108180232D01*
X96165678Y-108212955D01*
X96154314Y-108244717D01*
X96139890Y-108275213D01*
X96122548Y-108304147D01*
X96102452Y-108331243D01*
X96079798Y-108356238D01*
X96054803Y-108378892D01*
X96027707Y-108398988D01*
X95998773Y-108416330D01*
X95968277Y-108430754D01*
X95936515Y-108442118D01*
X95903792Y-108450315D01*
X95870423Y-108455265D01*
X95836730Y-108456920D01*
X94724230Y-108456920D01*
X94690537Y-108455265D01*
X94657168Y-108450315D01*
X94624445Y-108442118D01*
X94592683Y-108430754D01*
X94562187Y-108416330D01*
X94533253Y-108398988D01*
X94506157Y-108378892D01*
X94481162Y-108356238D01*
X94458508Y-108331243D01*
X94438412Y-108304147D01*
X94421070Y-108275213D01*
X94406646Y-108244717D01*
X94395282Y-108212955D01*
X94387085Y-108180232D01*
X94382135Y-108146863D01*
X94380480Y-108113170D01*
X94380480Y-107425670D01*
X94382135Y-107391977D01*
X94387085Y-107358608D01*
X94395282Y-107325885D01*
X94406646Y-107294123D01*
X94421070Y-107263627D01*
X94438412Y-107234693D01*
X94458508Y-107207597D01*
X94481162Y-107182602D01*
X94506157Y-107159948D01*
X94533253Y-107139852D01*
X94562187Y-107122510D01*
X94592683Y-107108086D01*
X94624445Y-107096722D01*
X94657168Y-107088525D01*
X94690537Y-107083575D01*
X94724230Y-107081920D01*
X95836730Y-107081920D01*
X95870423Y-107083575D01*
X95870423Y-107083575D01*
G37*
D18*
X95280480Y-107769420D03*
D17*
G36*
X95870423Y-108958575D02*
X95903792Y-108963525D01*
X95936515Y-108971722D01*
X95968277Y-108983086D01*
X95998773Y-108997510D01*
X96027707Y-109014852D01*
X96054803Y-109034948D01*
X96079798Y-109057602D01*
X96102452Y-109082597D01*
X96122548Y-109109693D01*
X96139890Y-109138627D01*
X96154314Y-109169123D01*
X96165678Y-109200885D01*
X96173875Y-109233608D01*
X96178825Y-109266977D01*
X96180480Y-109300670D01*
X96180480Y-109988170D01*
X96178825Y-110021863D01*
X96173875Y-110055232D01*
X96165678Y-110087955D01*
X96154314Y-110119717D01*
X96139890Y-110150213D01*
X96122548Y-110179147D01*
X96102452Y-110206243D01*
X96079798Y-110231238D01*
X96054803Y-110253892D01*
X96027707Y-110273988D01*
X95998773Y-110291330D01*
X95968277Y-110305754D01*
X95936515Y-110317118D01*
X95903792Y-110325315D01*
X95870423Y-110330265D01*
X95836730Y-110331920D01*
X94724230Y-110331920D01*
X94690537Y-110330265D01*
X94657168Y-110325315D01*
X94624445Y-110317118D01*
X94592683Y-110305754D01*
X94562187Y-110291330D01*
X94533253Y-110273988D01*
X94506157Y-110253892D01*
X94481162Y-110231238D01*
X94458508Y-110206243D01*
X94438412Y-110179147D01*
X94421070Y-110150213D01*
X94406646Y-110119717D01*
X94395282Y-110087955D01*
X94387085Y-110055232D01*
X94382135Y-110021863D01*
X94380480Y-109988170D01*
X94380480Y-109300670D01*
X94382135Y-109266977D01*
X94387085Y-109233608D01*
X94395282Y-109200885D01*
X94406646Y-109169123D01*
X94421070Y-109138627D01*
X94438412Y-109109693D01*
X94458508Y-109082597D01*
X94481162Y-109057602D01*
X94506157Y-109034948D01*
X94533253Y-109014852D01*
X94562187Y-108997510D01*
X94592683Y-108983086D01*
X94624445Y-108971722D01*
X94657168Y-108963525D01*
X94690537Y-108958575D01*
X94724230Y-108956920D01*
X95836730Y-108956920D01*
X95870423Y-108958575D01*
X95870423Y-108958575D01*
G37*
D18*
X95280480Y-109644420D03*
G04 #@! TD*
D17*
G04 #@! TO.C,C7*
G36*
X108570423Y-88003575D02*
X108603792Y-88008525D01*
X108636515Y-88016722D01*
X108668277Y-88028086D01*
X108698773Y-88042510D01*
X108727707Y-88059852D01*
X108754803Y-88079948D01*
X108779798Y-88102602D01*
X108802452Y-88127597D01*
X108822548Y-88154693D01*
X108839890Y-88183627D01*
X108854314Y-88214123D01*
X108865678Y-88245885D01*
X108873875Y-88278608D01*
X108878825Y-88311977D01*
X108880480Y-88345670D01*
X108880480Y-89033170D01*
X108878825Y-89066863D01*
X108873875Y-89100232D01*
X108865678Y-89132955D01*
X108854314Y-89164717D01*
X108839890Y-89195213D01*
X108822548Y-89224147D01*
X108802452Y-89251243D01*
X108779798Y-89276238D01*
X108754803Y-89298892D01*
X108727707Y-89318988D01*
X108698773Y-89336330D01*
X108668277Y-89350754D01*
X108636515Y-89362118D01*
X108603792Y-89370315D01*
X108570423Y-89375265D01*
X108536730Y-89376920D01*
X107424230Y-89376920D01*
X107390537Y-89375265D01*
X107357168Y-89370315D01*
X107324445Y-89362118D01*
X107292683Y-89350754D01*
X107262187Y-89336330D01*
X107233253Y-89318988D01*
X107206157Y-89298892D01*
X107181162Y-89276238D01*
X107158508Y-89251243D01*
X107138412Y-89224147D01*
X107121070Y-89195213D01*
X107106646Y-89164717D01*
X107095282Y-89132955D01*
X107087085Y-89100232D01*
X107082135Y-89066863D01*
X107080480Y-89033170D01*
X107080480Y-88345670D01*
X107082135Y-88311977D01*
X107087085Y-88278608D01*
X107095282Y-88245885D01*
X107106646Y-88214123D01*
X107121070Y-88183627D01*
X107138412Y-88154693D01*
X107158508Y-88127597D01*
X107181162Y-88102602D01*
X107206157Y-88079948D01*
X107233253Y-88059852D01*
X107262187Y-88042510D01*
X107292683Y-88028086D01*
X107324445Y-88016722D01*
X107357168Y-88008525D01*
X107390537Y-88003575D01*
X107424230Y-88001920D01*
X108536730Y-88001920D01*
X108570423Y-88003575D01*
X108570423Y-88003575D01*
G37*
D18*
X107980480Y-88689420D03*
D17*
G36*
X108570423Y-86128575D02*
X108603792Y-86133525D01*
X108636515Y-86141722D01*
X108668277Y-86153086D01*
X108698773Y-86167510D01*
X108727707Y-86184852D01*
X108754803Y-86204948D01*
X108779798Y-86227602D01*
X108802452Y-86252597D01*
X108822548Y-86279693D01*
X108839890Y-86308627D01*
X108854314Y-86339123D01*
X108865678Y-86370885D01*
X108873875Y-86403608D01*
X108878825Y-86436977D01*
X108880480Y-86470670D01*
X108880480Y-87158170D01*
X108878825Y-87191863D01*
X108873875Y-87225232D01*
X108865678Y-87257955D01*
X108854314Y-87289717D01*
X108839890Y-87320213D01*
X108822548Y-87349147D01*
X108802452Y-87376243D01*
X108779798Y-87401238D01*
X108754803Y-87423892D01*
X108727707Y-87443988D01*
X108698773Y-87461330D01*
X108668277Y-87475754D01*
X108636515Y-87487118D01*
X108603792Y-87495315D01*
X108570423Y-87500265D01*
X108536730Y-87501920D01*
X107424230Y-87501920D01*
X107390537Y-87500265D01*
X107357168Y-87495315D01*
X107324445Y-87487118D01*
X107292683Y-87475754D01*
X107262187Y-87461330D01*
X107233253Y-87443988D01*
X107206157Y-87423892D01*
X107181162Y-87401238D01*
X107158508Y-87376243D01*
X107138412Y-87349147D01*
X107121070Y-87320213D01*
X107106646Y-87289717D01*
X107095282Y-87257955D01*
X107087085Y-87225232D01*
X107082135Y-87191863D01*
X107080480Y-87158170D01*
X107080480Y-86470670D01*
X107082135Y-86436977D01*
X107087085Y-86403608D01*
X107095282Y-86370885D01*
X107106646Y-86339123D01*
X107121070Y-86308627D01*
X107138412Y-86279693D01*
X107158508Y-86252597D01*
X107181162Y-86227602D01*
X107206157Y-86204948D01*
X107233253Y-86184852D01*
X107262187Y-86167510D01*
X107292683Y-86153086D01*
X107324445Y-86141722D01*
X107357168Y-86133525D01*
X107390537Y-86128575D01*
X107424230Y-86126920D01*
X108536730Y-86126920D01*
X108570423Y-86128575D01*
X108570423Y-86128575D01*
G37*
D18*
X107980480Y-86814420D03*
G04 #@! TD*
D17*
G04 #@! TO.C,C8*
G36*
X95870423Y-86128575D02*
X95903792Y-86133525D01*
X95936515Y-86141722D01*
X95968277Y-86153086D01*
X95998773Y-86167510D01*
X96027707Y-86184852D01*
X96054803Y-86204948D01*
X96079798Y-86227602D01*
X96102452Y-86252597D01*
X96122548Y-86279693D01*
X96139890Y-86308627D01*
X96154314Y-86339123D01*
X96165678Y-86370885D01*
X96173875Y-86403608D01*
X96178825Y-86436977D01*
X96180480Y-86470670D01*
X96180480Y-87158170D01*
X96178825Y-87191863D01*
X96173875Y-87225232D01*
X96165678Y-87257955D01*
X96154314Y-87289717D01*
X96139890Y-87320213D01*
X96122548Y-87349147D01*
X96102452Y-87376243D01*
X96079798Y-87401238D01*
X96054803Y-87423892D01*
X96027707Y-87443988D01*
X95998773Y-87461330D01*
X95968277Y-87475754D01*
X95936515Y-87487118D01*
X95903792Y-87495315D01*
X95870423Y-87500265D01*
X95836730Y-87501920D01*
X94724230Y-87501920D01*
X94690537Y-87500265D01*
X94657168Y-87495315D01*
X94624445Y-87487118D01*
X94592683Y-87475754D01*
X94562187Y-87461330D01*
X94533253Y-87443988D01*
X94506157Y-87423892D01*
X94481162Y-87401238D01*
X94458508Y-87376243D01*
X94438412Y-87349147D01*
X94421070Y-87320213D01*
X94406646Y-87289717D01*
X94395282Y-87257955D01*
X94387085Y-87225232D01*
X94382135Y-87191863D01*
X94380480Y-87158170D01*
X94380480Y-86470670D01*
X94382135Y-86436977D01*
X94387085Y-86403608D01*
X94395282Y-86370885D01*
X94406646Y-86339123D01*
X94421070Y-86308627D01*
X94438412Y-86279693D01*
X94458508Y-86252597D01*
X94481162Y-86227602D01*
X94506157Y-86204948D01*
X94533253Y-86184852D01*
X94562187Y-86167510D01*
X94592683Y-86153086D01*
X94624445Y-86141722D01*
X94657168Y-86133525D01*
X94690537Y-86128575D01*
X94724230Y-86126920D01*
X95836730Y-86126920D01*
X95870423Y-86128575D01*
X95870423Y-86128575D01*
G37*
D18*
X95280480Y-86814420D03*
D17*
G36*
X95870423Y-88003575D02*
X95903792Y-88008525D01*
X95936515Y-88016722D01*
X95968277Y-88028086D01*
X95998773Y-88042510D01*
X96027707Y-88059852D01*
X96054803Y-88079948D01*
X96079798Y-88102602D01*
X96102452Y-88127597D01*
X96122548Y-88154693D01*
X96139890Y-88183627D01*
X96154314Y-88214123D01*
X96165678Y-88245885D01*
X96173875Y-88278608D01*
X96178825Y-88311977D01*
X96180480Y-88345670D01*
X96180480Y-89033170D01*
X96178825Y-89066863D01*
X96173875Y-89100232D01*
X96165678Y-89132955D01*
X96154314Y-89164717D01*
X96139890Y-89195213D01*
X96122548Y-89224147D01*
X96102452Y-89251243D01*
X96079798Y-89276238D01*
X96054803Y-89298892D01*
X96027707Y-89318988D01*
X95998773Y-89336330D01*
X95968277Y-89350754D01*
X95936515Y-89362118D01*
X95903792Y-89370315D01*
X95870423Y-89375265D01*
X95836730Y-89376920D01*
X94724230Y-89376920D01*
X94690537Y-89375265D01*
X94657168Y-89370315D01*
X94624445Y-89362118D01*
X94592683Y-89350754D01*
X94562187Y-89336330D01*
X94533253Y-89318988D01*
X94506157Y-89298892D01*
X94481162Y-89276238D01*
X94458508Y-89251243D01*
X94438412Y-89224147D01*
X94421070Y-89195213D01*
X94406646Y-89164717D01*
X94395282Y-89132955D01*
X94387085Y-89100232D01*
X94382135Y-89066863D01*
X94380480Y-89033170D01*
X94380480Y-88345670D01*
X94382135Y-88311977D01*
X94387085Y-88278608D01*
X94395282Y-88245885D01*
X94406646Y-88214123D01*
X94421070Y-88183627D01*
X94438412Y-88154693D01*
X94458508Y-88127597D01*
X94481162Y-88102602D01*
X94506157Y-88079948D01*
X94533253Y-88059852D01*
X94562187Y-88042510D01*
X94592683Y-88028086D01*
X94624445Y-88016722D01*
X94657168Y-88008525D01*
X94690537Y-88003575D01*
X94724230Y-88001920D01*
X95836730Y-88001920D01*
X95870423Y-88003575D01*
X95870423Y-88003575D01*
G37*
D18*
X95280480Y-88689420D03*
G04 #@! TD*
D22*
G04 #@! TO.C,C11*
X83850480Y-89736920D03*
X83850480Y-94736920D03*
G04 #@! TD*
G04 #@! TO.C,C13*
X119410480Y-89736920D03*
X119410480Y-94736920D03*
G04 #@! TD*
G04 #@! TO.C,C12*
X99170480Y-118866920D03*
X104170480Y-118866920D03*
G04 #@! TD*
G04 #@! TO.C,C14*
X99170480Y-123946920D03*
X104170480Y-123946920D03*
G04 #@! TD*
D23*
G04 #@! TO.C,J7*
X102900480Y-29966920D03*
X100360480Y-29966920D03*
X102900480Y-32506920D03*
X100360480Y-32506920D03*
X102900480Y-35046920D03*
X100360480Y-35046920D03*
X102900480Y-37586920D03*
X100360480Y-37586920D03*
X102900480Y-40126920D03*
D24*
X100360480Y-40126920D03*
G04 #@! TD*
D10*
G04 #@! TO.C,D6*
X95280480Y-29711920D03*
D11*
X95280480Y-32086920D03*
G04 #@! TD*
D25*
G04 #@! TO.C,D1*
X87660480Y-95501920D03*
X87660480Y-92701920D03*
G04 #@! TD*
G04 #@! TO.C,D2*
X115600480Y-95501920D03*
X115600480Y-92701920D03*
G04 #@! TD*
G04 #@! TO.C,D5*
X102900480Y-99946920D03*
X102900480Y-97146920D03*
G04 #@! TD*
D20*
G04 #@! TO.C,D3*
X101630480Y-47746920D03*
D26*
X101630480Y-45206920D03*
G04 #@! TD*
D20*
G04 #@! TO.C,D4*
X101630480Y-68066920D03*
D26*
X101630480Y-65526920D03*
G04 #@! TD*
D14*
G04 #@! TO.C,J5*
X111790480Y-102516920D03*
D15*
X111790480Y-113916920D03*
D16*
X111790480Y-110816920D03*
G04 #@! TD*
D14*
G04 #@! TO.C,J4*
X111790480Y-87276920D03*
D15*
X111790480Y-98676920D03*
D16*
X111790480Y-95576920D03*
G04 #@! TD*
D27*
G04 #@! TO.C,J3*
X96390480Y-122676920D03*
D28*
X84990480Y-122676920D03*
D29*
X88090480Y-122676920D03*
G04 #@! TD*
D14*
G04 #@! TO.C,J1*
X91470480Y-87276920D03*
D15*
X91470480Y-98676920D03*
D16*
X91470480Y-95576920D03*
G04 #@! TD*
D27*
G04 #@! TO.C,J6*
X106870480Y-122676920D03*
D28*
X118270480Y-122676920D03*
D29*
X115170480Y-122676920D03*
G04 #@! TD*
D30*
G04 #@! TO.C,SW2*
X111760000Y-81662000D03*
X111760000Y-76962000D03*
X111760000Y-72262000D03*
G04 #@! TD*
G04 #@! TO.C,SW1*
X91440000Y-81662000D03*
X91440000Y-76962000D03*
X91440000Y-72262000D03*
G04 #@! TD*
D31*
G04 #@! TO.C,U1*
X104330480Y-92196920D03*
X104330480Y-90926920D03*
X104330480Y-89656920D03*
X104330480Y-88386920D03*
X104330480Y-87116920D03*
X104330480Y-85846920D03*
X104330480Y-84576920D03*
X98930480Y-84576920D03*
X98930480Y-85846920D03*
X98930480Y-87116920D03*
X98930480Y-88386920D03*
X98930480Y-89656920D03*
X98930480Y-90926920D03*
X98930480Y-92196920D03*
G04 #@! TD*
G04 #@! TO.C,U2*
X98930480Y-104261920D03*
X98930480Y-105531920D03*
X98930480Y-106801920D03*
X98930480Y-108071920D03*
X98930480Y-109341920D03*
X98930480Y-110611920D03*
X98930480Y-111881920D03*
X98930480Y-113151920D03*
X104330480Y-113151920D03*
X104330480Y-111881920D03*
X104330480Y-110611920D03*
X104330480Y-109341920D03*
X104330480Y-108071920D03*
X104330480Y-106801920D03*
X104330480Y-105531920D03*
X104330480Y-104261920D03*
G04 #@! TD*
D32*
G04 #@! TO.C,RV5*
X84455000Y-114935000D03*
X84455000Y-112395000D03*
X84455000Y-109855000D03*
G04 #@! TD*
G04 #@! TO.C,RV6*
X118745000Y-114935000D03*
X118745000Y-112395000D03*
X118745000Y-109855000D03*
G04 #@! TD*
G04 #@! TO.C,RV3*
X84455000Y-104775000D03*
X84455000Y-102235000D03*
X84455000Y-99695000D03*
G04 #@! TD*
G04 #@! TO.C,RV4*
X118745000Y-104775000D03*
X118745000Y-102235000D03*
X118745000Y-99695000D03*
G04 #@! TD*
D17*
G04 #@! TO.C,R10*
G36*
X114285423Y-46758575D02*
X114318792Y-46763525D01*
X114351515Y-46771722D01*
X114383277Y-46783086D01*
X114413773Y-46797510D01*
X114442707Y-46814852D01*
X114469803Y-46834948D01*
X114494798Y-46857602D01*
X114517452Y-46882597D01*
X114537548Y-46909693D01*
X114554890Y-46938627D01*
X114569314Y-46969123D01*
X114580678Y-47000885D01*
X114588875Y-47033608D01*
X114593825Y-47066977D01*
X114595480Y-47100670D01*
X114595480Y-47788170D01*
X114593825Y-47821863D01*
X114588875Y-47855232D01*
X114580678Y-47887955D01*
X114569314Y-47919717D01*
X114554890Y-47950213D01*
X114537548Y-47979147D01*
X114517452Y-48006243D01*
X114494798Y-48031238D01*
X114469803Y-48053892D01*
X114442707Y-48073988D01*
X114413773Y-48091330D01*
X114383277Y-48105754D01*
X114351515Y-48117118D01*
X114318792Y-48125315D01*
X114285423Y-48130265D01*
X114251730Y-48131920D01*
X113139230Y-48131920D01*
X113105537Y-48130265D01*
X113072168Y-48125315D01*
X113039445Y-48117118D01*
X113007683Y-48105754D01*
X112977187Y-48091330D01*
X112948253Y-48073988D01*
X112921157Y-48053892D01*
X112896162Y-48031238D01*
X112873508Y-48006243D01*
X112853412Y-47979147D01*
X112836070Y-47950213D01*
X112821646Y-47919717D01*
X112810282Y-47887955D01*
X112802085Y-47855232D01*
X112797135Y-47821863D01*
X112795480Y-47788170D01*
X112795480Y-47100670D01*
X112797135Y-47066977D01*
X112802085Y-47033608D01*
X112810282Y-47000885D01*
X112821646Y-46969123D01*
X112836070Y-46938627D01*
X112853412Y-46909693D01*
X112873508Y-46882597D01*
X112896162Y-46857602D01*
X112921157Y-46834948D01*
X112948253Y-46814852D01*
X112977187Y-46797510D01*
X113007683Y-46783086D01*
X113039445Y-46771722D01*
X113072168Y-46763525D01*
X113105537Y-46758575D01*
X113139230Y-46756920D01*
X114251730Y-46756920D01*
X114285423Y-46758575D01*
X114285423Y-46758575D01*
G37*
D18*
X113695480Y-47444420D03*
D17*
G36*
X114285423Y-48633575D02*
X114318792Y-48638525D01*
X114351515Y-48646722D01*
X114383277Y-48658086D01*
X114413773Y-48672510D01*
X114442707Y-48689852D01*
X114469803Y-48709948D01*
X114494798Y-48732602D01*
X114517452Y-48757597D01*
X114537548Y-48784693D01*
X114554890Y-48813627D01*
X114569314Y-48844123D01*
X114580678Y-48875885D01*
X114588875Y-48908608D01*
X114593825Y-48941977D01*
X114595480Y-48975670D01*
X114595480Y-49663170D01*
X114593825Y-49696863D01*
X114588875Y-49730232D01*
X114580678Y-49762955D01*
X114569314Y-49794717D01*
X114554890Y-49825213D01*
X114537548Y-49854147D01*
X114517452Y-49881243D01*
X114494798Y-49906238D01*
X114469803Y-49928892D01*
X114442707Y-49948988D01*
X114413773Y-49966330D01*
X114383277Y-49980754D01*
X114351515Y-49992118D01*
X114318792Y-50000315D01*
X114285423Y-50005265D01*
X114251730Y-50006920D01*
X113139230Y-50006920D01*
X113105537Y-50005265D01*
X113072168Y-50000315D01*
X113039445Y-49992118D01*
X113007683Y-49980754D01*
X112977187Y-49966330D01*
X112948253Y-49948988D01*
X112921157Y-49928892D01*
X112896162Y-49906238D01*
X112873508Y-49881243D01*
X112853412Y-49854147D01*
X112836070Y-49825213D01*
X112821646Y-49794717D01*
X112810282Y-49762955D01*
X112802085Y-49730232D01*
X112797135Y-49696863D01*
X112795480Y-49663170D01*
X112795480Y-48975670D01*
X112797135Y-48941977D01*
X112802085Y-48908608D01*
X112810282Y-48875885D01*
X112821646Y-48844123D01*
X112836070Y-48813627D01*
X112853412Y-48784693D01*
X112873508Y-48757597D01*
X112896162Y-48732602D01*
X112921157Y-48709948D01*
X112948253Y-48689852D01*
X112977187Y-48672510D01*
X113007683Y-48658086D01*
X113039445Y-48646722D01*
X113072168Y-48638525D01*
X113105537Y-48633575D01*
X113139230Y-48631920D01*
X114251730Y-48631920D01*
X114285423Y-48633575D01*
X114285423Y-48633575D01*
G37*
D18*
X113695480Y-49319420D03*
G04 #@! TD*
D17*
G04 #@! TO.C,R30*
G36*
X92029943Y-105056655D02*
X92063312Y-105061605D01*
X92096035Y-105069802D01*
X92127797Y-105081166D01*
X92158293Y-105095590D01*
X92187227Y-105112932D01*
X92214323Y-105133028D01*
X92239318Y-105155682D01*
X92261972Y-105180677D01*
X92282068Y-105207773D01*
X92299410Y-105236707D01*
X92313834Y-105267203D01*
X92325198Y-105298965D01*
X92333395Y-105331688D01*
X92338345Y-105365057D01*
X92340000Y-105398750D01*
X92340000Y-106086250D01*
X92338345Y-106119943D01*
X92333395Y-106153312D01*
X92325198Y-106186035D01*
X92313834Y-106217797D01*
X92299410Y-106248293D01*
X92282068Y-106277227D01*
X92261972Y-106304323D01*
X92239318Y-106329318D01*
X92214323Y-106351972D01*
X92187227Y-106372068D01*
X92158293Y-106389410D01*
X92127797Y-106403834D01*
X92096035Y-106415198D01*
X92063312Y-106423395D01*
X92029943Y-106428345D01*
X91996250Y-106430000D01*
X90883750Y-106430000D01*
X90850057Y-106428345D01*
X90816688Y-106423395D01*
X90783965Y-106415198D01*
X90752203Y-106403834D01*
X90721707Y-106389410D01*
X90692773Y-106372068D01*
X90665677Y-106351972D01*
X90640682Y-106329318D01*
X90618028Y-106304323D01*
X90597932Y-106277227D01*
X90580590Y-106248293D01*
X90566166Y-106217797D01*
X90554802Y-106186035D01*
X90546605Y-106153312D01*
X90541655Y-106119943D01*
X90540000Y-106086250D01*
X90540000Y-105398750D01*
X90541655Y-105365057D01*
X90546605Y-105331688D01*
X90554802Y-105298965D01*
X90566166Y-105267203D01*
X90580590Y-105236707D01*
X90597932Y-105207773D01*
X90618028Y-105180677D01*
X90640682Y-105155682D01*
X90665677Y-105133028D01*
X90692773Y-105112932D01*
X90721707Y-105095590D01*
X90752203Y-105081166D01*
X90783965Y-105069802D01*
X90816688Y-105061605D01*
X90850057Y-105056655D01*
X90883750Y-105055000D01*
X91996250Y-105055000D01*
X92029943Y-105056655D01*
X92029943Y-105056655D01*
G37*
D18*
X91440000Y-105742500D03*
D17*
G36*
X92029943Y-106931655D02*
X92063312Y-106936605D01*
X92096035Y-106944802D01*
X92127797Y-106956166D01*
X92158293Y-106970590D01*
X92187227Y-106987932D01*
X92214323Y-107008028D01*
X92239318Y-107030682D01*
X92261972Y-107055677D01*
X92282068Y-107082773D01*
X92299410Y-107111707D01*
X92313834Y-107142203D01*
X92325198Y-107173965D01*
X92333395Y-107206688D01*
X92338345Y-107240057D01*
X92340000Y-107273750D01*
X92340000Y-107961250D01*
X92338345Y-107994943D01*
X92333395Y-108028312D01*
X92325198Y-108061035D01*
X92313834Y-108092797D01*
X92299410Y-108123293D01*
X92282068Y-108152227D01*
X92261972Y-108179323D01*
X92239318Y-108204318D01*
X92214323Y-108226972D01*
X92187227Y-108247068D01*
X92158293Y-108264410D01*
X92127797Y-108278834D01*
X92096035Y-108290198D01*
X92063312Y-108298395D01*
X92029943Y-108303345D01*
X91996250Y-108305000D01*
X90883750Y-108305000D01*
X90850057Y-108303345D01*
X90816688Y-108298395D01*
X90783965Y-108290198D01*
X90752203Y-108278834D01*
X90721707Y-108264410D01*
X90692773Y-108247068D01*
X90665677Y-108226972D01*
X90640682Y-108204318D01*
X90618028Y-108179323D01*
X90597932Y-108152227D01*
X90580590Y-108123293D01*
X90566166Y-108092797D01*
X90554802Y-108061035D01*
X90546605Y-108028312D01*
X90541655Y-107994943D01*
X90540000Y-107961250D01*
X90540000Y-107273750D01*
X90541655Y-107240057D01*
X90546605Y-107206688D01*
X90554802Y-107173965D01*
X90566166Y-107142203D01*
X90580590Y-107111707D01*
X90597932Y-107082773D01*
X90618028Y-107055677D01*
X90640682Y-107030682D01*
X90665677Y-107008028D01*
X90692773Y-106987932D01*
X90721707Y-106970590D01*
X90752203Y-106956166D01*
X90783965Y-106944802D01*
X90816688Y-106936605D01*
X90850057Y-106931655D01*
X90883750Y-106930000D01*
X91996250Y-106930000D01*
X92029943Y-106931655D01*
X92029943Y-106931655D01*
G37*
D18*
X91440000Y-107617500D03*
G04 #@! TD*
D17*
G04 #@! TO.C,R27*
G36*
X95870423Y-102003575D02*
X95903792Y-102008525D01*
X95936515Y-102016722D01*
X95968277Y-102028086D01*
X95998773Y-102042510D01*
X96027707Y-102059852D01*
X96054803Y-102079948D01*
X96079798Y-102102602D01*
X96102452Y-102127597D01*
X96122548Y-102154693D01*
X96139890Y-102183627D01*
X96154314Y-102214123D01*
X96165678Y-102245885D01*
X96173875Y-102278608D01*
X96178825Y-102311977D01*
X96180480Y-102345670D01*
X96180480Y-103033170D01*
X96178825Y-103066863D01*
X96173875Y-103100232D01*
X96165678Y-103132955D01*
X96154314Y-103164717D01*
X96139890Y-103195213D01*
X96122548Y-103224147D01*
X96102452Y-103251243D01*
X96079798Y-103276238D01*
X96054803Y-103298892D01*
X96027707Y-103318988D01*
X95998773Y-103336330D01*
X95968277Y-103350754D01*
X95936515Y-103362118D01*
X95903792Y-103370315D01*
X95870423Y-103375265D01*
X95836730Y-103376920D01*
X94724230Y-103376920D01*
X94690537Y-103375265D01*
X94657168Y-103370315D01*
X94624445Y-103362118D01*
X94592683Y-103350754D01*
X94562187Y-103336330D01*
X94533253Y-103318988D01*
X94506157Y-103298892D01*
X94481162Y-103276238D01*
X94458508Y-103251243D01*
X94438412Y-103224147D01*
X94421070Y-103195213D01*
X94406646Y-103164717D01*
X94395282Y-103132955D01*
X94387085Y-103100232D01*
X94382135Y-103066863D01*
X94380480Y-103033170D01*
X94380480Y-102345670D01*
X94382135Y-102311977D01*
X94387085Y-102278608D01*
X94395282Y-102245885D01*
X94406646Y-102214123D01*
X94421070Y-102183627D01*
X94438412Y-102154693D01*
X94458508Y-102127597D01*
X94481162Y-102102602D01*
X94506157Y-102079948D01*
X94533253Y-102059852D01*
X94562187Y-102042510D01*
X94592683Y-102028086D01*
X94624445Y-102016722D01*
X94657168Y-102008525D01*
X94690537Y-102003575D01*
X94724230Y-102001920D01*
X95836730Y-102001920D01*
X95870423Y-102003575D01*
X95870423Y-102003575D01*
G37*
D18*
X95280480Y-102689420D03*
D17*
G36*
X95870423Y-103878575D02*
X95903792Y-103883525D01*
X95936515Y-103891722D01*
X95968277Y-103903086D01*
X95998773Y-103917510D01*
X96027707Y-103934852D01*
X96054803Y-103954948D01*
X96079798Y-103977602D01*
X96102452Y-104002597D01*
X96122548Y-104029693D01*
X96139890Y-104058627D01*
X96154314Y-104089123D01*
X96165678Y-104120885D01*
X96173875Y-104153608D01*
X96178825Y-104186977D01*
X96180480Y-104220670D01*
X96180480Y-104908170D01*
X96178825Y-104941863D01*
X96173875Y-104975232D01*
X96165678Y-105007955D01*
X96154314Y-105039717D01*
X96139890Y-105070213D01*
X96122548Y-105099147D01*
X96102452Y-105126243D01*
X96079798Y-105151238D01*
X96054803Y-105173892D01*
X96027707Y-105193988D01*
X95998773Y-105211330D01*
X95968277Y-105225754D01*
X95936515Y-105237118D01*
X95903792Y-105245315D01*
X95870423Y-105250265D01*
X95836730Y-105251920D01*
X94724230Y-105251920D01*
X94690537Y-105250265D01*
X94657168Y-105245315D01*
X94624445Y-105237118D01*
X94592683Y-105225754D01*
X94562187Y-105211330D01*
X94533253Y-105193988D01*
X94506157Y-105173892D01*
X94481162Y-105151238D01*
X94458508Y-105126243D01*
X94438412Y-105099147D01*
X94421070Y-105070213D01*
X94406646Y-105039717D01*
X94395282Y-105007955D01*
X94387085Y-104975232D01*
X94382135Y-104941863D01*
X94380480Y-104908170D01*
X94380480Y-104220670D01*
X94382135Y-104186977D01*
X94387085Y-104153608D01*
X94395282Y-104120885D01*
X94406646Y-104089123D01*
X94421070Y-104058627D01*
X94438412Y-104029693D01*
X94458508Y-104002597D01*
X94481162Y-103977602D01*
X94506157Y-103954948D01*
X94533253Y-103934852D01*
X94562187Y-103917510D01*
X94592683Y-103903086D01*
X94624445Y-103891722D01*
X94657168Y-103883525D01*
X94690537Y-103878575D01*
X94724230Y-103876920D01*
X95836730Y-103876920D01*
X95870423Y-103878575D01*
X95870423Y-103878575D01*
G37*
D18*
X95280480Y-104564420D03*
G04 #@! TD*
D17*
G04 #@! TO.C,R25*
G36*
X88854943Y-97436655D02*
X88888312Y-97441605D01*
X88921035Y-97449802D01*
X88952797Y-97461166D01*
X88983293Y-97475590D01*
X89012227Y-97492932D01*
X89039323Y-97513028D01*
X89064318Y-97535682D01*
X89086972Y-97560677D01*
X89107068Y-97587773D01*
X89124410Y-97616707D01*
X89138834Y-97647203D01*
X89150198Y-97678965D01*
X89158395Y-97711688D01*
X89163345Y-97745057D01*
X89165000Y-97778750D01*
X89165000Y-98466250D01*
X89163345Y-98499943D01*
X89158395Y-98533312D01*
X89150198Y-98566035D01*
X89138834Y-98597797D01*
X89124410Y-98628293D01*
X89107068Y-98657227D01*
X89086972Y-98684323D01*
X89064318Y-98709318D01*
X89039323Y-98731972D01*
X89012227Y-98752068D01*
X88983293Y-98769410D01*
X88952797Y-98783834D01*
X88921035Y-98795198D01*
X88888312Y-98803395D01*
X88854943Y-98808345D01*
X88821250Y-98810000D01*
X87708750Y-98810000D01*
X87675057Y-98808345D01*
X87641688Y-98803395D01*
X87608965Y-98795198D01*
X87577203Y-98783834D01*
X87546707Y-98769410D01*
X87517773Y-98752068D01*
X87490677Y-98731972D01*
X87465682Y-98709318D01*
X87443028Y-98684323D01*
X87422932Y-98657227D01*
X87405590Y-98628293D01*
X87391166Y-98597797D01*
X87379802Y-98566035D01*
X87371605Y-98533312D01*
X87366655Y-98499943D01*
X87365000Y-98466250D01*
X87365000Y-97778750D01*
X87366655Y-97745057D01*
X87371605Y-97711688D01*
X87379802Y-97678965D01*
X87391166Y-97647203D01*
X87405590Y-97616707D01*
X87422932Y-97587773D01*
X87443028Y-97560677D01*
X87465682Y-97535682D01*
X87490677Y-97513028D01*
X87517773Y-97492932D01*
X87546707Y-97475590D01*
X87577203Y-97461166D01*
X87608965Y-97449802D01*
X87641688Y-97441605D01*
X87675057Y-97436655D01*
X87708750Y-97435000D01*
X88821250Y-97435000D01*
X88854943Y-97436655D01*
X88854943Y-97436655D01*
G37*
D18*
X88265000Y-98122500D03*
D17*
G36*
X88854943Y-99311655D02*
X88888312Y-99316605D01*
X88921035Y-99324802D01*
X88952797Y-99336166D01*
X88983293Y-99350590D01*
X89012227Y-99367932D01*
X89039323Y-99388028D01*
X89064318Y-99410682D01*
X89086972Y-99435677D01*
X89107068Y-99462773D01*
X89124410Y-99491707D01*
X89138834Y-99522203D01*
X89150198Y-99553965D01*
X89158395Y-99586688D01*
X89163345Y-99620057D01*
X89165000Y-99653750D01*
X89165000Y-100341250D01*
X89163345Y-100374943D01*
X89158395Y-100408312D01*
X89150198Y-100441035D01*
X89138834Y-100472797D01*
X89124410Y-100503293D01*
X89107068Y-100532227D01*
X89086972Y-100559323D01*
X89064318Y-100584318D01*
X89039323Y-100606972D01*
X89012227Y-100627068D01*
X88983293Y-100644410D01*
X88952797Y-100658834D01*
X88921035Y-100670198D01*
X88888312Y-100678395D01*
X88854943Y-100683345D01*
X88821250Y-100685000D01*
X87708750Y-100685000D01*
X87675057Y-100683345D01*
X87641688Y-100678395D01*
X87608965Y-100670198D01*
X87577203Y-100658834D01*
X87546707Y-100644410D01*
X87517773Y-100627068D01*
X87490677Y-100606972D01*
X87465682Y-100584318D01*
X87443028Y-100559323D01*
X87422932Y-100532227D01*
X87405590Y-100503293D01*
X87391166Y-100472797D01*
X87379802Y-100441035D01*
X87371605Y-100408312D01*
X87366655Y-100374943D01*
X87365000Y-100341250D01*
X87365000Y-99653750D01*
X87366655Y-99620057D01*
X87371605Y-99586688D01*
X87379802Y-99553965D01*
X87391166Y-99522203D01*
X87405590Y-99491707D01*
X87422932Y-99462773D01*
X87443028Y-99435677D01*
X87465682Y-99410682D01*
X87490677Y-99388028D01*
X87517773Y-99367932D01*
X87546707Y-99350590D01*
X87577203Y-99336166D01*
X87608965Y-99324802D01*
X87641688Y-99316605D01*
X87675057Y-99311655D01*
X87708750Y-99310000D01*
X88821250Y-99310000D01*
X88854943Y-99311655D01*
X88854943Y-99311655D01*
G37*
D18*
X88265000Y-99997500D03*
G04 #@! TD*
D17*
G04 #@! TO.C,R29*
G36*
X88854943Y-106931655D02*
X88888312Y-106936605D01*
X88921035Y-106944802D01*
X88952797Y-106956166D01*
X88983293Y-106970590D01*
X89012227Y-106987932D01*
X89039323Y-107008028D01*
X89064318Y-107030682D01*
X89086972Y-107055677D01*
X89107068Y-107082773D01*
X89124410Y-107111707D01*
X89138834Y-107142203D01*
X89150198Y-107173965D01*
X89158395Y-107206688D01*
X89163345Y-107240057D01*
X89165000Y-107273750D01*
X89165000Y-107961250D01*
X89163345Y-107994943D01*
X89158395Y-108028312D01*
X89150198Y-108061035D01*
X89138834Y-108092797D01*
X89124410Y-108123293D01*
X89107068Y-108152227D01*
X89086972Y-108179323D01*
X89064318Y-108204318D01*
X89039323Y-108226972D01*
X89012227Y-108247068D01*
X88983293Y-108264410D01*
X88952797Y-108278834D01*
X88921035Y-108290198D01*
X88888312Y-108298395D01*
X88854943Y-108303345D01*
X88821250Y-108305000D01*
X87708750Y-108305000D01*
X87675057Y-108303345D01*
X87641688Y-108298395D01*
X87608965Y-108290198D01*
X87577203Y-108278834D01*
X87546707Y-108264410D01*
X87517773Y-108247068D01*
X87490677Y-108226972D01*
X87465682Y-108204318D01*
X87443028Y-108179323D01*
X87422932Y-108152227D01*
X87405590Y-108123293D01*
X87391166Y-108092797D01*
X87379802Y-108061035D01*
X87371605Y-108028312D01*
X87366655Y-107994943D01*
X87365000Y-107961250D01*
X87365000Y-107273750D01*
X87366655Y-107240057D01*
X87371605Y-107206688D01*
X87379802Y-107173965D01*
X87391166Y-107142203D01*
X87405590Y-107111707D01*
X87422932Y-107082773D01*
X87443028Y-107055677D01*
X87465682Y-107030682D01*
X87490677Y-107008028D01*
X87517773Y-106987932D01*
X87546707Y-106970590D01*
X87577203Y-106956166D01*
X87608965Y-106944802D01*
X87641688Y-106936605D01*
X87675057Y-106931655D01*
X87708750Y-106930000D01*
X88821250Y-106930000D01*
X88854943Y-106931655D01*
X88854943Y-106931655D01*
G37*
D18*
X88265000Y-107617500D03*
D17*
G36*
X88854943Y-105056655D02*
X88888312Y-105061605D01*
X88921035Y-105069802D01*
X88952797Y-105081166D01*
X88983293Y-105095590D01*
X89012227Y-105112932D01*
X89039323Y-105133028D01*
X89064318Y-105155682D01*
X89086972Y-105180677D01*
X89107068Y-105207773D01*
X89124410Y-105236707D01*
X89138834Y-105267203D01*
X89150198Y-105298965D01*
X89158395Y-105331688D01*
X89163345Y-105365057D01*
X89165000Y-105398750D01*
X89165000Y-106086250D01*
X89163345Y-106119943D01*
X89158395Y-106153312D01*
X89150198Y-106186035D01*
X89138834Y-106217797D01*
X89124410Y-106248293D01*
X89107068Y-106277227D01*
X89086972Y-106304323D01*
X89064318Y-106329318D01*
X89039323Y-106351972D01*
X89012227Y-106372068D01*
X88983293Y-106389410D01*
X88952797Y-106403834D01*
X88921035Y-106415198D01*
X88888312Y-106423395D01*
X88854943Y-106428345D01*
X88821250Y-106430000D01*
X87708750Y-106430000D01*
X87675057Y-106428345D01*
X87641688Y-106423395D01*
X87608965Y-106415198D01*
X87577203Y-106403834D01*
X87546707Y-106389410D01*
X87517773Y-106372068D01*
X87490677Y-106351972D01*
X87465682Y-106329318D01*
X87443028Y-106304323D01*
X87422932Y-106277227D01*
X87405590Y-106248293D01*
X87391166Y-106217797D01*
X87379802Y-106186035D01*
X87371605Y-106153312D01*
X87366655Y-106119943D01*
X87365000Y-106086250D01*
X87365000Y-105398750D01*
X87366655Y-105365057D01*
X87371605Y-105331688D01*
X87379802Y-105298965D01*
X87391166Y-105267203D01*
X87405590Y-105236707D01*
X87422932Y-105207773D01*
X87443028Y-105180677D01*
X87465682Y-105155682D01*
X87490677Y-105133028D01*
X87517773Y-105112932D01*
X87546707Y-105095590D01*
X87577203Y-105081166D01*
X87608965Y-105069802D01*
X87641688Y-105061605D01*
X87675057Y-105056655D01*
X87708750Y-105055000D01*
X88821250Y-105055000D01*
X88854943Y-105056655D01*
X88854943Y-105056655D01*
G37*
D18*
X88265000Y-105742500D03*
G04 #@! TD*
D17*
G04 #@! TO.C,R31*
G36*
X115524943Y-106931655D02*
X115558312Y-106936605D01*
X115591035Y-106944802D01*
X115622797Y-106956166D01*
X115653293Y-106970590D01*
X115682227Y-106987932D01*
X115709323Y-107008028D01*
X115734318Y-107030682D01*
X115756972Y-107055677D01*
X115777068Y-107082773D01*
X115794410Y-107111707D01*
X115808834Y-107142203D01*
X115820198Y-107173965D01*
X115828395Y-107206688D01*
X115833345Y-107240057D01*
X115835000Y-107273750D01*
X115835000Y-107961250D01*
X115833345Y-107994943D01*
X115828395Y-108028312D01*
X115820198Y-108061035D01*
X115808834Y-108092797D01*
X115794410Y-108123293D01*
X115777068Y-108152227D01*
X115756972Y-108179323D01*
X115734318Y-108204318D01*
X115709323Y-108226972D01*
X115682227Y-108247068D01*
X115653293Y-108264410D01*
X115622797Y-108278834D01*
X115591035Y-108290198D01*
X115558312Y-108298395D01*
X115524943Y-108303345D01*
X115491250Y-108305000D01*
X114378750Y-108305000D01*
X114345057Y-108303345D01*
X114311688Y-108298395D01*
X114278965Y-108290198D01*
X114247203Y-108278834D01*
X114216707Y-108264410D01*
X114187773Y-108247068D01*
X114160677Y-108226972D01*
X114135682Y-108204318D01*
X114113028Y-108179323D01*
X114092932Y-108152227D01*
X114075590Y-108123293D01*
X114061166Y-108092797D01*
X114049802Y-108061035D01*
X114041605Y-108028312D01*
X114036655Y-107994943D01*
X114035000Y-107961250D01*
X114035000Y-107273750D01*
X114036655Y-107240057D01*
X114041605Y-107206688D01*
X114049802Y-107173965D01*
X114061166Y-107142203D01*
X114075590Y-107111707D01*
X114092932Y-107082773D01*
X114113028Y-107055677D01*
X114135682Y-107030682D01*
X114160677Y-107008028D01*
X114187773Y-106987932D01*
X114216707Y-106970590D01*
X114247203Y-106956166D01*
X114278965Y-106944802D01*
X114311688Y-106936605D01*
X114345057Y-106931655D01*
X114378750Y-106930000D01*
X115491250Y-106930000D01*
X115524943Y-106931655D01*
X115524943Y-106931655D01*
G37*
D18*
X114935000Y-107617500D03*
D17*
G36*
X115524943Y-105056655D02*
X115558312Y-105061605D01*
X115591035Y-105069802D01*
X115622797Y-105081166D01*
X115653293Y-105095590D01*
X115682227Y-105112932D01*
X115709323Y-105133028D01*
X115734318Y-105155682D01*
X115756972Y-105180677D01*
X115777068Y-105207773D01*
X115794410Y-105236707D01*
X115808834Y-105267203D01*
X115820198Y-105298965D01*
X115828395Y-105331688D01*
X115833345Y-105365057D01*
X115835000Y-105398750D01*
X115835000Y-106086250D01*
X115833345Y-106119943D01*
X115828395Y-106153312D01*
X115820198Y-106186035D01*
X115808834Y-106217797D01*
X115794410Y-106248293D01*
X115777068Y-106277227D01*
X115756972Y-106304323D01*
X115734318Y-106329318D01*
X115709323Y-106351972D01*
X115682227Y-106372068D01*
X115653293Y-106389410D01*
X115622797Y-106403834D01*
X115591035Y-106415198D01*
X115558312Y-106423395D01*
X115524943Y-106428345D01*
X115491250Y-106430000D01*
X114378750Y-106430000D01*
X114345057Y-106428345D01*
X114311688Y-106423395D01*
X114278965Y-106415198D01*
X114247203Y-106403834D01*
X114216707Y-106389410D01*
X114187773Y-106372068D01*
X114160677Y-106351972D01*
X114135682Y-106329318D01*
X114113028Y-106304323D01*
X114092932Y-106277227D01*
X114075590Y-106248293D01*
X114061166Y-106217797D01*
X114049802Y-106186035D01*
X114041605Y-106153312D01*
X114036655Y-106119943D01*
X114035000Y-106086250D01*
X114035000Y-105398750D01*
X114036655Y-105365057D01*
X114041605Y-105331688D01*
X114049802Y-105298965D01*
X114061166Y-105267203D01*
X114075590Y-105236707D01*
X114092932Y-105207773D01*
X114113028Y-105180677D01*
X114135682Y-105155682D01*
X114160677Y-105133028D01*
X114187773Y-105112932D01*
X114216707Y-105095590D01*
X114247203Y-105081166D01*
X114278965Y-105069802D01*
X114311688Y-105061605D01*
X114345057Y-105056655D01*
X114378750Y-105055000D01*
X115491250Y-105055000D01*
X115524943Y-105056655D01*
X115524943Y-105056655D01*
G37*
D18*
X114935000Y-105742500D03*
G04 #@! TD*
D17*
G04 #@! TO.C,R32*
G36*
X112349943Y-105056655D02*
X112383312Y-105061605D01*
X112416035Y-105069802D01*
X112447797Y-105081166D01*
X112478293Y-105095590D01*
X112507227Y-105112932D01*
X112534323Y-105133028D01*
X112559318Y-105155682D01*
X112581972Y-105180677D01*
X112602068Y-105207773D01*
X112619410Y-105236707D01*
X112633834Y-105267203D01*
X112645198Y-105298965D01*
X112653395Y-105331688D01*
X112658345Y-105365057D01*
X112660000Y-105398750D01*
X112660000Y-106086250D01*
X112658345Y-106119943D01*
X112653395Y-106153312D01*
X112645198Y-106186035D01*
X112633834Y-106217797D01*
X112619410Y-106248293D01*
X112602068Y-106277227D01*
X112581972Y-106304323D01*
X112559318Y-106329318D01*
X112534323Y-106351972D01*
X112507227Y-106372068D01*
X112478293Y-106389410D01*
X112447797Y-106403834D01*
X112416035Y-106415198D01*
X112383312Y-106423395D01*
X112349943Y-106428345D01*
X112316250Y-106430000D01*
X111203750Y-106430000D01*
X111170057Y-106428345D01*
X111136688Y-106423395D01*
X111103965Y-106415198D01*
X111072203Y-106403834D01*
X111041707Y-106389410D01*
X111012773Y-106372068D01*
X110985677Y-106351972D01*
X110960682Y-106329318D01*
X110938028Y-106304323D01*
X110917932Y-106277227D01*
X110900590Y-106248293D01*
X110886166Y-106217797D01*
X110874802Y-106186035D01*
X110866605Y-106153312D01*
X110861655Y-106119943D01*
X110860000Y-106086250D01*
X110860000Y-105398750D01*
X110861655Y-105365057D01*
X110866605Y-105331688D01*
X110874802Y-105298965D01*
X110886166Y-105267203D01*
X110900590Y-105236707D01*
X110917932Y-105207773D01*
X110938028Y-105180677D01*
X110960682Y-105155682D01*
X110985677Y-105133028D01*
X111012773Y-105112932D01*
X111041707Y-105095590D01*
X111072203Y-105081166D01*
X111103965Y-105069802D01*
X111136688Y-105061605D01*
X111170057Y-105056655D01*
X111203750Y-105055000D01*
X112316250Y-105055000D01*
X112349943Y-105056655D01*
X112349943Y-105056655D01*
G37*
D18*
X111760000Y-105742500D03*
D17*
G36*
X112349943Y-106931655D02*
X112383312Y-106936605D01*
X112416035Y-106944802D01*
X112447797Y-106956166D01*
X112478293Y-106970590D01*
X112507227Y-106987932D01*
X112534323Y-107008028D01*
X112559318Y-107030682D01*
X112581972Y-107055677D01*
X112602068Y-107082773D01*
X112619410Y-107111707D01*
X112633834Y-107142203D01*
X112645198Y-107173965D01*
X112653395Y-107206688D01*
X112658345Y-107240057D01*
X112660000Y-107273750D01*
X112660000Y-107961250D01*
X112658345Y-107994943D01*
X112653395Y-108028312D01*
X112645198Y-108061035D01*
X112633834Y-108092797D01*
X112619410Y-108123293D01*
X112602068Y-108152227D01*
X112581972Y-108179323D01*
X112559318Y-108204318D01*
X112534323Y-108226972D01*
X112507227Y-108247068D01*
X112478293Y-108264410D01*
X112447797Y-108278834D01*
X112416035Y-108290198D01*
X112383312Y-108298395D01*
X112349943Y-108303345D01*
X112316250Y-108305000D01*
X111203750Y-108305000D01*
X111170057Y-108303345D01*
X111136688Y-108298395D01*
X111103965Y-108290198D01*
X111072203Y-108278834D01*
X111041707Y-108264410D01*
X111012773Y-108247068D01*
X110985677Y-108226972D01*
X110960682Y-108204318D01*
X110938028Y-108179323D01*
X110917932Y-108152227D01*
X110900590Y-108123293D01*
X110886166Y-108092797D01*
X110874802Y-108061035D01*
X110866605Y-108028312D01*
X110861655Y-107994943D01*
X110860000Y-107961250D01*
X110860000Y-107273750D01*
X110861655Y-107240057D01*
X110866605Y-107206688D01*
X110874802Y-107173965D01*
X110886166Y-107142203D01*
X110900590Y-107111707D01*
X110917932Y-107082773D01*
X110938028Y-107055677D01*
X110960682Y-107030682D01*
X110985677Y-107008028D01*
X111012773Y-106987932D01*
X111041707Y-106970590D01*
X111072203Y-106956166D01*
X111103965Y-106944802D01*
X111136688Y-106936605D01*
X111170057Y-106931655D01*
X111203750Y-106930000D01*
X112316250Y-106930000D01*
X112349943Y-106931655D01*
X112349943Y-106931655D01*
G37*
D18*
X111760000Y-107617500D03*
G04 #@! TD*
D17*
G04 #@! TO.C,R33*
G36*
X95870423Y-114038575D02*
X95903792Y-114043525D01*
X95936515Y-114051722D01*
X95968277Y-114063086D01*
X95998773Y-114077510D01*
X96027707Y-114094852D01*
X96054803Y-114114948D01*
X96079798Y-114137602D01*
X96102452Y-114162597D01*
X96122548Y-114189693D01*
X96139890Y-114218627D01*
X96154314Y-114249123D01*
X96165678Y-114280885D01*
X96173875Y-114313608D01*
X96178825Y-114346977D01*
X96180480Y-114380670D01*
X96180480Y-115068170D01*
X96178825Y-115101863D01*
X96173875Y-115135232D01*
X96165678Y-115167955D01*
X96154314Y-115199717D01*
X96139890Y-115230213D01*
X96122548Y-115259147D01*
X96102452Y-115286243D01*
X96079798Y-115311238D01*
X96054803Y-115333892D01*
X96027707Y-115353988D01*
X95998773Y-115371330D01*
X95968277Y-115385754D01*
X95936515Y-115397118D01*
X95903792Y-115405315D01*
X95870423Y-115410265D01*
X95836730Y-115411920D01*
X94724230Y-115411920D01*
X94690537Y-115410265D01*
X94657168Y-115405315D01*
X94624445Y-115397118D01*
X94592683Y-115385754D01*
X94562187Y-115371330D01*
X94533253Y-115353988D01*
X94506157Y-115333892D01*
X94481162Y-115311238D01*
X94458508Y-115286243D01*
X94438412Y-115259147D01*
X94421070Y-115230213D01*
X94406646Y-115199717D01*
X94395282Y-115167955D01*
X94387085Y-115135232D01*
X94382135Y-115101863D01*
X94380480Y-115068170D01*
X94380480Y-114380670D01*
X94382135Y-114346977D01*
X94387085Y-114313608D01*
X94395282Y-114280885D01*
X94406646Y-114249123D01*
X94421070Y-114218627D01*
X94438412Y-114189693D01*
X94458508Y-114162597D01*
X94481162Y-114137602D01*
X94506157Y-114114948D01*
X94533253Y-114094852D01*
X94562187Y-114077510D01*
X94592683Y-114063086D01*
X94624445Y-114051722D01*
X94657168Y-114043525D01*
X94690537Y-114038575D01*
X94724230Y-114036920D01*
X95836730Y-114036920D01*
X95870423Y-114038575D01*
X95870423Y-114038575D01*
G37*
D18*
X95280480Y-114724420D03*
D17*
G36*
X95870423Y-112163575D02*
X95903792Y-112168525D01*
X95936515Y-112176722D01*
X95968277Y-112188086D01*
X95998773Y-112202510D01*
X96027707Y-112219852D01*
X96054803Y-112239948D01*
X96079798Y-112262602D01*
X96102452Y-112287597D01*
X96122548Y-112314693D01*
X96139890Y-112343627D01*
X96154314Y-112374123D01*
X96165678Y-112405885D01*
X96173875Y-112438608D01*
X96178825Y-112471977D01*
X96180480Y-112505670D01*
X96180480Y-113193170D01*
X96178825Y-113226863D01*
X96173875Y-113260232D01*
X96165678Y-113292955D01*
X96154314Y-113324717D01*
X96139890Y-113355213D01*
X96122548Y-113384147D01*
X96102452Y-113411243D01*
X96079798Y-113436238D01*
X96054803Y-113458892D01*
X96027707Y-113478988D01*
X95998773Y-113496330D01*
X95968277Y-113510754D01*
X95936515Y-113522118D01*
X95903792Y-113530315D01*
X95870423Y-113535265D01*
X95836730Y-113536920D01*
X94724230Y-113536920D01*
X94690537Y-113535265D01*
X94657168Y-113530315D01*
X94624445Y-113522118D01*
X94592683Y-113510754D01*
X94562187Y-113496330D01*
X94533253Y-113478988D01*
X94506157Y-113458892D01*
X94481162Y-113436238D01*
X94458508Y-113411243D01*
X94438412Y-113384147D01*
X94421070Y-113355213D01*
X94406646Y-113324717D01*
X94395282Y-113292955D01*
X94387085Y-113260232D01*
X94382135Y-113226863D01*
X94380480Y-113193170D01*
X94380480Y-112505670D01*
X94382135Y-112471977D01*
X94387085Y-112438608D01*
X94395282Y-112405885D01*
X94406646Y-112374123D01*
X94421070Y-112343627D01*
X94438412Y-112314693D01*
X94458508Y-112287597D01*
X94481162Y-112262602D01*
X94506157Y-112239948D01*
X94533253Y-112219852D01*
X94562187Y-112202510D01*
X94592683Y-112188086D01*
X94624445Y-112176722D01*
X94657168Y-112168525D01*
X94690537Y-112163575D01*
X94724230Y-112161920D01*
X95836730Y-112161920D01*
X95870423Y-112163575D01*
X95870423Y-112163575D01*
G37*
D18*
X95280480Y-112849420D03*
G04 #@! TD*
D17*
G04 #@! TO.C,R8*
G36*
X108570423Y-81048575D02*
X108603792Y-81053525D01*
X108636515Y-81061722D01*
X108668277Y-81073086D01*
X108698773Y-81087510D01*
X108727707Y-81104852D01*
X108754803Y-81124948D01*
X108779798Y-81147602D01*
X108802452Y-81172597D01*
X108822548Y-81199693D01*
X108839890Y-81228627D01*
X108854314Y-81259123D01*
X108865678Y-81290885D01*
X108873875Y-81323608D01*
X108878825Y-81356977D01*
X108880480Y-81390670D01*
X108880480Y-82078170D01*
X108878825Y-82111863D01*
X108873875Y-82145232D01*
X108865678Y-82177955D01*
X108854314Y-82209717D01*
X108839890Y-82240213D01*
X108822548Y-82269147D01*
X108802452Y-82296243D01*
X108779798Y-82321238D01*
X108754803Y-82343892D01*
X108727707Y-82363988D01*
X108698773Y-82381330D01*
X108668277Y-82395754D01*
X108636515Y-82407118D01*
X108603792Y-82415315D01*
X108570423Y-82420265D01*
X108536730Y-82421920D01*
X107424230Y-82421920D01*
X107390537Y-82420265D01*
X107357168Y-82415315D01*
X107324445Y-82407118D01*
X107292683Y-82395754D01*
X107262187Y-82381330D01*
X107233253Y-82363988D01*
X107206157Y-82343892D01*
X107181162Y-82321238D01*
X107158508Y-82296243D01*
X107138412Y-82269147D01*
X107121070Y-82240213D01*
X107106646Y-82209717D01*
X107095282Y-82177955D01*
X107087085Y-82145232D01*
X107082135Y-82111863D01*
X107080480Y-82078170D01*
X107080480Y-81390670D01*
X107082135Y-81356977D01*
X107087085Y-81323608D01*
X107095282Y-81290885D01*
X107106646Y-81259123D01*
X107121070Y-81228627D01*
X107138412Y-81199693D01*
X107158508Y-81172597D01*
X107181162Y-81147602D01*
X107206157Y-81124948D01*
X107233253Y-81104852D01*
X107262187Y-81087510D01*
X107292683Y-81073086D01*
X107324445Y-81061722D01*
X107357168Y-81053525D01*
X107390537Y-81048575D01*
X107424230Y-81046920D01*
X108536730Y-81046920D01*
X108570423Y-81048575D01*
X108570423Y-81048575D01*
G37*
D18*
X107980480Y-81734420D03*
D17*
G36*
X108570423Y-82923575D02*
X108603792Y-82928525D01*
X108636515Y-82936722D01*
X108668277Y-82948086D01*
X108698773Y-82962510D01*
X108727707Y-82979852D01*
X108754803Y-82999948D01*
X108779798Y-83022602D01*
X108802452Y-83047597D01*
X108822548Y-83074693D01*
X108839890Y-83103627D01*
X108854314Y-83134123D01*
X108865678Y-83165885D01*
X108873875Y-83198608D01*
X108878825Y-83231977D01*
X108880480Y-83265670D01*
X108880480Y-83953170D01*
X108878825Y-83986863D01*
X108873875Y-84020232D01*
X108865678Y-84052955D01*
X108854314Y-84084717D01*
X108839890Y-84115213D01*
X108822548Y-84144147D01*
X108802452Y-84171243D01*
X108779798Y-84196238D01*
X108754803Y-84218892D01*
X108727707Y-84238988D01*
X108698773Y-84256330D01*
X108668277Y-84270754D01*
X108636515Y-84282118D01*
X108603792Y-84290315D01*
X108570423Y-84295265D01*
X108536730Y-84296920D01*
X107424230Y-84296920D01*
X107390537Y-84295265D01*
X107357168Y-84290315D01*
X107324445Y-84282118D01*
X107292683Y-84270754D01*
X107262187Y-84256330D01*
X107233253Y-84238988D01*
X107206157Y-84218892D01*
X107181162Y-84196238D01*
X107158508Y-84171243D01*
X107138412Y-84144147D01*
X107121070Y-84115213D01*
X107106646Y-84084717D01*
X107095282Y-84052955D01*
X107087085Y-84020232D01*
X107082135Y-83986863D01*
X107080480Y-83953170D01*
X107080480Y-83265670D01*
X107082135Y-83231977D01*
X107087085Y-83198608D01*
X107095282Y-83165885D01*
X107106646Y-83134123D01*
X107121070Y-83103627D01*
X107138412Y-83074693D01*
X107158508Y-83047597D01*
X107181162Y-83022602D01*
X107206157Y-82999948D01*
X107233253Y-82979852D01*
X107262187Y-82962510D01*
X107292683Y-82948086D01*
X107324445Y-82936722D01*
X107357168Y-82928525D01*
X107390537Y-82923575D01*
X107424230Y-82921920D01*
X108536730Y-82921920D01*
X108570423Y-82923575D01*
X108570423Y-82923575D01*
G37*
D18*
X107980480Y-83609420D03*
G04 #@! TD*
D17*
G04 #@! TO.C,R35*
G36*
X95870423Y-117243575D02*
X95903792Y-117248525D01*
X95936515Y-117256722D01*
X95968277Y-117268086D01*
X95998773Y-117282510D01*
X96027707Y-117299852D01*
X96054803Y-117319948D01*
X96079798Y-117342602D01*
X96102452Y-117367597D01*
X96122548Y-117394693D01*
X96139890Y-117423627D01*
X96154314Y-117454123D01*
X96165678Y-117485885D01*
X96173875Y-117518608D01*
X96178825Y-117551977D01*
X96180480Y-117585670D01*
X96180480Y-118273170D01*
X96178825Y-118306863D01*
X96173875Y-118340232D01*
X96165678Y-118372955D01*
X96154314Y-118404717D01*
X96139890Y-118435213D01*
X96122548Y-118464147D01*
X96102452Y-118491243D01*
X96079798Y-118516238D01*
X96054803Y-118538892D01*
X96027707Y-118558988D01*
X95998773Y-118576330D01*
X95968277Y-118590754D01*
X95936515Y-118602118D01*
X95903792Y-118610315D01*
X95870423Y-118615265D01*
X95836730Y-118616920D01*
X94724230Y-118616920D01*
X94690537Y-118615265D01*
X94657168Y-118610315D01*
X94624445Y-118602118D01*
X94592683Y-118590754D01*
X94562187Y-118576330D01*
X94533253Y-118558988D01*
X94506157Y-118538892D01*
X94481162Y-118516238D01*
X94458508Y-118491243D01*
X94438412Y-118464147D01*
X94421070Y-118435213D01*
X94406646Y-118404717D01*
X94395282Y-118372955D01*
X94387085Y-118340232D01*
X94382135Y-118306863D01*
X94380480Y-118273170D01*
X94380480Y-117585670D01*
X94382135Y-117551977D01*
X94387085Y-117518608D01*
X94395282Y-117485885D01*
X94406646Y-117454123D01*
X94421070Y-117423627D01*
X94438412Y-117394693D01*
X94458508Y-117367597D01*
X94481162Y-117342602D01*
X94506157Y-117319948D01*
X94533253Y-117299852D01*
X94562187Y-117282510D01*
X94592683Y-117268086D01*
X94624445Y-117256722D01*
X94657168Y-117248525D01*
X94690537Y-117243575D01*
X94724230Y-117241920D01*
X95836730Y-117241920D01*
X95870423Y-117243575D01*
X95870423Y-117243575D01*
G37*
D18*
X95280480Y-117929420D03*
D17*
G36*
X95870423Y-119118575D02*
X95903792Y-119123525D01*
X95936515Y-119131722D01*
X95968277Y-119143086D01*
X95998773Y-119157510D01*
X96027707Y-119174852D01*
X96054803Y-119194948D01*
X96079798Y-119217602D01*
X96102452Y-119242597D01*
X96122548Y-119269693D01*
X96139890Y-119298627D01*
X96154314Y-119329123D01*
X96165678Y-119360885D01*
X96173875Y-119393608D01*
X96178825Y-119426977D01*
X96180480Y-119460670D01*
X96180480Y-120148170D01*
X96178825Y-120181863D01*
X96173875Y-120215232D01*
X96165678Y-120247955D01*
X96154314Y-120279717D01*
X96139890Y-120310213D01*
X96122548Y-120339147D01*
X96102452Y-120366243D01*
X96079798Y-120391238D01*
X96054803Y-120413892D01*
X96027707Y-120433988D01*
X95998773Y-120451330D01*
X95968277Y-120465754D01*
X95936515Y-120477118D01*
X95903792Y-120485315D01*
X95870423Y-120490265D01*
X95836730Y-120491920D01*
X94724230Y-120491920D01*
X94690537Y-120490265D01*
X94657168Y-120485315D01*
X94624445Y-120477118D01*
X94592683Y-120465754D01*
X94562187Y-120451330D01*
X94533253Y-120433988D01*
X94506157Y-120413892D01*
X94481162Y-120391238D01*
X94458508Y-120366243D01*
X94438412Y-120339147D01*
X94421070Y-120310213D01*
X94406646Y-120279717D01*
X94395282Y-120247955D01*
X94387085Y-120215232D01*
X94382135Y-120181863D01*
X94380480Y-120148170D01*
X94380480Y-119460670D01*
X94382135Y-119426977D01*
X94387085Y-119393608D01*
X94395282Y-119360885D01*
X94406646Y-119329123D01*
X94421070Y-119298627D01*
X94438412Y-119269693D01*
X94458508Y-119242597D01*
X94481162Y-119217602D01*
X94506157Y-119194948D01*
X94533253Y-119174852D01*
X94562187Y-119157510D01*
X94592683Y-119143086D01*
X94624445Y-119131722D01*
X94657168Y-119123525D01*
X94690537Y-119118575D01*
X94724230Y-119116920D01*
X95836730Y-119116920D01*
X95870423Y-119118575D01*
X95870423Y-119118575D01*
G37*
D18*
X95280480Y-119804420D03*
G04 #@! TD*
D17*
G04 #@! TO.C,R36*
G36*
X108570423Y-117243575D02*
X108603792Y-117248525D01*
X108636515Y-117256722D01*
X108668277Y-117268086D01*
X108698773Y-117282510D01*
X108727707Y-117299852D01*
X108754803Y-117319948D01*
X108779798Y-117342602D01*
X108802452Y-117367597D01*
X108822548Y-117394693D01*
X108839890Y-117423627D01*
X108854314Y-117454123D01*
X108865678Y-117485885D01*
X108873875Y-117518608D01*
X108878825Y-117551977D01*
X108880480Y-117585670D01*
X108880480Y-118273170D01*
X108878825Y-118306863D01*
X108873875Y-118340232D01*
X108865678Y-118372955D01*
X108854314Y-118404717D01*
X108839890Y-118435213D01*
X108822548Y-118464147D01*
X108802452Y-118491243D01*
X108779798Y-118516238D01*
X108754803Y-118538892D01*
X108727707Y-118558988D01*
X108698773Y-118576330D01*
X108668277Y-118590754D01*
X108636515Y-118602118D01*
X108603792Y-118610315D01*
X108570423Y-118615265D01*
X108536730Y-118616920D01*
X107424230Y-118616920D01*
X107390537Y-118615265D01*
X107357168Y-118610315D01*
X107324445Y-118602118D01*
X107292683Y-118590754D01*
X107262187Y-118576330D01*
X107233253Y-118558988D01*
X107206157Y-118538892D01*
X107181162Y-118516238D01*
X107158508Y-118491243D01*
X107138412Y-118464147D01*
X107121070Y-118435213D01*
X107106646Y-118404717D01*
X107095282Y-118372955D01*
X107087085Y-118340232D01*
X107082135Y-118306863D01*
X107080480Y-118273170D01*
X107080480Y-117585670D01*
X107082135Y-117551977D01*
X107087085Y-117518608D01*
X107095282Y-117485885D01*
X107106646Y-117454123D01*
X107121070Y-117423627D01*
X107138412Y-117394693D01*
X107158508Y-117367597D01*
X107181162Y-117342602D01*
X107206157Y-117319948D01*
X107233253Y-117299852D01*
X107262187Y-117282510D01*
X107292683Y-117268086D01*
X107324445Y-117256722D01*
X107357168Y-117248525D01*
X107390537Y-117243575D01*
X107424230Y-117241920D01*
X108536730Y-117241920D01*
X108570423Y-117243575D01*
X108570423Y-117243575D01*
G37*
D18*
X107980480Y-117929420D03*
D17*
G36*
X108570423Y-119118575D02*
X108603792Y-119123525D01*
X108636515Y-119131722D01*
X108668277Y-119143086D01*
X108698773Y-119157510D01*
X108727707Y-119174852D01*
X108754803Y-119194948D01*
X108779798Y-119217602D01*
X108802452Y-119242597D01*
X108822548Y-119269693D01*
X108839890Y-119298627D01*
X108854314Y-119329123D01*
X108865678Y-119360885D01*
X108873875Y-119393608D01*
X108878825Y-119426977D01*
X108880480Y-119460670D01*
X108880480Y-120148170D01*
X108878825Y-120181863D01*
X108873875Y-120215232D01*
X108865678Y-120247955D01*
X108854314Y-120279717D01*
X108839890Y-120310213D01*
X108822548Y-120339147D01*
X108802452Y-120366243D01*
X108779798Y-120391238D01*
X108754803Y-120413892D01*
X108727707Y-120433988D01*
X108698773Y-120451330D01*
X108668277Y-120465754D01*
X108636515Y-120477118D01*
X108603792Y-120485315D01*
X108570423Y-120490265D01*
X108536730Y-120491920D01*
X107424230Y-120491920D01*
X107390537Y-120490265D01*
X107357168Y-120485315D01*
X107324445Y-120477118D01*
X107292683Y-120465754D01*
X107262187Y-120451330D01*
X107233253Y-120433988D01*
X107206157Y-120413892D01*
X107181162Y-120391238D01*
X107158508Y-120366243D01*
X107138412Y-120339147D01*
X107121070Y-120310213D01*
X107106646Y-120279717D01*
X107095282Y-120247955D01*
X107087085Y-120215232D01*
X107082135Y-120181863D01*
X107080480Y-120148170D01*
X107080480Y-119460670D01*
X107082135Y-119426977D01*
X107087085Y-119393608D01*
X107095282Y-119360885D01*
X107106646Y-119329123D01*
X107121070Y-119298627D01*
X107138412Y-119269693D01*
X107158508Y-119242597D01*
X107181162Y-119217602D01*
X107206157Y-119194948D01*
X107233253Y-119174852D01*
X107262187Y-119157510D01*
X107292683Y-119143086D01*
X107324445Y-119131722D01*
X107357168Y-119123525D01*
X107390537Y-119118575D01*
X107424230Y-119116920D01*
X108536730Y-119116920D01*
X108570423Y-119118575D01*
X108570423Y-119118575D01*
G37*
D18*
X107980480Y-119804420D03*
G04 #@! TD*
D17*
G04 #@! TO.C,R37*
G36*
X84440423Y-86098575D02*
X84473792Y-86103525D01*
X84506515Y-86111722D01*
X84538277Y-86123086D01*
X84568773Y-86137510D01*
X84597707Y-86154852D01*
X84624803Y-86174948D01*
X84649798Y-86197602D01*
X84672452Y-86222597D01*
X84692548Y-86249693D01*
X84709890Y-86278627D01*
X84724314Y-86309123D01*
X84735678Y-86340885D01*
X84743875Y-86373608D01*
X84748825Y-86406977D01*
X84750480Y-86440670D01*
X84750480Y-87128170D01*
X84748825Y-87161863D01*
X84743875Y-87195232D01*
X84735678Y-87227955D01*
X84724314Y-87259717D01*
X84709890Y-87290213D01*
X84692548Y-87319147D01*
X84672452Y-87346243D01*
X84649798Y-87371238D01*
X84624803Y-87393892D01*
X84597707Y-87413988D01*
X84568773Y-87431330D01*
X84538277Y-87445754D01*
X84506515Y-87457118D01*
X84473792Y-87465315D01*
X84440423Y-87470265D01*
X84406730Y-87471920D01*
X83294230Y-87471920D01*
X83260537Y-87470265D01*
X83227168Y-87465315D01*
X83194445Y-87457118D01*
X83162683Y-87445754D01*
X83132187Y-87431330D01*
X83103253Y-87413988D01*
X83076157Y-87393892D01*
X83051162Y-87371238D01*
X83028508Y-87346243D01*
X83008412Y-87319147D01*
X82991070Y-87290213D01*
X82976646Y-87259717D01*
X82965282Y-87227955D01*
X82957085Y-87195232D01*
X82952135Y-87161863D01*
X82950480Y-87128170D01*
X82950480Y-86440670D01*
X82952135Y-86406977D01*
X82957085Y-86373608D01*
X82965282Y-86340885D01*
X82976646Y-86309123D01*
X82991070Y-86278627D01*
X83008412Y-86249693D01*
X83028508Y-86222597D01*
X83051162Y-86197602D01*
X83076157Y-86174948D01*
X83103253Y-86154852D01*
X83132187Y-86137510D01*
X83162683Y-86123086D01*
X83194445Y-86111722D01*
X83227168Y-86103525D01*
X83260537Y-86098575D01*
X83294230Y-86096920D01*
X84406730Y-86096920D01*
X84440423Y-86098575D01*
X84440423Y-86098575D01*
G37*
D18*
X83850480Y-86784420D03*
D17*
G36*
X84440423Y-84223575D02*
X84473792Y-84228525D01*
X84506515Y-84236722D01*
X84538277Y-84248086D01*
X84568773Y-84262510D01*
X84597707Y-84279852D01*
X84624803Y-84299948D01*
X84649798Y-84322602D01*
X84672452Y-84347597D01*
X84692548Y-84374693D01*
X84709890Y-84403627D01*
X84724314Y-84434123D01*
X84735678Y-84465885D01*
X84743875Y-84498608D01*
X84748825Y-84531977D01*
X84750480Y-84565670D01*
X84750480Y-85253170D01*
X84748825Y-85286863D01*
X84743875Y-85320232D01*
X84735678Y-85352955D01*
X84724314Y-85384717D01*
X84709890Y-85415213D01*
X84692548Y-85444147D01*
X84672452Y-85471243D01*
X84649798Y-85496238D01*
X84624803Y-85518892D01*
X84597707Y-85538988D01*
X84568773Y-85556330D01*
X84538277Y-85570754D01*
X84506515Y-85582118D01*
X84473792Y-85590315D01*
X84440423Y-85595265D01*
X84406730Y-85596920D01*
X83294230Y-85596920D01*
X83260537Y-85595265D01*
X83227168Y-85590315D01*
X83194445Y-85582118D01*
X83162683Y-85570754D01*
X83132187Y-85556330D01*
X83103253Y-85538988D01*
X83076157Y-85518892D01*
X83051162Y-85496238D01*
X83028508Y-85471243D01*
X83008412Y-85444147D01*
X82991070Y-85415213D01*
X82976646Y-85384717D01*
X82965282Y-85352955D01*
X82957085Y-85320232D01*
X82952135Y-85286863D01*
X82950480Y-85253170D01*
X82950480Y-84565670D01*
X82952135Y-84531977D01*
X82957085Y-84498608D01*
X82965282Y-84465885D01*
X82976646Y-84434123D01*
X82991070Y-84403627D01*
X83008412Y-84374693D01*
X83028508Y-84347597D01*
X83051162Y-84322602D01*
X83076157Y-84299948D01*
X83103253Y-84279852D01*
X83132187Y-84262510D01*
X83162683Y-84248086D01*
X83194445Y-84236722D01*
X83227168Y-84228525D01*
X83260537Y-84223575D01*
X83294230Y-84221920D01*
X84406730Y-84221920D01*
X84440423Y-84223575D01*
X84440423Y-84223575D01*
G37*
D18*
X83850480Y-84909420D03*
G04 #@! TD*
D17*
G04 #@! TO.C,R38*
G36*
X92060423Y-119118575D02*
X92093792Y-119123525D01*
X92126515Y-119131722D01*
X92158277Y-119143086D01*
X92188773Y-119157510D01*
X92217707Y-119174852D01*
X92244803Y-119194948D01*
X92269798Y-119217602D01*
X92292452Y-119242597D01*
X92312548Y-119269693D01*
X92329890Y-119298627D01*
X92344314Y-119329123D01*
X92355678Y-119360885D01*
X92363875Y-119393608D01*
X92368825Y-119426977D01*
X92370480Y-119460670D01*
X92370480Y-120148170D01*
X92368825Y-120181863D01*
X92363875Y-120215232D01*
X92355678Y-120247955D01*
X92344314Y-120279717D01*
X92329890Y-120310213D01*
X92312548Y-120339147D01*
X92292452Y-120366243D01*
X92269798Y-120391238D01*
X92244803Y-120413892D01*
X92217707Y-120433988D01*
X92188773Y-120451330D01*
X92158277Y-120465754D01*
X92126515Y-120477118D01*
X92093792Y-120485315D01*
X92060423Y-120490265D01*
X92026730Y-120491920D01*
X90914230Y-120491920D01*
X90880537Y-120490265D01*
X90847168Y-120485315D01*
X90814445Y-120477118D01*
X90782683Y-120465754D01*
X90752187Y-120451330D01*
X90723253Y-120433988D01*
X90696157Y-120413892D01*
X90671162Y-120391238D01*
X90648508Y-120366243D01*
X90628412Y-120339147D01*
X90611070Y-120310213D01*
X90596646Y-120279717D01*
X90585282Y-120247955D01*
X90577085Y-120215232D01*
X90572135Y-120181863D01*
X90570480Y-120148170D01*
X90570480Y-119460670D01*
X90572135Y-119426977D01*
X90577085Y-119393608D01*
X90585282Y-119360885D01*
X90596646Y-119329123D01*
X90611070Y-119298627D01*
X90628412Y-119269693D01*
X90648508Y-119242597D01*
X90671162Y-119217602D01*
X90696157Y-119194948D01*
X90723253Y-119174852D01*
X90752187Y-119157510D01*
X90782683Y-119143086D01*
X90814445Y-119131722D01*
X90847168Y-119123525D01*
X90880537Y-119118575D01*
X90914230Y-119116920D01*
X92026730Y-119116920D01*
X92060423Y-119118575D01*
X92060423Y-119118575D01*
G37*
D18*
X91470480Y-119804420D03*
D17*
G36*
X92060423Y-117243575D02*
X92093792Y-117248525D01*
X92126515Y-117256722D01*
X92158277Y-117268086D01*
X92188773Y-117282510D01*
X92217707Y-117299852D01*
X92244803Y-117319948D01*
X92269798Y-117342602D01*
X92292452Y-117367597D01*
X92312548Y-117394693D01*
X92329890Y-117423627D01*
X92344314Y-117454123D01*
X92355678Y-117485885D01*
X92363875Y-117518608D01*
X92368825Y-117551977D01*
X92370480Y-117585670D01*
X92370480Y-118273170D01*
X92368825Y-118306863D01*
X92363875Y-118340232D01*
X92355678Y-118372955D01*
X92344314Y-118404717D01*
X92329890Y-118435213D01*
X92312548Y-118464147D01*
X92292452Y-118491243D01*
X92269798Y-118516238D01*
X92244803Y-118538892D01*
X92217707Y-118558988D01*
X92188773Y-118576330D01*
X92158277Y-118590754D01*
X92126515Y-118602118D01*
X92093792Y-118610315D01*
X92060423Y-118615265D01*
X92026730Y-118616920D01*
X90914230Y-118616920D01*
X90880537Y-118615265D01*
X90847168Y-118610315D01*
X90814445Y-118602118D01*
X90782683Y-118590754D01*
X90752187Y-118576330D01*
X90723253Y-118558988D01*
X90696157Y-118538892D01*
X90671162Y-118516238D01*
X90648508Y-118491243D01*
X90628412Y-118464147D01*
X90611070Y-118435213D01*
X90596646Y-118404717D01*
X90585282Y-118372955D01*
X90577085Y-118340232D01*
X90572135Y-118306863D01*
X90570480Y-118273170D01*
X90570480Y-117585670D01*
X90572135Y-117551977D01*
X90577085Y-117518608D01*
X90585282Y-117485885D01*
X90596646Y-117454123D01*
X90611070Y-117423627D01*
X90628412Y-117394693D01*
X90648508Y-117367597D01*
X90671162Y-117342602D01*
X90696157Y-117319948D01*
X90723253Y-117299852D01*
X90752187Y-117282510D01*
X90782683Y-117268086D01*
X90814445Y-117256722D01*
X90847168Y-117248525D01*
X90880537Y-117243575D01*
X90914230Y-117241920D01*
X92026730Y-117241920D01*
X92060423Y-117243575D01*
X92060423Y-117243575D01*
G37*
D18*
X91470480Y-117929420D03*
G04 #@! TD*
D17*
G04 #@! TO.C,R39*
G36*
X120000423Y-86098575D02*
X120033792Y-86103525D01*
X120066515Y-86111722D01*
X120098277Y-86123086D01*
X120128773Y-86137510D01*
X120157707Y-86154852D01*
X120184803Y-86174948D01*
X120209798Y-86197602D01*
X120232452Y-86222597D01*
X120252548Y-86249693D01*
X120269890Y-86278627D01*
X120284314Y-86309123D01*
X120295678Y-86340885D01*
X120303875Y-86373608D01*
X120308825Y-86406977D01*
X120310480Y-86440670D01*
X120310480Y-87128170D01*
X120308825Y-87161863D01*
X120303875Y-87195232D01*
X120295678Y-87227955D01*
X120284314Y-87259717D01*
X120269890Y-87290213D01*
X120252548Y-87319147D01*
X120232452Y-87346243D01*
X120209798Y-87371238D01*
X120184803Y-87393892D01*
X120157707Y-87413988D01*
X120128773Y-87431330D01*
X120098277Y-87445754D01*
X120066515Y-87457118D01*
X120033792Y-87465315D01*
X120000423Y-87470265D01*
X119966730Y-87471920D01*
X118854230Y-87471920D01*
X118820537Y-87470265D01*
X118787168Y-87465315D01*
X118754445Y-87457118D01*
X118722683Y-87445754D01*
X118692187Y-87431330D01*
X118663253Y-87413988D01*
X118636157Y-87393892D01*
X118611162Y-87371238D01*
X118588508Y-87346243D01*
X118568412Y-87319147D01*
X118551070Y-87290213D01*
X118536646Y-87259717D01*
X118525282Y-87227955D01*
X118517085Y-87195232D01*
X118512135Y-87161863D01*
X118510480Y-87128170D01*
X118510480Y-86440670D01*
X118512135Y-86406977D01*
X118517085Y-86373608D01*
X118525282Y-86340885D01*
X118536646Y-86309123D01*
X118551070Y-86278627D01*
X118568412Y-86249693D01*
X118588508Y-86222597D01*
X118611162Y-86197602D01*
X118636157Y-86174948D01*
X118663253Y-86154852D01*
X118692187Y-86137510D01*
X118722683Y-86123086D01*
X118754445Y-86111722D01*
X118787168Y-86103525D01*
X118820537Y-86098575D01*
X118854230Y-86096920D01*
X119966730Y-86096920D01*
X120000423Y-86098575D01*
X120000423Y-86098575D01*
G37*
D18*
X119410480Y-86784420D03*
D17*
G36*
X120000423Y-84223575D02*
X120033792Y-84228525D01*
X120066515Y-84236722D01*
X120098277Y-84248086D01*
X120128773Y-84262510D01*
X120157707Y-84279852D01*
X120184803Y-84299948D01*
X120209798Y-84322602D01*
X120232452Y-84347597D01*
X120252548Y-84374693D01*
X120269890Y-84403627D01*
X120284314Y-84434123D01*
X120295678Y-84465885D01*
X120303875Y-84498608D01*
X120308825Y-84531977D01*
X120310480Y-84565670D01*
X120310480Y-85253170D01*
X120308825Y-85286863D01*
X120303875Y-85320232D01*
X120295678Y-85352955D01*
X120284314Y-85384717D01*
X120269890Y-85415213D01*
X120252548Y-85444147D01*
X120232452Y-85471243D01*
X120209798Y-85496238D01*
X120184803Y-85518892D01*
X120157707Y-85538988D01*
X120128773Y-85556330D01*
X120098277Y-85570754D01*
X120066515Y-85582118D01*
X120033792Y-85590315D01*
X120000423Y-85595265D01*
X119966730Y-85596920D01*
X118854230Y-85596920D01*
X118820537Y-85595265D01*
X118787168Y-85590315D01*
X118754445Y-85582118D01*
X118722683Y-85570754D01*
X118692187Y-85556330D01*
X118663253Y-85538988D01*
X118636157Y-85518892D01*
X118611162Y-85496238D01*
X118588508Y-85471243D01*
X118568412Y-85444147D01*
X118551070Y-85415213D01*
X118536646Y-85384717D01*
X118525282Y-85352955D01*
X118517085Y-85320232D01*
X118512135Y-85286863D01*
X118510480Y-85253170D01*
X118510480Y-84565670D01*
X118512135Y-84531977D01*
X118517085Y-84498608D01*
X118525282Y-84465885D01*
X118536646Y-84434123D01*
X118551070Y-84403627D01*
X118568412Y-84374693D01*
X118588508Y-84347597D01*
X118611162Y-84322602D01*
X118636157Y-84299948D01*
X118663253Y-84279852D01*
X118692187Y-84262510D01*
X118722683Y-84248086D01*
X118754445Y-84236722D01*
X118787168Y-84228525D01*
X118820537Y-84223575D01*
X118854230Y-84221920D01*
X119966730Y-84221920D01*
X120000423Y-84223575D01*
X120000423Y-84223575D01*
G37*
D18*
X119410480Y-84909420D03*
G04 #@! TD*
D17*
G04 #@! TO.C,R40*
G36*
X112380423Y-119118575D02*
X112413792Y-119123525D01*
X112446515Y-119131722D01*
X112478277Y-119143086D01*
X112508773Y-119157510D01*
X112537707Y-119174852D01*
X112564803Y-119194948D01*
X112589798Y-119217602D01*
X112612452Y-119242597D01*
X112632548Y-119269693D01*
X112649890Y-119298627D01*
X112664314Y-119329123D01*
X112675678Y-119360885D01*
X112683875Y-119393608D01*
X112688825Y-119426977D01*
X112690480Y-119460670D01*
X112690480Y-120148170D01*
X112688825Y-120181863D01*
X112683875Y-120215232D01*
X112675678Y-120247955D01*
X112664314Y-120279717D01*
X112649890Y-120310213D01*
X112632548Y-120339147D01*
X112612452Y-120366243D01*
X112589798Y-120391238D01*
X112564803Y-120413892D01*
X112537707Y-120433988D01*
X112508773Y-120451330D01*
X112478277Y-120465754D01*
X112446515Y-120477118D01*
X112413792Y-120485315D01*
X112380423Y-120490265D01*
X112346730Y-120491920D01*
X111234230Y-120491920D01*
X111200537Y-120490265D01*
X111167168Y-120485315D01*
X111134445Y-120477118D01*
X111102683Y-120465754D01*
X111072187Y-120451330D01*
X111043253Y-120433988D01*
X111016157Y-120413892D01*
X110991162Y-120391238D01*
X110968508Y-120366243D01*
X110948412Y-120339147D01*
X110931070Y-120310213D01*
X110916646Y-120279717D01*
X110905282Y-120247955D01*
X110897085Y-120215232D01*
X110892135Y-120181863D01*
X110890480Y-120148170D01*
X110890480Y-119460670D01*
X110892135Y-119426977D01*
X110897085Y-119393608D01*
X110905282Y-119360885D01*
X110916646Y-119329123D01*
X110931070Y-119298627D01*
X110948412Y-119269693D01*
X110968508Y-119242597D01*
X110991162Y-119217602D01*
X111016157Y-119194948D01*
X111043253Y-119174852D01*
X111072187Y-119157510D01*
X111102683Y-119143086D01*
X111134445Y-119131722D01*
X111167168Y-119123525D01*
X111200537Y-119118575D01*
X111234230Y-119116920D01*
X112346730Y-119116920D01*
X112380423Y-119118575D01*
X112380423Y-119118575D01*
G37*
D18*
X111790480Y-119804420D03*
D17*
G36*
X112380423Y-117243575D02*
X112413792Y-117248525D01*
X112446515Y-117256722D01*
X112478277Y-117268086D01*
X112508773Y-117282510D01*
X112537707Y-117299852D01*
X112564803Y-117319948D01*
X112589798Y-117342602D01*
X112612452Y-117367597D01*
X112632548Y-117394693D01*
X112649890Y-117423627D01*
X112664314Y-117454123D01*
X112675678Y-117485885D01*
X112683875Y-117518608D01*
X112688825Y-117551977D01*
X112690480Y-117585670D01*
X112690480Y-118273170D01*
X112688825Y-118306863D01*
X112683875Y-118340232D01*
X112675678Y-118372955D01*
X112664314Y-118404717D01*
X112649890Y-118435213D01*
X112632548Y-118464147D01*
X112612452Y-118491243D01*
X112589798Y-118516238D01*
X112564803Y-118538892D01*
X112537707Y-118558988D01*
X112508773Y-118576330D01*
X112478277Y-118590754D01*
X112446515Y-118602118D01*
X112413792Y-118610315D01*
X112380423Y-118615265D01*
X112346730Y-118616920D01*
X111234230Y-118616920D01*
X111200537Y-118615265D01*
X111167168Y-118610315D01*
X111134445Y-118602118D01*
X111102683Y-118590754D01*
X111072187Y-118576330D01*
X111043253Y-118558988D01*
X111016157Y-118538892D01*
X110991162Y-118516238D01*
X110968508Y-118491243D01*
X110948412Y-118464147D01*
X110931070Y-118435213D01*
X110916646Y-118404717D01*
X110905282Y-118372955D01*
X110897085Y-118340232D01*
X110892135Y-118306863D01*
X110890480Y-118273170D01*
X110890480Y-117585670D01*
X110892135Y-117551977D01*
X110897085Y-117518608D01*
X110905282Y-117485885D01*
X110916646Y-117454123D01*
X110931070Y-117423627D01*
X110948412Y-117394693D01*
X110968508Y-117367597D01*
X110991162Y-117342602D01*
X111016157Y-117319948D01*
X111043253Y-117299852D01*
X111072187Y-117282510D01*
X111102683Y-117268086D01*
X111134445Y-117256722D01*
X111167168Y-117248525D01*
X111200537Y-117243575D01*
X111234230Y-117241920D01*
X112346730Y-117241920D01*
X112380423Y-117243575D01*
X112380423Y-117243575D01*
G37*
D18*
X111790480Y-117929420D03*
G04 #@! TD*
D17*
G04 #@! TO.C,R26*
G36*
X115524943Y-97436655D02*
X115558312Y-97441605D01*
X115591035Y-97449802D01*
X115622797Y-97461166D01*
X115653293Y-97475590D01*
X115682227Y-97492932D01*
X115709323Y-97513028D01*
X115734318Y-97535682D01*
X115756972Y-97560677D01*
X115777068Y-97587773D01*
X115794410Y-97616707D01*
X115808834Y-97647203D01*
X115820198Y-97678965D01*
X115828395Y-97711688D01*
X115833345Y-97745057D01*
X115835000Y-97778750D01*
X115835000Y-98466250D01*
X115833345Y-98499943D01*
X115828395Y-98533312D01*
X115820198Y-98566035D01*
X115808834Y-98597797D01*
X115794410Y-98628293D01*
X115777068Y-98657227D01*
X115756972Y-98684323D01*
X115734318Y-98709318D01*
X115709323Y-98731972D01*
X115682227Y-98752068D01*
X115653293Y-98769410D01*
X115622797Y-98783834D01*
X115591035Y-98795198D01*
X115558312Y-98803395D01*
X115524943Y-98808345D01*
X115491250Y-98810000D01*
X114378750Y-98810000D01*
X114345057Y-98808345D01*
X114311688Y-98803395D01*
X114278965Y-98795198D01*
X114247203Y-98783834D01*
X114216707Y-98769410D01*
X114187773Y-98752068D01*
X114160677Y-98731972D01*
X114135682Y-98709318D01*
X114113028Y-98684323D01*
X114092932Y-98657227D01*
X114075590Y-98628293D01*
X114061166Y-98597797D01*
X114049802Y-98566035D01*
X114041605Y-98533312D01*
X114036655Y-98499943D01*
X114035000Y-98466250D01*
X114035000Y-97778750D01*
X114036655Y-97745057D01*
X114041605Y-97711688D01*
X114049802Y-97678965D01*
X114061166Y-97647203D01*
X114075590Y-97616707D01*
X114092932Y-97587773D01*
X114113028Y-97560677D01*
X114135682Y-97535682D01*
X114160677Y-97513028D01*
X114187773Y-97492932D01*
X114216707Y-97475590D01*
X114247203Y-97461166D01*
X114278965Y-97449802D01*
X114311688Y-97441605D01*
X114345057Y-97436655D01*
X114378750Y-97435000D01*
X115491250Y-97435000D01*
X115524943Y-97436655D01*
X115524943Y-97436655D01*
G37*
D18*
X114935000Y-98122500D03*
D17*
G36*
X115524943Y-99311655D02*
X115558312Y-99316605D01*
X115591035Y-99324802D01*
X115622797Y-99336166D01*
X115653293Y-99350590D01*
X115682227Y-99367932D01*
X115709323Y-99388028D01*
X115734318Y-99410682D01*
X115756972Y-99435677D01*
X115777068Y-99462773D01*
X115794410Y-99491707D01*
X115808834Y-99522203D01*
X115820198Y-99553965D01*
X115828395Y-99586688D01*
X115833345Y-99620057D01*
X115835000Y-99653750D01*
X115835000Y-100341250D01*
X115833345Y-100374943D01*
X115828395Y-100408312D01*
X115820198Y-100441035D01*
X115808834Y-100472797D01*
X115794410Y-100503293D01*
X115777068Y-100532227D01*
X115756972Y-100559323D01*
X115734318Y-100584318D01*
X115709323Y-100606972D01*
X115682227Y-100627068D01*
X115653293Y-100644410D01*
X115622797Y-100658834D01*
X115591035Y-100670198D01*
X115558312Y-100678395D01*
X115524943Y-100683345D01*
X115491250Y-100685000D01*
X114378750Y-100685000D01*
X114345057Y-100683345D01*
X114311688Y-100678395D01*
X114278965Y-100670198D01*
X114247203Y-100658834D01*
X114216707Y-100644410D01*
X114187773Y-100627068D01*
X114160677Y-100606972D01*
X114135682Y-100584318D01*
X114113028Y-100559323D01*
X114092932Y-100532227D01*
X114075590Y-100503293D01*
X114061166Y-100472797D01*
X114049802Y-100441035D01*
X114041605Y-100408312D01*
X114036655Y-100374943D01*
X114035000Y-100341250D01*
X114035000Y-99653750D01*
X114036655Y-99620057D01*
X114041605Y-99586688D01*
X114049802Y-99553965D01*
X114061166Y-99522203D01*
X114075590Y-99491707D01*
X114092932Y-99462773D01*
X114113028Y-99435677D01*
X114135682Y-99410682D01*
X114160677Y-99388028D01*
X114187773Y-99367932D01*
X114216707Y-99350590D01*
X114247203Y-99336166D01*
X114278965Y-99324802D01*
X114311688Y-99316605D01*
X114345057Y-99311655D01*
X114378750Y-99310000D01*
X115491250Y-99310000D01*
X115524943Y-99311655D01*
X115524943Y-99311655D01*
G37*
D18*
X114935000Y-99997500D03*
G04 #@! TD*
D17*
G04 #@! TO.C,R21*
G36*
X84440423Y-66443575D02*
X84473792Y-66448525D01*
X84506515Y-66456722D01*
X84538277Y-66468086D01*
X84568773Y-66482510D01*
X84597707Y-66499852D01*
X84624803Y-66519948D01*
X84649798Y-66542602D01*
X84672452Y-66567597D01*
X84692548Y-66594693D01*
X84709890Y-66623627D01*
X84724314Y-66654123D01*
X84735678Y-66685885D01*
X84743875Y-66718608D01*
X84748825Y-66751977D01*
X84750480Y-66785670D01*
X84750480Y-67473170D01*
X84748825Y-67506863D01*
X84743875Y-67540232D01*
X84735678Y-67572955D01*
X84724314Y-67604717D01*
X84709890Y-67635213D01*
X84692548Y-67664147D01*
X84672452Y-67691243D01*
X84649798Y-67716238D01*
X84624803Y-67738892D01*
X84597707Y-67758988D01*
X84568773Y-67776330D01*
X84538277Y-67790754D01*
X84506515Y-67802118D01*
X84473792Y-67810315D01*
X84440423Y-67815265D01*
X84406730Y-67816920D01*
X83294230Y-67816920D01*
X83260537Y-67815265D01*
X83227168Y-67810315D01*
X83194445Y-67802118D01*
X83162683Y-67790754D01*
X83132187Y-67776330D01*
X83103253Y-67758988D01*
X83076157Y-67738892D01*
X83051162Y-67716238D01*
X83028508Y-67691243D01*
X83008412Y-67664147D01*
X82991070Y-67635213D01*
X82976646Y-67604717D01*
X82965282Y-67572955D01*
X82957085Y-67540232D01*
X82952135Y-67506863D01*
X82950480Y-67473170D01*
X82950480Y-66785670D01*
X82952135Y-66751977D01*
X82957085Y-66718608D01*
X82965282Y-66685885D01*
X82976646Y-66654123D01*
X82991070Y-66623627D01*
X83008412Y-66594693D01*
X83028508Y-66567597D01*
X83051162Y-66542602D01*
X83076157Y-66519948D01*
X83103253Y-66499852D01*
X83132187Y-66482510D01*
X83162683Y-66468086D01*
X83194445Y-66456722D01*
X83227168Y-66448525D01*
X83260537Y-66443575D01*
X83294230Y-66441920D01*
X84406730Y-66441920D01*
X84440423Y-66443575D01*
X84440423Y-66443575D01*
G37*
D18*
X83850480Y-67129420D03*
D17*
G36*
X84440423Y-68318575D02*
X84473792Y-68323525D01*
X84506515Y-68331722D01*
X84538277Y-68343086D01*
X84568773Y-68357510D01*
X84597707Y-68374852D01*
X84624803Y-68394948D01*
X84649798Y-68417602D01*
X84672452Y-68442597D01*
X84692548Y-68469693D01*
X84709890Y-68498627D01*
X84724314Y-68529123D01*
X84735678Y-68560885D01*
X84743875Y-68593608D01*
X84748825Y-68626977D01*
X84750480Y-68660670D01*
X84750480Y-69348170D01*
X84748825Y-69381863D01*
X84743875Y-69415232D01*
X84735678Y-69447955D01*
X84724314Y-69479717D01*
X84709890Y-69510213D01*
X84692548Y-69539147D01*
X84672452Y-69566243D01*
X84649798Y-69591238D01*
X84624803Y-69613892D01*
X84597707Y-69633988D01*
X84568773Y-69651330D01*
X84538277Y-69665754D01*
X84506515Y-69677118D01*
X84473792Y-69685315D01*
X84440423Y-69690265D01*
X84406730Y-69691920D01*
X83294230Y-69691920D01*
X83260537Y-69690265D01*
X83227168Y-69685315D01*
X83194445Y-69677118D01*
X83162683Y-69665754D01*
X83132187Y-69651330D01*
X83103253Y-69633988D01*
X83076157Y-69613892D01*
X83051162Y-69591238D01*
X83028508Y-69566243D01*
X83008412Y-69539147D01*
X82991070Y-69510213D01*
X82976646Y-69479717D01*
X82965282Y-69447955D01*
X82957085Y-69415232D01*
X82952135Y-69381863D01*
X82950480Y-69348170D01*
X82950480Y-68660670D01*
X82952135Y-68626977D01*
X82957085Y-68593608D01*
X82965282Y-68560885D01*
X82976646Y-68529123D01*
X82991070Y-68498627D01*
X83008412Y-68469693D01*
X83028508Y-68442597D01*
X83051162Y-68417602D01*
X83076157Y-68394948D01*
X83103253Y-68374852D01*
X83132187Y-68357510D01*
X83162683Y-68343086D01*
X83194445Y-68331722D01*
X83227168Y-68323525D01*
X83260537Y-68318575D01*
X83294230Y-68316920D01*
X84406730Y-68316920D01*
X84440423Y-68318575D01*
X84440423Y-68318575D01*
G37*
D18*
X83850480Y-69004420D03*
G04 #@! TD*
D17*
G04 #@! TO.C,R20*
G36*
X108570423Y-72763575D02*
X108603792Y-72768525D01*
X108636515Y-72776722D01*
X108668277Y-72788086D01*
X108698773Y-72802510D01*
X108727707Y-72819852D01*
X108754803Y-72839948D01*
X108779798Y-72862602D01*
X108802452Y-72887597D01*
X108822548Y-72914693D01*
X108839890Y-72943627D01*
X108854314Y-72974123D01*
X108865678Y-73005885D01*
X108873875Y-73038608D01*
X108878825Y-73071977D01*
X108880480Y-73105670D01*
X108880480Y-73793170D01*
X108878825Y-73826863D01*
X108873875Y-73860232D01*
X108865678Y-73892955D01*
X108854314Y-73924717D01*
X108839890Y-73955213D01*
X108822548Y-73984147D01*
X108802452Y-74011243D01*
X108779798Y-74036238D01*
X108754803Y-74058892D01*
X108727707Y-74078988D01*
X108698773Y-74096330D01*
X108668277Y-74110754D01*
X108636515Y-74122118D01*
X108603792Y-74130315D01*
X108570423Y-74135265D01*
X108536730Y-74136920D01*
X107424230Y-74136920D01*
X107390537Y-74135265D01*
X107357168Y-74130315D01*
X107324445Y-74122118D01*
X107292683Y-74110754D01*
X107262187Y-74096330D01*
X107233253Y-74078988D01*
X107206157Y-74058892D01*
X107181162Y-74036238D01*
X107158508Y-74011243D01*
X107138412Y-73984147D01*
X107121070Y-73955213D01*
X107106646Y-73924717D01*
X107095282Y-73892955D01*
X107087085Y-73860232D01*
X107082135Y-73826863D01*
X107080480Y-73793170D01*
X107080480Y-73105670D01*
X107082135Y-73071977D01*
X107087085Y-73038608D01*
X107095282Y-73005885D01*
X107106646Y-72974123D01*
X107121070Y-72943627D01*
X107138412Y-72914693D01*
X107158508Y-72887597D01*
X107181162Y-72862602D01*
X107206157Y-72839948D01*
X107233253Y-72819852D01*
X107262187Y-72802510D01*
X107292683Y-72788086D01*
X107324445Y-72776722D01*
X107357168Y-72768525D01*
X107390537Y-72763575D01*
X107424230Y-72761920D01*
X108536730Y-72761920D01*
X108570423Y-72763575D01*
X108570423Y-72763575D01*
G37*
D18*
X107980480Y-73449420D03*
D17*
G36*
X108570423Y-70888575D02*
X108603792Y-70893525D01*
X108636515Y-70901722D01*
X108668277Y-70913086D01*
X108698773Y-70927510D01*
X108727707Y-70944852D01*
X108754803Y-70964948D01*
X108779798Y-70987602D01*
X108802452Y-71012597D01*
X108822548Y-71039693D01*
X108839890Y-71068627D01*
X108854314Y-71099123D01*
X108865678Y-71130885D01*
X108873875Y-71163608D01*
X108878825Y-71196977D01*
X108880480Y-71230670D01*
X108880480Y-71918170D01*
X108878825Y-71951863D01*
X108873875Y-71985232D01*
X108865678Y-72017955D01*
X108854314Y-72049717D01*
X108839890Y-72080213D01*
X108822548Y-72109147D01*
X108802452Y-72136243D01*
X108779798Y-72161238D01*
X108754803Y-72183892D01*
X108727707Y-72203988D01*
X108698773Y-72221330D01*
X108668277Y-72235754D01*
X108636515Y-72247118D01*
X108603792Y-72255315D01*
X108570423Y-72260265D01*
X108536730Y-72261920D01*
X107424230Y-72261920D01*
X107390537Y-72260265D01*
X107357168Y-72255315D01*
X107324445Y-72247118D01*
X107292683Y-72235754D01*
X107262187Y-72221330D01*
X107233253Y-72203988D01*
X107206157Y-72183892D01*
X107181162Y-72161238D01*
X107158508Y-72136243D01*
X107138412Y-72109147D01*
X107121070Y-72080213D01*
X107106646Y-72049717D01*
X107095282Y-72017955D01*
X107087085Y-71985232D01*
X107082135Y-71951863D01*
X107080480Y-71918170D01*
X107080480Y-71230670D01*
X107082135Y-71196977D01*
X107087085Y-71163608D01*
X107095282Y-71130885D01*
X107106646Y-71099123D01*
X107121070Y-71068627D01*
X107138412Y-71039693D01*
X107158508Y-71012597D01*
X107181162Y-70987602D01*
X107206157Y-70964948D01*
X107233253Y-70944852D01*
X107262187Y-70927510D01*
X107292683Y-70913086D01*
X107324445Y-70901722D01*
X107357168Y-70893525D01*
X107390537Y-70888575D01*
X107424230Y-70886920D01*
X108536730Y-70886920D01*
X108570423Y-70888575D01*
X108570423Y-70888575D01*
G37*
D18*
X107980480Y-71574420D03*
G04 #@! TD*
D17*
G04 #@! TO.C,R19*
G36*
X95870423Y-72763575D02*
X95903792Y-72768525D01*
X95936515Y-72776722D01*
X95968277Y-72788086D01*
X95998773Y-72802510D01*
X96027707Y-72819852D01*
X96054803Y-72839948D01*
X96079798Y-72862602D01*
X96102452Y-72887597D01*
X96122548Y-72914693D01*
X96139890Y-72943627D01*
X96154314Y-72974123D01*
X96165678Y-73005885D01*
X96173875Y-73038608D01*
X96178825Y-73071977D01*
X96180480Y-73105670D01*
X96180480Y-73793170D01*
X96178825Y-73826863D01*
X96173875Y-73860232D01*
X96165678Y-73892955D01*
X96154314Y-73924717D01*
X96139890Y-73955213D01*
X96122548Y-73984147D01*
X96102452Y-74011243D01*
X96079798Y-74036238D01*
X96054803Y-74058892D01*
X96027707Y-74078988D01*
X95998773Y-74096330D01*
X95968277Y-74110754D01*
X95936515Y-74122118D01*
X95903792Y-74130315D01*
X95870423Y-74135265D01*
X95836730Y-74136920D01*
X94724230Y-74136920D01*
X94690537Y-74135265D01*
X94657168Y-74130315D01*
X94624445Y-74122118D01*
X94592683Y-74110754D01*
X94562187Y-74096330D01*
X94533253Y-74078988D01*
X94506157Y-74058892D01*
X94481162Y-74036238D01*
X94458508Y-74011243D01*
X94438412Y-73984147D01*
X94421070Y-73955213D01*
X94406646Y-73924717D01*
X94395282Y-73892955D01*
X94387085Y-73860232D01*
X94382135Y-73826863D01*
X94380480Y-73793170D01*
X94380480Y-73105670D01*
X94382135Y-73071977D01*
X94387085Y-73038608D01*
X94395282Y-73005885D01*
X94406646Y-72974123D01*
X94421070Y-72943627D01*
X94438412Y-72914693D01*
X94458508Y-72887597D01*
X94481162Y-72862602D01*
X94506157Y-72839948D01*
X94533253Y-72819852D01*
X94562187Y-72802510D01*
X94592683Y-72788086D01*
X94624445Y-72776722D01*
X94657168Y-72768525D01*
X94690537Y-72763575D01*
X94724230Y-72761920D01*
X95836730Y-72761920D01*
X95870423Y-72763575D01*
X95870423Y-72763575D01*
G37*
D18*
X95280480Y-73449420D03*
D17*
G36*
X95870423Y-70888575D02*
X95903792Y-70893525D01*
X95936515Y-70901722D01*
X95968277Y-70913086D01*
X95998773Y-70927510D01*
X96027707Y-70944852D01*
X96054803Y-70964948D01*
X96079798Y-70987602D01*
X96102452Y-71012597D01*
X96122548Y-71039693D01*
X96139890Y-71068627D01*
X96154314Y-71099123D01*
X96165678Y-71130885D01*
X96173875Y-71163608D01*
X96178825Y-71196977D01*
X96180480Y-71230670D01*
X96180480Y-71918170D01*
X96178825Y-71951863D01*
X96173875Y-71985232D01*
X96165678Y-72017955D01*
X96154314Y-72049717D01*
X96139890Y-72080213D01*
X96122548Y-72109147D01*
X96102452Y-72136243D01*
X96079798Y-72161238D01*
X96054803Y-72183892D01*
X96027707Y-72203988D01*
X95998773Y-72221330D01*
X95968277Y-72235754D01*
X95936515Y-72247118D01*
X95903792Y-72255315D01*
X95870423Y-72260265D01*
X95836730Y-72261920D01*
X94724230Y-72261920D01*
X94690537Y-72260265D01*
X94657168Y-72255315D01*
X94624445Y-72247118D01*
X94592683Y-72235754D01*
X94562187Y-72221330D01*
X94533253Y-72203988D01*
X94506157Y-72183892D01*
X94481162Y-72161238D01*
X94458508Y-72136243D01*
X94438412Y-72109147D01*
X94421070Y-72080213D01*
X94406646Y-72049717D01*
X94395282Y-72017955D01*
X94387085Y-71985232D01*
X94382135Y-71951863D01*
X94380480Y-71918170D01*
X94380480Y-71230670D01*
X94382135Y-71196977D01*
X94387085Y-71163608D01*
X94395282Y-71130885D01*
X94406646Y-71099123D01*
X94421070Y-71068627D01*
X94438412Y-71039693D01*
X94458508Y-71012597D01*
X94481162Y-70987602D01*
X94506157Y-70964948D01*
X94533253Y-70944852D01*
X94562187Y-70927510D01*
X94592683Y-70913086D01*
X94624445Y-70901722D01*
X94657168Y-70893525D01*
X94690537Y-70888575D01*
X94724230Y-70886920D01*
X95836730Y-70886920D01*
X95870423Y-70888575D01*
X95870423Y-70888575D01*
G37*
D18*
X95280480Y-71574420D03*
G04 #@! TD*
D17*
G04 #@! TO.C,R34*
G36*
X108570423Y-114038575D02*
X108603792Y-114043525D01*
X108636515Y-114051722D01*
X108668277Y-114063086D01*
X108698773Y-114077510D01*
X108727707Y-114094852D01*
X108754803Y-114114948D01*
X108779798Y-114137602D01*
X108802452Y-114162597D01*
X108822548Y-114189693D01*
X108839890Y-114218627D01*
X108854314Y-114249123D01*
X108865678Y-114280885D01*
X108873875Y-114313608D01*
X108878825Y-114346977D01*
X108880480Y-114380670D01*
X108880480Y-115068170D01*
X108878825Y-115101863D01*
X108873875Y-115135232D01*
X108865678Y-115167955D01*
X108854314Y-115199717D01*
X108839890Y-115230213D01*
X108822548Y-115259147D01*
X108802452Y-115286243D01*
X108779798Y-115311238D01*
X108754803Y-115333892D01*
X108727707Y-115353988D01*
X108698773Y-115371330D01*
X108668277Y-115385754D01*
X108636515Y-115397118D01*
X108603792Y-115405315D01*
X108570423Y-115410265D01*
X108536730Y-115411920D01*
X107424230Y-115411920D01*
X107390537Y-115410265D01*
X107357168Y-115405315D01*
X107324445Y-115397118D01*
X107292683Y-115385754D01*
X107262187Y-115371330D01*
X107233253Y-115353988D01*
X107206157Y-115333892D01*
X107181162Y-115311238D01*
X107158508Y-115286243D01*
X107138412Y-115259147D01*
X107121070Y-115230213D01*
X107106646Y-115199717D01*
X107095282Y-115167955D01*
X107087085Y-115135232D01*
X107082135Y-115101863D01*
X107080480Y-115068170D01*
X107080480Y-114380670D01*
X107082135Y-114346977D01*
X107087085Y-114313608D01*
X107095282Y-114280885D01*
X107106646Y-114249123D01*
X107121070Y-114218627D01*
X107138412Y-114189693D01*
X107158508Y-114162597D01*
X107181162Y-114137602D01*
X107206157Y-114114948D01*
X107233253Y-114094852D01*
X107262187Y-114077510D01*
X107292683Y-114063086D01*
X107324445Y-114051722D01*
X107357168Y-114043525D01*
X107390537Y-114038575D01*
X107424230Y-114036920D01*
X108536730Y-114036920D01*
X108570423Y-114038575D01*
X108570423Y-114038575D01*
G37*
D18*
X107980480Y-114724420D03*
D17*
G36*
X108570423Y-112163575D02*
X108603792Y-112168525D01*
X108636515Y-112176722D01*
X108668277Y-112188086D01*
X108698773Y-112202510D01*
X108727707Y-112219852D01*
X108754803Y-112239948D01*
X108779798Y-112262602D01*
X108802452Y-112287597D01*
X108822548Y-112314693D01*
X108839890Y-112343627D01*
X108854314Y-112374123D01*
X108865678Y-112405885D01*
X108873875Y-112438608D01*
X108878825Y-112471977D01*
X108880480Y-112505670D01*
X108880480Y-113193170D01*
X108878825Y-113226863D01*
X108873875Y-113260232D01*
X108865678Y-113292955D01*
X108854314Y-113324717D01*
X108839890Y-113355213D01*
X108822548Y-113384147D01*
X108802452Y-113411243D01*
X108779798Y-113436238D01*
X108754803Y-113458892D01*
X108727707Y-113478988D01*
X108698773Y-113496330D01*
X108668277Y-113510754D01*
X108636515Y-113522118D01*
X108603792Y-113530315D01*
X108570423Y-113535265D01*
X108536730Y-113536920D01*
X107424230Y-113536920D01*
X107390537Y-113535265D01*
X107357168Y-113530315D01*
X107324445Y-113522118D01*
X107292683Y-113510754D01*
X107262187Y-113496330D01*
X107233253Y-113478988D01*
X107206157Y-113458892D01*
X107181162Y-113436238D01*
X107158508Y-113411243D01*
X107138412Y-113384147D01*
X107121070Y-113355213D01*
X107106646Y-113324717D01*
X107095282Y-113292955D01*
X107087085Y-113260232D01*
X107082135Y-113226863D01*
X107080480Y-113193170D01*
X107080480Y-112505670D01*
X107082135Y-112471977D01*
X107087085Y-112438608D01*
X107095282Y-112405885D01*
X107106646Y-112374123D01*
X107121070Y-112343627D01*
X107138412Y-112314693D01*
X107158508Y-112287597D01*
X107181162Y-112262602D01*
X107206157Y-112239948D01*
X107233253Y-112219852D01*
X107262187Y-112202510D01*
X107292683Y-112188086D01*
X107324445Y-112176722D01*
X107357168Y-112168525D01*
X107390537Y-112163575D01*
X107424230Y-112161920D01*
X108536730Y-112161920D01*
X108570423Y-112163575D01*
X108570423Y-112163575D01*
G37*
D18*
X107980480Y-112849420D03*
G04 #@! TD*
D17*
G04 #@! TO.C,R17*
G36*
X95870423Y-66443575D02*
X95903792Y-66448525D01*
X95936515Y-66456722D01*
X95968277Y-66468086D01*
X95998773Y-66482510D01*
X96027707Y-66499852D01*
X96054803Y-66519948D01*
X96079798Y-66542602D01*
X96102452Y-66567597D01*
X96122548Y-66594693D01*
X96139890Y-66623627D01*
X96154314Y-66654123D01*
X96165678Y-66685885D01*
X96173875Y-66718608D01*
X96178825Y-66751977D01*
X96180480Y-66785670D01*
X96180480Y-67473170D01*
X96178825Y-67506863D01*
X96173875Y-67540232D01*
X96165678Y-67572955D01*
X96154314Y-67604717D01*
X96139890Y-67635213D01*
X96122548Y-67664147D01*
X96102452Y-67691243D01*
X96079798Y-67716238D01*
X96054803Y-67738892D01*
X96027707Y-67758988D01*
X95998773Y-67776330D01*
X95968277Y-67790754D01*
X95936515Y-67802118D01*
X95903792Y-67810315D01*
X95870423Y-67815265D01*
X95836730Y-67816920D01*
X94724230Y-67816920D01*
X94690537Y-67815265D01*
X94657168Y-67810315D01*
X94624445Y-67802118D01*
X94592683Y-67790754D01*
X94562187Y-67776330D01*
X94533253Y-67758988D01*
X94506157Y-67738892D01*
X94481162Y-67716238D01*
X94458508Y-67691243D01*
X94438412Y-67664147D01*
X94421070Y-67635213D01*
X94406646Y-67604717D01*
X94395282Y-67572955D01*
X94387085Y-67540232D01*
X94382135Y-67506863D01*
X94380480Y-67473170D01*
X94380480Y-66785670D01*
X94382135Y-66751977D01*
X94387085Y-66718608D01*
X94395282Y-66685885D01*
X94406646Y-66654123D01*
X94421070Y-66623627D01*
X94438412Y-66594693D01*
X94458508Y-66567597D01*
X94481162Y-66542602D01*
X94506157Y-66519948D01*
X94533253Y-66499852D01*
X94562187Y-66482510D01*
X94592683Y-66468086D01*
X94624445Y-66456722D01*
X94657168Y-66448525D01*
X94690537Y-66443575D01*
X94724230Y-66441920D01*
X95836730Y-66441920D01*
X95870423Y-66443575D01*
X95870423Y-66443575D01*
G37*
D18*
X95280480Y-67129420D03*
D17*
G36*
X95870423Y-68318575D02*
X95903792Y-68323525D01*
X95936515Y-68331722D01*
X95968277Y-68343086D01*
X95998773Y-68357510D01*
X96027707Y-68374852D01*
X96054803Y-68394948D01*
X96079798Y-68417602D01*
X96102452Y-68442597D01*
X96122548Y-68469693D01*
X96139890Y-68498627D01*
X96154314Y-68529123D01*
X96165678Y-68560885D01*
X96173875Y-68593608D01*
X96178825Y-68626977D01*
X96180480Y-68660670D01*
X96180480Y-69348170D01*
X96178825Y-69381863D01*
X96173875Y-69415232D01*
X96165678Y-69447955D01*
X96154314Y-69479717D01*
X96139890Y-69510213D01*
X96122548Y-69539147D01*
X96102452Y-69566243D01*
X96079798Y-69591238D01*
X96054803Y-69613892D01*
X96027707Y-69633988D01*
X95998773Y-69651330D01*
X95968277Y-69665754D01*
X95936515Y-69677118D01*
X95903792Y-69685315D01*
X95870423Y-69690265D01*
X95836730Y-69691920D01*
X94724230Y-69691920D01*
X94690537Y-69690265D01*
X94657168Y-69685315D01*
X94624445Y-69677118D01*
X94592683Y-69665754D01*
X94562187Y-69651330D01*
X94533253Y-69633988D01*
X94506157Y-69613892D01*
X94481162Y-69591238D01*
X94458508Y-69566243D01*
X94438412Y-69539147D01*
X94421070Y-69510213D01*
X94406646Y-69479717D01*
X94395282Y-69447955D01*
X94387085Y-69415232D01*
X94382135Y-69381863D01*
X94380480Y-69348170D01*
X94380480Y-68660670D01*
X94382135Y-68626977D01*
X94387085Y-68593608D01*
X94395282Y-68560885D01*
X94406646Y-68529123D01*
X94421070Y-68498627D01*
X94438412Y-68469693D01*
X94458508Y-68442597D01*
X94481162Y-68417602D01*
X94506157Y-68394948D01*
X94533253Y-68374852D01*
X94562187Y-68357510D01*
X94592683Y-68343086D01*
X94624445Y-68331722D01*
X94657168Y-68323525D01*
X94690537Y-68318575D01*
X94724230Y-68316920D01*
X95836730Y-68316920D01*
X95870423Y-68318575D01*
X95870423Y-68318575D01*
G37*
D18*
X95280480Y-69004420D03*
G04 #@! TD*
D17*
G04 #@! TO.C,R16*
G36*
X108570423Y-96288575D02*
X108603792Y-96293525D01*
X108636515Y-96301722D01*
X108668277Y-96313086D01*
X108698773Y-96327510D01*
X108727707Y-96344852D01*
X108754803Y-96364948D01*
X108779798Y-96387602D01*
X108802452Y-96412597D01*
X108822548Y-96439693D01*
X108839890Y-96468627D01*
X108854314Y-96499123D01*
X108865678Y-96530885D01*
X108873875Y-96563608D01*
X108878825Y-96596977D01*
X108880480Y-96630670D01*
X108880480Y-97318170D01*
X108878825Y-97351863D01*
X108873875Y-97385232D01*
X108865678Y-97417955D01*
X108854314Y-97449717D01*
X108839890Y-97480213D01*
X108822548Y-97509147D01*
X108802452Y-97536243D01*
X108779798Y-97561238D01*
X108754803Y-97583892D01*
X108727707Y-97603988D01*
X108698773Y-97621330D01*
X108668277Y-97635754D01*
X108636515Y-97647118D01*
X108603792Y-97655315D01*
X108570423Y-97660265D01*
X108536730Y-97661920D01*
X107424230Y-97661920D01*
X107390537Y-97660265D01*
X107357168Y-97655315D01*
X107324445Y-97647118D01*
X107292683Y-97635754D01*
X107262187Y-97621330D01*
X107233253Y-97603988D01*
X107206157Y-97583892D01*
X107181162Y-97561238D01*
X107158508Y-97536243D01*
X107138412Y-97509147D01*
X107121070Y-97480213D01*
X107106646Y-97449717D01*
X107095282Y-97417955D01*
X107087085Y-97385232D01*
X107082135Y-97351863D01*
X107080480Y-97318170D01*
X107080480Y-96630670D01*
X107082135Y-96596977D01*
X107087085Y-96563608D01*
X107095282Y-96530885D01*
X107106646Y-96499123D01*
X107121070Y-96468627D01*
X107138412Y-96439693D01*
X107158508Y-96412597D01*
X107181162Y-96387602D01*
X107206157Y-96364948D01*
X107233253Y-96344852D01*
X107262187Y-96327510D01*
X107292683Y-96313086D01*
X107324445Y-96301722D01*
X107357168Y-96293525D01*
X107390537Y-96288575D01*
X107424230Y-96286920D01*
X108536730Y-96286920D01*
X108570423Y-96288575D01*
X108570423Y-96288575D01*
G37*
D18*
X107980480Y-96974420D03*
D17*
G36*
X108570423Y-98163575D02*
X108603792Y-98168525D01*
X108636515Y-98176722D01*
X108668277Y-98188086D01*
X108698773Y-98202510D01*
X108727707Y-98219852D01*
X108754803Y-98239948D01*
X108779798Y-98262602D01*
X108802452Y-98287597D01*
X108822548Y-98314693D01*
X108839890Y-98343627D01*
X108854314Y-98374123D01*
X108865678Y-98405885D01*
X108873875Y-98438608D01*
X108878825Y-98471977D01*
X108880480Y-98505670D01*
X108880480Y-99193170D01*
X108878825Y-99226863D01*
X108873875Y-99260232D01*
X108865678Y-99292955D01*
X108854314Y-99324717D01*
X108839890Y-99355213D01*
X108822548Y-99384147D01*
X108802452Y-99411243D01*
X108779798Y-99436238D01*
X108754803Y-99458892D01*
X108727707Y-99478988D01*
X108698773Y-99496330D01*
X108668277Y-99510754D01*
X108636515Y-99522118D01*
X108603792Y-99530315D01*
X108570423Y-99535265D01*
X108536730Y-99536920D01*
X107424230Y-99536920D01*
X107390537Y-99535265D01*
X107357168Y-99530315D01*
X107324445Y-99522118D01*
X107292683Y-99510754D01*
X107262187Y-99496330D01*
X107233253Y-99478988D01*
X107206157Y-99458892D01*
X107181162Y-99436238D01*
X107158508Y-99411243D01*
X107138412Y-99384147D01*
X107121070Y-99355213D01*
X107106646Y-99324717D01*
X107095282Y-99292955D01*
X107087085Y-99260232D01*
X107082135Y-99226863D01*
X107080480Y-99193170D01*
X107080480Y-98505670D01*
X107082135Y-98471977D01*
X107087085Y-98438608D01*
X107095282Y-98405885D01*
X107106646Y-98374123D01*
X107121070Y-98343627D01*
X107138412Y-98314693D01*
X107158508Y-98287597D01*
X107181162Y-98262602D01*
X107206157Y-98239948D01*
X107233253Y-98219852D01*
X107262187Y-98202510D01*
X107292683Y-98188086D01*
X107324445Y-98176722D01*
X107357168Y-98168525D01*
X107390537Y-98163575D01*
X107424230Y-98161920D01*
X108536730Y-98161920D01*
X108570423Y-98163575D01*
X108570423Y-98163575D01*
G37*
D18*
X107980480Y-98849420D03*
G04 #@! TD*
D17*
G04 #@! TO.C,R15*
G36*
X95870423Y-96288575D02*
X95903792Y-96293525D01*
X95936515Y-96301722D01*
X95968277Y-96313086D01*
X95998773Y-96327510D01*
X96027707Y-96344852D01*
X96054803Y-96364948D01*
X96079798Y-96387602D01*
X96102452Y-96412597D01*
X96122548Y-96439693D01*
X96139890Y-96468627D01*
X96154314Y-96499123D01*
X96165678Y-96530885D01*
X96173875Y-96563608D01*
X96178825Y-96596977D01*
X96180480Y-96630670D01*
X96180480Y-97318170D01*
X96178825Y-97351863D01*
X96173875Y-97385232D01*
X96165678Y-97417955D01*
X96154314Y-97449717D01*
X96139890Y-97480213D01*
X96122548Y-97509147D01*
X96102452Y-97536243D01*
X96079798Y-97561238D01*
X96054803Y-97583892D01*
X96027707Y-97603988D01*
X95998773Y-97621330D01*
X95968277Y-97635754D01*
X95936515Y-97647118D01*
X95903792Y-97655315D01*
X95870423Y-97660265D01*
X95836730Y-97661920D01*
X94724230Y-97661920D01*
X94690537Y-97660265D01*
X94657168Y-97655315D01*
X94624445Y-97647118D01*
X94592683Y-97635754D01*
X94562187Y-97621330D01*
X94533253Y-97603988D01*
X94506157Y-97583892D01*
X94481162Y-97561238D01*
X94458508Y-97536243D01*
X94438412Y-97509147D01*
X94421070Y-97480213D01*
X94406646Y-97449717D01*
X94395282Y-97417955D01*
X94387085Y-97385232D01*
X94382135Y-97351863D01*
X94380480Y-97318170D01*
X94380480Y-96630670D01*
X94382135Y-96596977D01*
X94387085Y-96563608D01*
X94395282Y-96530885D01*
X94406646Y-96499123D01*
X94421070Y-96468627D01*
X94438412Y-96439693D01*
X94458508Y-96412597D01*
X94481162Y-96387602D01*
X94506157Y-96364948D01*
X94533253Y-96344852D01*
X94562187Y-96327510D01*
X94592683Y-96313086D01*
X94624445Y-96301722D01*
X94657168Y-96293525D01*
X94690537Y-96288575D01*
X94724230Y-96286920D01*
X95836730Y-96286920D01*
X95870423Y-96288575D01*
X95870423Y-96288575D01*
G37*
D18*
X95280480Y-96974420D03*
D17*
G36*
X95870423Y-98163575D02*
X95903792Y-98168525D01*
X95936515Y-98176722D01*
X95968277Y-98188086D01*
X95998773Y-98202510D01*
X96027707Y-98219852D01*
X96054803Y-98239948D01*
X96079798Y-98262602D01*
X96102452Y-98287597D01*
X96122548Y-98314693D01*
X96139890Y-98343627D01*
X96154314Y-98374123D01*
X96165678Y-98405885D01*
X96173875Y-98438608D01*
X96178825Y-98471977D01*
X96180480Y-98505670D01*
X96180480Y-99193170D01*
X96178825Y-99226863D01*
X96173875Y-99260232D01*
X96165678Y-99292955D01*
X96154314Y-99324717D01*
X96139890Y-99355213D01*
X96122548Y-99384147D01*
X96102452Y-99411243D01*
X96079798Y-99436238D01*
X96054803Y-99458892D01*
X96027707Y-99478988D01*
X95998773Y-99496330D01*
X95968277Y-99510754D01*
X95936515Y-99522118D01*
X95903792Y-99530315D01*
X95870423Y-99535265D01*
X95836730Y-99536920D01*
X94724230Y-99536920D01*
X94690537Y-99535265D01*
X94657168Y-99530315D01*
X94624445Y-99522118D01*
X94592683Y-99510754D01*
X94562187Y-99496330D01*
X94533253Y-99478988D01*
X94506157Y-99458892D01*
X94481162Y-99436238D01*
X94458508Y-99411243D01*
X94438412Y-99384147D01*
X94421070Y-99355213D01*
X94406646Y-99324717D01*
X94395282Y-99292955D01*
X94387085Y-99260232D01*
X94382135Y-99226863D01*
X94380480Y-99193170D01*
X94380480Y-98505670D01*
X94382135Y-98471977D01*
X94387085Y-98438608D01*
X94395282Y-98405885D01*
X94406646Y-98374123D01*
X94421070Y-98343627D01*
X94438412Y-98314693D01*
X94458508Y-98287597D01*
X94481162Y-98262602D01*
X94506157Y-98239948D01*
X94533253Y-98219852D01*
X94562187Y-98202510D01*
X94592683Y-98188086D01*
X94624445Y-98176722D01*
X94657168Y-98168525D01*
X94690537Y-98163575D01*
X94724230Y-98161920D01*
X95836730Y-98161920D01*
X95870423Y-98163575D01*
X95870423Y-98163575D01*
G37*
D18*
X95280480Y-98849420D03*
G04 #@! TD*
D17*
G04 #@! TO.C,R14*
G36*
X116190423Y-87398575D02*
X116223792Y-87403525D01*
X116256515Y-87411722D01*
X116288277Y-87423086D01*
X116318773Y-87437510D01*
X116347707Y-87454852D01*
X116374803Y-87474948D01*
X116399798Y-87497602D01*
X116422452Y-87522597D01*
X116442548Y-87549693D01*
X116459890Y-87578627D01*
X116474314Y-87609123D01*
X116485678Y-87640885D01*
X116493875Y-87673608D01*
X116498825Y-87706977D01*
X116500480Y-87740670D01*
X116500480Y-88428170D01*
X116498825Y-88461863D01*
X116493875Y-88495232D01*
X116485678Y-88527955D01*
X116474314Y-88559717D01*
X116459890Y-88590213D01*
X116442548Y-88619147D01*
X116422452Y-88646243D01*
X116399798Y-88671238D01*
X116374803Y-88693892D01*
X116347707Y-88713988D01*
X116318773Y-88731330D01*
X116288277Y-88745754D01*
X116256515Y-88757118D01*
X116223792Y-88765315D01*
X116190423Y-88770265D01*
X116156730Y-88771920D01*
X115044230Y-88771920D01*
X115010537Y-88770265D01*
X114977168Y-88765315D01*
X114944445Y-88757118D01*
X114912683Y-88745754D01*
X114882187Y-88731330D01*
X114853253Y-88713988D01*
X114826157Y-88693892D01*
X114801162Y-88671238D01*
X114778508Y-88646243D01*
X114758412Y-88619147D01*
X114741070Y-88590213D01*
X114726646Y-88559717D01*
X114715282Y-88527955D01*
X114707085Y-88495232D01*
X114702135Y-88461863D01*
X114700480Y-88428170D01*
X114700480Y-87740670D01*
X114702135Y-87706977D01*
X114707085Y-87673608D01*
X114715282Y-87640885D01*
X114726646Y-87609123D01*
X114741070Y-87578627D01*
X114758412Y-87549693D01*
X114778508Y-87522597D01*
X114801162Y-87497602D01*
X114826157Y-87474948D01*
X114853253Y-87454852D01*
X114882187Y-87437510D01*
X114912683Y-87423086D01*
X114944445Y-87411722D01*
X114977168Y-87403525D01*
X115010537Y-87398575D01*
X115044230Y-87396920D01*
X116156730Y-87396920D01*
X116190423Y-87398575D01*
X116190423Y-87398575D01*
G37*
D18*
X115600480Y-88084420D03*
D17*
G36*
X116190423Y-89273575D02*
X116223792Y-89278525D01*
X116256515Y-89286722D01*
X116288277Y-89298086D01*
X116318773Y-89312510D01*
X116347707Y-89329852D01*
X116374803Y-89349948D01*
X116399798Y-89372602D01*
X116422452Y-89397597D01*
X116442548Y-89424693D01*
X116459890Y-89453627D01*
X116474314Y-89484123D01*
X116485678Y-89515885D01*
X116493875Y-89548608D01*
X116498825Y-89581977D01*
X116500480Y-89615670D01*
X116500480Y-90303170D01*
X116498825Y-90336863D01*
X116493875Y-90370232D01*
X116485678Y-90402955D01*
X116474314Y-90434717D01*
X116459890Y-90465213D01*
X116442548Y-90494147D01*
X116422452Y-90521243D01*
X116399798Y-90546238D01*
X116374803Y-90568892D01*
X116347707Y-90588988D01*
X116318773Y-90606330D01*
X116288277Y-90620754D01*
X116256515Y-90632118D01*
X116223792Y-90640315D01*
X116190423Y-90645265D01*
X116156730Y-90646920D01*
X115044230Y-90646920D01*
X115010537Y-90645265D01*
X114977168Y-90640315D01*
X114944445Y-90632118D01*
X114912683Y-90620754D01*
X114882187Y-90606330D01*
X114853253Y-90588988D01*
X114826157Y-90568892D01*
X114801162Y-90546238D01*
X114778508Y-90521243D01*
X114758412Y-90494147D01*
X114741070Y-90465213D01*
X114726646Y-90434717D01*
X114715282Y-90402955D01*
X114707085Y-90370232D01*
X114702135Y-90336863D01*
X114700480Y-90303170D01*
X114700480Y-89615670D01*
X114702135Y-89581977D01*
X114707085Y-89548608D01*
X114715282Y-89515885D01*
X114726646Y-89484123D01*
X114741070Y-89453627D01*
X114758412Y-89424693D01*
X114778508Y-89397597D01*
X114801162Y-89372602D01*
X114826157Y-89349948D01*
X114853253Y-89329852D01*
X114882187Y-89312510D01*
X114912683Y-89298086D01*
X114944445Y-89286722D01*
X114977168Y-89278525D01*
X115010537Y-89273575D01*
X115044230Y-89271920D01*
X116156730Y-89271920D01*
X116190423Y-89273575D01*
X116190423Y-89273575D01*
G37*
D18*
X115600480Y-89959420D03*
G04 #@! TD*
D17*
G04 #@! TO.C,R13*
G36*
X108570423Y-91208575D02*
X108603792Y-91213525D01*
X108636515Y-91221722D01*
X108668277Y-91233086D01*
X108698773Y-91247510D01*
X108727707Y-91264852D01*
X108754803Y-91284948D01*
X108779798Y-91307602D01*
X108802452Y-91332597D01*
X108822548Y-91359693D01*
X108839890Y-91388627D01*
X108854314Y-91419123D01*
X108865678Y-91450885D01*
X108873875Y-91483608D01*
X108878825Y-91516977D01*
X108880480Y-91550670D01*
X108880480Y-92238170D01*
X108878825Y-92271863D01*
X108873875Y-92305232D01*
X108865678Y-92337955D01*
X108854314Y-92369717D01*
X108839890Y-92400213D01*
X108822548Y-92429147D01*
X108802452Y-92456243D01*
X108779798Y-92481238D01*
X108754803Y-92503892D01*
X108727707Y-92523988D01*
X108698773Y-92541330D01*
X108668277Y-92555754D01*
X108636515Y-92567118D01*
X108603792Y-92575315D01*
X108570423Y-92580265D01*
X108536730Y-92581920D01*
X107424230Y-92581920D01*
X107390537Y-92580265D01*
X107357168Y-92575315D01*
X107324445Y-92567118D01*
X107292683Y-92555754D01*
X107262187Y-92541330D01*
X107233253Y-92523988D01*
X107206157Y-92503892D01*
X107181162Y-92481238D01*
X107158508Y-92456243D01*
X107138412Y-92429147D01*
X107121070Y-92400213D01*
X107106646Y-92369717D01*
X107095282Y-92337955D01*
X107087085Y-92305232D01*
X107082135Y-92271863D01*
X107080480Y-92238170D01*
X107080480Y-91550670D01*
X107082135Y-91516977D01*
X107087085Y-91483608D01*
X107095282Y-91450885D01*
X107106646Y-91419123D01*
X107121070Y-91388627D01*
X107138412Y-91359693D01*
X107158508Y-91332597D01*
X107181162Y-91307602D01*
X107206157Y-91284948D01*
X107233253Y-91264852D01*
X107262187Y-91247510D01*
X107292683Y-91233086D01*
X107324445Y-91221722D01*
X107357168Y-91213525D01*
X107390537Y-91208575D01*
X107424230Y-91206920D01*
X108536730Y-91206920D01*
X108570423Y-91208575D01*
X108570423Y-91208575D01*
G37*
D18*
X107980480Y-91894420D03*
D17*
G36*
X108570423Y-93083575D02*
X108603792Y-93088525D01*
X108636515Y-93096722D01*
X108668277Y-93108086D01*
X108698773Y-93122510D01*
X108727707Y-93139852D01*
X108754803Y-93159948D01*
X108779798Y-93182602D01*
X108802452Y-93207597D01*
X108822548Y-93234693D01*
X108839890Y-93263627D01*
X108854314Y-93294123D01*
X108865678Y-93325885D01*
X108873875Y-93358608D01*
X108878825Y-93391977D01*
X108880480Y-93425670D01*
X108880480Y-94113170D01*
X108878825Y-94146863D01*
X108873875Y-94180232D01*
X108865678Y-94212955D01*
X108854314Y-94244717D01*
X108839890Y-94275213D01*
X108822548Y-94304147D01*
X108802452Y-94331243D01*
X108779798Y-94356238D01*
X108754803Y-94378892D01*
X108727707Y-94398988D01*
X108698773Y-94416330D01*
X108668277Y-94430754D01*
X108636515Y-94442118D01*
X108603792Y-94450315D01*
X108570423Y-94455265D01*
X108536730Y-94456920D01*
X107424230Y-94456920D01*
X107390537Y-94455265D01*
X107357168Y-94450315D01*
X107324445Y-94442118D01*
X107292683Y-94430754D01*
X107262187Y-94416330D01*
X107233253Y-94398988D01*
X107206157Y-94378892D01*
X107181162Y-94356238D01*
X107158508Y-94331243D01*
X107138412Y-94304147D01*
X107121070Y-94275213D01*
X107106646Y-94244717D01*
X107095282Y-94212955D01*
X107087085Y-94180232D01*
X107082135Y-94146863D01*
X107080480Y-94113170D01*
X107080480Y-93425670D01*
X107082135Y-93391977D01*
X107087085Y-93358608D01*
X107095282Y-93325885D01*
X107106646Y-93294123D01*
X107121070Y-93263627D01*
X107138412Y-93234693D01*
X107158508Y-93207597D01*
X107181162Y-93182602D01*
X107206157Y-93159948D01*
X107233253Y-93139852D01*
X107262187Y-93122510D01*
X107292683Y-93108086D01*
X107324445Y-93096722D01*
X107357168Y-93088525D01*
X107390537Y-93083575D01*
X107424230Y-93081920D01*
X108536730Y-93081920D01*
X108570423Y-93083575D01*
X108570423Y-93083575D01*
G37*
D18*
X107980480Y-93769420D03*
G04 #@! TD*
D17*
G04 #@! TO.C,R12*
G36*
X88250423Y-87398575D02*
X88283792Y-87403525D01*
X88316515Y-87411722D01*
X88348277Y-87423086D01*
X88378773Y-87437510D01*
X88407707Y-87454852D01*
X88434803Y-87474948D01*
X88459798Y-87497602D01*
X88482452Y-87522597D01*
X88502548Y-87549693D01*
X88519890Y-87578627D01*
X88534314Y-87609123D01*
X88545678Y-87640885D01*
X88553875Y-87673608D01*
X88558825Y-87706977D01*
X88560480Y-87740670D01*
X88560480Y-88428170D01*
X88558825Y-88461863D01*
X88553875Y-88495232D01*
X88545678Y-88527955D01*
X88534314Y-88559717D01*
X88519890Y-88590213D01*
X88502548Y-88619147D01*
X88482452Y-88646243D01*
X88459798Y-88671238D01*
X88434803Y-88693892D01*
X88407707Y-88713988D01*
X88378773Y-88731330D01*
X88348277Y-88745754D01*
X88316515Y-88757118D01*
X88283792Y-88765315D01*
X88250423Y-88770265D01*
X88216730Y-88771920D01*
X87104230Y-88771920D01*
X87070537Y-88770265D01*
X87037168Y-88765315D01*
X87004445Y-88757118D01*
X86972683Y-88745754D01*
X86942187Y-88731330D01*
X86913253Y-88713988D01*
X86886157Y-88693892D01*
X86861162Y-88671238D01*
X86838508Y-88646243D01*
X86818412Y-88619147D01*
X86801070Y-88590213D01*
X86786646Y-88559717D01*
X86775282Y-88527955D01*
X86767085Y-88495232D01*
X86762135Y-88461863D01*
X86760480Y-88428170D01*
X86760480Y-87740670D01*
X86762135Y-87706977D01*
X86767085Y-87673608D01*
X86775282Y-87640885D01*
X86786646Y-87609123D01*
X86801070Y-87578627D01*
X86818412Y-87549693D01*
X86838508Y-87522597D01*
X86861162Y-87497602D01*
X86886157Y-87474948D01*
X86913253Y-87454852D01*
X86942187Y-87437510D01*
X86972683Y-87423086D01*
X87004445Y-87411722D01*
X87037168Y-87403525D01*
X87070537Y-87398575D01*
X87104230Y-87396920D01*
X88216730Y-87396920D01*
X88250423Y-87398575D01*
X88250423Y-87398575D01*
G37*
D18*
X87660480Y-88084420D03*
D17*
G36*
X88250423Y-89273575D02*
X88283792Y-89278525D01*
X88316515Y-89286722D01*
X88348277Y-89298086D01*
X88378773Y-89312510D01*
X88407707Y-89329852D01*
X88434803Y-89349948D01*
X88459798Y-89372602D01*
X88482452Y-89397597D01*
X88502548Y-89424693D01*
X88519890Y-89453627D01*
X88534314Y-89484123D01*
X88545678Y-89515885D01*
X88553875Y-89548608D01*
X88558825Y-89581977D01*
X88560480Y-89615670D01*
X88560480Y-90303170D01*
X88558825Y-90336863D01*
X88553875Y-90370232D01*
X88545678Y-90402955D01*
X88534314Y-90434717D01*
X88519890Y-90465213D01*
X88502548Y-90494147D01*
X88482452Y-90521243D01*
X88459798Y-90546238D01*
X88434803Y-90568892D01*
X88407707Y-90588988D01*
X88378773Y-90606330D01*
X88348277Y-90620754D01*
X88316515Y-90632118D01*
X88283792Y-90640315D01*
X88250423Y-90645265D01*
X88216730Y-90646920D01*
X87104230Y-90646920D01*
X87070537Y-90645265D01*
X87037168Y-90640315D01*
X87004445Y-90632118D01*
X86972683Y-90620754D01*
X86942187Y-90606330D01*
X86913253Y-90588988D01*
X86886157Y-90568892D01*
X86861162Y-90546238D01*
X86838508Y-90521243D01*
X86818412Y-90494147D01*
X86801070Y-90465213D01*
X86786646Y-90434717D01*
X86775282Y-90402955D01*
X86767085Y-90370232D01*
X86762135Y-90336863D01*
X86760480Y-90303170D01*
X86760480Y-89615670D01*
X86762135Y-89581977D01*
X86767085Y-89548608D01*
X86775282Y-89515885D01*
X86786646Y-89484123D01*
X86801070Y-89453627D01*
X86818412Y-89424693D01*
X86838508Y-89397597D01*
X86861162Y-89372602D01*
X86886157Y-89349948D01*
X86913253Y-89329852D01*
X86942187Y-89312510D01*
X86972683Y-89298086D01*
X87004445Y-89286722D01*
X87037168Y-89278525D01*
X87070537Y-89273575D01*
X87104230Y-89271920D01*
X88216730Y-89271920D01*
X88250423Y-89273575D01*
X88250423Y-89273575D01*
G37*
D18*
X87660480Y-89959420D03*
G04 #@! TD*
D17*
G04 #@! TO.C,R11*
G36*
X95870423Y-91208575D02*
X95903792Y-91213525D01*
X95936515Y-91221722D01*
X95968277Y-91233086D01*
X95998773Y-91247510D01*
X96027707Y-91264852D01*
X96054803Y-91284948D01*
X96079798Y-91307602D01*
X96102452Y-91332597D01*
X96122548Y-91359693D01*
X96139890Y-91388627D01*
X96154314Y-91419123D01*
X96165678Y-91450885D01*
X96173875Y-91483608D01*
X96178825Y-91516977D01*
X96180480Y-91550670D01*
X96180480Y-92238170D01*
X96178825Y-92271863D01*
X96173875Y-92305232D01*
X96165678Y-92337955D01*
X96154314Y-92369717D01*
X96139890Y-92400213D01*
X96122548Y-92429147D01*
X96102452Y-92456243D01*
X96079798Y-92481238D01*
X96054803Y-92503892D01*
X96027707Y-92523988D01*
X95998773Y-92541330D01*
X95968277Y-92555754D01*
X95936515Y-92567118D01*
X95903792Y-92575315D01*
X95870423Y-92580265D01*
X95836730Y-92581920D01*
X94724230Y-92581920D01*
X94690537Y-92580265D01*
X94657168Y-92575315D01*
X94624445Y-92567118D01*
X94592683Y-92555754D01*
X94562187Y-92541330D01*
X94533253Y-92523988D01*
X94506157Y-92503892D01*
X94481162Y-92481238D01*
X94458508Y-92456243D01*
X94438412Y-92429147D01*
X94421070Y-92400213D01*
X94406646Y-92369717D01*
X94395282Y-92337955D01*
X94387085Y-92305232D01*
X94382135Y-92271863D01*
X94380480Y-92238170D01*
X94380480Y-91550670D01*
X94382135Y-91516977D01*
X94387085Y-91483608D01*
X94395282Y-91450885D01*
X94406646Y-91419123D01*
X94421070Y-91388627D01*
X94438412Y-91359693D01*
X94458508Y-91332597D01*
X94481162Y-91307602D01*
X94506157Y-91284948D01*
X94533253Y-91264852D01*
X94562187Y-91247510D01*
X94592683Y-91233086D01*
X94624445Y-91221722D01*
X94657168Y-91213525D01*
X94690537Y-91208575D01*
X94724230Y-91206920D01*
X95836730Y-91206920D01*
X95870423Y-91208575D01*
X95870423Y-91208575D01*
G37*
D18*
X95280480Y-91894420D03*
D17*
G36*
X95870423Y-93083575D02*
X95903792Y-93088525D01*
X95936515Y-93096722D01*
X95968277Y-93108086D01*
X95998773Y-93122510D01*
X96027707Y-93139852D01*
X96054803Y-93159948D01*
X96079798Y-93182602D01*
X96102452Y-93207597D01*
X96122548Y-93234693D01*
X96139890Y-93263627D01*
X96154314Y-93294123D01*
X96165678Y-93325885D01*
X96173875Y-93358608D01*
X96178825Y-93391977D01*
X96180480Y-93425670D01*
X96180480Y-94113170D01*
X96178825Y-94146863D01*
X96173875Y-94180232D01*
X96165678Y-94212955D01*
X96154314Y-94244717D01*
X96139890Y-94275213D01*
X96122548Y-94304147D01*
X96102452Y-94331243D01*
X96079798Y-94356238D01*
X96054803Y-94378892D01*
X96027707Y-94398988D01*
X95998773Y-94416330D01*
X95968277Y-94430754D01*
X95936515Y-94442118D01*
X95903792Y-94450315D01*
X95870423Y-94455265D01*
X95836730Y-94456920D01*
X94724230Y-94456920D01*
X94690537Y-94455265D01*
X94657168Y-94450315D01*
X94624445Y-94442118D01*
X94592683Y-94430754D01*
X94562187Y-94416330D01*
X94533253Y-94398988D01*
X94506157Y-94378892D01*
X94481162Y-94356238D01*
X94458508Y-94331243D01*
X94438412Y-94304147D01*
X94421070Y-94275213D01*
X94406646Y-94244717D01*
X94395282Y-94212955D01*
X94387085Y-94180232D01*
X94382135Y-94146863D01*
X94380480Y-94113170D01*
X94380480Y-93425670D01*
X94382135Y-93391977D01*
X94387085Y-93358608D01*
X94395282Y-93325885D01*
X94406646Y-93294123D01*
X94421070Y-93263627D01*
X94438412Y-93234693D01*
X94458508Y-93207597D01*
X94481162Y-93182602D01*
X94506157Y-93159948D01*
X94533253Y-93139852D01*
X94562187Y-93122510D01*
X94592683Y-93108086D01*
X94624445Y-93096722D01*
X94657168Y-93088525D01*
X94690537Y-93083575D01*
X94724230Y-93081920D01*
X95836730Y-93081920D01*
X95870423Y-93083575D01*
X95870423Y-93083575D01*
G37*
D18*
X95280480Y-93769420D03*
G04 #@! TD*
D17*
G04 #@! TO.C,R23*
G36*
X95870423Y-77843575D02*
X95903792Y-77848525D01*
X95936515Y-77856722D01*
X95968277Y-77868086D01*
X95998773Y-77882510D01*
X96027707Y-77899852D01*
X96054803Y-77919948D01*
X96079798Y-77942602D01*
X96102452Y-77967597D01*
X96122548Y-77994693D01*
X96139890Y-78023627D01*
X96154314Y-78054123D01*
X96165678Y-78085885D01*
X96173875Y-78118608D01*
X96178825Y-78151977D01*
X96180480Y-78185670D01*
X96180480Y-78873170D01*
X96178825Y-78906863D01*
X96173875Y-78940232D01*
X96165678Y-78972955D01*
X96154314Y-79004717D01*
X96139890Y-79035213D01*
X96122548Y-79064147D01*
X96102452Y-79091243D01*
X96079798Y-79116238D01*
X96054803Y-79138892D01*
X96027707Y-79158988D01*
X95998773Y-79176330D01*
X95968277Y-79190754D01*
X95936515Y-79202118D01*
X95903792Y-79210315D01*
X95870423Y-79215265D01*
X95836730Y-79216920D01*
X94724230Y-79216920D01*
X94690537Y-79215265D01*
X94657168Y-79210315D01*
X94624445Y-79202118D01*
X94592683Y-79190754D01*
X94562187Y-79176330D01*
X94533253Y-79158988D01*
X94506157Y-79138892D01*
X94481162Y-79116238D01*
X94458508Y-79091243D01*
X94438412Y-79064147D01*
X94421070Y-79035213D01*
X94406646Y-79004717D01*
X94395282Y-78972955D01*
X94387085Y-78940232D01*
X94382135Y-78906863D01*
X94380480Y-78873170D01*
X94380480Y-78185670D01*
X94382135Y-78151977D01*
X94387085Y-78118608D01*
X94395282Y-78085885D01*
X94406646Y-78054123D01*
X94421070Y-78023627D01*
X94438412Y-77994693D01*
X94458508Y-77967597D01*
X94481162Y-77942602D01*
X94506157Y-77919948D01*
X94533253Y-77899852D01*
X94562187Y-77882510D01*
X94592683Y-77868086D01*
X94624445Y-77856722D01*
X94657168Y-77848525D01*
X94690537Y-77843575D01*
X94724230Y-77841920D01*
X95836730Y-77841920D01*
X95870423Y-77843575D01*
X95870423Y-77843575D01*
G37*
D18*
X95280480Y-78529420D03*
D17*
G36*
X95870423Y-75968575D02*
X95903792Y-75973525D01*
X95936515Y-75981722D01*
X95968277Y-75993086D01*
X95998773Y-76007510D01*
X96027707Y-76024852D01*
X96054803Y-76044948D01*
X96079798Y-76067602D01*
X96102452Y-76092597D01*
X96122548Y-76119693D01*
X96139890Y-76148627D01*
X96154314Y-76179123D01*
X96165678Y-76210885D01*
X96173875Y-76243608D01*
X96178825Y-76276977D01*
X96180480Y-76310670D01*
X96180480Y-76998170D01*
X96178825Y-77031863D01*
X96173875Y-77065232D01*
X96165678Y-77097955D01*
X96154314Y-77129717D01*
X96139890Y-77160213D01*
X96122548Y-77189147D01*
X96102452Y-77216243D01*
X96079798Y-77241238D01*
X96054803Y-77263892D01*
X96027707Y-77283988D01*
X95998773Y-77301330D01*
X95968277Y-77315754D01*
X95936515Y-77327118D01*
X95903792Y-77335315D01*
X95870423Y-77340265D01*
X95836730Y-77341920D01*
X94724230Y-77341920D01*
X94690537Y-77340265D01*
X94657168Y-77335315D01*
X94624445Y-77327118D01*
X94592683Y-77315754D01*
X94562187Y-77301330D01*
X94533253Y-77283988D01*
X94506157Y-77263892D01*
X94481162Y-77241238D01*
X94458508Y-77216243D01*
X94438412Y-77189147D01*
X94421070Y-77160213D01*
X94406646Y-77129717D01*
X94395282Y-77097955D01*
X94387085Y-77065232D01*
X94382135Y-77031863D01*
X94380480Y-76998170D01*
X94380480Y-76310670D01*
X94382135Y-76276977D01*
X94387085Y-76243608D01*
X94395282Y-76210885D01*
X94406646Y-76179123D01*
X94421070Y-76148627D01*
X94438412Y-76119693D01*
X94458508Y-76092597D01*
X94481162Y-76067602D01*
X94506157Y-76044948D01*
X94533253Y-76024852D01*
X94562187Y-76007510D01*
X94592683Y-75993086D01*
X94624445Y-75981722D01*
X94657168Y-75973525D01*
X94690537Y-75968575D01*
X94724230Y-75966920D01*
X95836730Y-75966920D01*
X95870423Y-75968575D01*
X95870423Y-75968575D01*
G37*
D18*
X95280480Y-76654420D03*
G04 #@! TD*
D17*
G04 #@! TO.C,R24*
G36*
X108570423Y-77843575D02*
X108603792Y-77848525D01*
X108636515Y-77856722D01*
X108668277Y-77868086D01*
X108698773Y-77882510D01*
X108727707Y-77899852D01*
X108754803Y-77919948D01*
X108779798Y-77942602D01*
X108802452Y-77967597D01*
X108822548Y-77994693D01*
X108839890Y-78023627D01*
X108854314Y-78054123D01*
X108865678Y-78085885D01*
X108873875Y-78118608D01*
X108878825Y-78151977D01*
X108880480Y-78185670D01*
X108880480Y-78873170D01*
X108878825Y-78906863D01*
X108873875Y-78940232D01*
X108865678Y-78972955D01*
X108854314Y-79004717D01*
X108839890Y-79035213D01*
X108822548Y-79064147D01*
X108802452Y-79091243D01*
X108779798Y-79116238D01*
X108754803Y-79138892D01*
X108727707Y-79158988D01*
X108698773Y-79176330D01*
X108668277Y-79190754D01*
X108636515Y-79202118D01*
X108603792Y-79210315D01*
X108570423Y-79215265D01*
X108536730Y-79216920D01*
X107424230Y-79216920D01*
X107390537Y-79215265D01*
X107357168Y-79210315D01*
X107324445Y-79202118D01*
X107292683Y-79190754D01*
X107262187Y-79176330D01*
X107233253Y-79158988D01*
X107206157Y-79138892D01*
X107181162Y-79116238D01*
X107158508Y-79091243D01*
X107138412Y-79064147D01*
X107121070Y-79035213D01*
X107106646Y-79004717D01*
X107095282Y-78972955D01*
X107087085Y-78940232D01*
X107082135Y-78906863D01*
X107080480Y-78873170D01*
X107080480Y-78185670D01*
X107082135Y-78151977D01*
X107087085Y-78118608D01*
X107095282Y-78085885D01*
X107106646Y-78054123D01*
X107121070Y-78023627D01*
X107138412Y-77994693D01*
X107158508Y-77967597D01*
X107181162Y-77942602D01*
X107206157Y-77919948D01*
X107233253Y-77899852D01*
X107262187Y-77882510D01*
X107292683Y-77868086D01*
X107324445Y-77856722D01*
X107357168Y-77848525D01*
X107390537Y-77843575D01*
X107424230Y-77841920D01*
X108536730Y-77841920D01*
X108570423Y-77843575D01*
X108570423Y-77843575D01*
G37*
D18*
X107980480Y-78529420D03*
D17*
G36*
X108570423Y-75968575D02*
X108603792Y-75973525D01*
X108636515Y-75981722D01*
X108668277Y-75993086D01*
X108698773Y-76007510D01*
X108727707Y-76024852D01*
X108754803Y-76044948D01*
X108779798Y-76067602D01*
X108802452Y-76092597D01*
X108822548Y-76119693D01*
X108839890Y-76148627D01*
X108854314Y-76179123D01*
X108865678Y-76210885D01*
X108873875Y-76243608D01*
X108878825Y-76276977D01*
X108880480Y-76310670D01*
X108880480Y-76998170D01*
X108878825Y-77031863D01*
X108873875Y-77065232D01*
X108865678Y-77097955D01*
X108854314Y-77129717D01*
X108839890Y-77160213D01*
X108822548Y-77189147D01*
X108802452Y-77216243D01*
X108779798Y-77241238D01*
X108754803Y-77263892D01*
X108727707Y-77283988D01*
X108698773Y-77301330D01*
X108668277Y-77315754D01*
X108636515Y-77327118D01*
X108603792Y-77335315D01*
X108570423Y-77340265D01*
X108536730Y-77341920D01*
X107424230Y-77341920D01*
X107390537Y-77340265D01*
X107357168Y-77335315D01*
X107324445Y-77327118D01*
X107292683Y-77315754D01*
X107262187Y-77301330D01*
X107233253Y-77283988D01*
X107206157Y-77263892D01*
X107181162Y-77241238D01*
X107158508Y-77216243D01*
X107138412Y-77189147D01*
X107121070Y-77160213D01*
X107106646Y-77129717D01*
X107095282Y-77097955D01*
X107087085Y-77065232D01*
X107082135Y-77031863D01*
X107080480Y-76998170D01*
X107080480Y-76310670D01*
X107082135Y-76276977D01*
X107087085Y-76243608D01*
X107095282Y-76210885D01*
X107106646Y-76179123D01*
X107121070Y-76148627D01*
X107138412Y-76119693D01*
X107158508Y-76092597D01*
X107181162Y-76067602D01*
X107206157Y-76044948D01*
X107233253Y-76024852D01*
X107262187Y-76007510D01*
X107292683Y-75993086D01*
X107324445Y-75981722D01*
X107357168Y-75973525D01*
X107390537Y-75968575D01*
X107424230Y-75966920D01*
X108536730Y-75966920D01*
X108570423Y-75968575D01*
X108570423Y-75968575D01*
G37*
D18*
X107980480Y-76654420D03*
G04 #@! TD*
D17*
G04 #@! TO.C,R18*
G36*
X108570423Y-66443575D02*
X108603792Y-66448525D01*
X108636515Y-66456722D01*
X108668277Y-66468086D01*
X108698773Y-66482510D01*
X108727707Y-66499852D01*
X108754803Y-66519948D01*
X108779798Y-66542602D01*
X108802452Y-66567597D01*
X108822548Y-66594693D01*
X108839890Y-66623627D01*
X108854314Y-66654123D01*
X108865678Y-66685885D01*
X108873875Y-66718608D01*
X108878825Y-66751977D01*
X108880480Y-66785670D01*
X108880480Y-67473170D01*
X108878825Y-67506863D01*
X108873875Y-67540232D01*
X108865678Y-67572955D01*
X108854314Y-67604717D01*
X108839890Y-67635213D01*
X108822548Y-67664147D01*
X108802452Y-67691243D01*
X108779798Y-67716238D01*
X108754803Y-67738892D01*
X108727707Y-67758988D01*
X108698773Y-67776330D01*
X108668277Y-67790754D01*
X108636515Y-67802118D01*
X108603792Y-67810315D01*
X108570423Y-67815265D01*
X108536730Y-67816920D01*
X107424230Y-67816920D01*
X107390537Y-67815265D01*
X107357168Y-67810315D01*
X107324445Y-67802118D01*
X107292683Y-67790754D01*
X107262187Y-67776330D01*
X107233253Y-67758988D01*
X107206157Y-67738892D01*
X107181162Y-67716238D01*
X107158508Y-67691243D01*
X107138412Y-67664147D01*
X107121070Y-67635213D01*
X107106646Y-67604717D01*
X107095282Y-67572955D01*
X107087085Y-67540232D01*
X107082135Y-67506863D01*
X107080480Y-67473170D01*
X107080480Y-66785670D01*
X107082135Y-66751977D01*
X107087085Y-66718608D01*
X107095282Y-66685885D01*
X107106646Y-66654123D01*
X107121070Y-66623627D01*
X107138412Y-66594693D01*
X107158508Y-66567597D01*
X107181162Y-66542602D01*
X107206157Y-66519948D01*
X107233253Y-66499852D01*
X107262187Y-66482510D01*
X107292683Y-66468086D01*
X107324445Y-66456722D01*
X107357168Y-66448525D01*
X107390537Y-66443575D01*
X107424230Y-66441920D01*
X108536730Y-66441920D01*
X108570423Y-66443575D01*
X108570423Y-66443575D01*
G37*
D18*
X107980480Y-67129420D03*
D17*
G36*
X108570423Y-68318575D02*
X108603792Y-68323525D01*
X108636515Y-68331722D01*
X108668277Y-68343086D01*
X108698773Y-68357510D01*
X108727707Y-68374852D01*
X108754803Y-68394948D01*
X108779798Y-68417602D01*
X108802452Y-68442597D01*
X108822548Y-68469693D01*
X108839890Y-68498627D01*
X108854314Y-68529123D01*
X108865678Y-68560885D01*
X108873875Y-68593608D01*
X108878825Y-68626977D01*
X108880480Y-68660670D01*
X108880480Y-69348170D01*
X108878825Y-69381863D01*
X108873875Y-69415232D01*
X108865678Y-69447955D01*
X108854314Y-69479717D01*
X108839890Y-69510213D01*
X108822548Y-69539147D01*
X108802452Y-69566243D01*
X108779798Y-69591238D01*
X108754803Y-69613892D01*
X108727707Y-69633988D01*
X108698773Y-69651330D01*
X108668277Y-69665754D01*
X108636515Y-69677118D01*
X108603792Y-69685315D01*
X108570423Y-69690265D01*
X108536730Y-69691920D01*
X107424230Y-69691920D01*
X107390537Y-69690265D01*
X107357168Y-69685315D01*
X107324445Y-69677118D01*
X107292683Y-69665754D01*
X107262187Y-69651330D01*
X107233253Y-69633988D01*
X107206157Y-69613892D01*
X107181162Y-69591238D01*
X107158508Y-69566243D01*
X107138412Y-69539147D01*
X107121070Y-69510213D01*
X107106646Y-69479717D01*
X107095282Y-69447955D01*
X107087085Y-69415232D01*
X107082135Y-69381863D01*
X107080480Y-69348170D01*
X107080480Y-68660670D01*
X107082135Y-68626977D01*
X107087085Y-68593608D01*
X107095282Y-68560885D01*
X107106646Y-68529123D01*
X107121070Y-68498627D01*
X107138412Y-68469693D01*
X107158508Y-68442597D01*
X107181162Y-68417602D01*
X107206157Y-68394948D01*
X107233253Y-68374852D01*
X107262187Y-68357510D01*
X107292683Y-68343086D01*
X107324445Y-68331722D01*
X107357168Y-68323525D01*
X107390537Y-68318575D01*
X107424230Y-68316920D01*
X108536730Y-68316920D01*
X108570423Y-68318575D01*
X108570423Y-68318575D01*
G37*
D18*
X107980480Y-69004420D03*
G04 #@! TD*
D17*
G04 #@! TO.C,R7*
G36*
X95870423Y-81048575D02*
X95903792Y-81053525D01*
X95936515Y-81061722D01*
X95968277Y-81073086D01*
X95998773Y-81087510D01*
X96027707Y-81104852D01*
X96054803Y-81124948D01*
X96079798Y-81147602D01*
X96102452Y-81172597D01*
X96122548Y-81199693D01*
X96139890Y-81228627D01*
X96154314Y-81259123D01*
X96165678Y-81290885D01*
X96173875Y-81323608D01*
X96178825Y-81356977D01*
X96180480Y-81390670D01*
X96180480Y-82078170D01*
X96178825Y-82111863D01*
X96173875Y-82145232D01*
X96165678Y-82177955D01*
X96154314Y-82209717D01*
X96139890Y-82240213D01*
X96122548Y-82269147D01*
X96102452Y-82296243D01*
X96079798Y-82321238D01*
X96054803Y-82343892D01*
X96027707Y-82363988D01*
X95998773Y-82381330D01*
X95968277Y-82395754D01*
X95936515Y-82407118D01*
X95903792Y-82415315D01*
X95870423Y-82420265D01*
X95836730Y-82421920D01*
X94724230Y-82421920D01*
X94690537Y-82420265D01*
X94657168Y-82415315D01*
X94624445Y-82407118D01*
X94592683Y-82395754D01*
X94562187Y-82381330D01*
X94533253Y-82363988D01*
X94506157Y-82343892D01*
X94481162Y-82321238D01*
X94458508Y-82296243D01*
X94438412Y-82269147D01*
X94421070Y-82240213D01*
X94406646Y-82209717D01*
X94395282Y-82177955D01*
X94387085Y-82145232D01*
X94382135Y-82111863D01*
X94380480Y-82078170D01*
X94380480Y-81390670D01*
X94382135Y-81356977D01*
X94387085Y-81323608D01*
X94395282Y-81290885D01*
X94406646Y-81259123D01*
X94421070Y-81228627D01*
X94438412Y-81199693D01*
X94458508Y-81172597D01*
X94481162Y-81147602D01*
X94506157Y-81124948D01*
X94533253Y-81104852D01*
X94562187Y-81087510D01*
X94592683Y-81073086D01*
X94624445Y-81061722D01*
X94657168Y-81053525D01*
X94690537Y-81048575D01*
X94724230Y-81046920D01*
X95836730Y-81046920D01*
X95870423Y-81048575D01*
X95870423Y-81048575D01*
G37*
D18*
X95280480Y-81734420D03*
D17*
G36*
X95870423Y-82923575D02*
X95903792Y-82928525D01*
X95936515Y-82936722D01*
X95968277Y-82948086D01*
X95998773Y-82962510D01*
X96027707Y-82979852D01*
X96054803Y-82999948D01*
X96079798Y-83022602D01*
X96102452Y-83047597D01*
X96122548Y-83074693D01*
X96139890Y-83103627D01*
X96154314Y-83134123D01*
X96165678Y-83165885D01*
X96173875Y-83198608D01*
X96178825Y-83231977D01*
X96180480Y-83265670D01*
X96180480Y-83953170D01*
X96178825Y-83986863D01*
X96173875Y-84020232D01*
X96165678Y-84052955D01*
X96154314Y-84084717D01*
X96139890Y-84115213D01*
X96122548Y-84144147D01*
X96102452Y-84171243D01*
X96079798Y-84196238D01*
X96054803Y-84218892D01*
X96027707Y-84238988D01*
X95998773Y-84256330D01*
X95968277Y-84270754D01*
X95936515Y-84282118D01*
X95903792Y-84290315D01*
X95870423Y-84295265D01*
X95836730Y-84296920D01*
X94724230Y-84296920D01*
X94690537Y-84295265D01*
X94657168Y-84290315D01*
X94624445Y-84282118D01*
X94592683Y-84270754D01*
X94562187Y-84256330D01*
X94533253Y-84238988D01*
X94506157Y-84218892D01*
X94481162Y-84196238D01*
X94458508Y-84171243D01*
X94438412Y-84144147D01*
X94421070Y-84115213D01*
X94406646Y-84084717D01*
X94395282Y-84052955D01*
X94387085Y-84020232D01*
X94382135Y-83986863D01*
X94380480Y-83953170D01*
X94380480Y-83265670D01*
X94382135Y-83231977D01*
X94387085Y-83198608D01*
X94395282Y-83165885D01*
X94406646Y-83134123D01*
X94421070Y-83103627D01*
X94438412Y-83074693D01*
X94458508Y-83047597D01*
X94481162Y-83022602D01*
X94506157Y-82999948D01*
X94533253Y-82979852D01*
X94562187Y-82962510D01*
X94592683Y-82948086D01*
X94624445Y-82936722D01*
X94657168Y-82928525D01*
X94690537Y-82923575D01*
X94724230Y-82921920D01*
X95836730Y-82921920D01*
X95870423Y-82923575D01*
X95870423Y-82923575D01*
G37*
D18*
X95280480Y-83609420D03*
G04 #@! TD*
D17*
G04 #@! TO.C,R6*
G36*
X116190423Y-68318575D02*
X116223792Y-68323525D01*
X116256515Y-68331722D01*
X116288277Y-68343086D01*
X116318773Y-68357510D01*
X116347707Y-68374852D01*
X116374803Y-68394948D01*
X116399798Y-68417602D01*
X116422452Y-68442597D01*
X116442548Y-68469693D01*
X116459890Y-68498627D01*
X116474314Y-68529123D01*
X116485678Y-68560885D01*
X116493875Y-68593608D01*
X116498825Y-68626977D01*
X116500480Y-68660670D01*
X116500480Y-69348170D01*
X116498825Y-69381863D01*
X116493875Y-69415232D01*
X116485678Y-69447955D01*
X116474314Y-69479717D01*
X116459890Y-69510213D01*
X116442548Y-69539147D01*
X116422452Y-69566243D01*
X116399798Y-69591238D01*
X116374803Y-69613892D01*
X116347707Y-69633988D01*
X116318773Y-69651330D01*
X116288277Y-69665754D01*
X116256515Y-69677118D01*
X116223792Y-69685315D01*
X116190423Y-69690265D01*
X116156730Y-69691920D01*
X115044230Y-69691920D01*
X115010537Y-69690265D01*
X114977168Y-69685315D01*
X114944445Y-69677118D01*
X114912683Y-69665754D01*
X114882187Y-69651330D01*
X114853253Y-69633988D01*
X114826157Y-69613892D01*
X114801162Y-69591238D01*
X114778508Y-69566243D01*
X114758412Y-69539147D01*
X114741070Y-69510213D01*
X114726646Y-69479717D01*
X114715282Y-69447955D01*
X114707085Y-69415232D01*
X114702135Y-69381863D01*
X114700480Y-69348170D01*
X114700480Y-68660670D01*
X114702135Y-68626977D01*
X114707085Y-68593608D01*
X114715282Y-68560885D01*
X114726646Y-68529123D01*
X114741070Y-68498627D01*
X114758412Y-68469693D01*
X114778508Y-68442597D01*
X114801162Y-68417602D01*
X114826157Y-68394948D01*
X114853253Y-68374852D01*
X114882187Y-68357510D01*
X114912683Y-68343086D01*
X114944445Y-68331722D01*
X114977168Y-68323525D01*
X115010537Y-68318575D01*
X115044230Y-68316920D01*
X116156730Y-68316920D01*
X116190423Y-68318575D01*
X116190423Y-68318575D01*
G37*
D18*
X115600480Y-69004420D03*
D17*
G36*
X116190423Y-66443575D02*
X116223792Y-66448525D01*
X116256515Y-66456722D01*
X116288277Y-66468086D01*
X116318773Y-66482510D01*
X116347707Y-66499852D01*
X116374803Y-66519948D01*
X116399798Y-66542602D01*
X116422452Y-66567597D01*
X116442548Y-66594693D01*
X116459890Y-66623627D01*
X116474314Y-66654123D01*
X116485678Y-66685885D01*
X116493875Y-66718608D01*
X116498825Y-66751977D01*
X116500480Y-66785670D01*
X116500480Y-67473170D01*
X116498825Y-67506863D01*
X116493875Y-67540232D01*
X116485678Y-67572955D01*
X116474314Y-67604717D01*
X116459890Y-67635213D01*
X116442548Y-67664147D01*
X116422452Y-67691243D01*
X116399798Y-67716238D01*
X116374803Y-67738892D01*
X116347707Y-67758988D01*
X116318773Y-67776330D01*
X116288277Y-67790754D01*
X116256515Y-67802118D01*
X116223792Y-67810315D01*
X116190423Y-67815265D01*
X116156730Y-67816920D01*
X115044230Y-67816920D01*
X115010537Y-67815265D01*
X114977168Y-67810315D01*
X114944445Y-67802118D01*
X114912683Y-67790754D01*
X114882187Y-67776330D01*
X114853253Y-67758988D01*
X114826157Y-67738892D01*
X114801162Y-67716238D01*
X114778508Y-67691243D01*
X114758412Y-67664147D01*
X114741070Y-67635213D01*
X114726646Y-67604717D01*
X114715282Y-67572955D01*
X114707085Y-67540232D01*
X114702135Y-67506863D01*
X114700480Y-67473170D01*
X114700480Y-66785670D01*
X114702135Y-66751977D01*
X114707085Y-66718608D01*
X114715282Y-66685885D01*
X114726646Y-66654123D01*
X114741070Y-66623627D01*
X114758412Y-66594693D01*
X114778508Y-66567597D01*
X114801162Y-66542602D01*
X114826157Y-66519948D01*
X114853253Y-66499852D01*
X114882187Y-66482510D01*
X114912683Y-66468086D01*
X114944445Y-66456722D01*
X114977168Y-66448525D01*
X115010537Y-66443575D01*
X115044230Y-66441920D01*
X116156730Y-66441920D01*
X116190423Y-66443575D01*
X116190423Y-66443575D01*
G37*
D18*
X115600480Y-67129420D03*
G04 #@! TD*
D17*
G04 #@! TO.C,R5*
G36*
X110475423Y-46758575D02*
X110508792Y-46763525D01*
X110541515Y-46771722D01*
X110573277Y-46783086D01*
X110603773Y-46797510D01*
X110632707Y-46814852D01*
X110659803Y-46834948D01*
X110684798Y-46857602D01*
X110707452Y-46882597D01*
X110727548Y-46909693D01*
X110744890Y-46938627D01*
X110759314Y-46969123D01*
X110770678Y-47000885D01*
X110778875Y-47033608D01*
X110783825Y-47066977D01*
X110785480Y-47100670D01*
X110785480Y-47788170D01*
X110783825Y-47821863D01*
X110778875Y-47855232D01*
X110770678Y-47887955D01*
X110759314Y-47919717D01*
X110744890Y-47950213D01*
X110727548Y-47979147D01*
X110707452Y-48006243D01*
X110684798Y-48031238D01*
X110659803Y-48053892D01*
X110632707Y-48073988D01*
X110603773Y-48091330D01*
X110573277Y-48105754D01*
X110541515Y-48117118D01*
X110508792Y-48125315D01*
X110475423Y-48130265D01*
X110441730Y-48131920D01*
X109329230Y-48131920D01*
X109295537Y-48130265D01*
X109262168Y-48125315D01*
X109229445Y-48117118D01*
X109197683Y-48105754D01*
X109167187Y-48091330D01*
X109138253Y-48073988D01*
X109111157Y-48053892D01*
X109086162Y-48031238D01*
X109063508Y-48006243D01*
X109043412Y-47979147D01*
X109026070Y-47950213D01*
X109011646Y-47919717D01*
X109000282Y-47887955D01*
X108992085Y-47855232D01*
X108987135Y-47821863D01*
X108985480Y-47788170D01*
X108985480Y-47100670D01*
X108987135Y-47066977D01*
X108992085Y-47033608D01*
X109000282Y-47000885D01*
X109011646Y-46969123D01*
X109026070Y-46938627D01*
X109043412Y-46909693D01*
X109063508Y-46882597D01*
X109086162Y-46857602D01*
X109111157Y-46834948D01*
X109138253Y-46814852D01*
X109167187Y-46797510D01*
X109197683Y-46783086D01*
X109229445Y-46771722D01*
X109262168Y-46763525D01*
X109295537Y-46758575D01*
X109329230Y-46756920D01*
X110441730Y-46756920D01*
X110475423Y-46758575D01*
X110475423Y-46758575D01*
G37*
D18*
X109885480Y-47444420D03*
D17*
G36*
X110475423Y-48633575D02*
X110508792Y-48638525D01*
X110541515Y-48646722D01*
X110573277Y-48658086D01*
X110603773Y-48672510D01*
X110632707Y-48689852D01*
X110659803Y-48709948D01*
X110684798Y-48732602D01*
X110707452Y-48757597D01*
X110727548Y-48784693D01*
X110744890Y-48813627D01*
X110759314Y-48844123D01*
X110770678Y-48875885D01*
X110778875Y-48908608D01*
X110783825Y-48941977D01*
X110785480Y-48975670D01*
X110785480Y-49663170D01*
X110783825Y-49696863D01*
X110778875Y-49730232D01*
X110770678Y-49762955D01*
X110759314Y-49794717D01*
X110744890Y-49825213D01*
X110727548Y-49854147D01*
X110707452Y-49881243D01*
X110684798Y-49906238D01*
X110659803Y-49928892D01*
X110632707Y-49948988D01*
X110603773Y-49966330D01*
X110573277Y-49980754D01*
X110541515Y-49992118D01*
X110508792Y-50000315D01*
X110475423Y-50005265D01*
X110441730Y-50006920D01*
X109329230Y-50006920D01*
X109295537Y-50005265D01*
X109262168Y-50000315D01*
X109229445Y-49992118D01*
X109197683Y-49980754D01*
X109167187Y-49966330D01*
X109138253Y-49948988D01*
X109111157Y-49928892D01*
X109086162Y-49906238D01*
X109063508Y-49881243D01*
X109043412Y-49854147D01*
X109026070Y-49825213D01*
X109011646Y-49794717D01*
X109000282Y-49762955D01*
X108992085Y-49730232D01*
X108987135Y-49696863D01*
X108985480Y-49663170D01*
X108985480Y-48975670D01*
X108987135Y-48941977D01*
X108992085Y-48908608D01*
X109000282Y-48875885D01*
X109011646Y-48844123D01*
X109026070Y-48813627D01*
X109043412Y-48784693D01*
X109063508Y-48757597D01*
X109086162Y-48732602D01*
X109111157Y-48709948D01*
X109138253Y-48689852D01*
X109167187Y-48672510D01*
X109197683Y-48658086D01*
X109229445Y-48646722D01*
X109262168Y-48638525D01*
X109295537Y-48633575D01*
X109329230Y-48631920D01*
X110441730Y-48631920D01*
X110475423Y-48633575D01*
X110475423Y-48633575D01*
G37*
D18*
X109885480Y-49319420D03*
G04 #@! TD*
D17*
G04 #@! TO.C,R4*
G36*
X112380423Y-66443575D02*
X112413792Y-66448525D01*
X112446515Y-66456722D01*
X112478277Y-66468086D01*
X112508773Y-66482510D01*
X112537707Y-66499852D01*
X112564803Y-66519948D01*
X112589798Y-66542602D01*
X112612452Y-66567597D01*
X112632548Y-66594693D01*
X112649890Y-66623627D01*
X112664314Y-66654123D01*
X112675678Y-66685885D01*
X112683875Y-66718608D01*
X112688825Y-66751977D01*
X112690480Y-66785670D01*
X112690480Y-67473170D01*
X112688825Y-67506863D01*
X112683875Y-67540232D01*
X112675678Y-67572955D01*
X112664314Y-67604717D01*
X112649890Y-67635213D01*
X112632548Y-67664147D01*
X112612452Y-67691243D01*
X112589798Y-67716238D01*
X112564803Y-67738892D01*
X112537707Y-67758988D01*
X112508773Y-67776330D01*
X112478277Y-67790754D01*
X112446515Y-67802118D01*
X112413792Y-67810315D01*
X112380423Y-67815265D01*
X112346730Y-67816920D01*
X111234230Y-67816920D01*
X111200537Y-67815265D01*
X111167168Y-67810315D01*
X111134445Y-67802118D01*
X111102683Y-67790754D01*
X111072187Y-67776330D01*
X111043253Y-67758988D01*
X111016157Y-67738892D01*
X110991162Y-67716238D01*
X110968508Y-67691243D01*
X110948412Y-67664147D01*
X110931070Y-67635213D01*
X110916646Y-67604717D01*
X110905282Y-67572955D01*
X110897085Y-67540232D01*
X110892135Y-67506863D01*
X110890480Y-67473170D01*
X110890480Y-66785670D01*
X110892135Y-66751977D01*
X110897085Y-66718608D01*
X110905282Y-66685885D01*
X110916646Y-66654123D01*
X110931070Y-66623627D01*
X110948412Y-66594693D01*
X110968508Y-66567597D01*
X110991162Y-66542602D01*
X111016157Y-66519948D01*
X111043253Y-66499852D01*
X111072187Y-66482510D01*
X111102683Y-66468086D01*
X111134445Y-66456722D01*
X111167168Y-66448525D01*
X111200537Y-66443575D01*
X111234230Y-66441920D01*
X112346730Y-66441920D01*
X112380423Y-66443575D01*
X112380423Y-66443575D01*
G37*
D18*
X111790480Y-67129420D03*
D17*
G36*
X112380423Y-68318575D02*
X112413792Y-68323525D01*
X112446515Y-68331722D01*
X112478277Y-68343086D01*
X112508773Y-68357510D01*
X112537707Y-68374852D01*
X112564803Y-68394948D01*
X112589798Y-68417602D01*
X112612452Y-68442597D01*
X112632548Y-68469693D01*
X112649890Y-68498627D01*
X112664314Y-68529123D01*
X112675678Y-68560885D01*
X112683875Y-68593608D01*
X112688825Y-68626977D01*
X112690480Y-68660670D01*
X112690480Y-69348170D01*
X112688825Y-69381863D01*
X112683875Y-69415232D01*
X112675678Y-69447955D01*
X112664314Y-69479717D01*
X112649890Y-69510213D01*
X112632548Y-69539147D01*
X112612452Y-69566243D01*
X112589798Y-69591238D01*
X112564803Y-69613892D01*
X112537707Y-69633988D01*
X112508773Y-69651330D01*
X112478277Y-69665754D01*
X112446515Y-69677118D01*
X112413792Y-69685315D01*
X112380423Y-69690265D01*
X112346730Y-69691920D01*
X111234230Y-69691920D01*
X111200537Y-69690265D01*
X111167168Y-69685315D01*
X111134445Y-69677118D01*
X111102683Y-69665754D01*
X111072187Y-69651330D01*
X111043253Y-69633988D01*
X111016157Y-69613892D01*
X110991162Y-69591238D01*
X110968508Y-69566243D01*
X110948412Y-69539147D01*
X110931070Y-69510213D01*
X110916646Y-69479717D01*
X110905282Y-69447955D01*
X110897085Y-69415232D01*
X110892135Y-69381863D01*
X110890480Y-69348170D01*
X110890480Y-68660670D01*
X110892135Y-68626977D01*
X110897085Y-68593608D01*
X110905282Y-68560885D01*
X110916646Y-68529123D01*
X110931070Y-68498627D01*
X110948412Y-68469693D01*
X110968508Y-68442597D01*
X110991162Y-68417602D01*
X111016157Y-68394948D01*
X111043253Y-68374852D01*
X111072187Y-68357510D01*
X111102683Y-68343086D01*
X111134445Y-68331722D01*
X111167168Y-68323525D01*
X111200537Y-68318575D01*
X111234230Y-68316920D01*
X112346730Y-68316920D01*
X112380423Y-68318575D01*
X112380423Y-68318575D01*
G37*
D18*
X111790480Y-69004420D03*
G04 #@! TD*
D17*
G04 #@! TO.C,R3*
G36*
X88250423Y-66443575D02*
X88283792Y-66448525D01*
X88316515Y-66456722D01*
X88348277Y-66468086D01*
X88378773Y-66482510D01*
X88407707Y-66499852D01*
X88434803Y-66519948D01*
X88459798Y-66542602D01*
X88482452Y-66567597D01*
X88502548Y-66594693D01*
X88519890Y-66623627D01*
X88534314Y-66654123D01*
X88545678Y-66685885D01*
X88553875Y-66718608D01*
X88558825Y-66751977D01*
X88560480Y-66785670D01*
X88560480Y-67473170D01*
X88558825Y-67506863D01*
X88553875Y-67540232D01*
X88545678Y-67572955D01*
X88534314Y-67604717D01*
X88519890Y-67635213D01*
X88502548Y-67664147D01*
X88482452Y-67691243D01*
X88459798Y-67716238D01*
X88434803Y-67738892D01*
X88407707Y-67758988D01*
X88378773Y-67776330D01*
X88348277Y-67790754D01*
X88316515Y-67802118D01*
X88283792Y-67810315D01*
X88250423Y-67815265D01*
X88216730Y-67816920D01*
X87104230Y-67816920D01*
X87070537Y-67815265D01*
X87037168Y-67810315D01*
X87004445Y-67802118D01*
X86972683Y-67790754D01*
X86942187Y-67776330D01*
X86913253Y-67758988D01*
X86886157Y-67738892D01*
X86861162Y-67716238D01*
X86838508Y-67691243D01*
X86818412Y-67664147D01*
X86801070Y-67635213D01*
X86786646Y-67604717D01*
X86775282Y-67572955D01*
X86767085Y-67540232D01*
X86762135Y-67506863D01*
X86760480Y-67473170D01*
X86760480Y-66785670D01*
X86762135Y-66751977D01*
X86767085Y-66718608D01*
X86775282Y-66685885D01*
X86786646Y-66654123D01*
X86801070Y-66623627D01*
X86818412Y-66594693D01*
X86838508Y-66567597D01*
X86861162Y-66542602D01*
X86886157Y-66519948D01*
X86913253Y-66499852D01*
X86942187Y-66482510D01*
X86972683Y-66468086D01*
X87004445Y-66456722D01*
X87037168Y-66448525D01*
X87070537Y-66443575D01*
X87104230Y-66441920D01*
X88216730Y-66441920D01*
X88250423Y-66443575D01*
X88250423Y-66443575D01*
G37*
D18*
X87660480Y-67129420D03*
D17*
G36*
X88250423Y-68318575D02*
X88283792Y-68323525D01*
X88316515Y-68331722D01*
X88348277Y-68343086D01*
X88378773Y-68357510D01*
X88407707Y-68374852D01*
X88434803Y-68394948D01*
X88459798Y-68417602D01*
X88482452Y-68442597D01*
X88502548Y-68469693D01*
X88519890Y-68498627D01*
X88534314Y-68529123D01*
X88545678Y-68560885D01*
X88553875Y-68593608D01*
X88558825Y-68626977D01*
X88560480Y-68660670D01*
X88560480Y-69348170D01*
X88558825Y-69381863D01*
X88553875Y-69415232D01*
X88545678Y-69447955D01*
X88534314Y-69479717D01*
X88519890Y-69510213D01*
X88502548Y-69539147D01*
X88482452Y-69566243D01*
X88459798Y-69591238D01*
X88434803Y-69613892D01*
X88407707Y-69633988D01*
X88378773Y-69651330D01*
X88348277Y-69665754D01*
X88316515Y-69677118D01*
X88283792Y-69685315D01*
X88250423Y-69690265D01*
X88216730Y-69691920D01*
X87104230Y-69691920D01*
X87070537Y-69690265D01*
X87037168Y-69685315D01*
X87004445Y-69677118D01*
X86972683Y-69665754D01*
X86942187Y-69651330D01*
X86913253Y-69633988D01*
X86886157Y-69613892D01*
X86861162Y-69591238D01*
X86838508Y-69566243D01*
X86818412Y-69539147D01*
X86801070Y-69510213D01*
X86786646Y-69479717D01*
X86775282Y-69447955D01*
X86767085Y-69415232D01*
X86762135Y-69381863D01*
X86760480Y-69348170D01*
X86760480Y-68660670D01*
X86762135Y-68626977D01*
X86767085Y-68593608D01*
X86775282Y-68560885D01*
X86786646Y-68529123D01*
X86801070Y-68498627D01*
X86818412Y-68469693D01*
X86838508Y-68442597D01*
X86861162Y-68417602D01*
X86886157Y-68394948D01*
X86913253Y-68374852D01*
X86942187Y-68357510D01*
X86972683Y-68343086D01*
X87004445Y-68331722D01*
X87037168Y-68323525D01*
X87070537Y-68318575D01*
X87104230Y-68316920D01*
X88216730Y-68316920D01*
X88250423Y-68318575D01*
X88250423Y-68318575D01*
G37*
D18*
X87660480Y-69004420D03*
G04 #@! TD*
D17*
G04 #@! TO.C,R2*
G36*
X90155423Y-46758575D02*
X90188792Y-46763525D01*
X90221515Y-46771722D01*
X90253277Y-46783086D01*
X90283773Y-46797510D01*
X90312707Y-46814852D01*
X90339803Y-46834948D01*
X90364798Y-46857602D01*
X90387452Y-46882597D01*
X90407548Y-46909693D01*
X90424890Y-46938627D01*
X90439314Y-46969123D01*
X90450678Y-47000885D01*
X90458875Y-47033608D01*
X90463825Y-47066977D01*
X90465480Y-47100670D01*
X90465480Y-47788170D01*
X90463825Y-47821863D01*
X90458875Y-47855232D01*
X90450678Y-47887955D01*
X90439314Y-47919717D01*
X90424890Y-47950213D01*
X90407548Y-47979147D01*
X90387452Y-48006243D01*
X90364798Y-48031238D01*
X90339803Y-48053892D01*
X90312707Y-48073988D01*
X90283773Y-48091330D01*
X90253277Y-48105754D01*
X90221515Y-48117118D01*
X90188792Y-48125315D01*
X90155423Y-48130265D01*
X90121730Y-48131920D01*
X89009230Y-48131920D01*
X88975537Y-48130265D01*
X88942168Y-48125315D01*
X88909445Y-48117118D01*
X88877683Y-48105754D01*
X88847187Y-48091330D01*
X88818253Y-48073988D01*
X88791157Y-48053892D01*
X88766162Y-48031238D01*
X88743508Y-48006243D01*
X88723412Y-47979147D01*
X88706070Y-47950213D01*
X88691646Y-47919717D01*
X88680282Y-47887955D01*
X88672085Y-47855232D01*
X88667135Y-47821863D01*
X88665480Y-47788170D01*
X88665480Y-47100670D01*
X88667135Y-47066977D01*
X88672085Y-47033608D01*
X88680282Y-47000885D01*
X88691646Y-46969123D01*
X88706070Y-46938627D01*
X88723412Y-46909693D01*
X88743508Y-46882597D01*
X88766162Y-46857602D01*
X88791157Y-46834948D01*
X88818253Y-46814852D01*
X88847187Y-46797510D01*
X88877683Y-46783086D01*
X88909445Y-46771722D01*
X88942168Y-46763525D01*
X88975537Y-46758575D01*
X89009230Y-46756920D01*
X90121730Y-46756920D01*
X90155423Y-46758575D01*
X90155423Y-46758575D01*
G37*
D18*
X89565480Y-47444420D03*
D17*
G36*
X90155423Y-48633575D02*
X90188792Y-48638525D01*
X90221515Y-48646722D01*
X90253277Y-48658086D01*
X90283773Y-48672510D01*
X90312707Y-48689852D01*
X90339803Y-48709948D01*
X90364798Y-48732602D01*
X90387452Y-48757597D01*
X90407548Y-48784693D01*
X90424890Y-48813627D01*
X90439314Y-48844123D01*
X90450678Y-48875885D01*
X90458875Y-48908608D01*
X90463825Y-48941977D01*
X90465480Y-48975670D01*
X90465480Y-49663170D01*
X90463825Y-49696863D01*
X90458875Y-49730232D01*
X90450678Y-49762955D01*
X90439314Y-49794717D01*
X90424890Y-49825213D01*
X90407548Y-49854147D01*
X90387452Y-49881243D01*
X90364798Y-49906238D01*
X90339803Y-49928892D01*
X90312707Y-49948988D01*
X90283773Y-49966330D01*
X90253277Y-49980754D01*
X90221515Y-49992118D01*
X90188792Y-50000315D01*
X90155423Y-50005265D01*
X90121730Y-50006920D01*
X89009230Y-50006920D01*
X88975537Y-50005265D01*
X88942168Y-50000315D01*
X88909445Y-49992118D01*
X88877683Y-49980754D01*
X88847187Y-49966330D01*
X88818253Y-49948988D01*
X88791157Y-49928892D01*
X88766162Y-49906238D01*
X88743508Y-49881243D01*
X88723412Y-49854147D01*
X88706070Y-49825213D01*
X88691646Y-49794717D01*
X88680282Y-49762955D01*
X88672085Y-49730232D01*
X88667135Y-49696863D01*
X88665480Y-49663170D01*
X88665480Y-48975670D01*
X88667135Y-48941977D01*
X88672085Y-48908608D01*
X88680282Y-48875885D01*
X88691646Y-48844123D01*
X88706070Y-48813627D01*
X88723412Y-48784693D01*
X88743508Y-48757597D01*
X88766162Y-48732602D01*
X88791157Y-48709948D01*
X88818253Y-48689852D01*
X88847187Y-48672510D01*
X88877683Y-48658086D01*
X88909445Y-48646722D01*
X88942168Y-48638525D01*
X88975537Y-48633575D01*
X89009230Y-48631920D01*
X90121730Y-48631920D01*
X90155423Y-48633575D01*
X90155423Y-48633575D01*
G37*
D18*
X89565480Y-49319420D03*
G04 #@! TD*
D17*
G04 #@! TO.C,R1*
G36*
X92060423Y-66443575D02*
X92093792Y-66448525D01*
X92126515Y-66456722D01*
X92158277Y-66468086D01*
X92188773Y-66482510D01*
X92217707Y-66499852D01*
X92244803Y-66519948D01*
X92269798Y-66542602D01*
X92292452Y-66567597D01*
X92312548Y-66594693D01*
X92329890Y-66623627D01*
X92344314Y-66654123D01*
X92355678Y-66685885D01*
X92363875Y-66718608D01*
X92368825Y-66751977D01*
X92370480Y-66785670D01*
X92370480Y-67473170D01*
X92368825Y-67506863D01*
X92363875Y-67540232D01*
X92355678Y-67572955D01*
X92344314Y-67604717D01*
X92329890Y-67635213D01*
X92312548Y-67664147D01*
X92292452Y-67691243D01*
X92269798Y-67716238D01*
X92244803Y-67738892D01*
X92217707Y-67758988D01*
X92188773Y-67776330D01*
X92158277Y-67790754D01*
X92126515Y-67802118D01*
X92093792Y-67810315D01*
X92060423Y-67815265D01*
X92026730Y-67816920D01*
X90914230Y-67816920D01*
X90880537Y-67815265D01*
X90847168Y-67810315D01*
X90814445Y-67802118D01*
X90782683Y-67790754D01*
X90752187Y-67776330D01*
X90723253Y-67758988D01*
X90696157Y-67738892D01*
X90671162Y-67716238D01*
X90648508Y-67691243D01*
X90628412Y-67664147D01*
X90611070Y-67635213D01*
X90596646Y-67604717D01*
X90585282Y-67572955D01*
X90577085Y-67540232D01*
X90572135Y-67506863D01*
X90570480Y-67473170D01*
X90570480Y-66785670D01*
X90572135Y-66751977D01*
X90577085Y-66718608D01*
X90585282Y-66685885D01*
X90596646Y-66654123D01*
X90611070Y-66623627D01*
X90628412Y-66594693D01*
X90648508Y-66567597D01*
X90671162Y-66542602D01*
X90696157Y-66519948D01*
X90723253Y-66499852D01*
X90752187Y-66482510D01*
X90782683Y-66468086D01*
X90814445Y-66456722D01*
X90847168Y-66448525D01*
X90880537Y-66443575D01*
X90914230Y-66441920D01*
X92026730Y-66441920D01*
X92060423Y-66443575D01*
X92060423Y-66443575D01*
G37*
D18*
X91470480Y-67129420D03*
D17*
G36*
X92060423Y-68318575D02*
X92093792Y-68323525D01*
X92126515Y-68331722D01*
X92158277Y-68343086D01*
X92188773Y-68357510D01*
X92217707Y-68374852D01*
X92244803Y-68394948D01*
X92269798Y-68417602D01*
X92292452Y-68442597D01*
X92312548Y-68469693D01*
X92329890Y-68498627D01*
X92344314Y-68529123D01*
X92355678Y-68560885D01*
X92363875Y-68593608D01*
X92368825Y-68626977D01*
X92370480Y-68660670D01*
X92370480Y-69348170D01*
X92368825Y-69381863D01*
X92363875Y-69415232D01*
X92355678Y-69447955D01*
X92344314Y-69479717D01*
X92329890Y-69510213D01*
X92312548Y-69539147D01*
X92292452Y-69566243D01*
X92269798Y-69591238D01*
X92244803Y-69613892D01*
X92217707Y-69633988D01*
X92188773Y-69651330D01*
X92158277Y-69665754D01*
X92126515Y-69677118D01*
X92093792Y-69685315D01*
X92060423Y-69690265D01*
X92026730Y-69691920D01*
X90914230Y-69691920D01*
X90880537Y-69690265D01*
X90847168Y-69685315D01*
X90814445Y-69677118D01*
X90782683Y-69665754D01*
X90752187Y-69651330D01*
X90723253Y-69633988D01*
X90696157Y-69613892D01*
X90671162Y-69591238D01*
X90648508Y-69566243D01*
X90628412Y-69539147D01*
X90611070Y-69510213D01*
X90596646Y-69479717D01*
X90585282Y-69447955D01*
X90577085Y-69415232D01*
X90572135Y-69381863D01*
X90570480Y-69348170D01*
X90570480Y-68660670D01*
X90572135Y-68626977D01*
X90577085Y-68593608D01*
X90585282Y-68560885D01*
X90596646Y-68529123D01*
X90611070Y-68498627D01*
X90628412Y-68469693D01*
X90648508Y-68442597D01*
X90671162Y-68417602D01*
X90696157Y-68394948D01*
X90723253Y-68374852D01*
X90752187Y-68357510D01*
X90782683Y-68343086D01*
X90814445Y-68331722D01*
X90847168Y-68323525D01*
X90880537Y-68318575D01*
X90914230Y-68316920D01*
X92026730Y-68316920D01*
X92060423Y-68318575D01*
X92060423Y-68318575D01*
G37*
D18*
X91470480Y-69004420D03*
G04 #@! TD*
D17*
G04 #@! TO.C,R22*
G36*
X120000423Y-66443575D02*
X120033792Y-66448525D01*
X120066515Y-66456722D01*
X120098277Y-66468086D01*
X120128773Y-66482510D01*
X120157707Y-66499852D01*
X120184803Y-66519948D01*
X120209798Y-66542602D01*
X120232452Y-66567597D01*
X120252548Y-66594693D01*
X120269890Y-66623627D01*
X120284314Y-66654123D01*
X120295678Y-66685885D01*
X120303875Y-66718608D01*
X120308825Y-66751977D01*
X120310480Y-66785670D01*
X120310480Y-67473170D01*
X120308825Y-67506863D01*
X120303875Y-67540232D01*
X120295678Y-67572955D01*
X120284314Y-67604717D01*
X120269890Y-67635213D01*
X120252548Y-67664147D01*
X120232452Y-67691243D01*
X120209798Y-67716238D01*
X120184803Y-67738892D01*
X120157707Y-67758988D01*
X120128773Y-67776330D01*
X120098277Y-67790754D01*
X120066515Y-67802118D01*
X120033792Y-67810315D01*
X120000423Y-67815265D01*
X119966730Y-67816920D01*
X118854230Y-67816920D01*
X118820537Y-67815265D01*
X118787168Y-67810315D01*
X118754445Y-67802118D01*
X118722683Y-67790754D01*
X118692187Y-67776330D01*
X118663253Y-67758988D01*
X118636157Y-67738892D01*
X118611162Y-67716238D01*
X118588508Y-67691243D01*
X118568412Y-67664147D01*
X118551070Y-67635213D01*
X118536646Y-67604717D01*
X118525282Y-67572955D01*
X118517085Y-67540232D01*
X118512135Y-67506863D01*
X118510480Y-67473170D01*
X118510480Y-66785670D01*
X118512135Y-66751977D01*
X118517085Y-66718608D01*
X118525282Y-66685885D01*
X118536646Y-66654123D01*
X118551070Y-66623627D01*
X118568412Y-66594693D01*
X118588508Y-66567597D01*
X118611162Y-66542602D01*
X118636157Y-66519948D01*
X118663253Y-66499852D01*
X118692187Y-66482510D01*
X118722683Y-66468086D01*
X118754445Y-66456722D01*
X118787168Y-66448525D01*
X118820537Y-66443575D01*
X118854230Y-66441920D01*
X119966730Y-66441920D01*
X120000423Y-66443575D01*
X120000423Y-66443575D01*
G37*
D18*
X119410480Y-67129420D03*
D17*
G36*
X120000423Y-68318575D02*
X120033792Y-68323525D01*
X120066515Y-68331722D01*
X120098277Y-68343086D01*
X120128773Y-68357510D01*
X120157707Y-68374852D01*
X120184803Y-68394948D01*
X120209798Y-68417602D01*
X120232452Y-68442597D01*
X120252548Y-68469693D01*
X120269890Y-68498627D01*
X120284314Y-68529123D01*
X120295678Y-68560885D01*
X120303875Y-68593608D01*
X120308825Y-68626977D01*
X120310480Y-68660670D01*
X120310480Y-69348170D01*
X120308825Y-69381863D01*
X120303875Y-69415232D01*
X120295678Y-69447955D01*
X120284314Y-69479717D01*
X120269890Y-69510213D01*
X120252548Y-69539147D01*
X120232452Y-69566243D01*
X120209798Y-69591238D01*
X120184803Y-69613892D01*
X120157707Y-69633988D01*
X120128773Y-69651330D01*
X120098277Y-69665754D01*
X120066515Y-69677118D01*
X120033792Y-69685315D01*
X120000423Y-69690265D01*
X119966730Y-69691920D01*
X118854230Y-69691920D01*
X118820537Y-69690265D01*
X118787168Y-69685315D01*
X118754445Y-69677118D01*
X118722683Y-69665754D01*
X118692187Y-69651330D01*
X118663253Y-69633988D01*
X118636157Y-69613892D01*
X118611162Y-69591238D01*
X118588508Y-69566243D01*
X118568412Y-69539147D01*
X118551070Y-69510213D01*
X118536646Y-69479717D01*
X118525282Y-69447955D01*
X118517085Y-69415232D01*
X118512135Y-69381863D01*
X118510480Y-69348170D01*
X118510480Y-68660670D01*
X118512135Y-68626977D01*
X118517085Y-68593608D01*
X118525282Y-68560885D01*
X118536646Y-68529123D01*
X118551070Y-68498627D01*
X118568412Y-68469693D01*
X118588508Y-68442597D01*
X118611162Y-68417602D01*
X118636157Y-68394948D01*
X118663253Y-68374852D01*
X118692187Y-68357510D01*
X118722683Y-68343086D01*
X118754445Y-68331722D01*
X118787168Y-68323525D01*
X118820537Y-68318575D01*
X118854230Y-68316920D01*
X119966730Y-68316920D01*
X120000423Y-68318575D01*
X120000423Y-68318575D01*
G37*
D18*
X119410480Y-69004420D03*
G04 #@! TD*
D17*
G04 #@! TO.C,R9*
G36*
X93965423Y-46758575D02*
X93998792Y-46763525D01*
X94031515Y-46771722D01*
X94063277Y-46783086D01*
X94093773Y-46797510D01*
X94122707Y-46814852D01*
X94149803Y-46834948D01*
X94174798Y-46857602D01*
X94197452Y-46882597D01*
X94217548Y-46909693D01*
X94234890Y-46938627D01*
X94249314Y-46969123D01*
X94260678Y-47000885D01*
X94268875Y-47033608D01*
X94273825Y-47066977D01*
X94275480Y-47100670D01*
X94275480Y-47788170D01*
X94273825Y-47821863D01*
X94268875Y-47855232D01*
X94260678Y-47887955D01*
X94249314Y-47919717D01*
X94234890Y-47950213D01*
X94217548Y-47979147D01*
X94197452Y-48006243D01*
X94174798Y-48031238D01*
X94149803Y-48053892D01*
X94122707Y-48073988D01*
X94093773Y-48091330D01*
X94063277Y-48105754D01*
X94031515Y-48117118D01*
X93998792Y-48125315D01*
X93965423Y-48130265D01*
X93931730Y-48131920D01*
X92819230Y-48131920D01*
X92785537Y-48130265D01*
X92752168Y-48125315D01*
X92719445Y-48117118D01*
X92687683Y-48105754D01*
X92657187Y-48091330D01*
X92628253Y-48073988D01*
X92601157Y-48053892D01*
X92576162Y-48031238D01*
X92553508Y-48006243D01*
X92533412Y-47979147D01*
X92516070Y-47950213D01*
X92501646Y-47919717D01*
X92490282Y-47887955D01*
X92482085Y-47855232D01*
X92477135Y-47821863D01*
X92475480Y-47788170D01*
X92475480Y-47100670D01*
X92477135Y-47066977D01*
X92482085Y-47033608D01*
X92490282Y-47000885D01*
X92501646Y-46969123D01*
X92516070Y-46938627D01*
X92533412Y-46909693D01*
X92553508Y-46882597D01*
X92576162Y-46857602D01*
X92601157Y-46834948D01*
X92628253Y-46814852D01*
X92657187Y-46797510D01*
X92687683Y-46783086D01*
X92719445Y-46771722D01*
X92752168Y-46763525D01*
X92785537Y-46758575D01*
X92819230Y-46756920D01*
X93931730Y-46756920D01*
X93965423Y-46758575D01*
X93965423Y-46758575D01*
G37*
D18*
X93375480Y-47444420D03*
D17*
G36*
X93965423Y-48633575D02*
X93998792Y-48638525D01*
X94031515Y-48646722D01*
X94063277Y-48658086D01*
X94093773Y-48672510D01*
X94122707Y-48689852D01*
X94149803Y-48709948D01*
X94174798Y-48732602D01*
X94197452Y-48757597D01*
X94217548Y-48784693D01*
X94234890Y-48813627D01*
X94249314Y-48844123D01*
X94260678Y-48875885D01*
X94268875Y-48908608D01*
X94273825Y-48941977D01*
X94275480Y-48975670D01*
X94275480Y-49663170D01*
X94273825Y-49696863D01*
X94268875Y-49730232D01*
X94260678Y-49762955D01*
X94249314Y-49794717D01*
X94234890Y-49825213D01*
X94217548Y-49854147D01*
X94197452Y-49881243D01*
X94174798Y-49906238D01*
X94149803Y-49928892D01*
X94122707Y-49948988D01*
X94093773Y-49966330D01*
X94063277Y-49980754D01*
X94031515Y-49992118D01*
X93998792Y-50000315D01*
X93965423Y-50005265D01*
X93931730Y-50006920D01*
X92819230Y-50006920D01*
X92785537Y-50005265D01*
X92752168Y-50000315D01*
X92719445Y-49992118D01*
X92687683Y-49980754D01*
X92657187Y-49966330D01*
X92628253Y-49948988D01*
X92601157Y-49928892D01*
X92576162Y-49906238D01*
X92553508Y-49881243D01*
X92533412Y-49854147D01*
X92516070Y-49825213D01*
X92501646Y-49794717D01*
X92490282Y-49762955D01*
X92482085Y-49730232D01*
X92477135Y-49696863D01*
X92475480Y-49663170D01*
X92475480Y-48975670D01*
X92477135Y-48941977D01*
X92482085Y-48908608D01*
X92490282Y-48875885D01*
X92501646Y-48844123D01*
X92516070Y-48813627D01*
X92533412Y-48784693D01*
X92553508Y-48757597D01*
X92576162Y-48732602D01*
X92601157Y-48709948D01*
X92628253Y-48689852D01*
X92657187Y-48672510D01*
X92687683Y-48658086D01*
X92719445Y-48646722D01*
X92752168Y-48638525D01*
X92785537Y-48633575D01*
X92819230Y-48631920D01*
X93931730Y-48631920D01*
X93965423Y-48633575D01*
X93965423Y-48633575D01*
G37*
D18*
X93375480Y-49319420D03*
G04 #@! TD*
M02*
