G04 #@! TF.GenerationSoftware,KiCad,Pcbnew,(5.0.0)*
G04 #@! TF.CreationDate,2018-08-12T23:07:36+08:00*
G04 #@! TF.ProjectId,VCA,5643412E6B696361645F706362000000,rev?*
G04 #@! TF.SameCoordinates,PX18392c0PY18392c0*
G04 #@! TF.FileFunction,Copper,L1,Top,Signal*
G04 #@! TF.FilePolarity,Positive*
%FSLAX46Y46*%
G04 Gerber Fmt 4.6, Leading zero omitted, Abs format (unit mm)*
G04 Created by KiCad (PCBNEW (5.0.0)) date 08/12/18 23:07:36*
%MOMM*%
%LPD*%
G01*
G04 APERTURE LIST*
G04 #@! TA.AperFunction,ComponentPad*
%ADD10R,1.500000X1.500000*%
G04 #@! TD*
G04 #@! TA.AperFunction,ComponentPad*
%ADD11C,1.500000*%
G04 #@! TD*
G04 #@! TA.AperFunction,ComponentPad*
%ADD12O,2.600000X1.500000*%
G04 #@! TD*
G04 #@! TA.AperFunction,ComponentPad*
%ADD13O,2.400000X1.600000*%
G04 #@! TD*
G04 #@! TA.AperFunction,ComponentPad*
%ADD14O,2.600000X1.600000*%
G04 #@! TD*
G04 #@! TA.AperFunction,WasherPad*
%ADD15O,3.000000X2.200000*%
G04 #@! TD*
G04 #@! TA.AperFunction,ComponentPad*
%ADD16C,1.800000*%
G04 #@! TD*
G04 #@! TA.AperFunction,ComponentPad*
%ADD17C,1.600000*%
G04 #@! TD*
G04 #@! TA.AperFunction,ComponentPad*
%ADD18O,1.700000X1.700000*%
G04 #@! TD*
G04 #@! TA.AperFunction,ComponentPad*
%ADD19R,1.700000X1.700000*%
G04 #@! TD*
G04 #@! TA.AperFunction,ComponentPad*
%ADD20R,1.800000X1.800000*%
G04 #@! TD*
G04 #@! TA.AperFunction,ComponentPad*
%ADD21O,1.500000X2.600000*%
G04 #@! TD*
G04 #@! TA.AperFunction,ComponentPad*
%ADD22O,1.600000X2.400000*%
G04 #@! TD*
G04 #@! TA.AperFunction,ComponentPad*
%ADD23O,1.600000X2.600000*%
G04 #@! TD*
G04 #@! TA.AperFunction,ComponentPad*
%ADD24O,3.556000X2.032000*%
G04 #@! TD*
G04 #@! TA.AperFunction,ComponentPad*
%ADD25C,1.440000*%
G04 #@! TD*
G04 #@! TA.AperFunction,ViaPad*
%ADD26C,0.800000*%
G04 #@! TD*
G04 #@! TA.AperFunction,Conductor*
%ADD27C,0.254000*%
G04 #@! TD*
G04 #@! TA.AperFunction,Conductor*
%ADD28C,0.250000*%
G04 #@! TD*
G04 APERTURE END LIST*
D10*
G04 #@! TO.P,Q3,1*
G04 #@! TO.N,GND*
X98298000Y-74422000D03*
D11*
G04 #@! TO.P,Q3,3*
G04 #@! TO.N,Net-(Q3-Pad3)*
X98298000Y-79502000D03*
G04 #@! TO.P,Q3,2*
G04 #@! TO.N,Net-(Q1-Pad1)*
X98298000Y-76962000D03*
G04 #@! TD*
G04 #@! TO.P,Q4,2*
G04 #@! TO.N,Net-(Q2-Pad1)*
X105156000Y-76962000D03*
G04 #@! TO.P,Q4,3*
G04 #@! TO.N,Net-(Q4-Pad3)*
X105156000Y-79502000D03*
D10*
G04 #@! TO.P,Q4,1*
G04 #@! TO.N,GND*
X105156000Y-74422000D03*
G04 #@! TD*
G04 #@! TO.P,Q1,1*
G04 #@! TO.N,Net-(Q1-Pad1)*
X84836000Y-74422000D03*
D11*
G04 #@! TO.P,Q1,3*
G04 #@! TO.N,+12V*
X84836000Y-79502000D03*
G04 #@! TO.P,Q1,2*
G04 #@! TO.N,Net-(C1-Pad1)*
X84836000Y-76962000D03*
G04 #@! TD*
G04 #@! TO.P,Q2,2*
G04 #@! TO.N,Net-(C2-Pad1)*
X118110000Y-76962000D03*
G04 #@! TO.P,Q2,3*
G04 #@! TO.N,+12V*
X118110000Y-79502000D03*
D10*
G04 #@! TO.P,Q2,1*
G04 #@! TO.N,Net-(Q2-Pad1)*
X118110000Y-74422000D03*
G04 #@! TD*
D12*
G04 #@! TO.P,J2,T*
G04 #@! TO.N,Net-(J2-PadT)*
X91470480Y-102516920D03*
D13*
G04 #@! TO.P,J2,S*
G04 #@! TO.N,GND*
X91470480Y-113916920D03*
D14*
G04 #@! TO.P,J2,TN*
G04 #@! TO.N,Net-(J2-PadTN)*
X91470480Y-110816920D03*
G04 #@! TD*
D15*
G04 #@! TO.P,RV8,*
G04 #@! TO.N,*
X116590480Y-56636920D03*
D16*
G04 #@! TO.P,RV8,3*
G04 #@! TO.N,GND*
X109290480Y-64136930D03*
G04 #@! TO.P,RV8,2*
G04 #@! TO.N,CVB*
X111830480Y-64136930D03*
G04 #@! TO.P,RV8,1*
G04 #@! TO.N,Net-(J5-PadT)*
X114290480Y-64136930D03*
D15*
G04 #@! TO.P,RV8,*
G04 #@! TO.N,*
X106990480Y-56636920D03*
G04 #@! TD*
G04 #@! TO.P,RV7,*
G04 #@! TO.N,*
X96270480Y-56636920D03*
D16*
G04 #@! TO.P,RV7,3*
G04 #@! TO.N,GND*
X88970480Y-64136930D03*
G04 #@! TO.P,RV7,2*
G04 #@! TO.N,CVA*
X91510480Y-64136930D03*
G04 #@! TO.P,RV7,1*
G04 #@! TO.N,Net-(J2-PadT)*
X93970480Y-64136930D03*
D15*
G04 #@! TO.P,RV7,*
G04 #@! TO.N,*
X86670480Y-56636920D03*
G04 #@! TD*
G04 #@! TO.P,RV2,*
G04 #@! TO.N,*
X116590480Y-36316920D03*
D16*
G04 #@! TO.P,RV2,3*
G04 #@! TO.N,-12V*
X109290480Y-43816930D03*
G04 #@! TO.P,RV2,2*
G04 #@! TO.N,OFFB*
X111830480Y-43816930D03*
G04 #@! TO.P,RV2,1*
G04 #@! TO.N,Net-(R10-Pad2)*
X114290480Y-43816930D03*
D15*
G04 #@! TO.P,RV2,*
G04 #@! TO.N,*
X106990480Y-36316920D03*
G04 #@! TD*
G04 #@! TO.P,RV1,*
G04 #@! TO.N,*
X96270480Y-36316920D03*
D16*
G04 #@! TO.P,RV1,3*
G04 #@! TO.N,-12V*
X88970480Y-43816930D03*
G04 #@! TO.P,RV1,2*
G04 #@! TO.N,OFFA*
X91510480Y-43816930D03*
G04 #@! TO.P,RV1,1*
G04 #@! TO.N,Net-(R9-Pad2)*
X93970480Y-43816930D03*
D15*
G04 #@! TO.P,RV1,*
G04 #@! TO.N,*
X86670480Y-36316920D03*
G04 #@! TD*
D17*
G04 #@! TO.P,C11,2*
G04 #@! TO.N,Net-(C11-Pad2)*
X83850480Y-89736920D03*
G04 #@! TO.P,C11,1*
G04 #@! TO.N,INA*
X83850480Y-94736920D03*
G04 #@! TD*
G04 #@! TO.P,C13,2*
G04 #@! TO.N,Net-(C13-Pad2)*
X119410480Y-89736920D03*
G04 #@! TO.P,C13,1*
G04 #@! TO.N,INB*
X119410480Y-94736920D03*
G04 #@! TD*
G04 #@! TO.P,C12,2*
G04 #@! TO.N,Net-(C12-Pad2)*
X99170480Y-118866920D03*
G04 #@! TO.P,C12,1*
G04 #@! TO.N,OUTA*
X104170480Y-118866920D03*
G04 #@! TD*
G04 #@! TO.P,C14,2*
G04 #@! TO.N,Net-(C14-Pad2)*
X99170480Y-123946920D03*
G04 #@! TO.P,C14,1*
G04 #@! TO.N,OUTB*
X104170480Y-123946920D03*
G04 #@! TD*
D18*
G04 #@! TO.P,J7,10*
G04 #@! TO.N,Net-(D6-Pad2)*
X102900480Y-29966920D03*
G04 #@! TO.P,J7,9*
X100360480Y-29966920D03*
G04 #@! TO.P,J7,8*
G04 #@! TO.N,GND*
X102900480Y-32506920D03*
G04 #@! TO.P,J7,7*
X100360480Y-32506920D03*
G04 #@! TO.P,J7,6*
X102900480Y-35046920D03*
G04 #@! TO.P,J7,5*
X100360480Y-35046920D03*
G04 #@! TO.P,J7,4*
X102900480Y-37586920D03*
G04 #@! TO.P,J7,3*
X100360480Y-37586920D03*
G04 #@! TO.P,J7,2*
G04 #@! TO.N,Net-(D7-Pad1)*
X102900480Y-40126920D03*
D19*
G04 #@! TO.P,J7,1*
X100360480Y-40126920D03*
G04 #@! TD*
D16*
G04 #@! TO.P,D3,2*
G04 #@! TO.N,Net-(D3-Pad2)*
X101630480Y-47746920D03*
D20*
G04 #@! TO.P,D3,1*
G04 #@! TO.N,-12V*
X101630480Y-45206920D03*
G04 #@! TD*
D16*
G04 #@! TO.P,D4,2*
G04 #@! TO.N,Net-(D4-Pad2)*
X101630480Y-68066920D03*
D20*
G04 #@! TO.P,D4,1*
G04 #@! TO.N,-12V*
X101630480Y-65526920D03*
G04 #@! TD*
D12*
G04 #@! TO.P,J5,T*
G04 #@! TO.N,Net-(J5-PadT)*
X111790480Y-102516920D03*
D13*
G04 #@! TO.P,J5,S*
G04 #@! TO.N,GND*
X111790480Y-113916920D03*
D14*
G04 #@! TO.P,J5,TN*
G04 #@! TO.N,Net-(J5-PadTN)*
X111790480Y-110816920D03*
G04 #@! TD*
D12*
G04 #@! TO.P,J4,T*
G04 #@! TO.N,Net-(C13-Pad2)*
X111790480Y-87276920D03*
D13*
G04 #@! TO.P,J4,S*
G04 #@! TO.N,GND*
X111790480Y-98676920D03*
D14*
G04 #@! TO.P,J4,TN*
G04 #@! TO.N,Net-(J4-PadTN)*
X111790480Y-95576920D03*
G04 #@! TD*
D21*
G04 #@! TO.P,J3,T*
G04 #@! TO.N,Net-(C12-Pad2)*
X96390480Y-122676920D03*
D22*
G04 #@! TO.P,J3,S*
G04 #@! TO.N,GND*
X84990480Y-122676920D03*
D23*
G04 #@! TO.P,J3,TN*
G04 #@! TO.N,Net-(J3-PadTN)*
X88090480Y-122676920D03*
G04 #@! TD*
D12*
G04 #@! TO.P,J1,T*
G04 #@! TO.N,Net-(C11-Pad2)*
X91470480Y-87276920D03*
D13*
G04 #@! TO.P,J1,S*
G04 #@! TO.N,GND*
X91470480Y-98676920D03*
D14*
G04 #@! TO.P,J1,TN*
G04 #@! TO.N,Net-(J1-PadTN)*
X91470480Y-95576920D03*
G04 #@! TD*
D21*
G04 #@! TO.P,J6,T*
G04 #@! TO.N,Net-(C14-Pad2)*
X106870480Y-122676920D03*
D22*
G04 #@! TO.P,J6,S*
G04 #@! TO.N,GND*
X118270480Y-122676920D03*
D23*
G04 #@! TO.P,J6,TN*
G04 #@! TO.N,Net-(J6-PadTN)*
X115170480Y-122676920D03*
G04 #@! TD*
D24*
G04 #@! TO.P,SW2,1*
G04 #@! TO.N,EXPB*
X111760000Y-81662000D03*
G04 #@! TO.P,SW2,2*
G04 #@! TO.N,ABIB*
X111760000Y-76962000D03*
G04 #@! TO.P,SW2,3*
G04 #@! TO.N,LINB*
X111760000Y-72262000D03*
G04 #@! TD*
G04 #@! TO.P,SW1,1*
G04 #@! TO.N,EXPA*
X91440000Y-81662000D03*
G04 #@! TO.P,SW1,2*
G04 #@! TO.N,ABIA*
X91440000Y-76962000D03*
G04 #@! TO.P,SW1,3*
G04 #@! TO.N,LINA*
X91440000Y-72262000D03*
G04 #@! TD*
D25*
G04 #@! TO.P,RV5,3*
G04 #@! TO.N,Net-(R29-Pad1)*
X84455000Y-114935000D03*
G04 #@! TO.P,RV5,2*
X84455000Y-112395000D03*
G04 #@! TO.P,RV5,1*
G04 #@! TO.N,+12V*
X84455000Y-109855000D03*
G04 #@! TD*
G04 #@! TO.P,RV6,3*
G04 #@! TO.N,Net-(R31-Pad1)*
X118745000Y-114935000D03*
G04 #@! TO.P,RV6,2*
X118745000Y-112395000D03*
G04 #@! TO.P,RV6,1*
G04 #@! TO.N,+12V*
X118745000Y-109855000D03*
G04 #@! TD*
G04 #@! TO.P,RV3,3*
G04 #@! TO.N,Net-(RV3-Pad3)*
X84455000Y-104775000D03*
G04 #@! TO.P,RV3,2*
G04 #@! TO.N,GND*
X84455000Y-102235000D03*
G04 #@! TO.P,RV3,1*
G04 #@! TO.N,Net-(R25-Pad1)*
X84455000Y-99695000D03*
G04 #@! TD*
G04 #@! TO.P,RV4,3*
G04 #@! TO.N,Net-(RV4-Pad3)*
X118745000Y-104775000D03*
G04 #@! TO.P,RV4,2*
G04 #@! TO.N,GND*
X118745000Y-102235000D03*
G04 #@! TO.P,RV4,1*
G04 #@! TO.N,Net-(R26-Pad1)*
X118745000Y-99695000D03*
G04 #@! TD*
D26*
G04 #@! TO.N,+12V*
X105918000Y-50038000D03*
X101854000Y-50038000D03*
X101600000Y-114554000D03*
X100584000Y-110490000D03*
X98806000Y-101854000D03*
X104394000Y-101854000D03*
X100584000Y-90424000D03*
X100584000Y-101854000D03*
X107950000Y-90424000D03*
G04 #@! TO.N,-12V*
X97181512Y-45212000D03*
X97282000Y-65532000D03*
X106686067Y-70364067D03*
X104170480Y-69971920D03*
G04 #@! TO.N,Net-(C1-Pad2)*
X97282000Y-83058000D03*
X98806000Y-81534000D03*
X97028000Y-63500000D03*
X94488000Y-61976000D03*
G04 #@! TO.N,Net-(C2-Pad2)*
X106176817Y-83053183D03*
X104140000Y-81534000D03*
G04 #@! TO.N,Net-(C1-Pad1)*
X88858370Y-84293995D03*
X88900000Y-87630000D03*
G04 #@! TO.N,Net-(D4-Pad2)*
X106426000Y-67056000D03*
G04 #@! TO.N,Net-(C2-Pad1)*
X114554000Y-87630000D03*
X114554000Y-84582000D03*
G04 #@! TO.N,Net-(D3-Pad2)*
X97033080Y-47746920D03*
G04 #@! TO.N,ABIB*
X118116067Y-82556067D03*
G04 #@! TO.N,ABIA*
X85090000Y-82804000D03*
G04 #@! TO.N,GND*
X108204000Y-85598000D03*
X95250000Y-85598000D03*
X96774000Y-89916000D03*
X106166920Y-89656920D03*
X114300000Y-69596000D03*
X96513933Y-107956067D03*
X106680000Y-107950000D03*
G04 #@! TD*
D27*
G04 #@! TO.N,+12V*
X105918000Y-50038000D02*
X101854000Y-50038000D01*
X101600000Y-113988315D02*
X100838000Y-113226315D01*
X101600000Y-114554000D02*
X101600000Y-113988315D01*
X100838000Y-110744000D02*
X100584000Y-110490000D01*
X100838000Y-113226315D02*
X100838000Y-110744000D01*
X98806000Y-101854000D02*
X100584000Y-101854000D01*
X104394000Y-101854000D02*
X100584000Y-101854000D01*
X107950000Y-90424000D02*
X100584000Y-90424000D01*
G04 #@! TO.N,-12V*
X101625400Y-45212000D02*
X101630480Y-45206920D01*
X97181512Y-45212000D02*
X101625400Y-45212000D01*
X101625400Y-65532000D02*
X101630480Y-65526920D01*
X97282000Y-65532000D02*
X101625400Y-65532000D01*
X106293920Y-69971920D02*
X106686067Y-70364067D01*
X104170480Y-69971920D02*
X106293920Y-69971920D01*
G04 #@! TO.N,Net-(C1-Pad2)*
X97282000Y-83058000D02*
X98806000Y-81534000D01*
X97028000Y-63500000D02*
X95504000Y-61976000D01*
X95504000Y-61976000D02*
X94488000Y-61976000D01*
G04 #@! TO.N,Net-(C2-Pad2)*
X106176817Y-83053183D02*
X104657634Y-81534000D01*
X104657634Y-81534000D02*
X104140000Y-81534000D01*
D28*
G04 #@! TO.N,Net-(C1-Pad1)*
X88900000Y-87318315D02*
X88900000Y-84335625D01*
X88989183Y-87407498D02*
X88900000Y-87318315D01*
X88900000Y-84335625D02*
X88858370Y-84293995D01*
X88900000Y-87630000D02*
X88989183Y-87407498D01*
D27*
G04 #@! TO.N,Net-(D4-Pad2)*
X104907080Y-68066920D02*
X101630480Y-68066920D01*
X106426000Y-67056000D02*
X104907080Y-68066920D01*
D28*
G04 #@! TO.N,Net-(C2-Pad1)*
X114554000Y-87630000D02*
X114554000Y-87064315D01*
X114554000Y-87064315D02*
X114554000Y-84582000D01*
D27*
G04 #@! TO.N,Net-(D3-Pad2)*
X101630480Y-47746920D02*
X97033080Y-47746920D01*
G04 #@! TO.N,Net-(C13-Pad2)*
X118700560Y-89027000D02*
X119410480Y-89736920D01*
X111790480Y-87276920D02*
X113540560Y-89027000D01*
X113540560Y-89027000D02*
X118700560Y-89027000D01*
G04 #@! TO.N,Net-(C11-Pad2)*
X84496900Y-89090500D02*
X83850480Y-89736920D01*
X88900000Y-89090500D02*
X84496900Y-89090500D01*
X91470480Y-87276920D02*
X90713580Y-87276920D01*
X90713580Y-87276920D02*
X88900000Y-89090500D01*
G04 #@! TO.N,ABIB*
X112522000Y-76962000D02*
X111760000Y-76962000D01*
X118116067Y-82556067D02*
X112522000Y-76962000D01*
G04 #@! TO.N,ABIA*
X90932000Y-76962000D02*
X91440000Y-76962000D01*
X85090000Y-82804000D02*
X90932000Y-76962000D01*
G04 #@! TD*
G04 #@! TO.N,GND*
G36*
X120720480Y-89149705D02*
X120627014Y-88924058D01*
X120223342Y-88520386D01*
X119695919Y-88301920D01*
X119125041Y-88301920D01*
X119039804Y-88337226D01*
X118997877Y-88309212D01*
X118775608Y-88265000D01*
X118775603Y-88265000D01*
X118700560Y-88250073D01*
X118625517Y-88265000D01*
X115382711Y-88265000D01*
X115431431Y-88216280D01*
X115589000Y-87835874D01*
X115589000Y-87424126D01*
X115431431Y-87043720D01*
X115314000Y-86926289D01*
X115314000Y-85285711D01*
X115431431Y-85168280D01*
X115589000Y-84787874D01*
X115589000Y-84376126D01*
X115431431Y-83995720D01*
X115140280Y-83704569D01*
X114759874Y-83547000D01*
X114348126Y-83547000D01*
X113967720Y-83704569D01*
X113676569Y-83995720D01*
X113519000Y-84376126D01*
X113519000Y-84787874D01*
X113676569Y-85168280D01*
X113794001Y-85285712D01*
X113794000Y-86926289D01*
X113701306Y-87018983D01*
X113645121Y-86736520D01*
X113339009Y-86278391D01*
X112880880Y-85972279D01*
X112476887Y-85891920D01*
X111104073Y-85891920D01*
X110700080Y-85972279D01*
X110241951Y-86278391D01*
X109935839Y-86736520D01*
X109828347Y-87276920D01*
X109935839Y-87817320D01*
X110241951Y-88275449D01*
X110700080Y-88581561D01*
X111104073Y-88661920D01*
X112097850Y-88661920D01*
X112948677Y-89512748D01*
X112991189Y-89576371D01*
X113054811Y-89618882D01*
X113117019Y-89660448D01*
X113243243Y-89744788D01*
X113465512Y-89789000D01*
X113465513Y-89789000D01*
X113540560Y-89803928D01*
X113615607Y-89789000D01*
X117975480Y-89789000D01*
X117975480Y-90022359D01*
X118193946Y-90549782D01*
X118597618Y-90953454D01*
X119125041Y-91171920D01*
X119695919Y-91171920D01*
X120223342Y-90953454D01*
X120627014Y-90549782D01*
X120720480Y-90324135D01*
X120720480Y-94149705D01*
X120627014Y-93924058D01*
X120223342Y-93520386D01*
X119695919Y-93301920D01*
X119125041Y-93301920D01*
X118597618Y-93520386D01*
X118193946Y-93924058D01*
X117975480Y-94451481D01*
X117975480Y-95022359D01*
X118193946Y-95549782D01*
X118597618Y-95953454D01*
X119125041Y-96171920D01*
X119695919Y-96171920D01*
X120223342Y-95953454D01*
X120627014Y-95549782D01*
X120720480Y-95324135D01*
X120720480Y-126754920D01*
X82540480Y-126754920D01*
X82540480Y-122803920D01*
X83555480Y-122803920D01*
X83555480Y-123203920D01*
X83713314Y-123743403D01*
X84065584Y-124181420D01*
X84558661Y-124451287D01*
X84641441Y-124468824D01*
X84863480Y-124346835D01*
X84863480Y-122803920D01*
X85117480Y-122803920D01*
X85117480Y-124346835D01*
X85339519Y-124468824D01*
X85422299Y-124451287D01*
X85915376Y-124181420D01*
X86267646Y-123743403D01*
X86425480Y-123203920D01*
X86425480Y-122803920D01*
X85117480Y-122803920D01*
X84863480Y-122803920D01*
X83555480Y-122803920D01*
X82540480Y-122803920D01*
X82540480Y-122149920D01*
X83555480Y-122149920D01*
X83555480Y-122549920D01*
X84863480Y-122549920D01*
X84863480Y-121007005D01*
X85117480Y-121007005D01*
X85117480Y-122549920D01*
X86425480Y-122549920D01*
X86425480Y-122149920D01*
X86392031Y-122035587D01*
X86655480Y-122035587D01*
X86655480Y-123318252D01*
X86738740Y-123736828D01*
X87055903Y-124211496D01*
X87530571Y-124528660D01*
X88090480Y-124640033D01*
X88650388Y-124528660D01*
X89125056Y-124211497D01*
X89442220Y-123736829D01*
X89525480Y-123318253D01*
X89525480Y-122035587D01*
X89516515Y-121990513D01*
X95005480Y-121990513D01*
X95005480Y-123363326D01*
X95085839Y-123767319D01*
X95391951Y-124225448D01*
X95850080Y-124531561D01*
X96390480Y-124639053D01*
X96930879Y-124531561D01*
X97389008Y-124225449D01*
X97695121Y-123767320D01*
X97716173Y-123661481D01*
X97735480Y-123661481D01*
X97735480Y-124232359D01*
X97953946Y-124759782D01*
X98357618Y-125163454D01*
X98885041Y-125381920D01*
X99455919Y-125381920D01*
X99983342Y-125163454D01*
X100387014Y-124759782D01*
X100605480Y-124232359D01*
X100605480Y-123661481D01*
X102735480Y-123661481D01*
X102735480Y-124232359D01*
X102953946Y-124759782D01*
X103357618Y-125163454D01*
X103885041Y-125381920D01*
X104455919Y-125381920D01*
X104983342Y-125163454D01*
X105387014Y-124759782D01*
X105605480Y-124232359D01*
X105605480Y-123826647D01*
X105871952Y-124225449D01*
X106330081Y-124531561D01*
X106870480Y-124639053D01*
X107410880Y-124531561D01*
X107869009Y-124225449D01*
X108175121Y-123767320D01*
X108255480Y-123363327D01*
X108255480Y-122035588D01*
X113735480Y-122035588D01*
X113735480Y-123318253D01*
X113818740Y-123736829D01*
X114135904Y-124211497D01*
X114610572Y-124528660D01*
X115170480Y-124640033D01*
X115730389Y-124528660D01*
X116205057Y-124211497D01*
X116522220Y-123736829D01*
X116605480Y-123318253D01*
X116605480Y-122803920D01*
X116835480Y-122803920D01*
X116835480Y-123203920D01*
X116993314Y-123743403D01*
X117345584Y-124181420D01*
X117838661Y-124451287D01*
X117921441Y-124468824D01*
X118143480Y-124346835D01*
X118143480Y-122803920D01*
X118397480Y-122803920D01*
X118397480Y-124346835D01*
X118619519Y-124468824D01*
X118702299Y-124451287D01*
X119195376Y-124181420D01*
X119547646Y-123743403D01*
X119705480Y-123203920D01*
X119705480Y-122803920D01*
X118397480Y-122803920D01*
X118143480Y-122803920D01*
X116835480Y-122803920D01*
X116605480Y-122803920D01*
X116605480Y-122149920D01*
X116835480Y-122149920D01*
X116835480Y-122549920D01*
X118143480Y-122549920D01*
X118143480Y-121007005D01*
X118397480Y-121007005D01*
X118397480Y-122549920D01*
X119705480Y-122549920D01*
X119705480Y-122149920D01*
X119547646Y-121610437D01*
X119195376Y-121172420D01*
X118702299Y-120902553D01*
X118619519Y-120885016D01*
X118397480Y-121007005D01*
X118143480Y-121007005D01*
X117921441Y-120885016D01*
X117838661Y-120902553D01*
X117345584Y-121172420D01*
X116993314Y-121610437D01*
X116835480Y-122149920D01*
X116605480Y-122149920D01*
X116605480Y-122035587D01*
X116522220Y-121617011D01*
X116205056Y-121142343D01*
X115730388Y-120825180D01*
X115170480Y-120713807D01*
X114610571Y-120825180D01*
X114135903Y-121142344D01*
X113818740Y-121617012D01*
X113735480Y-122035588D01*
X108255480Y-122035588D01*
X108255480Y-121990513D01*
X108175121Y-121586520D01*
X107869008Y-121128391D01*
X107410879Y-120822279D01*
X106870480Y-120714787D01*
X106330080Y-120822279D01*
X105871951Y-121128392D01*
X105565839Y-121586521D01*
X105485480Y-121990514D01*
X105485480Y-123363327D01*
X105488713Y-123379581D01*
X105387014Y-123134058D01*
X104983342Y-122730386D01*
X104455919Y-122511920D01*
X103885041Y-122511920D01*
X103357618Y-122730386D01*
X102953946Y-123134058D01*
X102735480Y-123661481D01*
X100605480Y-123661481D01*
X100387014Y-123134058D01*
X99983342Y-122730386D01*
X99455919Y-122511920D01*
X98885041Y-122511920D01*
X98357618Y-122730386D01*
X97953946Y-123134058D01*
X97735480Y-123661481D01*
X97716173Y-123661481D01*
X97775480Y-123363327D01*
X97775480Y-121990513D01*
X97695121Y-121586520D01*
X97389009Y-121128391D01*
X96930880Y-120822279D01*
X96390480Y-120714787D01*
X95850081Y-120822279D01*
X95391952Y-121128391D01*
X95085839Y-121586520D01*
X95005480Y-121990513D01*
X89516515Y-121990513D01*
X89442220Y-121617011D01*
X89125057Y-121142343D01*
X88650389Y-120825180D01*
X88090480Y-120713807D01*
X87530572Y-120825180D01*
X87055904Y-121142343D01*
X86738740Y-121617011D01*
X86655480Y-122035587D01*
X86392031Y-122035587D01*
X86267646Y-121610437D01*
X85915376Y-121172420D01*
X85422299Y-120902553D01*
X85339519Y-120885016D01*
X85117480Y-121007005D01*
X84863480Y-121007005D01*
X84641441Y-120885016D01*
X84558661Y-120902553D01*
X84065584Y-121172420D01*
X83713314Y-121610437D01*
X83555480Y-122149920D01*
X82540480Y-122149920D01*
X82540480Y-118581481D01*
X97735480Y-118581481D01*
X97735480Y-119152359D01*
X97953946Y-119679782D01*
X98357618Y-120083454D01*
X98885041Y-120301920D01*
X99455919Y-120301920D01*
X99983342Y-120083454D01*
X100387014Y-119679782D01*
X100605480Y-119152359D01*
X100605480Y-118581481D01*
X102735480Y-118581481D01*
X102735480Y-119152359D01*
X102953946Y-119679782D01*
X103357618Y-120083454D01*
X103885041Y-120301920D01*
X104455919Y-120301920D01*
X104983342Y-120083454D01*
X105387014Y-119679782D01*
X105605480Y-119152359D01*
X105605480Y-118581481D01*
X105387014Y-118054058D01*
X104983342Y-117650386D01*
X104455919Y-117431920D01*
X103885041Y-117431920D01*
X103357618Y-117650386D01*
X102953946Y-118054058D01*
X102735480Y-118581481D01*
X100605480Y-118581481D01*
X100387014Y-118054058D01*
X99983342Y-117650386D01*
X99455919Y-117431920D01*
X98885041Y-117431920D01*
X98357618Y-117650386D01*
X97953946Y-118054058D01*
X97735480Y-118581481D01*
X82540480Y-118581481D01*
X82540480Y-109585474D01*
X83100000Y-109585474D01*
X83100000Y-110124526D01*
X83306286Y-110622546D01*
X83687454Y-111003714D01*
X83980265Y-111125000D01*
X83687454Y-111246286D01*
X83306286Y-111627454D01*
X83100000Y-112125474D01*
X83100000Y-112664526D01*
X83306286Y-113162546D01*
X83687454Y-113543714D01*
X83980265Y-113665000D01*
X83687454Y-113786286D01*
X83306286Y-114167454D01*
X83100000Y-114665474D01*
X83100000Y-115204526D01*
X83306286Y-115702546D01*
X83687454Y-116083714D01*
X84185474Y-116290000D01*
X84724526Y-116290000D01*
X85222546Y-116083714D01*
X85603714Y-115702546D01*
X85810000Y-115204526D01*
X85810000Y-114665474D01*
X85644516Y-114265959D01*
X89678576Y-114265959D01*
X89696113Y-114348739D01*
X89965980Y-114841816D01*
X90403997Y-115194086D01*
X90943480Y-115351920D01*
X91343480Y-115351920D01*
X91343480Y-114043920D01*
X91597480Y-114043920D01*
X91597480Y-115351920D01*
X91997480Y-115351920D01*
X92536963Y-115194086D01*
X92974980Y-114841816D01*
X93244847Y-114348739D01*
X93262384Y-114265959D01*
X93140395Y-114043920D01*
X91597480Y-114043920D01*
X91343480Y-114043920D01*
X89800565Y-114043920D01*
X89678576Y-114265959D01*
X85644516Y-114265959D01*
X85603714Y-114167454D01*
X85222546Y-113786286D01*
X84929735Y-113665000D01*
X85164201Y-113567881D01*
X89678576Y-113567881D01*
X89800565Y-113789920D01*
X91343480Y-113789920D01*
X91343480Y-112481920D01*
X91597480Y-112481920D01*
X91597480Y-113789920D01*
X93140395Y-113789920D01*
X93262384Y-113567881D01*
X93244847Y-113485101D01*
X92974980Y-112992024D01*
X92536963Y-112639754D01*
X91997480Y-112481920D01*
X91597480Y-112481920D01*
X91343480Y-112481920D01*
X90943480Y-112481920D01*
X90403997Y-112639754D01*
X89965980Y-112992024D01*
X89696113Y-113485101D01*
X89678576Y-113567881D01*
X85164201Y-113567881D01*
X85222546Y-113543714D01*
X85603714Y-113162546D01*
X85810000Y-112664526D01*
X85810000Y-112125474D01*
X85603714Y-111627454D01*
X85222546Y-111246286D01*
X84929735Y-111125000D01*
X85222546Y-111003714D01*
X85409340Y-110816920D01*
X89507367Y-110816920D01*
X89618740Y-111376829D01*
X89935903Y-111851497D01*
X90410571Y-112168660D01*
X90829147Y-112251920D01*
X92111813Y-112251920D01*
X92530389Y-112168660D01*
X93005057Y-111851497D01*
X93322220Y-111376829D01*
X93433593Y-110816920D01*
X93327614Y-110284126D01*
X99549000Y-110284126D01*
X99549000Y-110695874D01*
X99706569Y-111076280D01*
X99997720Y-111367431D01*
X100076001Y-111399856D01*
X100076000Y-113151272D01*
X100061073Y-113226315D01*
X100076000Y-113301358D01*
X100076000Y-113301362D01*
X100120212Y-113523631D01*
X100288629Y-113775686D01*
X100352253Y-113818198D01*
X100657900Y-114123845D01*
X100565000Y-114348126D01*
X100565000Y-114759874D01*
X100722569Y-115140280D01*
X101013720Y-115431431D01*
X101394126Y-115589000D01*
X101805874Y-115589000D01*
X102186280Y-115431431D01*
X102477431Y-115140280D01*
X102635000Y-114759874D01*
X102635000Y-114348126D01*
X102600966Y-114265959D01*
X109998576Y-114265959D01*
X110016113Y-114348739D01*
X110285980Y-114841816D01*
X110723997Y-115194086D01*
X111263480Y-115351920D01*
X111663480Y-115351920D01*
X111663480Y-114043920D01*
X111917480Y-114043920D01*
X111917480Y-115351920D01*
X112317480Y-115351920D01*
X112856963Y-115194086D01*
X113294980Y-114841816D01*
X113564847Y-114348739D01*
X113582384Y-114265959D01*
X113460395Y-114043920D01*
X111917480Y-114043920D01*
X111663480Y-114043920D01*
X110120565Y-114043920D01*
X109998576Y-114265959D01*
X102600966Y-114265959D01*
X102477431Y-113967720D01*
X102346859Y-113837148D01*
X102317788Y-113690998D01*
X102235524Y-113567881D01*
X109998576Y-113567881D01*
X110120565Y-113789920D01*
X111663480Y-113789920D01*
X111663480Y-112481920D01*
X111917480Y-112481920D01*
X111917480Y-113789920D01*
X113460395Y-113789920D01*
X113582384Y-113567881D01*
X113564847Y-113485101D01*
X113294980Y-112992024D01*
X112856963Y-112639754D01*
X112317480Y-112481920D01*
X111917480Y-112481920D01*
X111663480Y-112481920D01*
X111263480Y-112481920D01*
X110723997Y-112639754D01*
X110285980Y-112992024D01*
X110016113Y-113485101D01*
X109998576Y-113567881D01*
X102235524Y-113567881D01*
X102149371Y-113438944D01*
X102085749Y-113396433D01*
X101600000Y-112910685D01*
X101600000Y-110819042D01*
X101600422Y-110816920D01*
X109827367Y-110816920D01*
X109938740Y-111376829D01*
X110255903Y-111851497D01*
X110730571Y-112168660D01*
X111149147Y-112251920D01*
X112431813Y-112251920D01*
X112850389Y-112168660D01*
X113325057Y-111851497D01*
X113642220Y-111376829D01*
X113753593Y-110816920D01*
X113642220Y-110257011D01*
X113325057Y-109782343D01*
X113030422Y-109585474D01*
X117390000Y-109585474D01*
X117390000Y-110124526D01*
X117596286Y-110622546D01*
X117977454Y-111003714D01*
X118270265Y-111125000D01*
X117977454Y-111246286D01*
X117596286Y-111627454D01*
X117390000Y-112125474D01*
X117390000Y-112664526D01*
X117596286Y-113162546D01*
X117977454Y-113543714D01*
X118270265Y-113665000D01*
X117977454Y-113786286D01*
X117596286Y-114167454D01*
X117390000Y-114665474D01*
X117390000Y-115204526D01*
X117596286Y-115702546D01*
X117977454Y-116083714D01*
X118475474Y-116290000D01*
X119014526Y-116290000D01*
X119512546Y-116083714D01*
X119893714Y-115702546D01*
X120100000Y-115204526D01*
X120100000Y-114665474D01*
X119893714Y-114167454D01*
X119512546Y-113786286D01*
X119219735Y-113665000D01*
X119512546Y-113543714D01*
X119893714Y-113162546D01*
X120100000Y-112664526D01*
X120100000Y-112125474D01*
X119893714Y-111627454D01*
X119512546Y-111246286D01*
X119219735Y-111125000D01*
X119512546Y-111003714D01*
X119893714Y-110622546D01*
X120100000Y-110124526D01*
X120100000Y-109585474D01*
X119893714Y-109087454D01*
X119512546Y-108706286D01*
X119014526Y-108500000D01*
X118475474Y-108500000D01*
X117977454Y-108706286D01*
X117596286Y-109087454D01*
X117390000Y-109585474D01*
X113030422Y-109585474D01*
X112850389Y-109465180D01*
X112431813Y-109381920D01*
X111149147Y-109381920D01*
X110730571Y-109465180D01*
X110255903Y-109782343D01*
X109938740Y-110257011D01*
X109827367Y-110816920D01*
X101600422Y-110816920D01*
X101614927Y-110743999D01*
X101609781Y-110718130D01*
X101619000Y-110695874D01*
X101619000Y-110284126D01*
X101461431Y-109903720D01*
X101170280Y-109612569D01*
X100789874Y-109455000D01*
X100378126Y-109455000D01*
X99997720Y-109612569D01*
X99706569Y-109903720D01*
X99549000Y-110284126D01*
X93327614Y-110284126D01*
X93322220Y-110257011D01*
X93005057Y-109782343D01*
X92530389Y-109465180D01*
X92111813Y-109381920D01*
X90829147Y-109381920D01*
X90410571Y-109465180D01*
X89935903Y-109782343D01*
X89618740Y-110257011D01*
X89507367Y-110816920D01*
X85409340Y-110816920D01*
X85603714Y-110622546D01*
X85810000Y-110124526D01*
X85810000Y-109585474D01*
X85603714Y-109087454D01*
X85222546Y-108706286D01*
X84724526Y-108500000D01*
X84185474Y-108500000D01*
X83687454Y-108706286D01*
X83306286Y-109087454D01*
X83100000Y-109585474D01*
X82540480Y-109585474D01*
X82540480Y-104505474D01*
X83100000Y-104505474D01*
X83100000Y-105044526D01*
X83306286Y-105542546D01*
X83687454Y-105923714D01*
X84185474Y-106130000D01*
X84724526Y-106130000D01*
X85222546Y-105923714D01*
X85603714Y-105542546D01*
X85810000Y-105044526D01*
X85810000Y-104505474D01*
X117390000Y-104505474D01*
X117390000Y-105044526D01*
X117596286Y-105542546D01*
X117977454Y-105923714D01*
X118475474Y-106130000D01*
X119014526Y-106130000D01*
X119512546Y-105923714D01*
X119893714Y-105542546D01*
X120100000Y-105044526D01*
X120100000Y-104505474D01*
X119893714Y-104007454D01*
X119512546Y-103626286D01*
X119235849Y-103511675D01*
X119450869Y-103422611D01*
X119515169Y-103184774D01*
X118745000Y-102414605D01*
X117974831Y-103184774D01*
X118039131Y-103422611D01*
X118271114Y-103504649D01*
X117977454Y-103626286D01*
X117596286Y-104007454D01*
X117390000Y-104505474D01*
X85810000Y-104505474D01*
X85603714Y-104007454D01*
X85222546Y-103626286D01*
X84945849Y-103511675D01*
X85160869Y-103422611D01*
X85225169Y-103184774D01*
X84455000Y-102414605D01*
X83684831Y-103184774D01*
X83749131Y-103422611D01*
X83981114Y-103504649D01*
X83687454Y-103626286D01*
X83306286Y-104007454D01*
X83100000Y-104505474D01*
X82540480Y-104505474D01*
X82540480Y-102037342D01*
X83087667Y-102037342D01*
X83116108Y-102575644D01*
X83267389Y-102940869D01*
X83505226Y-103005169D01*
X84275395Y-102235000D01*
X84634605Y-102235000D01*
X85404774Y-103005169D01*
X85642611Y-102940869D01*
X85792534Y-102516920D01*
X89508347Y-102516920D01*
X89615839Y-103057320D01*
X89921951Y-103515449D01*
X90380080Y-103821561D01*
X90784073Y-103901920D01*
X92156887Y-103901920D01*
X92560880Y-103821561D01*
X93019009Y-103515449D01*
X93325121Y-103057320D01*
X93432613Y-102516920D01*
X93325121Y-101976520D01*
X93105696Y-101648126D01*
X97771000Y-101648126D01*
X97771000Y-102059874D01*
X97928569Y-102440280D01*
X98219720Y-102731431D01*
X98600126Y-102889000D01*
X99011874Y-102889000D01*
X99392280Y-102731431D01*
X99507711Y-102616000D01*
X99882289Y-102616000D01*
X99997720Y-102731431D01*
X100378126Y-102889000D01*
X100789874Y-102889000D01*
X101170280Y-102731431D01*
X101285711Y-102616000D01*
X103692289Y-102616000D01*
X103807720Y-102731431D01*
X104188126Y-102889000D01*
X104599874Y-102889000D01*
X104980280Y-102731431D01*
X105194791Y-102516920D01*
X109828347Y-102516920D01*
X109935839Y-103057320D01*
X110241951Y-103515449D01*
X110700080Y-103821561D01*
X111104073Y-103901920D01*
X112476887Y-103901920D01*
X112880880Y-103821561D01*
X113339009Y-103515449D01*
X113645121Y-103057320D01*
X113752613Y-102516920D01*
X113657220Y-102037342D01*
X117377667Y-102037342D01*
X117406108Y-102575644D01*
X117557389Y-102940869D01*
X117795226Y-103005169D01*
X118565395Y-102235000D01*
X118924605Y-102235000D01*
X119694774Y-103005169D01*
X119932611Y-102940869D01*
X120112333Y-102432658D01*
X120083892Y-101894356D01*
X119932611Y-101529131D01*
X119694774Y-101464831D01*
X118924605Y-102235000D01*
X118565395Y-102235000D01*
X117795226Y-101464831D01*
X117557389Y-101529131D01*
X117377667Y-102037342D01*
X113657220Y-102037342D01*
X113645121Y-101976520D01*
X113339009Y-101518391D01*
X112880880Y-101212279D01*
X112476887Y-101131920D01*
X111104073Y-101131920D01*
X110700080Y-101212279D01*
X110241951Y-101518391D01*
X109935839Y-101976520D01*
X109828347Y-102516920D01*
X105194791Y-102516920D01*
X105271431Y-102440280D01*
X105429000Y-102059874D01*
X105429000Y-101648126D01*
X105271431Y-101267720D01*
X104980280Y-100976569D01*
X104599874Y-100819000D01*
X104188126Y-100819000D01*
X103807720Y-100976569D01*
X103692289Y-101092000D01*
X101285711Y-101092000D01*
X101170280Y-100976569D01*
X100789874Y-100819000D01*
X100378126Y-100819000D01*
X99997720Y-100976569D01*
X99882289Y-101092000D01*
X99507711Y-101092000D01*
X99392280Y-100976569D01*
X99011874Y-100819000D01*
X98600126Y-100819000D01*
X98219720Y-100976569D01*
X97928569Y-101267720D01*
X97771000Y-101648126D01*
X93105696Y-101648126D01*
X93019009Y-101518391D01*
X92560880Y-101212279D01*
X92156887Y-101131920D01*
X90784073Y-101131920D01*
X90380080Y-101212279D01*
X89921951Y-101518391D01*
X89615839Y-101976520D01*
X89508347Y-102516920D01*
X85792534Y-102516920D01*
X85822333Y-102432658D01*
X85793892Y-101894356D01*
X85642611Y-101529131D01*
X85404774Y-101464831D01*
X84634605Y-102235000D01*
X84275395Y-102235000D01*
X83505226Y-101464831D01*
X83267389Y-101529131D01*
X83087667Y-102037342D01*
X82540480Y-102037342D01*
X82540480Y-99425474D01*
X83100000Y-99425474D01*
X83100000Y-99964526D01*
X83306286Y-100462546D01*
X83687454Y-100843714D01*
X83964151Y-100958325D01*
X83749131Y-101047389D01*
X83684831Y-101285226D01*
X84455000Y-102055395D01*
X85225169Y-101285226D01*
X85160869Y-101047389D01*
X84928886Y-100965351D01*
X85222546Y-100843714D01*
X85603714Y-100462546D01*
X85810000Y-99964526D01*
X85810000Y-99425474D01*
X85644516Y-99025959D01*
X89678576Y-99025959D01*
X89696113Y-99108739D01*
X89965980Y-99601816D01*
X90403997Y-99954086D01*
X90943480Y-100111920D01*
X91343480Y-100111920D01*
X91343480Y-98803920D01*
X91597480Y-98803920D01*
X91597480Y-100111920D01*
X91997480Y-100111920D01*
X92536963Y-99954086D01*
X92974980Y-99601816D01*
X93244847Y-99108739D01*
X93262384Y-99025959D01*
X109998576Y-99025959D01*
X110016113Y-99108739D01*
X110285980Y-99601816D01*
X110723997Y-99954086D01*
X111263480Y-100111920D01*
X111663480Y-100111920D01*
X111663480Y-98803920D01*
X111917480Y-98803920D01*
X111917480Y-100111920D01*
X112317480Y-100111920D01*
X112856963Y-99954086D01*
X113294980Y-99601816D01*
X113391494Y-99425474D01*
X117390000Y-99425474D01*
X117390000Y-99964526D01*
X117596286Y-100462546D01*
X117977454Y-100843714D01*
X118254151Y-100958325D01*
X118039131Y-101047389D01*
X117974831Y-101285226D01*
X118745000Y-102055395D01*
X119515169Y-101285226D01*
X119450869Y-101047389D01*
X119218886Y-100965351D01*
X119512546Y-100843714D01*
X119893714Y-100462546D01*
X120100000Y-99964526D01*
X120100000Y-99425474D01*
X119893714Y-98927454D01*
X119512546Y-98546286D01*
X119014526Y-98340000D01*
X118475474Y-98340000D01*
X117977454Y-98546286D01*
X117596286Y-98927454D01*
X117390000Y-99425474D01*
X113391494Y-99425474D01*
X113564847Y-99108739D01*
X113582384Y-99025959D01*
X113460395Y-98803920D01*
X111917480Y-98803920D01*
X111663480Y-98803920D01*
X110120565Y-98803920D01*
X109998576Y-99025959D01*
X93262384Y-99025959D01*
X93140395Y-98803920D01*
X91597480Y-98803920D01*
X91343480Y-98803920D01*
X89800565Y-98803920D01*
X89678576Y-99025959D01*
X85644516Y-99025959D01*
X85603714Y-98927454D01*
X85222546Y-98546286D01*
X84724526Y-98340000D01*
X84185474Y-98340000D01*
X83687454Y-98546286D01*
X83306286Y-98927454D01*
X83100000Y-99425474D01*
X82540480Y-99425474D01*
X82540480Y-98327881D01*
X89678576Y-98327881D01*
X89800565Y-98549920D01*
X91343480Y-98549920D01*
X91343480Y-97241920D01*
X91597480Y-97241920D01*
X91597480Y-98549920D01*
X93140395Y-98549920D01*
X93262384Y-98327881D01*
X109998576Y-98327881D01*
X110120565Y-98549920D01*
X111663480Y-98549920D01*
X111663480Y-97241920D01*
X111917480Y-97241920D01*
X111917480Y-98549920D01*
X113460395Y-98549920D01*
X113582384Y-98327881D01*
X113564847Y-98245101D01*
X113294980Y-97752024D01*
X112856963Y-97399754D01*
X112317480Y-97241920D01*
X111917480Y-97241920D01*
X111663480Y-97241920D01*
X111263480Y-97241920D01*
X110723997Y-97399754D01*
X110285980Y-97752024D01*
X110016113Y-98245101D01*
X109998576Y-98327881D01*
X93262384Y-98327881D01*
X93244847Y-98245101D01*
X92974980Y-97752024D01*
X92536963Y-97399754D01*
X91997480Y-97241920D01*
X91597480Y-97241920D01*
X91343480Y-97241920D01*
X90943480Y-97241920D01*
X90403997Y-97399754D01*
X89965980Y-97752024D01*
X89696113Y-98245101D01*
X89678576Y-98327881D01*
X82540480Y-98327881D01*
X82540480Y-95324135D01*
X82633946Y-95549782D01*
X83037618Y-95953454D01*
X83565041Y-96171920D01*
X84135919Y-96171920D01*
X84663342Y-95953454D01*
X85039876Y-95576920D01*
X89507367Y-95576920D01*
X89618740Y-96136829D01*
X89935903Y-96611497D01*
X90410571Y-96928660D01*
X90829147Y-97011920D01*
X92111813Y-97011920D01*
X92530389Y-96928660D01*
X93005057Y-96611497D01*
X93322220Y-96136829D01*
X93433593Y-95576920D01*
X109827367Y-95576920D01*
X109938740Y-96136829D01*
X110255903Y-96611497D01*
X110730571Y-96928660D01*
X111149147Y-97011920D01*
X112431813Y-97011920D01*
X112850389Y-96928660D01*
X113325057Y-96611497D01*
X113642220Y-96136829D01*
X113753593Y-95576920D01*
X113642220Y-95017011D01*
X113325057Y-94542343D01*
X112850389Y-94225180D01*
X112431813Y-94141920D01*
X111149147Y-94141920D01*
X110730571Y-94225180D01*
X110255903Y-94542343D01*
X109938740Y-95017011D01*
X109827367Y-95576920D01*
X93433593Y-95576920D01*
X93322220Y-95017011D01*
X93005057Y-94542343D01*
X92530389Y-94225180D01*
X92111813Y-94141920D01*
X90829147Y-94141920D01*
X90410571Y-94225180D01*
X89935903Y-94542343D01*
X89618740Y-95017011D01*
X89507367Y-95576920D01*
X85039876Y-95576920D01*
X85067014Y-95549782D01*
X85285480Y-95022359D01*
X85285480Y-94451481D01*
X85067014Y-93924058D01*
X84663342Y-93520386D01*
X84135919Y-93301920D01*
X83565041Y-93301920D01*
X83037618Y-93520386D01*
X82633946Y-93924058D01*
X82540480Y-94149705D01*
X82540480Y-90324135D01*
X82633946Y-90549782D01*
X83037618Y-90953454D01*
X83565041Y-91171920D01*
X84135919Y-91171920D01*
X84663342Y-90953454D01*
X85067014Y-90549782D01*
X85204390Y-90218126D01*
X99549000Y-90218126D01*
X99549000Y-90629874D01*
X99706569Y-91010280D01*
X99997720Y-91301431D01*
X100378126Y-91459000D01*
X100789874Y-91459000D01*
X101170280Y-91301431D01*
X101285711Y-91186000D01*
X107248289Y-91186000D01*
X107363720Y-91301431D01*
X107744126Y-91459000D01*
X108155874Y-91459000D01*
X108536280Y-91301431D01*
X108827431Y-91010280D01*
X108985000Y-90629874D01*
X108985000Y-90218126D01*
X108827431Y-89837720D01*
X108536280Y-89546569D01*
X108155874Y-89389000D01*
X107744126Y-89389000D01*
X107363720Y-89546569D01*
X107248289Y-89662000D01*
X101285711Y-89662000D01*
X101170280Y-89546569D01*
X100789874Y-89389000D01*
X100378126Y-89389000D01*
X99997720Y-89546569D01*
X99706569Y-89837720D01*
X99549000Y-90218126D01*
X85204390Y-90218126D01*
X85285480Y-90022359D01*
X85285480Y-89852500D01*
X88824957Y-89852500D01*
X88900000Y-89867427D01*
X88975043Y-89852500D01*
X88975048Y-89852500D01*
X89197317Y-89808288D01*
X89449371Y-89639871D01*
X89491883Y-89576247D01*
X90468902Y-88599229D01*
X90784073Y-88661920D01*
X92156887Y-88661920D01*
X92560880Y-88581561D01*
X93019009Y-88275449D01*
X93325121Y-87817320D01*
X93432613Y-87276920D01*
X93325121Y-86736520D01*
X93019009Y-86278391D01*
X92560880Y-85972279D01*
X92156887Y-85891920D01*
X90784073Y-85891920D01*
X90380080Y-85972279D01*
X89921951Y-86278391D01*
X89660000Y-86670428D01*
X89660000Y-84956076D01*
X89735801Y-84880275D01*
X89893370Y-84499869D01*
X89893370Y-84088121D01*
X89735801Y-83707715D01*
X89444650Y-83416564D01*
X89064244Y-83258995D01*
X88652496Y-83258995D01*
X88272090Y-83416564D01*
X87980939Y-83707715D01*
X87823370Y-84088121D01*
X87823370Y-84499869D01*
X87980939Y-84880275D01*
X88140001Y-85039337D01*
X88140000Y-86926289D01*
X88022569Y-87043720D01*
X87865000Y-87424126D01*
X87865000Y-87835874D01*
X88022569Y-88216280D01*
X88134789Y-88328500D01*
X84571943Y-88328500D01*
X84496900Y-88313573D01*
X84421857Y-88328500D01*
X84421852Y-88328500D01*
X84272034Y-88358301D01*
X84135919Y-88301920D01*
X83565041Y-88301920D01*
X83037618Y-88520386D01*
X82633946Y-88924058D01*
X82540480Y-89149705D01*
X82540480Y-82598126D01*
X84055000Y-82598126D01*
X84055000Y-83009874D01*
X84212569Y-83390280D01*
X84503720Y-83681431D01*
X84884126Y-83839000D01*
X85295874Y-83839000D01*
X85676280Y-83681431D01*
X85967431Y-83390280D01*
X86125000Y-83009874D01*
X86125000Y-82846630D01*
X87309630Y-81662000D01*
X88994655Y-81662000D01*
X89122792Y-82306188D01*
X89487695Y-82852305D01*
X90033812Y-83217208D01*
X90515391Y-83313000D01*
X92364609Y-83313000D01*
X92846188Y-83217208D01*
X93392305Y-82852305D01*
X93392424Y-82852126D01*
X96247000Y-82852126D01*
X96247000Y-83263874D01*
X96404569Y-83644280D01*
X96695720Y-83935431D01*
X97076126Y-84093000D01*
X97487874Y-84093000D01*
X97868280Y-83935431D01*
X98159431Y-83644280D01*
X98317000Y-83263874D01*
X98317000Y-83100630D01*
X98848630Y-82569000D01*
X99011874Y-82569000D01*
X99392280Y-82411431D01*
X99683431Y-82120280D01*
X99841000Y-81739874D01*
X99841000Y-81328126D01*
X103105000Y-81328126D01*
X103105000Y-81739874D01*
X103262569Y-82120280D01*
X103553720Y-82411431D01*
X103934126Y-82569000D01*
X104345874Y-82569000D01*
X104536178Y-82490174D01*
X105141817Y-83095814D01*
X105141817Y-83259057D01*
X105299386Y-83639463D01*
X105590537Y-83930614D01*
X105970943Y-84088183D01*
X106382691Y-84088183D01*
X106763097Y-83930614D01*
X107054248Y-83639463D01*
X107211817Y-83259057D01*
X107211817Y-82847309D01*
X107054248Y-82466903D01*
X106763097Y-82175752D01*
X106382691Y-82018183D01*
X106219448Y-82018183D01*
X105863265Y-81662000D01*
X109314655Y-81662000D01*
X109442792Y-82306188D01*
X109807695Y-82852305D01*
X110353812Y-83217208D01*
X110835391Y-83313000D01*
X112684609Y-83313000D01*
X113166188Y-83217208D01*
X113712305Y-82852305D01*
X114077208Y-82306188D01*
X114205345Y-81662000D01*
X114077208Y-81017812D01*
X113712305Y-80471695D01*
X113166188Y-80106792D01*
X112684609Y-80011000D01*
X110835391Y-80011000D01*
X110353812Y-80106792D01*
X109807695Y-80471695D01*
X109442792Y-81017812D01*
X109314655Y-81662000D01*
X105863265Y-81662000D01*
X105249517Y-81048253D01*
X105207005Y-80984629D01*
X105060893Y-80887000D01*
X105431494Y-80887000D01*
X105940540Y-80676147D01*
X106330147Y-80286540D01*
X106541000Y-79777494D01*
X106541000Y-79226506D01*
X106330147Y-78717460D01*
X105940540Y-78327853D01*
X105709130Y-78232000D01*
X105940540Y-78136147D01*
X106330147Y-77746540D01*
X106541000Y-77237494D01*
X106541000Y-76962000D01*
X109314655Y-76962000D01*
X109442792Y-77606188D01*
X109807695Y-78152305D01*
X110353812Y-78517208D01*
X110835391Y-78613000D01*
X112684609Y-78613000D01*
X113027220Y-78544850D01*
X117081067Y-82598698D01*
X117081067Y-82761941D01*
X117238636Y-83142347D01*
X117529787Y-83433498D01*
X117910193Y-83591067D01*
X118321941Y-83591067D01*
X118702347Y-83433498D01*
X118993498Y-83142347D01*
X119151067Y-82761941D01*
X119151067Y-82350193D01*
X118993498Y-81969787D01*
X118702347Y-81678636D01*
X118321941Y-81521067D01*
X118158698Y-81521067D01*
X114104850Y-77467220D01*
X114205345Y-76962000D01*
X114077208Y-76317812D01*
X113712305Y-75771695D01*
X113166188Y-75406792D01*
X112684609Y-75311000D01*
X110835391Y-75311000D01*
X110353812Y-75406792D01*
X109807695Y-75771695D01*
X109442792Y-76317812D01*
X109314655Y-76962000D01*
X106541000Y-76962000D01*
X106541000Y-76686506D01*
X106330147Y-76177460D01*
X105959687Y-75807000D01*
X106032309Y-75807000D01*
X106265698Y-75710327D01*
X106444327Y-75531699D01*
X106541000Y-75298310D01*
X106541000Y-74707750D01*
X106382250Y-74549000D01*
X105283000Y-74549000D01*
X105283000Y-74569000D01*
X105029000Y-74569000D01*
X105029000Y-74549000D01*
X103929750Y-74549000D01*
X103771000Y-74707750D01*
X103771000Y-75298310D01*
X103867673Y-75531699D01*
X104046302Y-75710327D01*
X104279691Y-75807000D01*
X104352313Y-75807000D01*
X103981853Y-76177460D01*
X103771000Y-76686506D01*
X103771000Y-77237494D01*
X103981853Y-77746540D01*
X104371460Y-78136147D01*
X104602870Y-78232000D01*
X104371460Y-78327853D01*
X103981853Y-78717460D01*
X103771000Y-79226506D01*
X103771000Y-79777494D01*
X103981853Y-80286540D01*
X104194313Y-80499000D01*
X103934126Y-80499000D01*
X103553720Y-80656569D01*
X103262569Y-80947720D01*
X103105000Y-81328126D01*
X99841000Y-81328126D01*
X99683431Y-80947720D01*
X99392280Y-80656569D01*
X99187104Y-80571583D01*
X99472147Y-80286540D01*
X99683000Y-79777494D01*
X99683000Y-79226506D01*
X99472147Y-78717460D01*
X99082540Y-78327853D01*
X98851130Y-78232000D01*
X99082540Y-78136147D01*
X99472147Y-77746540D01*
X99683000Y-77237494D01*
X99683000Y-76686506D01*
X99472147Y-76177460D01*
X99101687Y-75807000D01*
X99174309Y-75807000D01*
X99407698Y-75710327D01*
X99586327Y-75531699D01*
X99683000Y-75298310D01*
X99683000Y-74707750D01*
X99524250Y-74549000D01*
X98425000Y-74549000D01*
X98425000Y-74569000D01*
X98171000Y-74569000D01*
X98171000Y-74549000D01*
X97071750Y-74549000D01*
X96913000Y-74707750D01*
X96913000Y-75298310D01*
X97009673Y-75531699D01*
X97188302Y-75710327D01*
X97421691Y-75807000D01*
X97494313Y-75807000D01*
X97123853Y-76177460D01*
X96913000Y-76686506D01*
X96913000Y-77237494D01*
X97123853Y-77746540D01*
X97513460Y-78136147D01*
X97744870Y-78232000D01*
X97513460Y-78327853D01*
X97123853Y-78717460D01*
X96913000Y-79226506D01*
X96913000Y-79777494D01*
X97123853Y-80286540D01*
X97513460Y-80676147D01*
X97999018Y-80877271D01*
X97928569Y-80947720D01*
X97771000Y-81328126D01*
X97771000Y-81491370D01*
X97239370Y-82023000D01*
X97076126Y-82023000D01*
X96695720Y-82180569D01*
X96404569Y-82471720D01*
X96247000Y-82852126D01*
X93392424Y-82852126D01*
X93757208Y-82306188D01*
X93885345Y-81662000D01*
X93757208Y-81017812D01*
X93392305Y-80471695D01*
X92846188Y-80106792D01*
X92364609Y-80011000D01*
X90515391Y-80011000D01*
X90033812Y-80106792D01*
X89487695Y-80471695D01*
X89122792Y-81017812D01*
X88994655Y-81662000D01*
X87309630Y-81662000D01*
X90384639Y-78586992D01*
X90515391Y-78613000D01*
X92364609Y-78613000D01*
X92846188Y-78517208D01*
X93392305Y-78152305D01*
X93757208Y-77606188D01*
X93885345Y-76962000D01*
X93757208Y-76317812D01*
X93392305Y-75771695D01*
X92846188Y-75406792D01*
X92364609Y-75311000D01*
X90515391Y-75311000D01*
X90033812Y-75406792D01*
X89487695Y-75771695D01*
X89122792Y-76317812D01*
X88994655Y-76962000D01*
X89122792Y-77606188D01*
X89157795Y-77658574D01*
X85047370Y-81769000D01*
X84884126Y-81769000D01*
X84503720Y-81926569D01*
X84212569Y-82217720D01*
X84055000Y-82598126D01*
X82540480Y-82598126D01*
X82540480Y-73672000D01*
X83438560Y-73672000D01*
X83438560Y-75172000D01*
X83487843Y-75419765D01*
X83628191Y-75629809D01*
X83838235Y-75770157D01*
X84030844Y-75808469D01*
X83661853Y-76177460D01*
X83451000Y-76686506D01*
X83451000Y-77237494D01*
X83661853Y-77746540D01*
X84051460Y-78136147D01*
X84282870Y-78232000D01*
X84051460Y-78327853D01*
X83661853Y-78717460D01*
X83451000Y-79226506D01*
X83451000Y-79777494D01*
X83661853Y-80286540D01*
X84051460Y-80676147D01*
X84560506Y-80887000D01*
X85111494Y-80887000D01*
X85620540Y-80676147D01*
X86010147Y-80286540D01*
X86221000Y-79777494D01*
X86221000Y-79226506D01*
X86010147Y-78717460D01*
X85620540Y-78327853D01*
X85389130Y-78232000D01*
X85620540Y-78136147D01*
X86010147Y-77746540D01*
X86221000Y-77237494D01*
X86221000Y-76686506D01*
X86010147Y-76177460D01*
X85641156Y-75808469D01*
X85833765Y-75770157D01*
X86043809Y-75629809D01*
X86184157Y-75419765D01*
X86233440Y-75172000D01*
X86233440Y-73672000D01*
X86184157Y-73424235D01*
X86043809Y-73214191D01*
X85833765Y-73073843D01*
X85586000Y-73024560D01*
X84086000Y-73024560D01*
X83838235Y-73073843D01*
X83628191Y-73214191D01*
X83487843Y-73424235D01*
X83438560Y-73672000D01*
X82540480Y-73672000D01*
X82540480Y-72262000D01*
X88994655Y-72262000D01*
X89122792Y-72906188D01*
X89487695Y-73452305D01*
X90033812Y-73817208D01*
X90515391Y-73913000D01*
X92364609Y-73913000D01*
X92846188Y-73817208D01*
X93252544Y-73545690D01*
X96913000Y-73545690D01*
X96913000Y-74136250D01*
X97071750Y-74295000D01*
X98171000Y-74295000D01*
X98171000Y-73195750D01*
X98425000Y-73195750D01*
X98425000Y-74295000D01*
X99524250Y-74295000D01*
X99683000Y-74136250D01*
X99683000Y-73545690D01*
X103771000Y-73545690D01*
X103771000Y-74136250D01*
X103929750Y-74295000D01*
X105029000Y-74295000D01*
X105029000Y-73195750D01*
X105283000Y-73195750D01*
X105283000Y-74295000D01*
X106382250Y-74295000D01*
X106541000Y-74136250D01*
X106541000Y-73545690D01*
X106444327Y-73312301D01*
X106265698Y-73133673D01*
X106032309Y-73037000D01*
X105441750Y-73037000D01*
X105283000Y-73195750D01*
X105029000Y-73195750D01*
X104870250Y-73037000D01*
X104279691Y-73037000D01*
X104046302Y-73133673D01*
X103867673Y-73312301D01*
X103771000Y-73545690D01*
X99683000Y-73545690D01*
X99586327Y-73312301D01*
X99407698Y-73133673D01*
X99174309Y-73037000D01*
X98583750Y-73037000D01*
X98425000Y-73195750D01*
X98171000Y-73195750D01*
X98012250Y-73037000D01*
X97421691Y-73037000D01*
X97188302Y-73133673D01*
X97009673Y-73312301D01*
X96913000Y-73545690D01*
X93252544Y-73545690D01*
X93392305Y-73452305D01*
X93757208Y-72906188D01*
X93885345Y-72262000D01*
X109314655Y-72262000D01*
X109442792Y-72906188D01*
X109807695Y-73452305D01*
X110353812Y-73817208D01*
X110835391Y-73913000D01*
X112684609Y-73913000D01*
X113166188Y-73817208D01*
X113383507Y-73672000D01*
X116712560Y-73672000D01*
X116712560Y-75172000D01*
X116761843Y-75419765D01*
X116902191Y-75629809D01*
X117112235Y-75770157D01*
X117304844Y-75808469D01*
X116935853Y-76177460D01*
X116725000Y-76686506D01*
X116725000Y-77237494D01*
X116935853Y-77746540D01*
X117325460Y-78136147D01*
X117556870Y-78232000D01*
X117325460Y-78327853D01*
X116935853Y-78717460D01*
X116725000Y-79226506D01*
X116725000Y-79777494D01*
X116935853Y-80286540D01*
X117325460Y-80676147D01*
X117834506Y-80887000D01*
X118385494Y-80887000D01*
X118894540Y-80676147D01*
X119284147Y-80286540D01*
X119495000Y-79777494D01*
X119495000Y-79226506D01*
X119284147Y-78717460D01*
X118894540Y-78327853D01*
X118663130Y-78232000D01*
X118894540Y-78136147D01*
X119284147Y-77746540D01*
X119495000Y-77237494D01*
X119495000Y-76686506D01*
X119284147Y-76177460D01*
X118915156Y-75808469D01*
X119107765Y-75770157D01*
X119317809Y-75629809D01*
X119458157Y-75419765D01*
X119507440Y-75172000D01*
X119507440Y-73672000D01*
X119458157Y-73424235D01*
X119317809Y-73214191D01*
X119107765Y-73073843D01*
X118860000Y-73024560D01*
X117360000Y-73024560D01*
X117112235Y-73073843D01*
X116902191Y-73214191D01*
X116761843Y-73424235D01*
X116712560Y-73672000D01*
X113383507Y-73672000D01*
X113712305Y-73452305D01*
X114077208Y-72906188D01*
X114205345Y-72262000D01*
X114077208Y-71617812D01*
X113712305Y-71071695D01*
X113166188Y-70706792D01*
X112684609Y-70611000D01*
X110835391Y-70611000D01*
X110353812Y-70706792D01*
X109807695Y-71071695D01*
X109442792Y-71617812D01*
X109314655Y-72262000D01*
X93885345Y-72262000D01*
X93757208Y-71617812D01*
X93392305Y-71071695D01*
X92846188Y-70706792D01*
X92364609Y-70611000D01*
X90515391Y-70611000D01*
X90033812Y-70706792D01*
X89487695Y-71071695D01*
X89122792Y-71617812D01*
X88994655Y-72262000D01*
X82540480Y-72262000D01*
X82540480Y-69766046D01*
X103135480Y-69766046D01*
X103135480Y-70177794D01*
X103293049Y-70558200D01*
X103584200Y-70849351D01*
X103964606Y-71006920D01*
X104376354Y-71006920D01*
X104756760Y-70849351D01*
X104872191Y-70733920D01*
X105718989Y-70733920D01*
X105808636Y-70950347D01*
X106099787Y-71241498D01*
X106480193Y-71399067D01*
X106891941Y-71399067D01*
X107272347Y-71241498D01*
X107563498Y-70950347D01*
X107721067Y-70569941D01*
X107721067Y-70158193D01*
X107563498Y-69777787D01*
X107272347Y-69486636D01*
X106891941Y-69329067D01*
X106703385Y-69329067D01*
X106591237Y-69254132D01*
X106368968Y-69209920D01*
X106368963Y-69209920D01*
X106293920Y-69194993D01*
X106218877Y-69209920D01*
X104872191Y-69209920D01*
X104756760Y-69094489D01*
X104376354Y-68936920D01*
X103964606Y-68936920D01*
X103584200Y-69094489D01*
X103293049Y-69385640D01*
X103135480Y-69766046D01*
X82540480Y-69766046D01*
X82540480Y-65217089D01*
X88069926Y-65217089D01*
X88156332Y-65473573D01*
X88729816Y-65683388D01*
X89339940Y-65657769D01*
X89784628Y-65473573D01*
X89871034Y-65217089D01*
X88970480Y-64316535D01*
X88069926Y-65217089D01*
X82540480Y-65217089D01*
X82540480Y-63896266D01*
X87424022Y-63896266D01*
X87449641Y-64506390D01*
X87633837Y-64951078D01*
X87890321Y-65037484D01*
X88790875Y-64136930D01*
X89150085Y-64136930D01*
X90050639Y-65037484D01*
X90201042Y-64986815D01*
X90209170Y-65006437D01*
X90640973Y-65438240D01*
X91205150Y-65671930D01*
X91815810Y-65671930D01*
X92379987Y-65438240D01*
X92740480Y-65077747D01*
X93100973Y-65438240D01*
X93665150Y-65671930D01*
X94275810Y-65671930D01*
X94839987Y-65438240D01*
X95271790Y-65006437D01*
X95505480Y-64442260D01*
X95505480Y-63831600D01*
X95271790Y-63267423D01*
X94921204Y-62916837D01*
X95074280Y-62853431D01*
X95189041Y-62738671D01*
X95993000Y-63542630D01*
X95993000Y-63705874D01*
X96150569Y-64086280D01*
X96441720Y-64377431D01*
X96822126Y-64535000D01*
X96984386Y-64535000D01*
X96695720Y-64654569D01*
X96404569Y-64945720D01*
X96247000Y-65326126D01*
X96247000Y-65737874D01*
X96404569Y-66118280D01*
X96695720Y-66409431D01*
X97076126Y-66567000D01*
X97487874Y-66567000D01*
X97868280Y-66409431D01*
X97983711Y-66294000D01*
X100083040Y-66294000D01*
X100083040Y-66426920D01*
X100132323Y-66674685D01*
X100272671Y-66884729D01*
X100482715Y-67025077D01*
X100498388Y-67028195D01*
X100329170Y-67197413D01*
X100095480Y-67761590D01*
X100095480Y-68372250D01*
X100329170Y-68936427D01*
X100760973Y-69368230D01*
X101325150Y-69601920D01*
X101935810Y-69601920D01*
X102499987Y-69368230D01*
X102931790Y-68936427D01*
X102976321Y-68828920D01*
X104907070Y-68828920D01*
X105057265Y-68829193D01*
X105128656Y-68799774D01*
X105204397Y-68784708D01*
X105329989Y-68700790D01*
X106246207Y-68091000D01*
X106631874Y-68091000D01*
X107012280Y-67933431D01*
X107303431Y-67642280D01*
X107461000Y-67261874D01*
X107461000Y-66850126D01*
X107303431Y-66469720D01*
X107012280Y-66178569D01*
X106631874Y-66021000D01*
X106220126Y-66021000D01*
X105839720Y-66178569D01*
X105548569Y-66469720D01*
X105402791Y-66821660D01*
X104676688Y-67304920D01*
X102976321Y-67304920D01*
X102931790Y-67197413D01*
X102762572Y-67028195D01*
X102778245Y-67025077D01*
X102988289Y-66884729D01*
X103128637Y-66674685D01*
X103177920Y-66426920D01*
X103177920Y-65217089D01*
X108389926Y-65217089D01*
X108476332Y-65473573D01*
X109049816Y-65683388D01*
X109659940Y-65657769D01*
X110104628Y-65473573D01*
X110191034Y-65217089D01*
X109290480Y-64316535D01*
X108389926Y-65217089D01*
X103177920Y-65217089D01*
X103177920Y-64626920D01*
X103128637Y-64379155D01*
X102988289Y-64169111D01*
X102778245Y-64028763D01*
X102530480Y-63979480D01*
X100730480Y-63979480D01*
X100482715Y-64028763D01*
X100272671Y-64169111D01*
X100132323Y-64379155D01*
X100083040Y-64626920D01*
X100083040Y-64770000D01*
X97983711Y-64770000D01*
X97868280Y-64654569D01*
X97487874Y-64497000D01*
X97325614Y-64497000D01*
X97614280Y-64377431D01*
X97905431Y-64086280D01*
X97984137Y-63896266D01*
X107744022Y-63896266D01*
X107769641Y-64506390D01*
X107953837Y-64951078D01*
X108210321Y-65037484D01*
X109110875Y-64136930D01*
X109470085Y-64136930D01*
X110370639Y-65037484D01*
X110521042Y-64986815D01*
X110529170Y-65006437D01*
X110960973Y-65438240D01*
X111525150Y-65671930D01*
X112135810Y-65671930D01*
X112699987Y-65438240D01*
X113060480Y-65077747D01*
X113420973Y-65438240D01*
X113985150Y-65671930D01*
X114595810Y-65671930D01*
X115159987Y-65438240D01*
X115591790Y-65006437D01*
X115825480Y-64442260D01*
X115825480Y-63831600D01*
X115591790Y-63267423D01*
X115159987Y-62835620D01*
X114595810Y-62601930D01*
X113985150Y-62601930D01*
X113420973Y-62835620D01*
X113060480Y-63196113D01*
X112699987Y-62835620D01*
X112135810Y-62601930D01*
X111525150Y-62601930D01*
X110960973Y-62835620D01*
X110529170Y-63267423D01*
X110521042Y-63287045D01*
X110370639Y-63236376D01*
X109470085Y-64136930D01*
X109110875Y-64136930D01*
X108210321Y-63236376D01*
X107953837Y-63322782D01*
X107744022Y-63896266D01*
X97984137Y-63896266D01*
X98063000Y-63705874D01*
X98063000Y-63294126D01*
X97964685Y-63056771D01*
X108389926Y-63056771D01*
X109290480Y-63957325D01*
X110191034Y-63056771D01*
X110104628Y-62800287D01*
X109531144Y-62590472D01*
X108921020Y-62616091D01*
X108476332Y-62800287D01*
X108389926Y-63056771D01*
X97964685Y-63056771D01*
X97905431Y-62913720D01*
X97614280Y-62622569D01*
X97233874Y-62465000D01*
X97070630Y-62465000D01*
X96095884Y-61490254D01*
X96053371Y-61426629D01*
X95801317Y-61258212D01*
X95579048Y-61214000D01*
X95579043Y-61214000D01*
X95504000Y-61199073D01*
X95428957Y-61214000D01*
X95189711Y-61214000D01*
X95074280Y-61098569D01*
X94693874Y-60941000D01*
X94282126Y-60941000D01*
X93901720Y-61098569D01*
X93610569Y-61389720D01*
X93453000Y-61770126D01*
X93453000Y-62181874D01*
X93610569Y-62562280D01*
X93654592Y-62606303D01*
X93100973Y-62835620D01*
X92740480Y-63196113D01*
X92379987Y-62835620D01*
X91815810Y-62601930D01*
X91205150Y-62601930D01*
X90640973Y-62835620D01*
X90209170Y-63267423D01*
X90201042Y-63287045D01*
X90050639Y-63236376D01*
X89150085Y-64136930D01*
X88790875Y-64136930D01*
X87890321Y-63236376D01*
X87633837Y-63322782D01*
X87424022Y-63896266D01*
X82540480Y-63896266D01*
X82540480Y-63056771D01*
X88069926Y-63056771D01*
X88970480Y-63957325D01*
X89871034Y-63056771D01*
X89784628Y-62800287D01*
X89211144Y-62590472D01*
X88601020Y-62616091D01*
X88156332Y-62800287D01*
X88069926Y-63056771D01*
X82540480Y-63056771D01*
X82540480Y-56636920D01*
X84501490Y-56636920D01*
X84636146Y-57313883D01*
X85019615Y-57887785D01*
X85593517Y-58271254D01*
X86099600Y-58371920D01*
X87241360Y-58371920D01*
X87747443Y-58271254D01*
X88321345Y-57887785D01*
X88704814Y-57313883D01*
X88839470Y-56636920D01*
X94101490Y-56636920D01*
X94236146Y-57313883D01*
X94619615Y-57887785D01*
X95193517Y-58271254D01*
X95699600Y-58371920D01*
X96841360Y-58371920D01*
X97347443Y-58271254D01*
X97921345Y-57887785D01*
X98304814Y-57313883D01*
X98439470Y-56636920D01*
X104821490Y-56636920D01*
X104956146Y-57313883D01*
X105339615Y-57887785D01*
X105913517Y-58271254D01*
X106419600Y-58371920D01*
X107561360Y-58371920D01*
X108067443Y-58271254D01*
X108641345Y-57887785D01*
X109024814Y-57313883D01*
X109159470Y-56636920D01*
X114421490Y-56636920D01*
X114556146Y-57313883D01*
X114939615Y-57887785D01*
X115513517Y-58271254D01*
X116019600Y-58371920D01*
X117161360Y-58371920D01*
X117667443Y-58271254D01*
X118241345Y-57887785D01*
X118624814Y-57313883D01*
X118759470Y-56636920D01*
X118624814Y-55959957D01*
X118241345Y-55386055D01*
X117667443Y-55002586D01*
X117161360Y-54901920D01*
X116019600Y-54901920D01*
X115513517Y-55002586D01*
X114939615Y-55386055D01*
X114556146Y-55959957D01*
X114421490Y-56636920D01*
X109159470Y-56636920D01*
X109024814Y-55959957D01*
X108641345Y-55386055D01*
X108067443Y-55002586D01*
X107561360Y-54901920D01*
X106419600Y-54901920D01*
X105913517Y-55002586D01*
X105339615Y-55386055D01*
X104956146Y-55959957D01*
X104821490Y-56636920D01*
X98439470Y-56636920D01*
X98304814Y-55959957D01*
X97921345Y-55386055D01*
X97347443Y-55002586D01*
X96841360Y-54901920D01*
X95699600Y-54901920D01*
X95193517Y-55002586D01*
X94619615Y-55386055D01*
X94236146Y-55959957D01*
X94101490Y-56636920D01*
X88839470Y-56636920D01*
X88704814Y-55959957D01*
X88321345Y-55386055D01*
X87747443Y-55002586D01*
X87241360Y-54901920D01*
X86099600Y-54901920D01*
X85593517Y-55002586D01*
X85019615Y-55386055D01*
X84636146Y-55959957D01*
X84501490Y-56636920D01*
X82540480Y-56636920D01*
X82540480Y-47541046D01*
X95998080Y-47541046D01*
X95998080Y-47952794D01*
X96155649Y-48333200D01*
X96446800Y-48624351D01*
X96827206Y-48781920D01*
X97238954Y-48781920D01*
X97619360Y-48624351D01*
X97734791Y-48508920D01*
X100284639Y-48508920D01*
X100329170Y-48616427D01*
X100760973Y-49048230D01*
X101198733Y-49229556D01*
X100976569Y-49451720D01*
X100819000Y-49832126D01*
X100819000Y-50243874D01*
X100976569Y-50624280D01*
X101267720Y-50915431D01*
X101648126Y-51073000D01*
X102059874Y-51073000D01*
X102440280Y-50915431D01*
X102555711Y-50800000D01*
X105216289Y-50800000D01*
X105331720Y-50915431D01*
X105712126Y-51073000D01*
X106123874Y-51073000D01*
X106504280Y-50915431D01*
X106795431Y-50624280D01*
X106953000Y-50243874D01*
X106953000Y-49832126D01*
X106795431Y-49451720D01*
X106504280Y-49160569D01*
X106123874Y-49003000D01*
X105712126Y-49003000D01*
X105331720Y-49160569D01*
X105216289Y-49276000D01*
X102555711Y-49276000D01*
X102440280Y-49160569D01*
X102334528Y-49116765D01*
X102499987Y-49048230D01*
X102931790Y-48616427D01*
X103165480Y-48052250D01*
X103165480Y-47441590D01*
X102931790Y-46877413D01*
X102762572Y-46708195D01*
X102778245Y-46705077D01*
X102988289Y-46564729D01*
X103128637Y-46354685D01*
X103177920Y-46106920D01*
X103177920Y-44306920D01*
X103128637Y-44059155D01*
X102988289Y-43849111D01*
X102778245Y-43708763D01*
X102530480Y-43659480D01*
X100730480Y-43659480D01*
X100482715Y-43708763D01*
X100272671Y-43849111D01*
X100132323Y-44059155D01*
X100083040Y-44306920D01*
X100083040Y-44450000D01*
X97883223Y-44450000D01*
X97767792Y-44334569D01*
X97387386Y-44177000D01*
X96975638Y-44177000D01*
X96595232Y-44334569D01*
X96304081Y-44625720D01*
X96146512Y-45006126D01*
X96146512Y-45417874D01*
X96304081Y-45798280D01*
X96595232Y-46089431D01*
X96975638Y-46247000D01*
X97387386Y-46247000D01*
X97767792Y-46089431D01*
X97883223Y-45974000D01*
X100083040Y-45974000D01*
X100083040Y-46106920D01*
X100132323Y-46354685D01*
X100272671Y-46564729D01*
X100482715Y-46705077D01*
X100498388Y-46708195D01*
X100329170Y-46877413D01*
X100284639Y-46984920D01*
X97734791Y-46984920D01*
X97619360Y-46869489D01*
X97238954Y-46711920D01*
X96827206Y-46711920D01*
X96446800Y-46869489D01*
X96155649Y-47160640D01*
X95998080Y-47541046D01*
X82540480Y-47541046D01*
X82540480Y-43511600D01*
X87435480Y-43511600D01*
X87435480Y-44122260D01*
X87669170Y-44686437D01*
X88100973Y-45118240D01*
X88665150Y-45351930D01*
X89275810Y-45351930D01*
X89839987Y-45118240D01*
X90240480Y-44717747D01*
X90640973Y-45118240D01*
X91205150Y-45351930D01*
X91815810Y-45351930D01*
X92379987Y-45118240D01*
X92740480Y-44757747D01*
X93100973Y-45118240D01*
X93665150Y-45351930D01*
X94275810Y-45351930D01*
X94839987Y-45118240D01*
X95271790Y-44686437D01*
X95505480Y-44122260D01*
X95505480Y-43511600D01*
X107755480Y-43511600D01*
X107755480Y-44122260D01*
X107989170Y-44686437D01*
X108420973Y-45118240D01*
X108985150Y-45351930D01*
X109595810Y-45351930D01*
X110159987Y-45118240D01*
X110560480Y-44717747D01*
X110960973Y-45118240D01*
X111525150Y-45351930D01*
X112135810Y-45351930D01*
X112699987Y-45118240D01*
X113060480Y-44757747D01*
X113420973Y-45118240D01*
X113985150Y-45351930D01*
X114595810Y-45351930D01*
X115159987Y-45118240D01*
X115591790Y-44686437D01*
X115825480Y-44122260D01*
X115825480Y-43511600D01*
X115591790Y-42947423D01*
X115159987Y-42515620D01*
X114595810Y-42281930D01*
X113985150Y-42281930D01*
X113420973Y-42515620D01*
X113060480Y-42876113D01*
X112699987Y-42515620D01*
X112135810Y-42281930D01*
X111525150Y-42281930D01*
X110960973Y-42515620D01*
X110560480Y-42916113D01*
X110159987Y-42515620D01*
X109595810Y-42281930D01*
X108985150Y-42281930D01*
X108420973Y-42515620D01*
X107989170Y-42947423D01*
X107755480Y-43511600D01*
X95505480Y-43511600D01*
X95271790Y-42947423D01*
X94839987Y-42515620D01*
X94275810Y-42281930D01*
X93665150Y-42281930D01*
X93100973Y-42515620D01*
X92740480Y-42876113D01*
X92379987Y-42515620D01*
X91815810Y-42281930D01*
X91205150Y-42281930D01*
X90640973Y-42515620D01*
X90240480Y-42916113D01*
X89839987Y-42515620D01*
X89275810Y-42281930D01*
X88665150Y-42281930D01*
X88100973Y-42515620D01*
X87669170Y-42947423D01*
X87435480Y-43511600D01*
X82540480Y-43511600D01*
X82540480Y-39276920D01*
X98863040Y-39276920D01*
X98863040Y-40976920D01*
X98912323Y-41224685D01*
X99052671Y-41434729D01*
X99262715Y-41575077D01*
X99510480Y-41624360D01*
X101210480Y-41624360D01*
X101458245Y-41575077D01*
X101668289Y-41434729D01*
X101808637Y-41224685D01*
X101817664Y-41179301D01*
X101829855Y-41197545D01*
X102321062Y-41525759D01*
X102754224Y-41611920D01*
X103046736Y-41611920D01*
X103479898Y-41525759D01*
X103971105Y-41197545D01*
X104299319Y-40706338D01*
X104414572Y-40126920D01*
X104299319Y-39547502D01*
X103971105Y-39056295D01*
X103652002Y-38843077D01*
X103781838Y-38782103D01*
X104172125Y-38353844D01*
X104341956Y-37943810D01*
X104220635Y-37713920D01*
X103027480Y-37713920D01*
X103027480Y-37733920D01*
X102773480Y-37733920D01*
X102773480Y-37713920D01*
X100487480Y-37713920D01*
X100487480Y-37733920D01*
X100233480Y-37733920D01*
X100233480Y-37713920D01*
X99040325Y-37713920D01*
X98919004Y-37943810D01*
X99088835Y-38353844D01*
X99366188Y-38658181D01*
X99262715Y-38678763D01*
X99052671Y-38819111D01*
X98912323Y-39029155D01*
X98863040Y-39276920D01*
X82540480Y-39276920D01*
X82540480Y-36316920D01*
X84501490Y-36316920D01*
X84636146Y-36993883D01*
X85019615Y-37567785D01*
X85593517Y-37951254D01*
X86099600Y-38051920D01*
X87241360Y-38051920D01*
X87747443Y-37951254D01*
X88321345Y-37567785D01*
X88704814Y-36993883D01*
X88839470Y-36316920D01*
X94101490Y-36316920D01*
X94236146Y-36993883D01*
X94619615Y-37567785D01*
X95193517Y-37951254D01*
X95699600Y-38051920D01*
X96841360Y-38051920D01*
X97347443Y-37951254D01*
X97921345Y-37567785D01*
X98304814Y-36993883D01*
X98439470Y-36316920D01*
X98304814Y-35639957D01*
X98147026Y-35403810D01*
X98919004Y-35403810D01*
X99088835Y-35813844D01*
X99479122Y-36242103D01*
X99638434Y-36316920D01*
X99479122Y-36391737D01*
X99088835Y-36819996D01*
X98919004Y-37230030D01*
X99040325Y-37459920D01*
X100233480Y-37459920D01*
X100233480Y-35173920D01*
X100487480Y-35173920D01*
X100487480Y-37459920D01*
X102773480Y-37459920D01*
X102773480Y-35173920D01*
X103027480Y-35173920D01*
X103027480Y-37459920D01*
X104220635Y-37459920D01*
X104341956Y-37230030D01*
X104172125Y-36819996D01*
X103781838Y-36391737D01*
X103622526Y-36316920D01*
X104821490Y-36316920D01*
X104956146Y-36993883D01*
X105339615Y-37567785D01*
X105913517Y-37951254D01*
X106419600Y-38051920D01*
X107561360Y-38051920D01*
X108067443Y-37951254D01*
X108641345Y-37567785D01*
X109024814Y-36993883D01*
X109159470Y-36316920D01*
X114421490Y-36316920D01*
X114556146Y-36993883D01*
X114939615Y-37567785D01*
X115513517Y-37951254D01*
X116019600Y-38051920D01*
X117161360Y-38051920D01*
X117667443Y-37951254D01*
X118241345Y-37567785D01*
X118624814Y-36993883D01*
X118759470Y-36316920D01*
X118624814Y-35639957D01*
X118241345Y-35066055D01*
X117667443Y-34682586D01*
X117161360Y-34581920D01*
X116019600Y-34581920D01*
X115513517Y-34682586D01*
X114939615Y-35066055D01*
X114556146Y-35639957D01*
X114421490Y-36316920D01*
X109159470Y-36316920D01*
X109024814Y-35639957D01*
X108641345Y-35066055D01*
X108067443Y-34682586D01*
X107561360Y-34581920D01*
X106419600Y-34581920D01*
X105913517Y-34682586D01*
X105339615Y-35066055D01*
X104956146Y-35639957D01*
X104821490Y-36316920D01*
X103622526Y-36316920D01*
X103781838Y-36242103D01*
X104172125Y-35813844D01*
X104341956Y-35403810D01*
X104220635Y-35173920D01*
X103027480Y-35173920D01*
X102773480Y-35173920D01*
X100487480Y-35173920D01*
X100233480Y-35173920D01*
X99040325Y-35173920D01*
X98919004Y-35403810D01*
X98147026Y-35403810D01*
X97921345Y-35066055D01*
X97347443Y-34682586D01*
X96841360Y-34581920D01*
X95699600Y-34581920D01*
X95193517Y-34682586D01*
X94619615Y-35066055D01*
X94236146Y-35639957D01*
X94101490Y-36316920D01*
X88839470Y-36316920D01*
X88704814Y-35639957D01*
X88321345Y-35066055D01*
X87747443Y-34682586D01*
X87241360Y-34581920D01*
X86099600Y-34581920D01*
X85593517Y-34682586D01*
X85019615Y-35066055D01*
X84636146Y-35639957D01*
X84501490Y-36316920D01*
X82540480Y-36316920D01*
X82540480Y-32863810D01*
X98919004Y-32863810D01*
X99088835Y-33273844D01*
X99479122Y-33702103D01*
X99638434Y-33776920D01*
X99479122Y-33851737D01*
X99088835Y-34279996D01*
X98919004Y-34690030D01*
X99040325Y-34919920D01*
X100233480Y-34919920D01*
X100233480Y-32633920D01*
X100487480Y-32633920D01*
X100487480Y-34919920D01*
X102773480Y-34919920D01*
X102773480Y-32633920D01*
X103027480Y-32633920D01*
X103027480Y-34919920D01*
X104220635Y-34919920D01*
X104341956Y-34690030D01*
X104172125Y-34279996D01*
X103781838Y-33851737D01*
X103622526Y-33776920D01*
X103781838Y-33702103D01*
X104172125Y-33273844D01*
X104341956Y-32863810D01*
X104220635Y-32633920D01*
X103027480Y-32633920D01*
X102773480Y-32633920D01*
X100487480Y-32633920D01*
X100233480Y-32633920D01*
X99040325Y-32633920D01*
X98919004Y-32863810D01*
X82540480Y-32863810D01*
X82540480Y-29966920D01*
X98846388Y-29966920D01*
X98961641Y-30546338D01*
X99289855Y-31037545D01*
X99608958Y-31250763D01*
X99479122Y-31311737D01*
X99088835Y-31739996D01*
X98919004Y-32150030D01*
X99040325Y-32379920D01*
X100233480Y-32379920D01*
X100233480Y-32359920D01*
X100487480Y-32359920D01*
X100487480Y-32379920D01*
X102773480Y-32379920D01*
X102773480Y-32359920D01*
X103027480Y-32359920D01*
X103027480Y-32379920D01*
X104220635Y-32379920D01*
X104341956Y-32150030D01*
X104172125Y-31739996D01*
X103781838Y-31311737D01*
X103652002Y-31250763D01*
X103971105Y-31037545D01*
X104299319Y-30546338D01*
X104414572Y-29966920D01*
X104299319Y-29387502D01*
X103971105Y-28896295D01*
X103479898Y-28568081D01*
X103046736Y-28481920D01*
X102754224Y-28481920D01*
X102321062Y-28568081D01*
X101829855Y-28896295D01*
X101630480Y-29194681D01*
X101431105Y-28896295D01*
X100939898Y-28568081D01*
X100506736Y-28481920D01*
X100214224Y-28481920D01*
X99781062Y-28568081D01*
X99289855Y-28896295D01*
X98961641Y-29387502D01*
X98846388Y-29966920D01*
X82540480Y-29966920D01*
X82540480Y-28174920D01*
X120720481Y-28174920D01*
X120720480Y-89149705D01*
X120720480Y-89149705D01*
G37*
X120720480Y-89149705D02*
X120627014Y-88924058D01*
X120223342Y-88520386D01*
X119695919Y-88301920D01*
X119125041Y-88301920D01*
X119039804Y-88337226D01*
X118997877Y-88309212D01*
X118775608Y-88265000D01*
X118775603Y-88265000D01*
X118700560Y-88250073D01*
X118625517Y-88265000D01*
X115382711Y-88265000D01*
X115431431Y-88216280D01*
X115589000Y-87835874D01*
X115589000Y-87424126D01*
X115431431Y-87043720D01*
X115314000Y-86926289D01*
X115314000Y-85285711D01*
X115431431Y-85168280D01*
X115589000Y-84787874D01*
X115589000Y-84376126D01*
X115431431Y-83995720D01*
X115140280Y-83704569D01*
X114759874Y-83547000D01*
X114348126Y-83547000D01*
X113967720Y-83704569D01*
X113676569Y-83995720D01*
X113519000Y-84376126D01*
X113519000Y-84787874D01*
X113676569Y-85168280D01*
X113794001Y-85285712D01*
X113794000Y-86926289D01*
X113701306Y-87018983D01*
X113645121Y-86736520D01*
X113339009Y-86278391D01*
X112880880Y-85972279D01*
X112476887Y-85891920D01*
X111104073Y-85891920D01*
X110700080Y-85972279D01*
X110241951Y-86278391D01*
X109935839Y-86736520D01*
X109828347Y-87276920D01*
X109935839Y-87817320D01*
X110241951Y-88275449D01*
X110700080Y-88581561D01*
X111104073Y-88661920D01*
X112097850Y-88661920D01*
X112948677Y-89512748D01*
X112991189Y-89576371D01*
X113054811Y-89618882D01*
X113117019Y-89660448D01*
X113243243Y-89744788D01*
X113465512Y-89789000D01*
X113465513Y-89789000D01*
X113540560Y-89803928D01*
X113615607Y-89789000D01*
X117975480Y-89789000D01*
X117975480Y-90022359D01*
X118193946Y-90549782D01*
X118597618Y-90953454D01*
X119125041Y-91171920D01*
X119695919Y-91171920D01*
X120223342Y-90953454D01*
X120627014Y-90549782D01*
X120720480Y-90324135D01*
X120720480Y-94149705D01*
X120627014Y-93924058D01*
X120223342Y-93520386D01*
X119695919Y-93301920D01*
X119125041Y-93301920D01*
X118597618Y-93520386D01*
X118193946Y-93924058D01*
X117975480Y-94451481D01*
X117975480Y-95022359D01*
X118193946Y-95549782D01*
X118597618Y-95953454D01*
X119125041Y-96171920D01*
X119695919Y-96171920D01*
X120223342Y-95953454D01*
X120627014Y-95549782D01*
X120720480Y-95324135D01*
X120720480Y-126754920D01*
X82540480Y-126754920D01*
X82540480Y-122803920D01*
X83555480Y-122803920D01*
X83555480Y-123203920D01*
X83713314Y-123743403D01*
X84065584Y-124181420D01*
X84558661Y-124451287D01*
X84641441Y-124468824D01*
X84863480Y-124346835D01*
X84863480Y-122803920D01*
X85117480Y-122803920D01*
X85117480Y-124346835D01*
X85339519Y-124468824D01*
X85422299Y-124451287D01*
X85915376Y-124181420D01*
X86267646Y-123743403D01*
X86425480Y-123203920D01*
X86425480Y-122803920D01*
X85117480Y-122803920D01*
X84863480Y-122803920D01*
X83555480Y-122803920D01*
X82540480Y-122803920D01*
X82540480Y-122149920D01*
X83555480Y-122149920D01*
X83555480Y-122549920D01*
X84863480Y-122549920D01*
X84863480Y-121007005D01*
X85117480Y-121007005D01*
X85117480Y-122549920D01*
X86425480Y-122549920D01*
X86425480Y-122149920D01*
X86392031Y-122035587D01*
X86655480Y-122035587D01*
X86655480Y-123318252D01*
X86738740Y-123736828D01*
X87055903Y-124211496D01*
X87530571Y-124528660D01*
X88090480Y-124640033D01*
X88650388Y-124528660D01*
X89125056Y-124211497D01*
X89442220Y-123736829D01*
X89525480Y-123318253D01*
X89525480Y-122035587D01*
X89516515Y-121990513D01*
X95005480Y-121990513D01*
X95005480Y-123363326D01*
X95085839Y-123767319D01*
X95391951Y-124225448D01*
X95850080Y-124531561D01*
X96390480Y-124639053D01*
X96930879Y-124531561D01*
X97389008Y-124225449D01*
X97695121Y-123767320D01*
X97716173Y-123661481D01*
X97735480Y-123661481D01*
X97735480Y-124232359D01*
X97953946Y-124759782D01*
X98357618Y-125163454D01*
X98885041Y-125381920D01*
X99455919Y-125381920D01*
X99983342Y-125163454D01*
X100387014Y-124759782D01*
X100605480Y-124232359D01*
X100605480Y-123661481D01*
X102735480Y-123661481D01*
X102735480Y-124232359D01*
X102953946Y-124759782D01*
X103357618Y-125163454D01*
X103885041Y-125381920D01*
X104455919Y-125381920D01*
X104983342Y-125163454D01*
X105387014Y-124759782D01*
X105605480Y-124232359D01*
X105605480Y-123826647D01*
X105871952Y-124225449D01*
X106330081Y-124531561D01*
X106870480Y-124639053D01*
X107410880Y-124531561D01*
X107869009Y-124225449D01*
X108175121Y-123767320D01*
X108255480Y-123363327D01*
X108255480Y-122035588D01*
X113735480Y-122035588D01*
X113735480Y-123318253D01*
X113818740Y-123736829D01*
X114135904Y-124211497D01*
X114610572Y-124528660D01*
X115170480Y-124640033D01*
X115730389Y-124528660D01*
X116205057Y-124211497D01*
X116522220Y-123736829D01*
X116605480Y-123318253D01*
X116605480Y-122803920D01*
X116835480Y-122803920D01*
X116835480Y-123203920D01*
X116993314Y-123743403D01*
X117345584Y-124181420D01*
X117838661Y-124451287D01*
X117921441Y-124468824D01*
X118143480Y-124346835D01*
X118143480Y-122803920D01*
X118397480Y-122803920D01*
X118397480Y-124346835D01*
X118619519Y-124468824D01*
X118702299Y-124451287D01*
X119195376Y-124181420D01*
X119547646Y-123743403D01*
X119705480Y-123203920D01*
X119705480Y-122803920D01*
X118397480Y-122803920D01*
X118143480Y-122803920D01*
X116835480Y-122803920D01*
X116605480Y-122803920D01*
X116605480Y-122149920D01*
X116835480Y-122149920D01*
X116835480Y-122549920D01*
X118143480Y-122549920D01*
X118143480Y-121007005D01*
X118397480Y-121007005D01*
X118397480Y-122549920D01*
X119705480Y-122549920D01*
X119705480Y-122149920D01*
X119547646Y-121610437D01*
X119195376Y-121172420D01*
X118702299Y-120902553D01*
X118619519Y-120885016D01*
X118397480Y-121007005D01*
X118143480Y-121007005D01*
X117921441Y-120885016D01*
X117838661Y-120902553D01*
X117345584Y-121172420D01*
X116993314Y-121610437D01*
X116835480Y-122149920D01*
X116605480Y-122149920D01*
X116605480Y-122035587D01*
X116522220Y-121617011D01*
X116205056Y-121142343D01*
X115730388Y-120825180D01*
X115170480Y-120713807D01*
X114610571Y-120825180D01*
X114135903Y-121142344D01*
X113818740Y-121617012D01*
X113735480Y-122035588D01*
X108255480Y-122035588D01*
X108255480Y-121990513D01*
X108175121Y-121586520D01*
X107869008Y-121128391D01*
X107410879Y-120822279D01*
X106870480Y-120714787D01*
X106330080Y-120822279D01*
X105871951Y-121128392D01*
X105565839Y-121586521D01*
X105485480Y-121990514D01*
X105485480Y-123363327D01*
X105488713Y-123379581D01*
X105387014Y-123134058D01*
X104983342Y-122730386D01*
X104455919Y-122511920D01*
X103885041Y-122511920D01*
X103357618Y-122730386D01*
X102953946Y-123134058D01*
X102735480Y-123661481D01*
X100605480Y-123661481D01*
X100387014Y-123134058D01*
X99983342Y-122730386D01*
X99455919Y-122511920D01*
X98885041Y-122511920D01*
X98357618Y-122730386D01*
X97953946Y-123134058D01*
X97735480Y-123661481D01*
X97716173Y-123661481D01*
X97775480Y-123363327D01*
X97775480Y-121990513D01*
X97695121Y-121586520D01*
X97389009Y-121128391D01*
X96930880Y-120822279D01*
X96390480Y-120714787D01*
X95850081Y-120822279D01*
X95391952Y-121128391D01*
X95085839Y-121586520D01*
X95005480Y-121990513D01*
X89516515Y-121990513D01*
X89442220Y-121617011D01*
X89125057Y-121142343D01*
X88650389Y-120825180D01*
X88090480Y-120713807D01*
X87530572Y-120825180D01*
X87055904Y-121142343D01*
X86738740Y-121617011D01*
X86655480Y-122035587D01*
X86392031Y-122035587D01*
X86267646Y-121610437D01*
X85915376Y-121172420D01*
X85422299Y-120902553D01*
X85339519Y-120885016D01*
X85117480Y-121007005D01*
X84863480Y-121007005D01*
X84641441Y-120885016D01*
X84558661Y-120902553D01*
X84065584Y-121172420D01*
X83713314Y-121610437D01*
X83555480Y-122149920D01*
X82540480Y-122149920D01*
X82540480Y-118581481D01*
X97735480Y-118581481D01*
X97735480Y-119152359D01*
X97953946Y-119679782D01*
X98357618Y-120083454D01*
X98885041Y-120301920D01*
X99455919Y-120301920D01*
X99983342Y-120083454D01*
X100387014Y-119679782D01*
X100605480Y-119152359D01*
X100605480Y-118581481D01*
X102735480Y-118581481D01*
X102735480Y-119152359D01*
X102953946Y-119679782D01*
X103357618Y-120083454D01*
X103885041Y-120301920D01*
X104455919Y-120301920D01*
X104983342Y-120083454D01*
X105387014Y-119679782D01*
X105605480Y-119152359D01*
X105605480Y-118581481D01*
X105387014Y-118054058D01*
X104983342Y-117650386D01*
X104455919Y-117431920D01*
X103885041Y-117431920D01*
X103357618Y-117650386D01*
X102953946Y-118054058D01*
X102735480Y-118581481D01*
X100605480Y-118581481D01*
X100387014Y-118054058D01*
X99983342Y-117650386D01*
X99455919Y-117431920D01*
X98885041Y-117431920D01*
X98357618Y-117650386D01*
X97953946Y-118054058D01*
X97735480Y-118581481D01*
X82540480Y-118581481D01*
X82540480Y-109585474D01*
X83100000Y-109585474D01*
X83100000Y-110124526D01*
X83306286Y-110622546D01*
X83687454Y-111003714D01*
X83980265Y-111125000D01*
X83687454Y-111246286D01*
X83306286Y-111627454D01*
X83100000Y-112125474D01*
X83100000Y-112664526D01*
X83306286Y-113162546D01*
X83687454Y-113543714D01*
X83980265Y-113665000D01*
X83687454Y-113786286D01*
X83306286Y-114167454D01*
X83100000Y-114665474D01*
X83100000Y-115204526D01*
X83306286Y-115702546D01*
X83687454Y-116083714D01*
X84185474Y-116290000D01*
X84724526Y-116290000D01*
X85222546Y-116083714D01*
X85603714Y-115702546D01*
X85810000Y-115204526D01*
X85810000Y-114665474D01*
X85644516Y-114265959D01*
X89678576Y-114265959D01*
X89696113Y-114348739D01*
X89965980Y-114841816D01*
X90403997Y-115194086D01*
X90943480Y-115351920D01*
X91343480Y-115351920D01*
X91343480Y-114043920D01*
X91597480Y-114043920D01*
X91597480Y-115351920D01*
X91997480Y-115351920D01*
X92536963Y-115194086D01*
X92974980Y-114841816D01*
X93244847Y-114348739D01*
X93262384Y-114265959D01*
X93140395Y-114043920D01*
X91597480Y-114043920D01*
X91343480Y-114043920D01*
X89800565Y-114043920D01*
X89678576Y-114265959D01*
X85644516Y-114265959D01*
X85603714Y-114167454D01*
X85222546Y-113786286D01*
X84929735Y-113665000D01*
X85164201Y-113567881D01*
X89678576Y-113567881D01*
X89800565Y-113789920D01*
X91343480Y-113789920D01*
X91343480Y-112481920D01*
X91597480Y-112481920D01*
X91597480Y-113789920D01*
X93140395Y-113789920D01*
X93262384Y-113567881D01*
X93244847Y-113485101D01*
X92974980Y-112992024D01*
X92536963Y-112639754D01*
X91997480Y-112481920D01*
X91597480Y-112481920D01*
X91343480Y-112481920D01*
X90943480Y-112481920D01*
X90403997Y-112639754D01*
X89965980Y-112992024D01*
X89696113Y-113485101D01*
X89678576Y-113567881D01*
X85164201Y-113567881D01*
X85222546Y-113543714D01*
X85603714Y-113162546D01*
X85810000Y-112664526D01*
X85810000Y-112125474D01*
X85603714Y-111627454D01*
X85222546Y-111246286D01*
X84929735Y-111125000D01*
X85222546Y-111003714D01*
X85409340Y-110816920D01*
X89507367Y-110816920D01*
X89618740Y-111376829D01*
X89935903Y-111851497D01*
X90410571Y-112168660D01*
X90829147Y-112251920D01*
X92111813Y-112251920D01*
X92530389Y-112168660D01*
X93005057Y-111851497D01*
X93322220Y-111376829D01*
X93433593Y-110816920D01*
X93327614Y-110284126D01*
X99549000Y-110284126D01*
X99549000Y-110695874D01*
X99706569Y-111076280D01*
X99997720Y-111367431D01*
X100076001Y-111399856D01*
X100076000Y-113151272D01*
X100061073Y-113226315D01*
X100076000Y-113301358D01*
X100076000Y-113301362D01*
X100120212Y-113523631D01*
X100288629Y-113775686D01*
X100352253Y-113818198D01*
X100657900Y-114123845D01*
X100565000Y-114348126D01*
X100565000Y-114759874D01*
X100722569Y-115140280D01*
X101013720Y-115431431D01*
X101394126Y-115589000D01*
X101805874Y-115589000D01*
X102186280Y-115431431D01*
X102477431Y-115140280D01*
X102635000Y-114759874D01*
X102635000Y-114348126D01*
X102600966Y-114265959D01*
X109998576Y-114265959D01*
X110016113Y-114348739D01*
X110285980Y-114841816D01*
X110723997Y-115194086D01*
X111263480Y-115351920D01*
X111663480Y-115351920D01*
X111663480Y-114043920D01*
X111917480Y-114043920D01*
X111917480Y-115351920D01*
X112317480Y-115351920D01*
X112856963Y-115194086D01*
X113294980Y-114841816D01*
X113564847Y-114348739D01*
X113582384Y-114265959D01*
X113460395Y-114043920D01*
X111917480Y-114043920D01*
X111663480Y-114043920D01*
X110120565Y-114043920D01*
X109998576Y-114265959D01*
X102600966Y-114265959D01*
X102477431Y-113967720D01*
X102346859Y-113837148D01*
X102317788Y-113690998D01*
X102235524Y-113567881D01*
X109998576Y-113567881D01*
X110120565Y-113789920D01*
X111663480Y-113789920D01*
X111663480Y-112481920D01*
X111917480Y-112481920D01*
X111917480Y-113789920D01*
X113460395Y-113789920D01*
X113582384Y-113567881D01*
X113564847Y-113485101D01*
X113294980Y-112992024D01*
X112856963Y-112639754D01*
X112317480Y-112481920D01*
X111917480Y-112481920D01*
X111663480Y-112481920D01*
X111263480Y-112481920D01*
X110723997Y-112639754D01*
X110285980Y-112992024D01*
X110016113Y-113485101D01*
X109998576Y-113567881D01*
X102235524Y-113567881D01*
X102149371Y-113438944D01*
X102085749Y-113396433D01*
X101600000Y-112910685D01*
X101600000Y-110819042D01*
X101600422Y-110816920D01*
X109827367Y-110816920D01*
X109938740Y-111376829D01*
X110255903Y-111851497D01*
X110730571Y-112168660D01*
X111149147Y-112251920D01*
X112431813Y-112251920D01*
X112850389Y-112168660D01*
X113325057Y-111851497D01*
X113642220Y-111376829D01*
X113753593Y-110816920D01*
X113642220Y-110257011D01*
X113325057Y-109782343D01*
X113030422Y-109585474D01*
X117390000Y-109585474D01*
X117390000Y-110124526D01*
X117596286Y-110622546D01*
X117977454Y-111003714D01*
X118270265Y-111125000D01*
X117977454Y-111246286D01*
X117596286Y-111627454D01*
X117390000Y-112125474D01*
X117390000Y-112664526D01*
X117596286Y-113162546D01*
X117977454Y-113543714D01*
X118270265Y-113665000D01*
X117977454Y-113786286D01*
X117596286Y-114167454D01*
X117390000Y-114665474D01*
X117390000Y-115204526D01*
X117596286Y-115702546D01*
X117977454Y-116083714D01*
X118475474Y-116290000D01*
X119014526Y-116290000D01*
X119512546Y-116083714D01*
X119893714Y-115702546D01*
X120100000Y-115204526D01*
X120100000Y-114665474D01*
X119893714Y-114167454D01*
X119512546Y-113786286D01*
X119219735Y-113665000D01*
X119512546Y-113543714D01*
X119893714Y-113162546D01*
X120100000Y-112664526D01*
X120100000Y-112125474D01*
X119893714Y-111627454D01*
X119512546Y-111246286D01*
X119219735Y-111125000D01*
X119512546Y-111003714D01*
X119893714Y-110622546D01*
X120100000Y-110124526D01*
X120100000Y-109585474D01*
X119893714Y-109087454D01*
X119512546Y-108706286D01*
X119014526Y-108500000D01*
X118475474Y-108500000D01*
X117977454Y-108706286D01*
X117596286Y-109087454D01*
X117390000Y-109585474D01*
X113030422Y-109585474D01*
X112850389Y-109465180D01*
X112431813Y-109381920D01*
X111149147Y-109381920D01*
X110730571Y-109465180D01*
X110255903Y-109782343D01*
X109938740Y-110257011D01*
X109827367Y-110816920D01*
X101600422Y-110816920D01*
X101614927Y-110743999D01*
X101609781Y-110718130D01*
X101619000Y-110695874D01*
X101619000Y-110284126D01*
X101461431Y-109903720D01*
X101170280Y-109612569D01*
X100789874Y-109455000D01*
X100378126Y-109455000D01*
X99997720Y-109612569D01*
X99706569Y-109903720D01*
X99549000Y-110284126D01*
X93327614Y-110284126D01*
X93322220Y-110257011D01*
X93005057Y-109782343D01*
X92530389Y-109465180D01*
X92111813Y-109381920D01*
X90829147Y-109381920D01*
X90410571Y-109465180D01*
X89935903Y-109782343D01*
X89618740Y-110257011D01*
X89507367Y-110816920D01*
X85409340Y-110816920D01*
X85603714Y-110622546D01*
X85810000Y-110124526D01*
X85810000Y-109585474D01*
X85603714Y-109087454D01*
X85222546Y-108706286D01*
X84724526Y-108500000D01*
X84185474Y-108500000D01*
X83687454Y-108706286D01*
X83306286Y-109087454D01*
X83100000Y-109585474D01*
X82540480Y-109585474D01*
X82540480Y-104505474D01*
X83100000Y-104505474D01*
X83100000Y-105044526D01*
X83306286Y-105542546D01*
X83687454Y-105923714D01*
X84185474Y-106130000D01*
X84724526Y-106130000D01*
X85222546Y-105923714D01*
X85603714Y-105542546D01*
X85810000Y-105044526D01*
X85810000Y-104505474D01*
X117390000Y-104505474D01*
X117390000Y-105044526D01*
X117596286Y-105542546D01*
X117977454Y-105923714D01*
X118475474Y-106130000D01*
X119014526Y-106130000D01*
X119512546Y-105923714D01*
X119893714Y-105542546D01*
X120100000Y-105044526D01*
X120100000Y-104505474D01*
X119893714Y-104007454D01*
X119512546Y-103626286D01*
X119235849Y-103511675D01*
X119450869Y-103422611D01*
X119515169Y-103184774D01*
X118745000Y-102414605D01*
X117974831Y-103184774D01*
X118039131Y-103422611D01*
X118271114Y-103504649D01*
X117977454Y-103626286D01*
X117596286Y-104007454D01*
X117390000Y-104505474D01*
X85810000Y-104505474D01*
X85603714Y-104007454D01*
X85222546Y-103626286D01*
X84945849Y-103511675D01*
X85160869Y-103422611D01*
X85225169Y-103184774D01*
X84455000Y-102414605D01*
X83684831Y-103184774D01*
X83749131Y-103422611D01*
X83981114Y-103504649D01*
X83687454Y-103626286D01*
X83306286Y-104007454D01*
X83100000Y-104505474D01*
X82540480Y-104505474D01*
X82540480Y-102037342D01*
X83087667Y-102037342D01*
X83116108Y-102575644D01*
X83267389Y-102940869D01*
X83505226Y-103005169D01*
X84275395Y-102235000D01*
X84634605Y-102235000D01*
X85404774Y-103005169D01*
X85642611Y-102940869D01*
X85792534Y-102516920D01*
X89508347Y-102516920D01*
X89615839Y-103057320D01*
X89921951Y-103515449D01*
X90380080Y-103821561D01*
X90784073Y-103901920D01*
X92156887Y-103901920D01*
X92560880Y-103821561D01*
X93019009Y-103515449D01*
X93325121Y-103057320D01*
X93432613Y-102516920D01*
X93325121Y-101976520D01*
X93105696Y-101648126D01*
X97771000Y-101648126D01*
X97771000Y-102059874D01*
X97928569Y-102440280D01*
X98219720Y-102731431D01*
X98600126Y-102889000D01*
X99011874Y-102889000D01*
X99392280Y-102731431D01*
X99507711Y-102616000D01*
X99882289Y-102616000D01*
X99997720Y-102731431D01*
X100378126Y-102889000D01*
X100789874Y-102889000D01*
X101170280Y-102731431D01*
X101285711Y-102616000D01*
X103692289Y-102616000D01*
X103807720Y-102731431D01*
X104188126Y-102889000D01*
X104599874Y-102889000D01*
X104980280Y-102731431D01*
X105194791Y-102516920D01*
X109828347Y-102516920D01*
X109935839Y-103057320D01*
X110241951Y-103515449D01*
X110700080Y-103821561D01*
X111104073Y-103901920D01*
X112476887Y-103901920D01*
X112880880Y-103821561D01*
X113339009Y-103515449D01*
X113645121Y-103057320D01*
X113752613Y-102516920D01*
X113657220Y-102037342D01*
X117377667Y-102037342D01*
X117406108Y-102575644D01*
X117557389Y-102940869D01*
X117795226Y-103005169D01*
X118565395Y-102235000D01*
X118924605Y-102235000D01*
X119694774Y-103005169D01*
X119932611Y-102940869D01*
X120112333Y-102432658D01*
X120083892Y-101894356D01*
X119932611Y-101529131D01*
X119694774Y-101464831D01*
X118924605Y-102235000D01*
X118565395Y-102235000D01*
X117795226Y-101464831D01*
X117557389Y-101529131D01*
X117377667Y-102037342D01*
X113657220Y-102037342D01*
X113645121Y-101976520D01*
X113339009Y-101518391D01*
X112880880Y-101212279D01*
X112476887Y-101131920D01*
X111104073Y-101131920D01*
X110700080Y-101212279D01*
X110241951Y-101518391D01*
X109935839Y-101976520D01*
X109828347Y-102516920D01*
X105194791Y-102516920D01*
X105271431Y-102440280D01*
X105429000Y-102059874D01*
X105429000Y-101648126D01*
X105271431Y-101267720D01*
X104980280Y-100976569D01*
X104599874Y-100819000D01*
X104188126Y-100819000D01*
X103807720Y-100976569D01*
X103692289Y-101092000D01*
X101285711Y-101092000D01*
X101170280Y-100976569D01*
X100789874Y-100819000D01*
X100378126Y-100819000D01*
X99997720Y-100976569D01*
X99882289Y-101092000D01*
X99507711Y-101092000D01*
X99392280Y-100976569D01*
X99011874Y-100819000D01*
X98600126Y-100819000D01*
X98219720Y-100976569D01*
X97928569Y-101267720D01*
X97771000Y-101648126D01*
X93105696Y-101648126D01*
X93019009Y-101518391D01*
X92560880Y-101212279D01*
X92156887Y-101131920D01*
X90784073Y-101131920D01*
X90380080Y-101212279D01*
X89921951Y-101518391D01*
X89615839Y-101976520D01*
X89508347Y-102516920D01*
X85792534Y-102516920D01*
X85822333Y-102432658D01*
X85793892Y-101894356D01*
X85642611Y-101529131D01*
X85404774Y-101464831D01*
X84634605Y-102235000D01*
X84275395Y-102235000D01*
X83505226Y-101464831D01*
X83267389Y-101529131D01*
X83087667Y-102037342D01*
X82540480Y-102037342D01*
X82540480Y-99425474D01*
X83100000Y-99425474D01*
X83100000Y-99964526D01*
X83306286Y-100462546D01*
X83687454Y-100843714D01*
X83964151Y-100958325D01*
X83749131Y-101047389D01*
X83684831Y-101285226D01*
X84455000Y-102055395D01*
X85225169Y-101285226D01*
X85160869Y-101047389D01*
X84928886Y-100965351D01*
X85222546Y-100843714D01*
X85603714Y-100462546D01*
X85810000Y-99964526D01*
X85810000Y-99425474D01*
X85644516Y-99025959D01*
X89678576Y-99025959D01*
X89696113Y-99108739D01*
X89965980Y-99601816D01*
X90403997Y-99954086D01*
X90943480Y-100111920D01*
X91343480Y-100111920D01*
X91343480Y-98803920D01*
X91597480Y-98803920D01*
X91597480Y-100111920D01*
X91997480Y-100111920D01*
X92536963Y-99954086D01*
X92974980Y-99601816D01*
X93244847Y-99108739D01*
X93262384Y-99025959D01*
X109998576Y-99025959D01*
X110016113Y-99108739D01*
X110285980Y-99601816D01*
X110723997Y-99954086D01*
X111263480Y-100111920D01*
X111663480Y-100111920D01*
X111663480Y-98803920D01*
X111917480Y-98803920D01*
X111917480Y-100111920D01*
X112317480Y-100111920D01*
X112856963Y-99954086D01*
X113294980Y-99601816D01*
X113391494Y-99425474D01*
X117390000Y-99425474D01*
X117390000Y-99964526D01*
X117596286Y-100462546D01*
X117977454Y-100843714D01*
X118254151Y-100958325D01*
X118039131Y-101047389D01*
X117974831Y-101285226D01*
X118745000Y-102055395D01*
X119515169Y-101285226D01*
X119450869Y-101047389D01*
X119218886Y-100965351D01*
X119512546Y-100843714D01*
X119893714Y-100462546D01*
X120100000Y-99964526D01*
X120100000Y-99425474D01*
X119893714Y-98927454D01*
X119512546Y-98546286D01*
X119014526Y-98340000D01*
X118475474Y-98340000D01*
X117977454Y-98546286D01*
X117596286Y-98927454D01*
X117390000Y-99425474D01*
X113391494Y-99425474D01*
X113564847Y-99108739D01*
X113582384Y-99025959D01*
X113460395Y-98803920D01*
X111917480Y-98803920D01*
X111663480Y-98803920D01*
X110120565Y-98803920D01*
X109998576Y-99025959D01*
X93262384Y-99025959D01*
X93140395Y-98803920D01*
X91597480Y-98803920D01*
X91343480Y-98803920D01*
X89800565Y-98803920D01*
X89678576Y-99025959D01*
X85644516Y-99025959D01*
X85603714Y-98927454D01*
X85222546Y-98546286D01*
X84724526Y-98340000D01*
X84185474Y-98340000D01*
X83687454Y-98546286D01*
X83306286Y-98927454D01*
X83100000Y-99425474D01*
X82540480Y-99425474D01*
X82540480Y-98327881D01*
X89678576Y-98327881D01*
X89800565Y-98549920D01*
X91343480Y-98549920D01*
X91343480Y-97241920D01*
X91597480Y-97241920D01*
X91597480Y-98549920D01*
X93140395Y-98549920D01*
X93262384Y-98327881D01*
X109998576Y-98327881D01*
X110120565Y-98549920D01*
X111663480Y-98549920D01*
X111663480Y-97241920D01*
X111917480Y-97241920D01*
X111917480Y-98549920D01*
X113460395Y-98549920D01*
X113582384Y-98327881D01*
X113564847Y-98245101D01*
X113294980Y-97752024D01*
X112856963Y-97399754D01*
X112317480Y-97241920D01*
X111917480Y-97241920D01*
X111663480Y-97241920D01*
X111263480Y-97241920D01*
X110723997Y-97399754D01*
X110285980Y-97752024D01*
X110016113Y-98245101D01*
X109998576Y-98327881D01*
X93262384Y-98327881D01*
X93244847Y-98245101D01*
X92974980Y-97752024D01*
X92536963Y-97399754D01*
X91997480Y-97241920D01*
X91597480Y-97241920D01*
X91343480Y-97241920D01*
X90943480Y-97241920D01*
X90403997Y-97399754D01*
X89965980Y-97752024D01*
X89696113Y-98245101D01*
X89678576Y-98327881D01*
X82540480Y-98327881D01*
X82540480Y-95324135D01*
X82633946Y-95549782D01*
X83037618Y-95953454D01*
X83565041Y-96171920D01*
X84135919Y-96171920D01*
X84663342Y-95953454D01*
X85039876Y-95576920D01*
X89507367Y-95576920D01*
X89618740Y-96136829D01*
X89935903Y-96611497D01*
X90410571Y-96928660D01*
X90829147Y-97011920D01*
X92111813Y-97011920D01*
X92530389Y-96928660D01*
X93005057Y-96611497D01*
X93322220Y-96136829D01*
X93433593Y-95576920D01*
X109827367Y-95576920D01*
X109938740Y-96136829D01*
X110255903Y-96611497D01*
X110730571Y-96928660D01*
X111149147Y-97011920D01*
X112431813Y-97011920D01*
X112850389Y-96928660D01*
X113325057Y-96611497D01*
X113642220Y-96136829D01*
X113753593Y-95576920D01*
X113642220Y-95017011D01*
X113325057Y-94542343D01*
X112850389Y-94225180D01*
X112431813Y-94141920D01*
X111149147Y-94141920D01*
X110730571Y-94225180D01*
X110255903Y-94542343D01*
X109938740Y-95017011D01*
X109827367Y-95576920D01*
X93433593Y-95576920D01*
X93322220Y-95017011D01*
X93005057Y-94542343D01*
X92530389Y-94225180D01*
X92111813Y-94141920D01*
X90829147Y-94141920D01*
X90410571Y-94225180D01*
X89935903Y-94542343D01*
X89618740Y-95017011D01*
X89507367Y-95576920D01*
X85039876Y-95576920D01*
X85067014Y-95549782D01*
X85285480Y-95022359D01*
X85285480Y-94451481D01*
X85067014Y-93924058D01*
X84663342Y-93520386D01*
X84135919Y-93301920D01*
X83565041Y-93301920D01*
X83037618Y-93520386D01*
X82633946Y-93924058D01*
X82540480Y-94149705D01*
X82540480Y-90324135D01*
X82633946Y-90549782D01*
X83037618Y-90953454D01*
X83565041Y-91171920D01*
X84135919Y-91171920D01*
X84663342Y-90953454D01*
X85067014Y-90549782D01*
X85204390Y-90218126D01*
X99549000Y-90218126D01*
X99549000Y-90629874D01*
X99706569Y-91010280D01*
X99997720Y-91301431D01*
X100378126Y-91459000D01*
X100789874Y-91459000D01*
X101170280Y-91301431D01*
X101285711Y-91186000D01*
X107248289Y-91186000D01*
X107363720Y-91301431D01*
X107744126Y-91459000D01*
X108155874Y-91459000D01*
X108536280Y-91301431D01*
X108827431Y-91010280D01*
X108985000Y-90629874D01*
X108985000Y-90218126D01*
X108827431Y-89837720D01*
X108536280Y-89546569D01*
X108155874Y-89389000D01*
X107744126Y-89389000D01*
X107363720Y-89546569D01*
X107248289Y-89662000D01*
X101285711Y-89662000D01*
X101170280Y-89546569D01*
X100789874Y-89389000D01*
X100378126Y-89389000D01*
X99997720Y-89546569D01*
X99706569Y-89837720D01*
X99549000Y-90218126D01*
X85204390Y-90218126D01*
X85285480Y-90022359D01*
X85285480Y-89852500D01*
X88824957Y-89852500D01*
X88900000Y-89867427D01*
X88975043Y-89852500D01*
X88975048Y-89852500D01*
X89197317Y-89808288D01*
X89449371Y-89639871D01*
X89491883Y-89576247D01*
X90468902Y-88599229D01*
X90784073Y-88661920D01*
X92156887Y-88661920D01*
X92560880Y-88581561D01*
X93019009Y-88275449D01*
X93325121Y-87817320D01*
X93432613Y-87276920D01*
X93325121Y-86736520D01*
X93019009Y-86278391D01*
X92560880Y-85972279D01*
X92156887Y-85891920D01*
X90784073Y-85891920D01*
X90380080Y-85972279D01*
X89921951Y-86278391D01*
X89660000Y-86670428D01*
X89660000Y-84956076D01*
X89735801Y-84880275D01*
X89893370Y-84499869D01*
X89893370Y-84088121D01*
X89735801Y-83707715D01*
X89444650Y-83416564D01*
X89064244Y-83258995D01*
X88652496Y-83258995D01*
X88272090Y-83416564D01*
X87980939Y-83707715D01*
X87823370Y-84088121D01*
X87823370Y-84499869D01*
X87980939Y-84880275D01*
X88140001Y-85039337D01*
X88140000Y-86926289D01*
X88022569Y-87043720D01*
X87865000Y-87424126D01*
X87865000Y-87835874D01*
X88022569Y-88216280D01*
X88134789Y-88328500D01*
X84571943Y-88328500D01*
X84496900Y-88313573D01*
X84421857Y-88328500D01*
X84421852Y-88328500D01*
X84272034Y-88358301D01*
X84135919Y-88301920D01*
X83565041Y-88301920D01*
X83037618Y-88520386D01*
X82633946Y-88924058D01*
X82540480Y-89149705D01*
X82540480Y-82598126D01*
X84055000Y-82598126D01*
X84055000Y-83009874D01*
X84212569Y-83390280D01*
X84503720Y-83681431D01*
X84884126Y-83839000D01*
X85295874Y-83839000D01*
X85676280Y-83681431D01*
X85967431Y-83390280D01*
X86125000Y-83009874D01*
X86125000Y-82846630D01*
X87309630Y-81662000D01*
X88994655Y-81662000D01*
X89122792Y-82306188D01*
X89487695Y-82852305D01*
X90033812Y-83217208D01*
X90515391Y-83313000D01*
X92364609Y-83313000D01*
X92846188Y-83217208D01*
X93392305Y-82852305D01*
X93392424Y-82852126D01*
X96247000Y-82852126D01*
X96247000Y-83263874D01*
X96404569Y-83644280D01*
X96695720Y-83935431D01*
X97076126Y-84093000D01*
X97487874Y-84093000D01*
X97868280Y-83935431D01*
X98159431Y-83644280D01*
X98317000Y-83263874D01*
X98317000Y-83100630D01*
X98848630Y-82569000D01*
X99011874Y-82569000D01*
X99392280Y-82411431D01*
X99683431Y-82120280D01*
X99841000Y-81739874D01*
X99841000Y-81328126D01*
X103105000Y-81328126D01*
X103105000Y-81739874D01*
X103262569Y-82120280D01*
X103553720Y-82411431D01*
X103934126Y-82569000D01*
X104345874Y-82569000D01*
X104536178Y-82490174D01*
X105141817Y-83095814D01*
X105141817Y-83259057D01*
X105299386Y-83639463D01*
X105590537Y-83930614D01*
X105970943Y-84088183D01*
X106382691Y-84088183D01*
X106763097Y-83930614D01*
X107054248Y-83639463D01*
X107211817Y-83259057D01*
X107211817Y-82847309D01*
X107054248Y-82466903D01*
X106763097Y-82175752D01*
X106382691Y-82018183D01*
X106219448Y-82018183D01*
X105863265Y-81662000D01*
X109314655Y-81662000D01*
X109442792Y-82306188D01*
X109807695Y-82852305D01*
X110353812Y-83217208D01*
X110835391Y-83313000D01*
X112684609Y-83313000D01*
X113166188Y-83217208D01*
X113712305Y-82852305D01*
X114077208Y-82306188D01*
X114205345Y-81662000D01*
X114077208Y-81017812D01*
X113712305Y-80471695D01*
X113166188Y-80106792D01*
X112684609Y-80011000D01*
X110835391Y-80011000D01*
X110353812Y-80106792D01*
X109807695Y-80471695D01*
X109442792Y-81017812D01*
X109314655Y-81662000D01*
X105863265Y-81662000D01*
X105249517Y-81048253D01*
X105207005Y-80984629D01*
X105060893Y-80887000D01*
X105431494Y-80887000D01*
X105940540Y-80676147D01*
X106330147Y-80286540D01*
X106541000Y-79777494D01*
X106541000Y-79226506D01*
X106330147Y-78717460D01*
X105940540Y-78327853D01*
X105709130Y-78232000D01*
X105940540Y-78136147D01*
X106330147Y-77746540D01*
X106541000Y-77237494D01*
X106541000Y-76962000D01*
X109314655Y-76962000D01*
X109442792Y-77606188D01*
X109807695Y-78152305D01*
X110353812Y-78517208D01*
X110835391Y-78613000D01*
X112684609Y-78613000D01*
X113027220Y-78544850D01*
X117081067Y-82598698D01*
X117081067Y-82761941D01*
X117238636Y-83142347D01*
X117529787Y-83433498D01*
X117910193Y-83591067D01*
X118321941Y-83591067D01*
X118702347Y-83433498D01*
X118993498Y-83142347D01*
X119151067Y-82761941D01*
X119151067Y-82350193D01*
X118993498Y-81969787D01*
X118702347Y-81678636D01*
X118321941Y-81521067D01*
X118158698Y-81521067D01*
X114104850Y-77467220D01*
X114205345Y-76962000D01*
X114077208Y-76317812D01*
X113712305Y-75771695D01*
X113166188Y-75406792D01*
X112684609Y-75311000D01*
X110835391Y-75311000D01*
X110353812Y-75406792D01*
X109807695Y-75771695D01*
X109442792Y-76317812D01*
X109314655Y-76962000D01*
X106541000Y-76962000D01*
X106541000Y-76686506D01*
X106330147Y-76177460D01*
X105959687Y-75807000D01*
X106032309Y-75807000D01*
X106265698Y-75710327D01*
X106444327Y-75531699D01*
X106541000Y-75298310D01*
X106541000Y-74707750D01*
X106382250Y-74549000D01*
X105283000Y-74549000D01*
X105283000Y-74569000D01*
X105029000Y-74569000D01*
X105029000Y-74549000D01*
X103929750Y-74549000D01*
X103771000Y-74707750D01*
X103771000Y-75298310D01*
X103867673Y-75531699D01*
X104046302Y-75710327D01*
X104279691Y-75807000D01*
X104352313Y-75807000D01*
X103981853Y-76177460D01*
X103771000Y-76686506D01*
X103771000Y-77237494D01*
X103981853Y-77746540D01*
X104371460Y-78136147D01*
X104602870Y-78232000D01*
X104371460Y-78327853D01*
X103981853Y-78717460D01*
X103771000Y-79226506D01*
X103771000Y-79777494D01*
X103981853Y-80286540D01*
X104194313Y-80499000D01*
X103934126Y-80499000D01*
X103553720Y-80656569D01*
X103262569Y-80947720D01*
X103105000Y-81328126D01*
X99841000Y-81328126D01*
X99683431Y-80947720D01*
X99392280Y-80656569D01*
X99187104Y-80571583D01*
X99472147Y-80286540D01*
X99683000Y-79777494D01*
X99683000Y-79226506D01*
X99472147Y-78717460D01*
X99082540Y-78327853D01*
X98851130Y-78232000D01*
X99082540Y-78136147D01*
X99472147Y-77746540D01*
X99683000Y-77237494D01*
X99683000Y-76686506D01*
X99472147Y-76177460D01*
X99101687Y-75807000D01*
X99174309Y-75807000D01*
X99407698Y-75710327D01*
X99586327Y-75531699D01*
X99683000Y-75298310D01*
X99683000Y-74707750D01*
X99524250Y-74549000D01*
X98425000Y-74549000D01*
X98425000Y-74569000D01*
X98171000Y-74569000D01*
X98171000Y-74549000D01*
X97071750Y-74549000D01*
X96913000Y-74707750D01*
X96913000Y-75298310D01*
X97009673Y-75531699D01*
X97188302Y-75710327D01*
X97421691Y-75807000D01*
X97494313Y-75807000D01*
X97123853Y-76177460D01*
X96913000Y-76686506D01*
X96913000Y-77237494D01*
X97123853Y-77746540D01*
X97513460Y-78136147D01*
X97744870Y-78232000D01*
X97513460Y-78327853D01*
X97123853Y-78717460D01*
X96913000Y-79226506D01*
X96913000Y-79777494D01*
X97123853Y-80286540D01*
X97513460Y-80676147D01*
X97999018Y-80877271D01*
X97928569Y-80947720D01*
X97771000Y-81328126D01*
X97771000Y-81491370D01*
X97239370Y-82023000D01*
X97076126Y-82023000D01*
X96695720Y-82180569D01*
X96404569Y-82471720D01*
X96247000Y-82852126D01*
X93392424Y-82852126D01*
X93757208Y-82306188D01*
X93885345Y-81662000D01*
X93757208Y-81017812D01*
X93392305Y-80471695D01*
X92846188Y-80106792D01*
X92364609Y-80011000D01*
X90515391Y-80011000D01*
X90033812Y-80106792D01*
X89487695Y-80471695D01*
X89122792Y-81017812D01*
X88994655Y-81662000D01*
X87309630Y-81662000D01*
X90384639Y-78586992D01*
X90515391Y-78613000D01*
X92364609Y-78613000D01*
X92846188Y-78517208D01*
X93392305Y-78152305D01*
X93757208Y-77606188D01*
X93885345Y-76962000D01*
X93757208Y-76317812D01*
X93392305Y-75771695D01*
X92846188Y-75406792D01*
X92364609Y-75311000D01*
X90515391Y-75311000D01*
X90033812Y-75406792D01*
X89487695Y-75771695D01*
X89122792Y-76317812D01*
X88994655Y-76962000D01*
X89122792Y-77606188D01*
X89157795Y-77658574D01*
X85047370Y-81769000D01*
X84884126Y-81769000D01*
X84503720Y-81926569D01*
X84212569Y-82217720D01*
X84055000Y-82598126D01*
X82540480Y-82598126D01*
X82540480Y-73672000D01*
X83438560Y-73672000D01*
X83438560Y-75172000D01*
X83487843Y-75419765D01*
X83628191Y-75629809D01*
X83838235Y-75770157D01*
X84030844Y-75808469D01*
X83661853Y-76177460D01*
X83451000Y-76686506D01*
X83451000Y-77237494D01*
X83661853Y-77746540D01*
X84051460Y-78136147D01*
X84282870Y-78232000D01*
X84051460Y-78327853D01*
X83661853Y-78717460D01*
X83451000Y-79226506D01*
X83451000Y-79777494D01*
X83661853Y-80286540D01*
X84051460Y-80676147D01*
X84560506Y-80887000D01*
X85111494Y-80887000D01*
X85620540Y-80676147D01*
X86010147Y-80286540D01*
X86221000Y-79777494D01*
X86221000Y-79226506D01*
X86010147Y-78717460D01*
X85620540Y-78327853D01*
X85389130Y-78232000D01*
X85620540Y-78136147D01*
X86010147Y-77746540D01*
X86221000Y-77237494D01*
X86221000Y-76686506D01*
X86010147Y-76177460D01*
X85641156Y-75808469D01*
X85833765Y-75770157D01*
X86043809Y-75629809D01*
X86184157Y-75419765D01*
X86233440Y-75172000D01*
X86233440Y-73672000D01*
X86184157Y-73424235D01*
X86043809Y-73214191D01*
X85833765Y-73073843D01*
X85586000Y-73024560D01*
X84086000Y-73024560D01*
X83838235Y-73073843D01*
X83628191Y-73214191D01*
X83487843Y-73424235D01*
X83438560Y-73672000D01*
X82540480Y-73672000D01*
X82540480Y-72262000D01*
X88994655Y-72262000D01*
X89122792Y-72906188D01*
X89487695Y-73452305D01*
X90033812Y-73817208D01*
X90515391Y-73913000D01*
X92364609Y-73913000D01*
X92846188Y-73817208D01*
X93252544Y-73545690D01*
X96913000Y-73545690D01*
X96913000Y-74136250D01*
X97071750Y-74295000D01*
X98171000Y-74295000D01*
X98171000Y-73195750D01*
X98425000Y-73195750D01*
X98425000Y-74295000D01*
X99524250Y-74295000D01*
X99683000Y-74136250D01*
X99683000Y-73545690D01*
X103771000Y-73545690D01*
X103771000Y-74136250D01*
X103929750Y-74295000D01*
X105029000Y-74295000D01*
X105029000Y-73195750D01*
X105283000Y-73195750D01*
X105283000Y-74295000D01*
X106382250Y-74295000D01*
X106541000Y-74136250D01*
X106541000Y-73545690D01*
X106444327Y-73312301D01*
X106265698Y-73133673D01*
X106032309Y-73037000D01*
X105441750Y-73037000D01*
X105283000Y-73195750D01*
X105029000Y-73195750D01*
X104870250Y-73037000D01*
X104279691Y-73037000D01*
X104046302Y-73133673D01*
X103867673Y-73312301D01*
X103771000Y-73545690D01*
X99683000Y-73545690D01*
X99586327Y-73312301D01*
X99407698Y-73133673D01*
X99174309Y-73037000D01*
X98583750Y-73037000D01*
X98425000Y-73195750D01*
X98171000Y-73195750D01*
X98012250Y-73037000D01*
X97421691Y-73037000D01*
X97188302Y-73133673D01*
X97009673Y-73312301D01*
X96913000Y-73545690D01*
X93252544Y-73545690D01*
X93392305Y-73452305D01*
X93757208Y-72906188D01*
X93885345Y-72262000D01*
X109314655Y-72262000D01*
X109442792Y-72906188D01*
X109807695Y-73452305D01*
X110353812Y-73817208D01*
X110835391Y-73913000D01*
X112684609Y-73913000D01*
X113166188Y-73817208D01*
X113383507Y-73672000D01*
X116712560Y-73672000D01*
X116712560Y-75172000D01*
X116761843Y-75419765D01*
X116902191Y-75629809D01*
X117112235Y-75770157D01*
X117304844Y-75808469D01*
X116935853Y-76177460D01*
X116725000Y-76686506D01*
X116725000Y-77237494D01*
X116935853Y-77746540D01*
X117325460Y-78136147D01*
X117556870Y-78232000D01*
X117325460Y-78327853D01*
X116935853Y-78717460D01*
X116725000Y-79226506D01*
X116725000Y-79777494D01*
X116935853Y-80286540D01*
X117325460Y-80676147D01*
X117834506Y-80887000D01*
X118385494Y-80887000D01*
X118894540Y-80676147D01*
X119284147Y-80286540D01*
X119495000Y-79777494D01*
X119495000Y-79226506D01*
X119284147Y-78717460D01*
X118894540Y-78327853D01*
X118663130Y-78232000D01*
X118894540Y-78136147D01*
X119284147Y-77746540D01*
X119495000Y-77237494D01*
X119495000Y-76686506D01*
X119284147Y-76177460D01*
X118915156Y-75808469D01*
X119107765Y-75770157D01*
X119317809Y-75629809D01*
X119458157Y-75419765D01*
X119507440Y-75172000D01*
X119507440Y-73672000D01*
X119458157Y-73424235D01*
X119317809Y-73214191D01*
X119107765Y-73073843D01*
X118860000Y-73024560D01*
X117360000Y-73024560D01*
X117112235Y-73073843D01*
X116902191Y-73214191D01*
X116761843Y-73424235D01*
X116712560Y-73672000D01*
X113383507Y-73672000D01*
X113712305Y-73452305D01*
X114077208Y-72906188D01*
X114205345Y-72262000D01*
X114077208Y-71617812D01*
X113712305Y-71071695D01*
X113166188Y-70706792D01*
X112684609Y-70611000D01*
X110835391Y-70611000D01*
X110353812Y-70706792D01*
X109807695Y-71071695D01*
X109442792Y-71617812D01*
X109314655Y-72262000D01*
X93885345Y-72262000D01*
X93757208Y-71617812D01*
X93392305Y-71071695D01*
X92846188Y-70706792D01*
X92364609Y-70611000D01*
X90515391Y-70611000D01*
X90033812Y-70706792D01*
X89487695Y-71071695D01*
X89122792Y-71617812D01*
X88994655Y-72262000D01*
X82540480Y-72262000D01*
X82540480Y-69766046D01*
X103135480Y-69766046D01*
X103135480Y-70177794D01*
X103293049Y-70558200D01*
X103584200Y-70849351D01*
X103964606Y-71006920D01*
X104376354Y-71006920D01*
X104756760Y-70849351D01*
X104872191Y-70733920D01*
X105718989Y-70733920D01*
X105808636Y-70950347D01*
X106099787Y-71241498D01*
X106480193Y-71399067D01*
X106891941Y-71399067D01*
X107272347Y-71241498D01*
X107563498Y-70950347D01*
X107721067Y-70569941D01*
X107721067Y-70158193D01*
X107563498Y-69777787D01*
X107272347Y-69486636D01*
X106891941Y-69329067D01*
X106703385Y-69329067D01*
X106591237Y-69254132D01*
X106368968Y-69209920D01*
X106368963Y-69209920D01*
X106293920Y-69194993D01*
X106218877Y-69209920D01*
X104872191Y-69209920D01*
X104756760Y-69094489D01*
X104376354Y-68936920D01*
X103964606Y-68936920D01*
X103584200Y-69094489D01*
X103293049Y-69385640D01*
X103135480Y-69766046D01*
X82540480Y-69766046D01*
X82540480Y-65217089D01*
X88069926Y-65217089D01*
X88156332Y-65473573D01*
X88729816Y-65683388D01*
X89339940Y-65657769D01*
X89784628Y-65473573D01*
X89871034Y-65217089D01*
X88970480Y-64316535D01*
X88069926Y-65217089D01*
X82540480Y-65217089D01*
X82540480Y-63896266D01*
X87424022Y-63896266D01*
X87449641Y-64506390D01*
X87633837Y-64951078D01*
X87890321Y-65037484D01*
X88790875Y-64136930D01*
X89150085Y-64136930D01*
X90050639Y-65037484D01*
X90201042Y-64986815D01*
X90209170Y-65006437D01*
X90640973Y-65438240D01*
X91205150Y-65671930D01*
X91815810Y-65671930D01*
X92379987Y-65438240D01*
X92740480Y-65077747D01*
X93100973Y-65438240D01*
X93665150Y-65671930D01*
X94275810Y-65671930D01*
X94839987Y-65438240D01*
X95271790Y-65006437D01*
X95505480Y-64442260D01*
X95505480Y-63831600D01*
X95271790Y-63267423D01*
X94921204Y-62916837D01*
X95074280Y-62853431D01*
X95189041Y-62738671D01*
X95993000Y-63542630D01*
X95993000Y-63705874D01*
X96150569Y-64086280D01*
X96441720Y-64377431D01*
X96822126Y-64535000D01*
X96984386Y-64535000D01*
X96695720Y-64654569D01*
X96404569Y-64945720D01*
X96247000Y-65326126D01*
X96247000Y-65737874D01*
X96404569Y-66118280D01*
X96695720Y-66409431D01*
X97076126Y-66567000D01*
X97487874Y-66567000D01*
X97868280Y-66409431D01*
X97983711Y-66294000D01*
X100083040Y-66294000D01*
X100083040Y-66426920D01*
X100132323Y-66674685D01*
X100272671Y-66884729D01*
X100482715Y-67025077D01*
X100498388Y-67028195D01*
X100329170Y-67197413D01*
X100095480Y-67761590D01*
X100095480Y-68372250D01*
X100329170Y-68936427D01*
X100760973Y-69368230D01*
X101325150Y-69601920D01*
X101935810Y-69601920D01*
X102499987Y-69368230D01*
X102931790Y-68936427D01*
X102976321Y-68828920D01*
X104907070Y-68828920D01*
X105057265Y-68829193D01*
X105128656Y-68799774D01*
X105204397Y-68784708D01*
X105329989Y-68700790D01*
X106246207Y-68091000D01*
X106631874Y-68091000D01*
X107012280Y-67933431D01*
X107303431Y-67642280D01*
X107461000Y-67261874D01*
X107461000Y-66850126D01*
X107303431Y-66469720D01*
X107012280Y-66178569D01*
X106631874Y-66021000D01*
X106220126Y-66021000D01*
X105839720Y-66178569D01*
X105548569Y-66469720D01*
X105402791Y-66821660D01*
X104676688Y-67304920D01*
X102976321Y-67304920D01*
X102931790Y-67197413D01*
X102762572Y-67028195D01*
X102778245Y-67025077D01*
X102988289Y-66884729D01*
X103128637Y-66674685D01*
X103177920Y-66426920D01*
X103177920Y-65217089D01*
X108389926Y-65217089D01*
X108476332Y-65473573D01*
X109049816Y-65683388D01*
X109659940Y-65657769D01*
X110104628Y-65473573D01*
X110191034Y-65217089D01*
X109290480Y-64316535D01*
X108389926Y-65217089D01*
X103177920Y-65217089D01*
X103177920Y-64626920D01*
X103128637Y-64379155D01*
X102988289Y-64169111D01*
X102778245Y-64028763D01*
X102530480Y-63979480D01*
X100730480Y-63979480D01*
X100482715Y-64028763D01*
X100272671Y-64169111D01*
X100132323Y-64379155D01*
X100083040Y-64626920D01*
X100083040Y-64770000D01*
X97983711Y-64770000D01*
X97868280Y-64654569D01*
X97487874Y-64497000D01*
X97325614Y-64497000D01*
X97614280Y-64377431D01*
X97905431Y-64086280D01*
X97984137Y-63896266D01*
X107744022Y-63896266D01*
X107769641Y-64506390D01*
X107953837Y-64951078D01*
X108210321Y-65037484D01*
X109110875Y-64136930D01*
X109470085Y-64136930D01*
X110370639Y-65037484D01*
X110521042Y-64986815D01*
X110529170Y-65006437D01*
X110960973Y-65438240D01*
X111525150Y-65671930D01*
X112135810Y-65671930D01*
X112699987Y-65438240D01*
X113060480Y-65077747D01*
X113420973Y-65438240D01*
X113985150Y-65671930D01*
X114595810Y-65671930D01*
X115159987Y-65438240D01*
X115591790Y-65006437D01*
X115825480Y-64442260D01*
X115825480Y-63831600D01*
X115591790Y-63267423D01*
X115159987Y-62835620D01*
X114595810Y-62601930D01*
X113985150Y-62601930D01*
X113420973Y-62835620D01*
X113060480Y-63196113D01*
X112699987Y-62835620D01*
X112135810Y-62601930D01*
X111525150Y-62601930D01*
X110960973Y-62835620D01*
X110529170Y-63267423D01*
X110521042Y-63287045D01*
X110370639Y-63236376D01*
X109470085Y-64136930D01*
X109110875Y-64136930D01*
X108210321Y-63236376D01*
X107953837Y-63322782D01*
X107744022Y-63896266D01*
X97984137Y-63896266D01*
X98063000Y-63705874D01*
X98063000Y-63294126D01*
X97964685Y-63056771D01*
X108389926Y-63056771D01*
X109290480Y-63957325D01*
X110191034Y-63056771D01*
X110104628Y-62800287D01*
X109531144Y-62590472D01*
X108921020Y-62616091D01*
X108476332Y-62800287D01*
X108389926Y-63056771D01*
X97964685Y-63056771D01*
X97905431Y-62913720D01*
X97614280Y-62622569D01*
X97233874Y-62465000D01*
X97070630Y-62465000D01*
X96095884Y-61490254D01*
X96053371Y-61426629D01*
X95801317Y-61258212D01*
X95579048Y-61214000D01*
X95579043Y-61214000D01*
X95504000Y-61199073D01*
X95428957Y-61214000D01*
X95189711Y-61214000D01*
X95074280Y-61098569D01*
X94693874Y-60941000D01*
X94282126Y-60941000D01*
X93901720Y-61098569D01*
X93610569Y-61389720D01*
X93453000Y-61770126D01*
X93453000Y-62181874D01*
X93610569Y-62562280D01*
X93654592Y-62606303D01*
X93100973Y-62835620D01*
X92740480Y-63196113D01*
X92379987Y-62835620D01*
X91815810Y-62601930D01*
X91205150Y-62601930D01*
X90640973Y-62835620D01*
X90209170Y-63267423D01*
X90201042Y-63287045D01*
X90050639Y-63236376D01*
X89150085Y-64136930D01*
X88790875Y-64136930D01*
X87890321Y-63236376D01*
X87633837Y-63322782D01*
X87424022Y-63896266D01*
X82540480Y-63896266D01*
X82540480Y-63056771D01*
X88069926Y-63056771D01*
X88970480Y-63957325D01*
X89871034Y-63056771D01*
X89784628Y-62800287D01*
X89211144Y-62590472D01*
X88601020Y-62616091D01*
X88156332Y-62800287D01*
X88069926Y-63056771D01*
X82540480Y-63056771D01*
X82540480Y-56636920D01*
X84501490Y-56636920D01*
X84636146Y-57313883D01*
X85019615Y-57887785D01*
X85593517Y-58271254D01*
X86099600Y-58371920D01*
X87241360Y-58371920D01*
X87747443Y-58271254D01*
X88321345Y-57887785D01*
X88704814Y-57313883D01*
X88839470Y-56636920D01*
X94101490Y-56636920D01*
X94236146Y-57313883D01*
X94619615Y-57887785D01*
X95193517Y-58271254D01*
X95699600Y-58371920D01*
X96841360Y-58371920D01*
X97347443Y-58271254D01*
X97921345Y-57887785D01*
X98304814Y-57313883D01*
X98439470Y-56636920D01*
X104821490Y-56636920D01*
X104956146Y-57313883D01*
X105339615Y-57887785D01*
X105913517Y-58271254D01*
X106419600Y-58371920D01*
X107561360Y-58371920D01*
X108067443Y-58271254D01*
X108641345Y-57887785D01*
X109024814Y-57313883D01*
X109159470Y-56636920D01*
X114421490Y-56636920D01*
X114556146Y-57313883D01*
X114939615Y-57887785D01*
X115513517Y-58271254D01*
X116019600Y-58371920D01*
X117161360Y-58371920D01*
X117667443Y-58271254D01*
X118241345Y-57887785D01*
X118624814Y-57313883D01*
X118759470Y-56636920D01*
X118624814Y-55959957D01*
X118241345Y-55386055D01*
X117667443Y-55002586D01*
X117161360Y-54901920D01*
X116019600Y-54901920D01*
X115513517Y-55002586D01*
X114939615Y-55386055D01*
X114556146Y-55959957D01*
X114421490Y-56636920D01*
X109159470Y-56636920D01*
X109024814Y-55959957D01*
X108641345Y-55386055D01*
X108067443Y-55002586D01*
X107561360Y-54901920D01*
X106419600Y-54901920D01*
X105913517Y-55002586D01*
X105339615Y-55386055D01*
X104956146Y-55959957D01*
X104821490Y-56636920D01*
X98439470Y-56636920D01*
X98304814Y-55959957D01*
X97921345Y-55386055D01*
X97347443Y-55002586D01*
X96841360Y-54901920D01*
X95699600Y-54901920D01*
X95193517Y-55002586D01*
X94619615Y-55386055D01*
X94236146Y-55959957D01*
X94101490Y-56636920D01*
X88839470Y-56636920D01*
X88704814Y-55959957D01*
X88321345Y-55386055D01*
X87747443Y-55002586D01*
X87241360Y-54901920D01*
X86099600Y-54901920D01*
X85593517Y-55002586D01*
X85019615Y-55386055D01*
X84636146Y-55959957D01*
X84501490Y-56636920D01*
X82540480Y-56636920D01*
X82540480Y-47541046D01*
X95998080Y-47541046D01*
X95998080Y-47952794D01*
X96155649Y-48333200D01*
X96446800Y-48624351D01*
X96827206Y-48781920D01*
X97238954Y-48781920D01*
X97619360Y-48624351D01*
X97734791Y-48508920D01*
X100284639Y-48508920D01*
X100329170Y-48616427D01*
X100760973Y-49048230D01*
X101198733Y-49229556D01*
X100976569Y-49451720D01*
X100819000Y-49832126D01*
X100819000Y-50243874D01*
X100976569Y-50624280D01*
X101267720Y-50915431D01*
X101648126Y-51073000D01*
X102059874Y-51073000D01*
X102440280Y-50915431D01*
X102555711Y-50800000D01*
X105216289Y-50800000D01*
X105331720Y-50915431D01*
X105712126Y-51073000D01*
X106123874Y-51073000D01*
X106504280Y-50915431D01*
X106795431Y-50624280D01*
X106953000Y-50243874D01*
X106953000Y-49832126D01*
X106795431Y-49451720D01*
X106504280Y-49160569D01*
X106123874Y-49003000D01*
X105712126Y-49003000D01*
X105331720Y-49160569D01*
X105216289Y-49276000D01*
X102555711Y-49276000D01*
X102440280Y-49160569D01*
X102334528Y-49116765D01*
X102499987Y-49048230D01*
X102931790Y-48616427D01*
X103165480Y-48052250D01*
X103165480Y-47441590D01*
X102931790Y-46877413D01*
X102762572Y-46708195D01*
X102778245Y-46705077D01*
X102988289Y-46564729D01*
X103128637Y-46354685D01*
X103177920Y-46106920D01*
X103177920Y-44306920D01*
X103128637Y-44059155D01*
X102988289Y-43849111D01*
X102778245Y-43708763D01*
X102530480Y-43659480D01*
X100730480Y-43659480D01*
X100482715Y-43708763D01*
X100272671Y-43849111D01*
X100132323Y-44059155D01*
X100083040Y-44306920D01*
X100083040Y-44450000D01*
X97883223Y-44450000D01*
X97767792Y-44334569D01*
X97387386Y-44177000D01*
X96975638Y-44177000D01*
X96595232Y-44334569D01*
X96304081Y-44625720D01*
X96146512Y-45006126D01*
X96146512Y-45417874D01*
X96304081Y-45798280D01*
X96595232Y-46089431D01*
X96975638Y-46247000D01*
X97387386Y-46247000D01*
X97767792Y-46089431D01*
X97883223Y-45974000D01*
X100083040Y-45974000D01*
X100083040Y-46106920D01*
X100132323Y-46354685D01*
X100272671Y-46564729D01*
X100482715Y-46705077D01*
X100498388Y-46708195D01*
X100329170Y-46877413D01*
X100284639Y-46984920D01*
X97734791Y-46984920D01*
X97619360Y-46869489D01*
X97238954Y-46711920D01*
X96827206Y-46711920D01*
X96446800Y-46869489D01*
X96155649Y-47160640D01*
X95998080Y-47541046D01*
X82540480Y-47541046D01*
X82540480Y-43511600D01*
X87435480Y-43511600D01*
X87435480Y-44122260D01*
X87669170Y-44686437D01*
X88100973Y-45118240D01*
X88665150Y-45351930D01*
X89275810Y-45351930D01*
X89839987Y-45118240D01*
X90240480Y-44717747D01*
X90640973Y-45118240D01*
X91205150Y-45351930D01*
X91815810Y-45351930D01*
X92379987Y-45118240D01*
X92740480Y-44757747D01*
X93100973Y-45118240D01*
X93665150Y-45351930D01*
X94275810Y-45351930D01*
X94839987Y-45118240D01*
X95271790Y-44686437D01*
X95505480Y-44122260D01*
X95505480Y-43511600D01*
X107755480Y-43511600D01*
X107755480Y-44122260D01*
X107989170Y-44686437D01*
X108420973Y-45118240D01*
X108985150Y-45351930D01*
X109595810Y-45351930D01*
X110159987Y-45118240D01*
X110560480Y-44717747D01*
X110960973Y-45118240D01*
X111525150Y-45351930D01*
X112135810Y-45351930D01*
X112699987Y-45118240D01*
X113060480Y-44757747D01*
X113420973Y-45118240D01*
X113985150Y-45351930D01*
X114595810Y-45351930D01*
X115159987Y-45118240D01*
X115591790Y-44686437D01*
X115825480Y-44122260D01*
X115825480Y-43511600D01*
X115591790Y-42947423D01*
X115159987Y-42515620D01*
X114595810Y-42281930D01*
X113985150Y-42281930D01*
X113420973Y-42515620D01*
X113060480Y-42876113D01*
X112699987Y-42515620D01*
X112135810Y-42281930D01*
X111525150Y-42281930D01*
X110960973Y-42515620D01*
X110560480Y-42916113D01*
X110159987Y-42515620D01*
X109595810Y-42281930D01*
X108985150Y-42281930D01*
X108420973Y-42515620D01*
X107989170Y-42947423D01*
X107755480Y-43511600D01*
X95505480Y-43511600D01*
X95271790Y-42947423D01*
X94839987Y-42515620D01*
X94275810Y-42281930D01*
X93665150Y-42281930D01*
X93100973Y-42515620D01*
X92740480Y-42876113D01*
X92379987Y-42515620D01*
X91815810Y-42281930D01*
X91205150Y-42281930D01*
X90640973Y-42515620D01*
X90240480Y-42916113D01*
X89839987Y-42515620D01*
X89275810Y-42281930D01*
X88665150Y-42281930D01*
X88100973Y-42515620D01*
X87669170Y-42947423D01*
X87435480Y-43511600D01*
X82540480Y-43511600D01*
X82540480Y-39276920D01*
X98863040Y-39276920D01*
X98863040Y-40976920D01*
X98912323Y-41224685D01*
X99052671Y-41434729D01*
X99262715Y-41575077D01*
X99510480Y-41624360D01*
X101210480Y-41624360D01*
X101458245Y-41575077D01*
X101668289Y-41434729D01*
X101808637Y-41224685D01*
X101817664Y-41179301D01*
X101829855Y-41197545D01*
X102321062Y-41525759D01*
X102754224Y-41611920D01*
X103046736Y-41611920D01*
X103479898Y-41525759D01*
X103971105Y-41197545D01*
X104299319Y-40706338D01*
X104414572Y-40126920D01*
X104299319Y-39547502D01*
X103971105Y-39056295D01*
X103652002Y-38843077D01*
X103781838Y-38782103D01*
X104172125Y-38353844D01*
X104341956Y-37943810D01*
X104220635Y-37713920D01*
X103027480Y-37713920D01*
X103027480Y-37733920D01*
X102773480Y-37733920D01*
X102773480Y-37713920D01*
X100487480Y-37713920D01*
X100487480Y-37733920D01*
X100233480Y-37733920D01*
X100233480Y-37713920D01*
X99040325Y-37713920D01*
X98919004Y-37943810D01*
X99088835Y-38353844D01*
X99366188Y-38658181D01*
X99262715Y-38678763D01*
X99052671Y-38819111D01*
X98912323Y-39029155D01*
X98863040Y-39276920D01*
X82540480Y-39276920D01*
X82540480Y-36316920D01*
X84501490Y-36316920D01*
X84636146Y-36993883D01*
X85019615Y-37567785D01*
X85593517Y-37951254D01*
X86099600Y-38051920D01*
X87241360Y-38051920D01*
X87747443Y-37951254D01*
X88321345Y-37567785D01*
X88704814Y-36993883D01*
X88839470Y-36316920D01*
X94101490Y-36316920D01*
X94236146Y-36993883D01*
X94619615Y-37567785D01*
X95193517Y-37951254D01*
X95699600Y-38051920D01*
X96841360Y-38051920D01*
X97347443Y-37951254D01*
X97921345Y-37567785D01*
X98304814Y-36993883D01*
X98439470Y-36316920D01*
X98304814Y-35639957D01*
X98147026Y-35403810D01*
X98919004Y-35403810D01*
X99088835Y-35813844D01*
X99479122Y-36242103D01*
X99638434Y-36316920D01*
X99479122Y-36391737D01*
X99088835Y-36819996D01*
X98919004Y-37230030D01*
X99040325Y-37459920D01*
X100233480Y-37459920D01*
X100233480Y-35173920D01*
X100487480Y-35173920D01*
X100487480Y-37459920D01*
X102773480Y-37459920D01*
X102773480Y-35173920D01*
X103027480Y-35173920D01*
X103027480Y-37459920D01*
X104220635Y-37459920D01*
X104341956Y-37230030D01*
X104172125Y-36819996D01*
X103781838Y-36391737D01*
X103622526Y-36316920D01*
X104821490Y-36316920D01*
X104956146Y-36993883D01*
X105339615Y-37567785D01*
X105913517Y-37951254D01*
X106419600Y-38051920D01*
X107561360Y-38051920D01*
X108067443Y-37951254D01*
X108641345Y-37567785D01*
X109024814Y-36993883D01*
X109159470Y-36316920D01*
X114421490Y-36316920D01*
X114556146Y-36993883D01*
X114939615Y-37567785D01*
X115513517Y-37951254D01*
X116019600Y-38051920D01*
X117161360Y-38051920D01*
X117667443Y-37951254D01*
X118241345Y-37567785D01*
X118624814Y-36993883D01*
X118759470Y-36316920D01*
X118624814Y-35639957D01*
X118241345Y-35066055D01*
X117667443Y-34682586D01*
X117161360Y-34581920D01*
X116019600Y-34581920D01*
X115513517Y-34682586D01*
X114939615Y-35066055D01*
X114556146Y-35639957D01*
X114421490Y-36316920D01*
X109159470Y-36316920D01*
X109024814Y-35639957D01*
X108641345Y-35066055D01*
X108067443Y-34682586D01*
X107561360Y-34581920D01*
X106419600Y-34581920D01*
X105913517Y-34682586D01*
X105339615Y-35066055D01*
X104956146Y-35639957D01*
X104821490Y-36316920D01*
X103622526Y-36316920D01*
X103781838Y-36242103D01*
X104172125Y-35813844D01*
X104341956Y-35403810D01*
X104220635Y-35173920D01*
X103027480Y-35173920D01*
X102773480Y-35173920D01*
X100487480Y-35173920D01*
X100233480Y-35173920D01*
X99040325Y-35173920D01*
X98919004Y-35403810D01*
X98147026Y-35403810D01*
X97921345Y-35066055D01*
X97347443Y-34682586D01*
X96841360Y-34581920D01*
X95699600Y-34581920D01*
X95193517Y-34682586D01*
X94619615Y-35066055D01*
X94236146Y-35639957D01*
X94101490Y-36316920D01*
X88839470Y-36316920D01*
X88704814Y-35639957D01*
X88321345Y-35066055D01*
X87747443Y-34682586D01*
X87241360Y-34581920D01*
X86099600Y-34581920D01*
X85593517Y-34682586D01*
X85019615Y-35066055D01*
X84636146Y-35639957D01*
X84501490Y-36316920D01*
X82540480Y-36316920D01*
X82540480Y-32863810D01*
X98919004Y-32863810D01*
X99088835Y-33273844D01*
X99479122Y-33702103D01*
X99638434Y-33776920D01*
X99479122Y-33851737D01*
X99088835Y-34279996D01*
X98919004Y-34690030D01*
X99040325Y-34919920D01*
X100233480Y-34919920D01*
X100233480Y-32633920D01*
X100487480Y-32633920D01*
X100487480Y-34919920D01*
X102773480Y-34919920D01*
X102773480Y-32633920D01*
X103027480Y-32633920D01*
X103027480Y-34919920D01*
X104220635Y-34919920D01*
X104341956Y-34690030D01*
X104172125Y-34279996D01*
X103781838Y-33851737D01*
X103622526Y-33776920D01*
X103781838Y-33702103D01*
X104172125Y-33273844D01*
X104341956Y-32863810D01*
X104220635Y-32633920D01*
X103027480Y-32633920D01*
X102773480Y-32633920D01*
X100487480Y-32633920D01*
X100233480Y-32633920D01*
X99040325Y-32633920D01*
X98919004Y-32863810D01*
X82540480Y-32863810D01*
X82540480Y-29966920D01*
X98846388Y-29966920D01*
X98961641Y-30546338D01*
X99289855Y-31037545D01*
X99608958Y-31250763D01*
X99479122Y-31311737D01*
X99088835Y-31739996D01*
X98919004Y-32150030D01*
X99040325Y-32379920D01*
X100233480Y-32379920D01*
X100233480Y-32359920D01*
X100487480Y-32359920D01*
X100487480Y-32379920D01*
X102773480Y-32379920D01*
X102773480Y-32359920D01*
X103027480Y-32359920D01*
X103027480Y-32379920D01*
X104220635Y-32379920D01*
X104341956Y-32150030D01*
X104172125Y-31739996D01*
X103781838Y-31311737D01*
X103652002Y-31250763D01*
X103971105Y-31037545D01*
X104299319Y-30546338D01*
X104414572Y-29966920D01*
X104299319Y-29387502D01*
X103971105Y-28896295D01*
X103479898Y-28568081D01*
X103046736Y-28481920D01*
X102754224Y-28481920D01*
X102321062Y-28568081D01*
X101829855Y-28896295D01*
X101630480Y-29194681D01*
X101431105Y-28896295D01*
X100939898Y-28568081D01*
X100506736Y-28481920D01*
X100214224Y-28481920D01*
X99781062Y-28568081D01*
X99289855Y-28896295D01*
X98961641Y-29387502D01*
X98846388Y-29966920D01*
X82540480Y-29966920D01*
X82540480Y-28174920D01*
X120720481Y-28174920D01*
X120720480Y-89149705D01*
G04 #@! TD*
M02*
