G04 #@! TF.GenerationSoftware,KiCad,Pcbnew,(5.0.0)*
G04 #@! TF.CreationDate,2018-08-12T22:18:08+08:00*
G04 #@! TF.ProjectId,VCA,5643412E6B696361645F706362000000,rev?*
G04 #@! TF.SameCoordinates,PX18392c0PY18392c0*
G04 #@! TF.FileFunction,Legend,Bot*
G04 #@! TF.FilePolarity,Positive*
%FSLAX46Y46*%
G04 Gerber Fmt 4.6, Leading zero omitted, Abs format (unit mm)*
G04 Created by KiCad (PCBNEW (5.0.0)) date 08/12/18 22:18:08*
%MOMM*%
%LPD*%
G01*
G04 APERTURE LIST*
%ADD10C,0.300000*%
%ADD11C,0.250000*%
%ADD12C,0.400000*%
%ADD13C,0.120000*%
%ADD14C,0.150000*%
G04 APERTURE END LIST*
D10*
X109298428Y-58789333D02*
X107298428Y-62289333D01*
X105298428Y-58789333D01*
X99869857Y-61956000D02*
X100155571Y-62122666D01*
X101012714Y-62289333D01*
X101584142Y-62289333D01*
X102441285Y-62122666D01*
X103012714Y-61789333D01*
X103298428Y-61456000D01*
X103584142Y-60789333D01*
X103584142Y-60289333D01*
X103298428Y-59622666D01*
X103012714Y-59289333D01*
X102441285Y-58956000D01*
X101584142Y-58789333D01*
X101012714Y-58789333D01*
X100155571Y-58956000D01*
X99869857Y-59122666D01*
X97584142Y-61289333D02*
X94727000Y-61289333D01*
X98155571Y-62289333D02*
X96155571Y-58789333D01*
X94155571Y-62289333D01*
D11*
X84780380Y-45228047D02*
X84304190Y-44894714D01*
X84780380Y-44656619D02*
X83780380Y-44656619D01*
X83780380Y-45037571D01*
X83828000Y-45132809D01*
X83875619Y-45180428D01*
X83970857Y-45228047D01*
X84113714Y-45228047D01*
X84208952Y-45180428D01*
X84256571Y-45132809D01*
X84304190Y-45037571D01*
X84304190Y-44656619D01*
X84732761Y-46037571D02*
X84780380Y-45942333D01*
X84780380Y-45751857D01*
X84732761Y-45656619D01*
X84637523Y-45609000D01*
X84256571Y-45609000D01*
X84161333Y-45656619D01*
X84113714Y-45751857D01*
X84113714Y-45942333D01*
X84161333Y-46037571D01*
X84256571Y-46085190D01*
X84351809Y-46085190D01*
X84447047Y-45609000D01*
X84113714Y-46418523D02*
X84780380Y-46656619D01*
X84113714Y-46894714D01*
X84256571Y-48370904D02*
X84304190Y-48513761D01*
X84351809Y-48561380D01*
X84447047Y-48609000D01*
X84589904Y-48609000D01*
X84685142Y-48561380D01*
X84732761Y-48513761D01*
X84780380Y-48418523D01*
X84780380Y-48037571D01*
X83780380Y-48037571D01*
X83780380Y-48370904D01*
X83828000Y-48466142D01*
X83875619Y-48513761D01*
X83970857Y-48561380D01*
X84066095Y-48561380D01*
X84161333Y-48513761D01*
X84208952Y-48466142D01*
X84256571Y-48370904D01*
X84256571Y-48037571D01*
X119070476Y-39553333D02*
X119022857Y-39458095D01*
X119022857Y-39267619D01*
X119070476Y-39172380D01*
X119165714Y-39077142D01*
X119260952Y-39029523D01*
X119451428Y-39029523D01*
X119546666Y-39077142D01*
X119641904Y-39172380D01*
X119689523Y-39267619D01*
X119689523Y-39458095D01*
X119641904Y-39553333D01*
X118689523Y-39362857D02*
X118737142Y-39124761D01*
X118880000Y-38886666D01*
X119118095Y-38743809D01*
X119356190Y-38696190D01*
X119594285Y-38743809D01*
X119832380Y-38886666D01*
X119975238Y-39124761D01*
X120022857Y-39362857D01*
X119975238Y-39600952D01*
X119832380Y-39839047D01*
X119594285Y-39981904D01*
X119356190Y-40029523D01*
X119118095Y-39981904D01*
X118880000Y-39839047D01*
X118737142Y-39600952D01*
X118689523Y-39362857D01*
X119832380Y-41220000D02*
X118832380Y-41220000D01*
X119546666Y-41553333D01*
X118832380Y-41886666D01*
X119832380Y-41886666D01*
X119832380Y-42791428D02*
X119308571Y-42791428D01*
X119213333Y-42743809D01*
X119165714Y-42648571D01*
X119165714Y-42458095D01*
X119213333Y-42362857D01*
X119784761Y-42791428D02*
X119832380Y-42696190D01*
X119832380Y-42458095D01*
X119784761Y-42362857D01*
X119689523Y-42315238D01*
X119594285Y-42315238D01*
X119499047Y-42362857D01*
X119451428Y-42458095D01*
X119451428Y-42696190D01*
X119403809Y-42791428D01*
X119832380Y-43267619D02*
X119165714Y-43267619D01*
X119356190Y-43267619D02*
X119260952Y-43315238D01*
X119213333Y-43362857D01*
X119165714Y-43458095D01*
X119165714Y-43553333D01*
X119832380Y-44315238D02*
X119308571Y-44315238D01*
X119213333Y-44267619D01*
X119165714Y-44172380D01*
X119165714Y-43981904D01*
X119213333Y-43886666D01*
X119784761Y-44315238D02*
X119832380Y-44220000D01*
X119832380Y-43981904D01*
X119784761Y-43886666D01*
X119689523Y-43839047D01*
X119594285Y-43839047D01*
X119499047Y-43886666D01*
X119451428Y-43981904D01*
X119451428Y-44220000D01*
X119403809Y-44315238D01*
X119165714Y-44791428D02*
X119832380Y-44791428D01*
X119260952Y-44791428D02*
X119213333Y-44839047D01*
X119165714Y-44934285D01*
X119165714Y-45077142D01*
X119213333Y-45172380D01*
X119308571Y-45220000D01*
X119832380Y-45220000D01*
X119165714Y-46124761D02*
X119975238Y-46124761D01*
X120070476Y-46077142D01*
X120118095Y-46029523D01*
X120165714Y-45934285D01*
X120165714Y-45791428D01*
X120118095Y-45696190D01*
X119784761Y-46124761D02*
X119832380Y-46029523D01*
X119832380Y-45839047D01*
X119784761Y-45743809D01*
X119737142Y-45696190D01*
X119641904Y-45648571D01*
X119356190Y-45648571D01*
X119260952Y-45696190D01*
X119213333Y-45743809D01*
X119165714Y-45839047D01*
X119165714Y-46029523D01*
X119213333Y-46124761D01*
X119832380Y-46600952D02*
X119165714Y-46600952D01*
X118832380Y-46600952D02*
X118880000Y-46553333D01*
X118927619Y-46600952D01*
X118880000Y-46648571D01*
X118832380Y-46600952D01*
X118927619Y-46600952D01*
X119784761Y-47029523D02*
X119832380Y-47124761D01*
X119832380Y-47315238D01*
X119784761Y-47410476D01*
X119689523Y-47458095D01*
X119641904Y-47458095D01*
X119546666Y-47410476D01*
X119499047Y-47315238D01*
X119499047Y-47172380D01*
X119451428Y-47077142D01*
X119356190Y-47029523D01*
X119308571Y-47029523D01*
X119213333Y-47077142D01*
X119165714Y-47172380D01*
X119165714Y-47315238D01*
X119213333Y-47410476D01*
X119165714Y-47743809D02*
X119165714Y-48124761D01*
X118832380Y-47886666D02*
X119689523Y-47886666D01*
X119784761Y-47934285D01*
X119832380Y-48029523D01*
X119832380Y-48124761D01*
X119832380Y-48600952D02*
X119784761Y-48505714D01*
X119737142Y-48458095D01*
X119641904Y-48410476D01*
X119356190Y-48410476D01*
X119260952Y-48458095D01*
X119213333Y-48505714D01*
X119165714Y-48600952D01*
X119165714Y-48743809D01*
X119213333Y-48839047D01*
X119260952Y-48886666D01*
X119356190Y-48934285D01*
X119641904Y-48934285D01*
X119737142Y-48886666D01*
X119784761Y-48839047D01*
X119832380Y-48743809D01*
X119832380Y-48600952D01*
X118927619Y-50077142D02*
X118880000Y-50124761D01*
X118832380Y-50220000D01*
X118832380Y-50458095D01*
X118880000Y-50553333D01*
X118927619Y-50600952D01*
X119022857Y-50648571D01*
X119118095Y-50648571D01*
X119260952Y-50600952D01*
X119832380Y-50029523D01*
X119832380Y-50648571D01*
X118832380Y-51267619D02*
X118832380Y-51362857D01*
X118880000Y-51458095D01*
X118927619Y-51505714D01*
X119022857Y-51553333D01*
X119213333Y-51600952D01*
X119451428Y-51600952D01*
X119641904Y-51553333D01*
X119737142Y-51505714D01*
X119784761Y-51458095D01*
X119832380Y-51362857D01*
X119832380Y-51267619D01*
X119784761Y-51172380D01*
X119737142Y-51124761D01*
X119641904Y-51077142D01*
X119451428Y-51029523D01*
X119213333Y-51029523D01*
X119022857Y-51077142D01*
X118927619Y-51124761D01*
X118880000Y-51172380D01*
X118832380Y-51267619D01*
X119832380Y-52553333D02*
X119832380Y-51981904D01*
X119832380Y-52267619D02*
X118832380Y-52267619D01*
X118975238Y-52172380D01*
X119070476Y-52077142D01*
X119118095Y-51981904D01*
X119260952Y-53124761D02*
X119213333Y-53029523D01*
X119165714Y-52981904D01*
X119070476Y-52934285D01*
X119022857Y-52934285D01*
X118927619Y-52981904D01*
X118880000Y-53029523D01*
X118832380Y-53124761D01*
X118832380Y-53315238D01*
X118880000Y-53410476D01*
X118927619Y-53458095D01*
X119022857Y-53505714D01*
X119070476Y-53505714D01*
X119165714Y-53458095D01*
X119213333Y-53410476D01*
X119260952Y-53315238D01*
X119260952Y-53124761D01*
X119308571Y-53029523D01*
X119356190Y-52981904D01*
X119451428Y-52934285D01*
X119641904Y-52934285D01*
X119737142Y-52981904D01*
X119784761Y-53029523D01*
X119832380Y-53124761D01*
X119832380Y-53315238D01*
X119784761Y-53410476D01*
X119737142Y-53458095D01*
X119641904Y-53505714D01*
X119451428Y-53505714D01*
X119356190Y-53458095D01*
X119308571Y-53410476D01*
X119260952Y-53315238D01*
D10*
X110298428Y-54189142D02*
X110298428Y-51189142D01*
X108869857Y-51189142D01*
X108012714Y-51332000D01*
X107441285Y-51617714D01*
X107155571Y-51903428D01*
X106869857Y-52474857D01*
X106869857Y-52903428D01*
X107155571Y-53474857D01*
X107441285Y-53760571D01*
X108012714Y-54046285D01*
X108869857Y-54189142D01*
X110298428Y-54189142D01*
X101727000Y-52189142D02*
X101727000Y-54189142D01*
X104298428Y-52189142D02*
X104298428Y-53760571D01*
X104012714Y-54046285D01*
X103441285Y-54189142D01*
X102584142Y-54189142D01*
X102012714Y-54046285D01*
X101727000Y-53903428D01*
X96298428Y-54189142D02*
X96298428Y-52617714D01*
X96584142Y-52332000D01*
X97155571Y-52189142D01*
X98298428Y-52189142D01*
X98869857Y-52332000D01*
X96298428Y-54046285D02*
X96869857Y-54189142D01*
X98298428Y-54189142D01*
X98869857Y-54046285D01*
X99155571Y-53760571D01*
X99155571Y-53474857D01*
X98869857Y-53189142D01*
X98298428Y-53046285D01*
X96869857Y-53046285D01*
X96298428Y-52903428D01*
X92584142Y-54189142D02*
X93155571Y-54046285D01*
X93441285Y-53760571D01*
X93441285Y-51189142D01*
D12*
X104140000Y-42545000D02*
X99060000Y-42545000D01*
D10*
X98527857Y-40747142D02*
X97385000Y-40747142D01*
X95885000Y-41318571D02*
X96742142Y-41318571D01*
X96313571Y-41318571D02*
X96313571Y-39818571D01*
X96456428Y-40032857D01*
X96599285Y-40175714D01*
X96742142Y-40247142D01*
X95313571Y-39961428D02*
X95242142Y-39890000D01*
X95099285Y-39818571D01*
X94742142Y-39818571D01*
X94599285Y-39890000D01*
X94527857Y-39961428D01*
X94456428Y-40104285D01*
X94456428Y-40247142D01*
X94527857Y-40461428D01*
X95385000Y-41318571D01*
X94456428Y-41318571D01*
X94027857Y-39818571D02*
X93527857Y-41318571D01*
X93027857Y-39818571D01*
X110592857Y-29952142D02*
X109450000Y-29952142D01*
X110021428Y-30523571D02*
X110021428Y-29380714D01*
X107950000Y-30523571D02*
X108807142Y-30523571D01*
X108378571Y-30523571D02*
X108378571Y-29023571D01*
X108521428Y-29237857D01*
X108664285Y-29380714D01*
X108807142Y-29452142D01*
X107378571Y-29166428D02*
X107307142Y-29095000D01*
X107164285Y-29023571D01*
X106807142Y-29023571D01*
X106664285Y-29095000D01*
X106592857Y-29166428D01*
X106521428Y-29309285D01*
X106521428Y-29452142D01*
X106592857Y-29666428D01*
X107450000Y-30523571D01*
X106521428Y-30523571D01*
X106092857Y-29023571D02*
X105592857Y-30523571D01*
X105092857Y-29023571D01*
D13*
G04 #@! TO.C,D7*
X107426000Y-39202000D02*
X105426000Y-39202000D01*
X107426000Y-39202000D02*
X107426000Y-42402000D01*
X105426000Y-42402000D02*
X105426000Y-39202000D01*
G04 #@! TO.C,R28*
X107270480Y-103885498D02*
X107270480Y-103368342D01*
X108690480Y-103885498D02*
X108690480Y-103368342D01*
G04 #@! TO.C,C10*
X109950000Y-33572000D02*
X110450000Y-33572000D01*
X110200000Y-33322000D02*
X110200000Y-33822000D01*
X112955563Y-34062000D02*
X114020000Y-35126437D01*
X110564437Y-34062000D02*
X109500000Y-35126437D01*
X110564437Y-34062000D02*
X110700000Y-34062000D01*
X112955563Y-34062000D02*
X112820000Y-34062000D01*
X114020000Y-35126437D02*
X114020000Y-38582000D01*
X109500000Y-35126437D02*
X109500000Y-38582000D01*
X109500000Y-38582000D02*
X110700000Y-38582000D01*
X114020000Y-38582000D02*
X112820000Y-38582000D01*
G04 #@! TO.C,C9*
X89630000Y-33572000D02*
X90130000Y-33572000D01*
X89880000Y-33322000D02*
X89880000Y-33822000D01*
X92635563Y-34062000D02*
X93700000Y-35126437D01*
X90244437Y-34062000D02*
X89180000Y-35126437D01*
X90244437Y-34062000D02*
X90380000Y-34062000D01*
X92635563Y-34062000D02*
X92500000Y-34062000D01*
X93700000Y-35126437D02*
X93700000Y-38582000D01*
X89180000Y-35126437D02*
X89180000Y-38582000D01*
X89180000Y-38582000D02*
X90380000Y-38582000D01*
X93700000Y-38582000D02*
X92500000Y-38582000D01*
G04 #@! TO.C,C1*
X88370480Y-84318342D02*
X88370480Y-84835498D01*
X86950480Y-84318342D02*
X86950480Y-84835498D01*
G04 #@! TO.C,C2*
X116310480Y-84318342D02*
X116310480Y-84835498D01*
X114890480Y-84318342D02*
X114890480Y-84835498D01*
G04 #@! TO.C,C3*
X90760480Y-92455498D02*
X90760480Y-91938342D01*
X92180480Y-92455498D02*
X92180480Y-91938342D01*
G04 #@! TO.C,C4*
X111080480Y-92455498D02*
X111080480Y-91938342D01*
X112500480Y-92455498D02*
X112500480Y-91938342D01*
G04 #@! TO.C,C5*
X107270480Y-108965498D02*
X107270480Y-108448342D01*
X108690480Y-108965498D02*
X108690480Y-108448342D01*
G04 #@! TO.C,C6*
X94570480Y-108965498D02*
X94570480Y-108448342D01*
X95990480Y-108965498D02*
X95990480Y-108448342D01*
G04 #@! TO.C,C7*
X108690480Y-87493342D02*
X108690480Y-88010498D01*
X107270480Y-87493342D02*
X107270480Y-88010498D01*
G04 #@! TO.C,C8*
X94570480Y-88010498D02*
X94570480Y-87493342D01*
X95990480Y-88010498D02*
X95990480Y-87493342D01*
G04 #@! TO.C,C11*
X85220480Y-88516920D02*
X82480480Y-88516920D01*
X85220480Y-95956920D02*
X82480480Y-95956920D01*
X82480480Y-95956920D02*
X82480480Y-88516920D01*
X85220480Y-95956920D02*
X85220480Y-88516920D01*
G04 #@! TO.C,C13*
X120780480Y-88516920D02*
X118040480Y-88516920D01*
X120780480Y-95956920D02*
X118040480Y-95956920D01*
X118040480Y-95956920D02*
X118040480Y-88516920D01*
X120780480Y-95956920D02*
X120780480Y-88516920D01*
G04 #@! TO.C,C12*
X97950480Y-116496920D02*
X97950480Y-121236920D01*
X105390480Y-116496920D02*
X105390480Y-121236920D01*
X105390480Y-121236920D02*
X97950480Y-121236920D01*
X105390480Y-116496920D02*
X97950480Y-116496920D01*
G04 #@! TO.C,C14*
X97950480Y-121576920D02*
X97950480Y-126316920D01*
X105390480Y-121576920D02*
X105390480Y-126316920D01*
X105390480Y-126316920D02*
X97950480Y-126316920D01*
X105390480Y-121576920D02*
X97950480Y-121576920D01*
G04 #@! TO.C,J7*
X99030480Y-41456920D02*
X100360480Y-41456920D01*
X99030480Y-40126920D02*
X99030480Y-41456920D01*
X101630480Y-41456920D02*
X104230480Y-41456920D01*
X101630480Y-38856920D02*
X101630480Y-41456920D01*
X99030480Y-38856920D02*
X101630480Y-38856920D01*
X104230480Y-41456920D02*
X104230480Y-28636920D01*
X99030480Y-38856920D02*
X99030480Y-28636920D01*
X99030480Y-28636920D02*
X104230480Y-28636920D01*
G04 #@! TO.C,D6*
X94280480Y-33436920D02*
X96280480Y-33436920D01*
X94280480Y-33436920D02*
X94280480Y-30236920D01*
X96280480Y-30236920D02*
X96280480Y-33436920D01*
G04 #@! TO.C,D1*
X86660480Y-91901920D02*
X86660480Y-95751920D01*
X88660480Y-91901920D02*
X88660480Y-95751920D01*
X86660480Y-91901920D02*
X88660480Y-91901920D01*
G04 #@! TO.C,D2*
X114600480Y-91901920D02*
X114600480Y-95751920D01*
X116600480Y-91901920D02*
X116600480Y-95751920D01*
X114600480Y-91901920D02*
X116600480Y-91901920D01*
G04 #@! TO.C,D5*
X101900480Y-96346920D02*
X101900480Y-100196920D01*
X103900480Y-96346920D02*
X103900480Y-100196920D01*
X101900480Y-96346920D02*
X103900480Y-96346920D01*
D14*
G04 #@! TO.C,U1*
X99555480Y-92811920D02*
X98180480Y-92811920D01*
X99555480Y-83936920D02*
X103705480Y-83936920D01*
X99555480Y-92836920D02*
X103705480Y-92836920D01*
X99555480Y-83936920D02*
X99555480Y-84051920D01*
X103705480Y-83936920D02*
X103705480Y-84051920D01*
X103705480Y-92836920D02*
X103705480Y-92721920D01*
X99555480Y-92836920D02*
X99555480Y-92811920D01*
G04 #@! TO.C,U2*
X103705480Y-103656920D02*
X105080480Y-103656920D01*
X103705480Y-113781920D02*
X99555480Y-113781920D01*
X103705480Y-103631920D02*
X99555480Y-103631920D01*
X103705480Y-113781920D02*
X103705480Y-113676920D01*
X99555480Y-113781920D02*
X99555480Y-113676920D01*
X99555480Y-103631920D02*
X99555480Y-103736920D01*
X103705480Y-103631920D02*
X103705480Y-103656920D01*
D13*
G04 #@! TO.C,RV5*
X86985000Y-107510000D02*
X81915000Y-107510000D01*
X86985000Y-117280000D02*
X81915000Y-117280000D01*
X81915000Y-117280000D02*
X81915000Y-107510000D01*
X86985000Y-117280000D02*
X86985000Y-107510000D01*
G04 #@! TO.C,RV6*
X121275000Y-107510000D02*
X116205000Y-107510000D01*
X121275000Y-117280000D02*
X116205000Y-117280000D01*
X116205000Y-117280000D02*
X116205000Y-107510000D01*
X121275000Y-117280000D02*
X121275000Y-107510000D01*
G04 #@! TO.C,RV3*
X86985000Y-97350000D02*
X81915000Y-97350000D01*
X86985000Y-107120000D02*
X81915000Y-107120000D01*
X81915000Y-107120000D02*
X81915000Y-97350000D01*
X86985000Y-107120000D02*
X86985000Y-97350000D01*
G04 #@! TO.C,RV4*
X121275000Y-97350000D02*
X116205000Y-97350000D01*
X121275000Y-107120000D02*
X116205000Y-107120000D01*
X116205000Y-107120000D02*
X116205000Y-97350000D01*
X121275000Y-107120000D02*
X121275000Y-97350000D01*
G04 #@! TO.C,R10*
X112985480Y-48640498D02*
X112985480Y-48123342D01*
X114405480Y-48640498D02*
X114405480Y-48123342D01*
G04 #@! TO.C,R30*
X90730000Y-106938578D02*
X90730000Y-106421422D01*
X92150000Y-106938578D02*
X92150000Y-106421422D01*
G04 #@! TO.C,R27*
X94570480Y-103885498D02*
X94570480Y-103368342D01*
X95990480Y-103885498D02*
X95990480Y-103368342D01*
G04 #@! TO.C,R25*
X87555000Y-99318578D02*
X87555000Y-98801422D01*
X88975000Y-99318578D02*
X88975000Y-98801422D01*
G04 #@! TO.C,R29*
X88975000Y-106421422D02*
X88975000Y-106938578D01*
X87555000Y-106421422D02*
X87555000Y-106938578D01*
G04 #@! TO.C,R31*
X115645000Y-106421422D02*
X115645000Y-106938578D01*
X114225000Y-106421422D02*
X114225000Y-106938578D01*
G04 #@! TO.C,R32*
X111050000Y-106938578D02*
X111050000Y-106421422D01*
X112470000Y-106938578D02*
X112470000Y-106421422D01*
G04 #@! TO.C,R33*
X95990480Y-113528342D02*
X95990480Y-114045498D01*
X94570480Y-113528342D02*
X94570480Y-114045498D01*
G04 #@! TO.C,R8*
X107270480Y-82930498D02*
X107270480Y-82413342D01*
X108690480Y-82930498D02*
X108690480Y-82413342D01*
G04 #@! TO.C,R35*
X94570480Y-119125498D02*
X94570480Y-118608342D01*
X95990480Y-119125498D02*
X95990480Y-118608342D01*
G04 #@! TO.C,R36*
X107270480Y-119125498D02*
X107270480Y-118608342D01*
X108690480Y-119125498D02*
X108690480Y-118608342D01*
G04 #@! TO.C,R37*
X84560480Y-85588342D02*
X84560480Y-86105498D01*
X83140480Y-85588342D02*
X83140480Y-86105498D01*
G04 #@! TO.C,R38*
X92180480Y-118608342D02*
X92180480Y-119125498D01*
X90760480Y-118608342D02*
X90760480Y-119125498D01*
G04 #@! TO.C,R39*
X120120480Y-85588342D02*
X120120480Y-86105498D01*
X118700480Y-85588342D02*
X118700480Y-86105498D01*
G04 #@! TO.C,R40*
X112500480Y-118608342D02*
X112500480Y-119125498D01*
X111080480Y-118608342D02*
X111080480Y-119125498D01*
G04 #@! TO.C,R26*
X114225000Y-99318578D02*
X114225000Y-98801422D01*
X115645000Y-99318578D02*
X115645000Y-98801422D01*
G04 #@! TO.C,R21*
X83140480Y-68325498D02*
X83140480Y-67808342D01*
X84560480Y-68325498D02*
X84560480Y-67808342D01*
G04 #@! TO.C,R20*
X108690480Y-72253342D02*
X108690480Y-72770498D01*
X107270480Y-72253342D02*
X107270480Y-72770498D01*
G04 #@! TO.C,R19*
X95990480Y-72253342D02*
X95990480Y-72770498D01*
X94570480Y-72253342D02*
X94570480Y-72770498D01*
G04 #@! TO.C,R34*
X108690480Y-113528342D02*
X108690480Y-114045498D01*
X107270480Y-113528342D02*
X107270480Y-114045498D01*
G04 #@! TO.C,R17*
X94570480Y-68325498D02*
X94570480Y-67808342D01*
X95990480Y-68325498D02*
X95990480Y-67808342D01*
G04 #@! TO.C,R16*
X107270480Y-98170498D02*
X107270480Y-97653342D01*
X108690480Y-98170498D02*
X108690480Y-97653342D01*
G04 #@! TO.C,R15*
X94570480Y-98170498D02*
X94570480Y-97653342D01*
X95990480Y-98170498D02*
X95990480Y-97653342D01*
G04 #@! TO.C,R14*
X114890480Y-89280498D02*
X114890480Y-88763342D01*
X116310480Y-89280498D02*
X116310480Y-88763342D01*
G04 #@! TO.C,R13*
X107270480Y-93090498D02*
X107270480Y-92573342D01*
X108690480Y-93090498D02*
X108690480Y-92573342D01*
G04 #@! TO.C,R12*
X86950480Y-89280498D02*
X86950480Y-88763342D01*
X88370480Y-89280498D02*
X88370480Y-88763342D01*
G04 #@! TO.C,R11*
X94570480Y-93090498D02*
X94570480Y-92573342D01*
X95990480Y-93090498D02*
X95990480Y-92573342D01*
G04 #@! TO.C,R23*
X95990480Y-77333342D02*
X95990480Y-77850498D01*
X94570480Y-77333342D02*
X94570480Y-77850498D01*
G04 #@! TO.C,R24*
X108690480Y-77333342D02*
X108690480Y-77850498D01*
X107270480Y-77333342D02*
X107270480Y-77850498D01*
G04 #@! TO.C,R18*
X107270480Y-68325498D02*
X107270480Y-67808342D01*
X108690480Y-68325498D02*
X108690480Y-67808342D01*
G04 #@! TO.C,R7*
X94570480Y-82930498D02*
X94570480Y-82413342D01*
X95990480Y-82930498D02*
X95990480Y-82413342D01*
G04 #@! TO.C,R6*
X116310480Y-67808342D02*
X116310480Y-68325498D01*
X114890480Y-67808342D02*
X114890480Y-68325498D01*
G04 #@! TO.C,R5*
X109175480Y-48640498D02*
X109175480Y-48123342D01*
X110595480Y-48640498D02*
X110595480Y-48123342D01*
G04 #@! TO.C,R4*
X111080480Y-68325498D02*
X111080480Y-67808342D01*
X112500480Y-68325498D02*
X112500480Y-67808342D01*
G04 #@! TO.C,R3*
X86950480Y-68325498D02*
X86950480Y-67808342D01*
X88370480Y-68325498D02*
X88370480Y-67808342D01*
G04 #@! TO.C,R2*
X88855480Y-48640498D02*
X88855480Y-48123342D01*
X90275480Y-48640498D02*
X90275480Y-48123342D01*
G04 #@! TO.C,R1*
X90760480Y-68325498D02*
X90760480Y-67808342D01*
X92180480Y-68325498D02*
X92180480Y-67808342D01*
G04 #@! TO.C,R22*
X118700480Y-68325498D02*
X118700480Y-67808342D01*
X120120480Y-68325498D02*
X120120480Y-67808342D01*
G04 #@! TO.C,R9*
X92665480Y-48640498D02*
X92665480Y-48123342D01*
X94085480Y-48640498D02*
X94085480Y-48123342D01*
G04 #@! TO.C,D7*
D14*
X109037380Y-40536904D02*
X108037380Y-40536904D01*
X108037380Y-40775000D01*
X108085000Y-40917857D01*
X108180238Y-41013095D01*
X108275476Y-41060714D01*
X108465952Y-41108333D01*
X108608809Y-41108333D01*
X108799285Y-41060714D01*
X108894523Y-41013095D01*
X108989761Y-40917857D01*
X109037380Y-40775000D01*
X109037380Y-40536904D01*
X108037380Y-41441666D02*
X108037380Y-42108333D01*
X109037380Y-41679761D01*
G04 #@! TO.C,R28*
X110082860Y-102984062D02*
X109606670Y-102650729D01*
X110082860Y-102412634D02*
X109082860Y-102412634D01*
X109082860Y-102793586D01*
X109130480Y-102888824D01*
X109178099Y-102936443D01*
X109273337Y-102984062D01*
X109416194Y-102984062D01*
X109511432Y-102936443D01*
X109559051Y-102888824D01*
X109606670Y-102793586D01*
X109606670Y-102412634D01*
X109178099Y-103365015D02*
X109130480Y-103412634D01*
X109082860Y-103507872D01*
X109082860Y-103745967D01*
X109130480Y-103841205D01*
X109178099Y-103888824D01*
X109273337Y-103936443D01*
X109368575Y-103936443D01*
X109511432Y-103888824D01*
X110082860Y-103317396D01*
X110082860Y-103936443D01*
X109511432Y-104507872D02*
X109463813Y-104412634D01*
X109416194Y-104365015D01*
X109320956Y-104317396D01*
X109273337Y-104317396D01*
X109178099Y-104365015D01*
X109130480Y-104412634D01*
X109082860Y-104507872D01*
X109082860Y-104698348D01*
X109130480Y-104793586D01*
X109178099Y-104841205D01*
X109273337Y-104888824D01*
X109320956Y-104888824D01*
X109416194Y-104841205D01*
X109463813Y-104793586D01*
X109511432Y-104698348D01*
X109511432Y-104507872D01*
X109559051Y-104412634D01*
X109606670Y-104365015D01*
X109701908Y-104317396D01*
X109892384Y-104317396D01*
X109987622Y-104365015D01*
X110035241Y-104412634D01*
X110082860Y-104507872D01*
X110082860Y-104698348D01*
X110035241Y-104793586D01*
X109987622Y-104841205D01*
X109892384Y-104888824D01*
X109701908Y-104888824D01*
X109606670Y-104841205D01*
X109559051Y-104793586D01*
X109511432Y-104698348D01*
G04 #@! TO.C,C10*
X114657142Y-31742142D02*
X114704761Y-31694523D01*
X114752380Y-31551666D01*
X114752380Y-31456428D01*
X114704761Y-31313571D01*
X114609523Y-31218333D01*
X114514285Y-31170714D01*
X114323809Y-31123095D01*
X114180952Y-31123095D01*
X113990476Y-31170714D01*
X113895238Y-31218333D01*
X113800000Y-31313571D01*
X113752380Y-31456428D01*
X113752380Y-31551666D01*
X113800000Y-31694523D01*
X113847619Y-31742142D01*
X114752380Y-32694523D02*
X114752380Y-32123095D01*
X114752380Y-32408809D02*
X113752380Y-32408809D01*
X113895238Y-32313571D01*
X113990476Y-32218333D01*
X114038095Y-32123095D01*
X113752380Y-33313571D02*
X113752380Y-33408809D01*
X113800000Y-33504047D01*
X113847619Y-33551666D01*
X113942857Y-33599285D01*
X114133333Y-33646904D01*
X114371428Y-33646904D01*
X114561904Y-33599285D01*
X114657142Y-33551666D01*
X114704761Y-33504047D01*
X114752380Y-33408809D01*
X114752380Y-33313571D01*
X114704761Y-33218333D01*
X114657142Y-33170714D01*
X114561904Y-33123095D01*
X114371428Y-33075476D01*
X114133333Y-33075476D01*
X113942857Y-33123095D01*
X113847619Y-33170714D01*
X113800000Y-33218333D01*
X113752380Y-33313571D01*
G04 #@! TO.C,C9*
X89257142Y-32218333D02*
X89304761Y-32170714D01*
X89352380Y-32027857D01*
X89352380Y-31932619D01*
X89304761Y-31789761D01*
X89209523Y-31694523D01*
X89114285Y-31646904D01*
X88923809Y-31599285D01*
X88780952Y-31599285D01*
X88590476Y-31646904D01*
X88495238Y-31694523D01*
X88400000Y-31789761D01*
X88352380Y-31932619D01*
X88352380Y-32027857D01*
X88400000Y-32170714D01*
X88447619Y-32218333D01*
X89352380Y-32694523D02*
X89352380Y-32885000D01*
X89304761Y-32980238D01*
X89257142Y-33027857D01*
X89114285Y-33123095D01*
X88923809Y-33170714D01*
X88542857Y-33170714D01*
X88447619Y-33123095D01*
X88400000Y-33075476D01*
X88352380Y-32980238D01*
X88352380Y-32789761D01*
X88400000Y-32694523D01*
X88447619Y-32646904D01*
X88542857Y-32599285D01*
X88780952Y-32599285D01*
X88876190Y-32646904D01*
X88923809Y-32694523D01*
X88971428Y-32789761D01*
X88971428Y-32980238D01*
X88923809Y-33075476D01*
X88876190Y-33123095D01*
X88780952Y-33170714D01*
G04 #@! TO.C,C1*
X90019142Y-84288333D02*
X90066761Y-84240714D01*
X90114380Y-84097857D01*
X90114380Y-84002619D01*
X90066761Y-83859761D01*
X89971523Y-83764523D01*
X89876285Y-83716904D01*
X89685809Y-83669285D01*
X89542952Y-83669285D01*
X89352476Y-83716904D01*
X89257238Y-83764523D01*
X89162000Y-83859761D01*
X89114380Y-84002619D01*
X89114380Y-84097857D01*
X89162000Y-84240714D01*
X89209619Y-84288333D01*
X90114380Y-85240714D02*
X90114380Y-84669285D01*
X90114380Y-84955000D02*
X89114380Y-84955000D01*
X89257238Y-84859761D01*
X89352476Y-84764523D01*
X89400095Y-84669285D01*
G04 #@! TO.C,C2*
X114307622Y-84410253D02*
X114355241Y-84362634D01*
X114402860Y-84219777D01*
X114402860Y-84124539D01*
X114355241Y-83981681D01*
X114260003Y-83886443D01*
X114164765Y-83838824D01*
X113974289Y-83791205D01*
X113831432Y-83791205D01*
X113640956Y-83838824D01*
X113545718Y-83886443D01*
X113450480Y-83981681D01*
X113402860Y-84124539D01*
X113402860Y-84219777D01*
X113450480Y-84362634D01*
X113498099Y-84410253D01*
X113498099Y-84791205D02*
X113450480Y-84838824D01*
X113402860Y-84934062D01*
X113402860Y-85172158D01*
X113450480Y-85267396D01*
X113498099Y-85315015D01*
X113593337Y-85362634D01*
X113688575Y-85362634D01*
X113831432Y-85315015D01*
X114402860Y-84743586D01*
X114402860Y-85362634D01*
G04 #@! TO.C,C3*
X93477622Y-92030253D02*
X93525241Y-91982634D01*
X93572860Y-91839777D01*
X93572860Y-91744539D01*
X93525241Y-91601681D01*
X93430003Y-91506443D01*
X93334765Y-91458824D01*
X93144289Y-91411205D01*
X93001432Y-91411205D01*
X92810956Y-91458824D01*
X92715718Y-91506443D01*
X92620480Y-91601681D01*
X92572860Y-91744539D01*
X92572860Y-91839777D01*
X92620480Y-91982634D01*
X92668099Y-92030253D01*
X92572860Y-92363586D02*
X92572860Y-92982634D01*
X92953813Y-92649300D01*
X92953813Y-92792158D01*
X93001432Y-92887396D01*
X93049051Y-92935015D01*
X93144289Y-92982634D01*
X93382384Y-92982634D01*
X93477622Y-92935015D01*
X93525241Y-92887396D01*
X93572860Y-92792158D01*
X93572860Y-92506443D01*
X93525241Y-92411205D01*
X93477622Y-92363586D01*
G04 #@! TO.C,C4*
X112117142Y-89368333D02*
X112164761Y-89320714D01*
X112212380Y-89177857D01*
X112212380Y-89082619D01*
X112164761Y-88939761D01*
X112069523Y-88844523D01*
X111974285Y-88796904D01*
X111783809Y-88749285D01*
X111640952Y-88749285D01*
X111450476Y-88796904D01*
X111355238Y-88844523D01*
X111260000Y-88939761D01*
X111212380Y-89082619D01*
X111212380Y-89177857D01*
X111260000Y-89320714D01*
X111307619Y-89368333D01*
X111545714Y-90225476D02*
X112212380Y-90225476D01*
X111164761Y-89987380D02*
X111879047Y-89749285D01*
X111879047Y-90368333D01*
G04 #@! TO.C,C5*
X109987622Y-108540253D02*
X110035241Y-108492634D01*
X110082860Y-108349777D01*
X110082860Y-108254539D01*
X110035241Y-108111681D01*
X109940003Y-108016443D01*
X109844765Y-107968824D01*
X109654289Y-107921205D01*
X109511432Y-107921205D01*
X109320956Y-107968824D01*
X109225718Y-108016443D01*
X109130480Y-108111681D01*
X109082860Y-108254539D01*
X109082860Y-108349777D01*
X109130480Y-108492634D01*
X109178099Y-108540253D01*
X109082860Y-109445015D02*
X109082860Y-108968824D01*
X109559051Y-108921205D01*
X109511432Y-108968824D01*
X109463813Y-109064062D01*
X109463813Y-109302158D01*
X109511432Y-109397396D01*
X109559051Y-109445015D01*
X109654289Y-109492634D01*
X109892384Y-109492634D01*
X109987622Y-109445015D01*
X110035241Y-109397396D01*
X110082860Y-109302158D01*
X110082860Y-109064062D01*
X110035241Y-108968824D01*
X109987622Y-108921205D01*
G04 #@! TO.C,C6*
X97287622Y-108540253D02*
X97335241Y-108492634D01*
X97382860Y-108349777D01*
X97382860Y-108254539D01*
X97335241Y-108111681D01*
X97240003Y-108016443D01*
X97144765Y-107968824D01*
X96954289Y-107921205D01*
X96811432Y-107921205D01*
X96620956Y-107968824D01*
X96525718Y-108016443D01*
X96430480Y-108111681D01*
X96382860Y-108254539D01*
X96382860Y-108349777D01*
X96430480Y-108492634D01*
X96478099Y-108540253D01*
X96382860Y-109397396D02*
X96382860Y-109206920D01*
X96430480Y-109111681D01*
X96478099Y-109064062D01*
X96620956Y-108968824D01*
X96811432Y-108921205D01*
X97192384Y-108921205D01*
X97287622Y-108968824D01*
X97335241Y-109016443D01*
X97382860Y-109111681D01*
X97382860Y-109302158D01*
X97335241Y-109397396D01*
X97287622Y-109445015D01*
X97192384Y-109492634D01*
X96954289Y-109492634D01*
X96859051Y-109445015D01*
X96811432Y-109397396D01*
X96763813Y-109302158D01*
X96763813Y-109111681D01*
X96811432Y-109016443D01*
X96859051Y-108968824D01*
X96954289Y-108921205D01*
G04 #@! TO.C,C7*
X106687622Y-87585253D02*
X106735241Y-87537634D01*
X106782860Y-87394777D01*
X106782860Y-87299539D01*
X106735241Y-87156681D01*
X106640003Y-87061443D01*
X106544765Y-87013824D01*
X106354289Y-86966205D01*
X106211432Y-86966205D01*
X106020956Y-87013824D01*
X105925718Y-87061443D01*
X105830480Y-87156681D01*
X105782860Y-87299539D01*
X105782860Y-87394777D01*
X105830480Y-87537634D01*
X105878099Y-87585253D01*
X105782860Y-87918586D02*
X105782860Y-88585253D01*
X106782860Y-88156681D01*
G04 #@! TO.C,C8*
X97287622Y-87585253D02*
X97335241Y-87537634D01*
X97382860Y-87394777D01*
X97382860Y-87299539D01*
X97335241Y-87156681D01*
X97240003Y-87061443D01*
X97144765Y-87013824D01*
X96954289Y-86966205D01*
X96811432Y-86966205D01*
X96620956Y-87013824D01*
X96525718Y-87061443D01*
X96430480Y-87156681D01*
X96382860Y-87299539D01*
X96382860Y-87394777D01*
X96430480Y-87537634D01*
X96478099Y-87585253D01*
X96811432Y-88156681D02*
X96763813Y-88061443D01*
X96716194Y-88013824D01*
X96620956Y-87966205D01*
X96573337Y-87966205D01*
X96478099Y-88013824D01*
X96430480Y-88061443D01*
X96382860Y-88156681D01*
X96382860Y-88347158D01*
X96430480Y-88442396D01*
X96478099Y-88490015D01*
X96573337Y-88537634D01*
X96620956Y-88537634D01*
X96716194Y-88490015D01*
X96763813Y-88442396D01*
X96811432Y-88347158D01*
X96811432Y-88156681D01*
X96859051Y-88061443D01*
X96906670Y-88013824D01*
X97001908Y-87966205D01*
X97192384Y-87966205D01*
X97287622Y-88013824D01*
X97335241Y-88061443D01*
X97382860Y-88156681D01*
X97382860Y-88347158D01*
X97335241Y-88442396D01*
X97287622Y-88490015D01*
X97192384Y-88537634D01*
X97001908Y-88537634D01*
X96906670Y-88490015D01*
X96859051Y-88442396D01*
X96811432Y-88347158D01*
G04 #@! TO.C,C11*
X84177142Y-91432142D02*
X84224761Y-91384523D01*
X84272380Y-91241666D01*
X84272380Y-91146428D01*
X84224761Y-91003571D01*
X84129523Y-90908333D01*
X84034285Y-90860714D01*
X83843809Y-90813095D01*
X83700952Y-90813095D01*
X83510476Y-90860714D01*
X83415238Y-90908333D01*
X83320000Y-91003571D01*
X83272380Y-91146428D01*
X83272380Y-91241666D01*
X83320000Y-91384523D01*
X83367619Y-91432142D01*
X84272380Y-92384523D02*
X84272380Y-91813095D01*
X84272380Y-92098809D02*
X83272380Y-92098809D01*
X83415238Y-92003571D01*
X83510476Y-91908333D01*
X83558095Y-91813095D01*
X84272380Y-93336904D02*
X84272380Y-92765476D01*
X84272380Y-93051190D02*
X83272380Y-93051190D01*
X83415238Y-92955952D01*
X83510476Y-92860714D01*
X83558095Y-92765476D01*
G04 #@! TO.C,C13*
X119737142Y-91432142D02*
X119784761Y-91384523D01*
X119832380Y-91241666D01*
X119832380Y-91146428D01*
X119784761Y-91003571D01*
X119689523Y-90908333D01*
X119594285Y-90860714D01*
X119403809Y-90813095D01*
X119260952Y-90813095D01*
X119070476Y-90860714D01*
X118975238Y-90908333D01*
X118880000Y-91003571D01*
X118832380Y-91146428D01*
X118832380Y-91241666D01*
X118880000Y-91384523D01*
X118927619Y-91432142D01*
X119832380Y-92384523D02*
X119832380Y-91813095D01*
X119832380Y-92098809D02*
X118832380Y-92098809D01*
X118975238Y-92003571D01*
X119070476Y-91908333D01*
X119118095Y-91813095D01*
X118832380Y-92717857D02*
X118832380Y-93336904D01*
X119213333Y-93003571D01*
X119213333Y-93146428D01*
X119260952Y-93241666D01*
X119308571Y-93289285D01*
X119403809Y-93336904D01*
X119641904Y-93336904D01*
X119737142Y-93289285D01*
X119784761Y-93241666D01*
X119832380Y-93146428D01*
X119832380Y-92860714D01*
X119784761Y-92765476D01*
X119737142Y-92717857D01*
G04 #@! TO.C,C12*
X102084142Y-117975142D02*
X102131761Y-117927523D01*
X102179380Y-117784666D01*
X102179380Y-117689428D01*
X102131761Y-117546571D01*
X102036523Y-117451333D01*
X101941285Y-117403714D01*
X101750809Y-117356095D01*
X101607952Y-117356095D01*
X101417476Y-117403714D01*
X101322238Y-117451333D01*
X101227000Y-117546571D01*
X101179380Y-117689428D01*
X101179380Y-117784666D01*
X101227000Y-117927523D01*
X101274619Y-117975142D01*
X102179380Y-118927523D02*
X102179380Y-118356095D01*
X102179380Y-118641809D02*
X101179380Y-118641809D01*
X101322238Y-118546571D01*
X101417476Y-118451333D01*
X101465095Y-118356095D01*
X101274619Y-119308476D02*
X101227000Y-119356095D01*
X101179380Y-119451333D01*
X101179380Y-119689428D01*
X101227000Y-119784666D01*
X101274619Y-119832285D01*
X101369857Y-119879904D01*
X101465095Y-119879904D01*
X101607952Y-119832285D01*
X102179380Y-119260857D01*
X102179380Y-119879904D01*
G04 #@! TO.C,C14*
X102084142Y-123055142D02*
X102131761Y-123007523D01*
X102179380Y-122864666D01*
X102179380Y-122769428D01*
X102131761Y-122626571D01*
X102036523Y-122531333D01*
X101941285Y-122483714D01*
X101750809Y-122436095D01*
X101607952Y-122436095D01*
X101417476Y-122483714D01*
X101322238Y-122531333D01*
X101227000Y-122626571D01*
X101179380Y-122769428D01*
X101179380Y-122864666D01*
X101227000Y-123007523D01*
X101274619Y-123055142D01*
X102179380Y-124007523D02*
X102179380Y-123436095D01*
X102179380Y-123721809D02*
X101179380Y-123721809D01*
X101322238Y-123626571D01*
X101417476Y-123531333D01*
X101465095Y-123436095D01*
X101512714Y-124864666D02*
X102179380Y-124864666D01*
X101131761Y-124626571D02*
X101846047Y-124388476D01*
X101846047Y-125007523D01*
G04 #@! TO.C,J7*
X104862380Y-32686666D02*
X105576666Y-32686666D01*
X105719523Y-32639047D01*
X105814761Y-32543809D01*
X105862380Y-32400952D01*
X105862380Y-32305714D01*
X104862380Y-33067619D02*
X104862380Y-33734285D01*
X105862380Y-33305714D01*
G04 #@! TO.C,D6*
X97732860Y-30498824D02*
X96732860Y-30498824D01*
X96732860Y-30736920D01*
X96780480Y-30879777D01*
X96875718Y-30975015D01*
X96970956Y-31022634D01*
X97161432Y-31070253D01*
X97304289Y-31070253D01*
X97494765Y-31022634D01*
X97590003Y-30975015D01*
X97685241Y-30879777D01*
X97732860Y-30736920D01*
X97732860Y-30498824D01*
X96732860Y-31927396D02*
X96732860Y-31736920D01*
X96780480Y-31641681D01*
X96828099Y-31594062D01*
X96970956Y-31498824D01*
X97161432Y-31451205D01*
X97542384Y-31451205D01*
X97637622Y-31498824D01*
X97685241Y-31546443D01*
X97732860Y-31641681D01*
X97732860Y-31832158D01*
X97685241Y-31927396D01*
X97637622Y-31975015D01*
X97542384Y-32022634D01*
X97304289Y-32022634D01*
X97209051Y-31975015D01*
X97161432Y-31927396D01*
X97113813Y-31832158D01*
X97113813Y-31641681D01*
X97161432Y-31546443D01*
X97209051Y-31498824D01*
X97304289Y-31451205D01*
G04 #@! TO.C,D1*
X89987380Y-93114904D02*
X88987380Y-93114904D01*
X88987380Y-93353000D01*
X89035000Y-93495857D01*
X89130238Y-93591095D01*
X89225476Y-93638714D01*
X89415952Y-93686333D01*
X89558809Y-93686333D01*
X89749285Y-93638714D01*
X89844523Y-93591095D01*
X89939761Y-93495857D01*
X89987380Y-93353000D01*
X89987380Y-93114904D01*
X89987380Y-94638714D02*
X89987380Y-94067285D01*
X89987380Y-94353000D02*
X88987380Y-94353000D01*
X89130238Y-94257761D01*
X89225476Y-94162523D01*
X89273095Y-94067285D01*
G04 #@! TO.C,D2*
X114147860Y-93236824D02*
X113147860Y-93236824D01*
X113147860Y-93474920D01*
X113195480Y-93617777D01*
X113290718Y-93713015D01*
X113385956Y-93760634D01*
X113576432Y-93808253D01*
X113719289Y-93808253D01*
X113909765Y-93760634D01*
X114005003Y-93713015D01*
X114100241Y-93617777D01*
X114147860Y-93474920D01*
X114147860Y-93236824D01*
X113243099Y-94189205D02*
X113195480Y-94236824D01*
X113147860Y-94332062D01*
X113147860Y-94570158D01*
X113195480Y-94665396D01*
X113243099Y-94713015D01*
X113338337Y-94760634D01*
X113433575Y-94760634D01*
X113576432Y-94713015D01*
X114147860Y-94141586D01*
X114147860Y-94760634D01*
G04 #@! TO.C,D5*
X101447860Y-97681824D02*
X100447860Y-97681824D01*
X100447860Y-97919920D01*
X100495480Y-98062777D01*
X100590718Y-98158015D01*
X100685956Y-98205634D01*
X100876432Y-98253253D01*
X101019289Y-98253253D01*
X101209765Y-98205634D01*
X101305003Y-98158015D01*
X101400241Y-98062777D01*
X101447860Y-97919920D01*
X101447860Y-97681824D01*
X100447860Y-99158015D02*
X100447860Y-98681824D01*
X100924051Y-98634205D01*
X100876432Y-98681824D01*
X100828813Y-98777062D01*
X100828813Y-99015158D01*
X100876432Y-99110396D01*
X100924051Y-99158015D01*
X101019289Y-99205634D01*
X101257384Y-99205634D01*
X101352622Y-99158015D01*
X101400241Y-99110396D01*
X101447860Y-99015158D01*
X101447860Y-98777062D01*
X101400241Y-98681824D01*
X101352622Y-98634205D01*
G04 #@! TO.C,U1*
X101052380Y-93853095D02*
X101861904Y-93853095D01*
X101957142Y-93900714D01*
X102004761Y-93948333D01*
X102052380Y-94043571D01*
X102052380Y-94234047D01*
X102004761Y-94329285D01*
X101957142Y-94376904D01*
X101861904Y-94424523D01*
X101052380Y-94424523D01*
X102052380Y-95424523D02*
X102052380Y-94853095D01*
X102052380Y-95138809D02*
X101052380Y-95138809D01*
X101195238Y-95043571D01*
X101290476Y-94948333D01*
X101338095Y-94853095D01*
G04 #@! TO.C,U2*
X101052380Y-101473095D02*
X101861904Y-101473095D01*
X101957142Y-101520714D01*
X102004761Y-101568333D01*
X102052380Y-101663571D01*
X102052380Y-101854047D01*
X102004761Y-101949285D01*
X101957142Y-101996904D01*
X101861904Y-102044523D01*
X101052380Y-102044523D01*
X101147619Y-102473095D02*
X101100000Y-102520714D01*
X101052380Y-102615952D01*
X101052380Y-102854047D01*
X101100000Y-102949285D01*
X101147619Y-102996904D01*
X101242857Y-103044523D01*
X101338095Y-103044523D01*
X101480952Y-102996904D01*
X102052380Y-102425476D01*
X102052380Y-103044523D01*
G04 #@! TO.C,RV5*
X88567380Y-111799761D02*
X88091190Y-111466428D01*
X88567380Y-111228333D02*
X87567380Y-111228333D01*
X87567380Y-111609285D01*
X87615000Y-111704523D01*
X87662619Y-111752142D01*
X87757857Y-111799761D01*
X87900714Y-111799761D01*
X87995952Y-111752142D01*
X88043571Y-111704523D01*
X88091190Y-111609285D01*
X88091190Y-111228333D01*
X87567380Y-112085476D02*
X88567380Y-112418809D01*
X87567380Y-112752142D01*
X87567380Y-113561666D02*
X87567380Y-113085476D01*
X88043571Y-113037857D01*
X87995952Y-113085476D01*
X87948333Y-113180714D01*
X87948333Y-113418809D01*
X87995952Y-113514047D01*
X88043571Y-113561666D01*
X88138809Y-113609285D01*
X88376904Y-113609285D01*
X88472142Y-113561666D01*
X88519761Y-113514047D01*
X88567380Y-113418809D01*
X88567380Y-113180714D01*
X88519761Y-113085476D01*
X88472142Y-113037857D01*
G04 #@! TO.C,RV6*
X115387380Y-112434761D02*
X114911190Y-112101428D01*
X115387380Y-111863333D02*
X114387380Y-111863333D01*
X114387380Y-112244285D01*
X114435000Y-112339523D01*
X114482619Y-112387142D01*
X114577857Y-112434761D01*
X114720714Y-112434761D01*
X114815952Y-112387142D01*
X114863571Y-112339523D01*
X114911190Y-112244285D01*
X114911190Y-111863333D01*
X114387380Y-112720476D02*
X115387380Y-113053809D01*
X114387380Y-113387142D01*
X114387380Y-114149047D02*
X114387380Y-113958571D01*
X114435000Y-113863333D01*
X114482619Y-113815714D01*
X114625476Y-113720476D01*
X114815952Y-113672857D01*
X115196904Y-113672857D01*
X115292142Y-113720476D01*
X115339761Y-113768095D01*
X115387380Y-113863333D01*
X115387380Y-114053809D01*
X115339761Y-114149047D01*
X115292142Y-114196666D01*
X115196904Y-114244285D01*
X114958809Y-114244285D01*
X114863571Y-114196666D01*
X114815952Y-114149047D01*
X114768333Y-114053809D01*
X114768333Y-113863333D01*
X114815952Y-113768095D01*
X114863571Y-113720476D01*
X114958809Y-113672857D01*
G04 #@! TO.C,RV3*
X88567380Y-101639761D02*
X88091190Y-101306428D01*
X88567380Y-101068333D02*
X87567380Y-101068333D01*
X87567380Y-101449285D01*
X87615000Y-101544523D01*
X87662619Y-101592142D01*
X87757857Y-101639761D01*
X87900714Y-101639761D01*
X87995952Y-101592142D01*
X88043571Y-101544523D01*
X88091190Y-101449285D01*
X88091190Y-101068333D01*
X87567380Y-101925476D02*
X88567380Y-102258809D01*
X87567380Y-102592142D01*
X87567380Y-102830238D02*
X87567380Y-103449285D01*
X87948333Y-103115952D01*
X87948333Y-103258809D01*
X87995952Y-103354047D01*
X88043571Y-103401666D01*
X88138809Y-103449285D01*
X88376904Y-103449285D01*
X88472142Y-103401666D01*
X88519761Y-103354047D01*
X88567380Y-103258809D01*
X88567380Y-102973095D01*
X88519761Y-102877857D01*
X88472142Y-102830238D01*
G04 #@! TO.C,RV4*
X115387380Y-101639761D02*
X114911190Y-101306428D01*
X115387380Y-101068333D02*
X114387380Y-101068333D01*
X114387380Y-101449285D01*
X114435000Y-101544523D01*
X114482619Y-101592142D01*
X114577857Y-101639761D01*
X114720714Y-101639761D01*
X114815952Y-101592142D01*
X114863571Y-101544523D01*
X114911190Y-101449285D01*
X114911190Y-101068333D01*
X114387380Y-101925476D02*
X115387380Y-102258809D01*
X114387380Y-102592142D01*
X114720714Y-103354047D02*
X115387380Y-103354047D01*
X114339761Y-103115952D02*
X115054047Y-102877857D01*
X115054047Y-103496904D01*
G04 #@! TO.C,R10*
X115797860Y-47739062D02*
X115321670Y-47405729D01*
X115797860Y-47167634D02*
X114797860Y-47167634D01*
X114797860Y-47548586D01*
X114845480Y-47643824D01*
X114893099Y-47691443D01*
X114988337Y-47739062D01*
X115131194Y-47739062D01*
X115226432Y-47691443D01*
X115274051Y-47643824D01*
X115321670Y-47548586D01*
X115321670Y-47167634D01*
X115797860Y-48691443D02*
X115797860Y-48120015D01*
X115797860Y-48405729D02*
X114797860Y-48405729D01*
X114940718Y-48310491D01*
X115035956Y-48215253D01*
X115083575Y-48120015D01*
X114797860Y-49310491D02*
X114797860Y-49405729D01*
X114845480Y-49500967D01*
X114893099Y-49548586D01*
X114988337Y-49596205D01*
X115178813Y-49643824D01*
X115416908Y-49643824D01*
X115607384Y-49596205D01*
X115702622Y-49548586D01*
X115750241Y-49500967D01*
X115797860Y-49405729D01*
X115797860Y-49310491D01*
X115750241Y-49215253D01*
X115702622Y-49167634D01*
X115607384Y-49120015D01*
X115416908Y-49072396D01*
X115178813Y-49072396D01*
X114988337Y-49120015D01*
X114893099Y-49167634D01*
X114845480Y-49215253D01*
X114797860Y-49310491D01*
G04 #@! TO.C,R30*
X93542380Y-106037142D02*
X93066190Y-105703809D01*
X93542380Y-105465714D02*
X92542380Y-105465714D01*
X92542380Y-105846666D01*
X92590000Y-105941904D01*
X92637619Y-105989523D01*
X92732857Y-106037142D01*
X92875714Y-106037142D01*
X92970952Y-105989523D01*
X93018571Y-105941904D01*
X93066190Y-105846666D01*
X93066190Y-105465714D01*
X92542380Y-106370476D02*
X92542380Y-106989523D01*
X92923333Y-106656190D01*
X92923333Y-106799047D01*
X92970952Y-106894285D01*
X93018571Y-106941904D01*
X93113809Y-106989523D01*
X93351904Y-106989523D01*
X93447142Y-106941904D01*
X93494761Y-106894285D01*
X93542380Y-106799047D01*
X93542380Y-106513333D01*
X93494761Y-106418095D01*
X93447142Y-106370476D01*
X92542380Y-107608571D02*
X92542380Y-107703809D01*
X92590000Y-107799047D01*
X92637619Y-107846666D01*
X92732857Y-107894285D01*
X92923333Y-107941904D01*
X93161428Y-107941904D01*
X93351904Y-107894285D01*
X93447142Y-107846666D01*
X93494761Y-107799047D01*
X93542380Y-107703809D01*
X93542380Y-107608571D01*
X93494761Y-107513333D01*
X93447142Y-107465714D01*
X93351904Y-107418095D01*
X93161428Y-107370476D01*
X92923333Y-107370476D01*
X92732857Y-107418095D01*
X92637619Y-107465714D01*
X92590000Y-107513333D01*
X92542380Y-107608571D01*
G04 #@! TO.C,R27*
X97382860Y-102984062D02*
X96906670Y-102650729D01*
X97382860Y-102412634D02*
X96382860Y-102412634D01*
X96382860Y-102793586D01*
X96430480Y-102888824D01*
X96478099Y-102936443D01*
X96573337Y-102984062D01*
X96716194Y-102984062D01*
X96811432Y-102936443D01*
X96859051Y-102888824D01*
X96906670Y-102793586D01*
X96906670Y-102412634D01*
X96478099Y-103365015D02*
X96430480Y-103412634D01*
X96382860Y-103507872D01*
X96382860Y-103745967D01*
X96430480Y-103841205D01*
X96478099Y-103888824D01*
X96573337Y-103936443D01*
X96668575Y-103936443D01*
X96811432Y-103888824D01*
X97382860Y-103317396D01*
X97382860Y-103936443D01*
X96382860Y-104269777D02*
X96382860Y-104936443D01*
X97382860Y-104507872D01*
G04 #@! TO.C,R25*
X90367380Y-98417142D02*
X89891190Y-98083809D01*
X90367380Y-97845714D02*
X89367380Y-97845714D01*
X89367380Y-98226666D01*
X89415000Y-98321904D01*
X89462619Y-98369523D01*
X89557857Y-98417142D01*
X89700714Y-98417142D01*
X89795952Y-98369523D01*
X89843571Y-98321904D01*
X89891190Y-98226666D01*
X89891190Y-97845714D01*
X89462619Y-98798095D02*
X89415000Y-98845714D01*
X89367380Y-98940952D01*
X89367380Y-99179047D01*
X89415000Y-99274285D01*
X89462619Y-99321904D01*
X89557857Y-99369523D01*
X89653095Y-99369523D01*
X89795952Y-99321904D01*
X90367380Y-98750476D01*
X90367380Y-99369523D01*
X89367380Y-100274285D02*
X89367380Y-99798095D01*
X89843571Y-99750476D01*
X89795952Y-99798095D01*
X89748333Y-99893333D01*
X89748333Y-100131428D01*
X89795952Y-100226666D01*
X89843571Y-100274285D01*
X89938809Y-100321904D01*
X90176904Y-100321904D01*
X90272142Y-100274285D01*
X90319761Y-100226666D01*
X90367380Y-100131428D01*
X90367380Y-99893333D01*
X90319761Y-99798095D01*
X90272142Y-99750476D01*
G04 #@! TO.C,R29*
X90241380Y-106164142D02*
X89765190Y-105830809D01*
X90241380Y-105592714D02*
X89241380Y-105592714D01*
X89241380Y-105973666D01*
X89289000Y-106068904D01*
X89336619Y-106116523D01*
X89431857Y-106164142D01*
X89574714Y-106164142D01*
X89669952Y-106116523D01*
X89717571Y-106068904D01*
X89765190Y-105973666D01*
X89765190Y-105592714D01*
X89336619Y-106545095D02*
X89289000Y-106592714D01*
X89241380Y-106687952D01*
X89241380Y-106926047D01*
X89289000Y-107021285D01*
X89336619Y-107068904D01*
X89431857Y-107116523D01*
X89527095Y-107116523D01*
X89669952Y-107068904D01*
X90241380Y-106497476D01*
X90241380Y-107116523D01*
X90241380Y-107592714D02*
X90241380Y-107783190D01*
X90193761Y-107878428D01*
X90146142Y-107926047D01*
X90003285Y-108021285D01*
X89812809Y-108068904D01*
X89431857Y-108068904D01*
X89336619Y-108021285D01*
X89289000Y-107973666D01*
X89241380Y-107878428D01*
X89241380Y-107687952D01*
X89289000Y-107592714D01*
X89336619Y-107545095D01*
X89431857Y-107497476D01*
X89669952Y-107497476D01*
X89765190Y-107545095D01*
X89812809Y-107592714D01*
X89860428Y-107687952D01*
X89860428Y-107878428D01*
X89812809Y-107973666D01*
X89765190Y-108021285D01*
X89669952Y-108068904D01*
G04 #@! TO.C,R31*
X115387380Y-109212142D02*
X114911190Y-108878809D01*
X115387380Y-108640714D02*
X114387380Y-108640714D01*
X114387380Y-109021666D01*
X114435000Y-109116904D01*
X114482619Y-109164523D01*
X114577857Y-109212142D01*
X114720714Y-109212142D01*
X114815952Y-109164523D01*
X114863571Y-109116904D01*
X114911190Y-109021666D01*
X114911190Y-108640714D01*
X114387380Y-109545476D02*
X114387380Y-110164523D01*
X114768333Y-109831190D01*
X114768333Y-109974047D01*
X114815952Y-110069285D01*
X114863571Y-110116904D01*
X114958809Y-110164523D01*
X115196904Y-110164523D01*
X115292142Y-110116904D01*
X115339761Y-110069285D01*
X115387380Y-109974047D01*
X115387380Y-109688333D01*
X115339761Y-109593095D01*
X115292142Y-109545476D01*
X115387380Y-111116904D02*
X115387380Y-110545476D01*
X115387380Y-110831190D02*
X114387380Y-110831190D01*
X114530238Y-110735952D01*
X114625476Y-110640714D01*
X114673095Y-110545476D01*
G04 #@! TO.C,R32*
X113736380Y-106037142D02*
X113260190Y-105703809D01*
X113736380Y-105465714D02*
X112736380Y-105465714D01*
X112736380Y-105846666D01*
X112784000Y-105941904D01*
X112831619Y-105989523D01*
X112926857Y-106037142D01*
X113069714Y-106037142D01*
X113164952Y-105989523D01*
X113212571Y-105941904D01*
X113260190Y-105846666D01*
X113260190Y-105465714D01*
X112736380Y-106370476D02*
X112736380Y-106989523D01*
X113117333Y-106656190D01*
X113117333Y-106799047D01*
X113164952Y-106894285D01*
X113212571Y-106941904D01*
X113307809Y-106989523D01*
X113545904Y-106989523D01*
X113641142Y-106941904D01*
X113688761Y-106894285D01*
X113736380Y-106799047D01*
X113736380Y-106513333D01*
X113688761Y-106418095D01*
X113641142Y-106370476D01*
X112831619Y-107370476D02*
X112784000Y-107418095D01*
X112736380Y-107513333D01*
X112736380Y-107751428D01*
X112784000Y-107846666D01*
X112831619Y-107894285D01*
X112926857Y-107941904D01*
X113022095Y-107941904D01*
X113164952Y-107894285D01*
X113736380Y-107322857D01*
X113736380Y-107941904D01*
G04 #@! TO.C,R33*
X97607380Y-113022142D02*
X97131190Y-112688809D01*
X97607380Y-112450714D02*
X96607380Y-112450714D01*
X96607380Y-112831666D01*
X96655000Y-112926904D01*
X96702619Y-112974523D01*
X96797857Y-113022142D01*
X96940714Y-113022142D01*
X97035952Y-112974523D01*
X97083571Y-112926904D01*
X97131190Y-112831666D01*
X97131190Y-112450714D01*
X96607380Y-113355476D02*
X96607380Y-113974523D01*
X96988333Y-113641190D01*
X96988333Y-113784047D01*
X97035952Y-113879285D01*
X97083571Y-113926904D01*
X97178809Y-113974523D01*
X97416904Y-113974523D01*
X97512142Y-113926904D01*
X97559761Y-113879285D01*
X97607380Y-113784047D01*
X97607380Y-113498333D01*
X97559761Y-113403095D01*
X97512142Y-113355476D01*
X96607380Y-114307857D02*
X96607380Y-114926904D01*
X96988333Y-114593571D01*
X96988333Y-114736428D01*
X97035952Y-114831666D01*
X97083571Y-114879285D01*
X97178809Y-114926904D01*
X97416904Y-114926904D01*
X97512142Y-114879285D01*
X97559761Y-114831666D01*
X97607380Y-114736428D01*
X97607380Y-114450714D01*
X97559761Y-114355476D01*
X97512142Y-114307857D01*
G04 #@! TO.C,R8*
X110082860Y-82505253D02*
X109606670Y-82171920D01*
X110082860Y-81933824D02*
X109082860Y-81933824D01*
X109082860Y-82314777D01*
X109130480Y-82410015D01*
X109178099Y-82457634D01*
X109273337Y-82505253D01*
X109416194Y-82505253D01*
X109511432Y-82457634D01*
X109559051Y-82410015D01*
X109606670Y-82314777D01*
X109606670Y-81933824D01*
X109511432Y-83076681D02*
X109463813Y-82981443D01*
X109416194Y-82933824D01*
X109320956Y-82886205D01*
X109273337Y-82886205D01*
X109178099Y-82933824D01*
X109130480Y-82981443D01*
X109082860Y-83076681D01*
X109082860Y-83267158D01*
X109130480Y-83362396D01*
X109178099Y-83410015D01*
X109273337Y-83457634D01*
X109320956Y-83457634D01*
X109416194Y-83410015D01*
X109463813Y-83362396D01*
X109511432Y-83267158D01*
X109511432Y-83076681D01*
X109559051Y-82981443D01*
X109606670Y-82933824D01*
X109701908Y-82886205D01*
X109892384Y-82886205D01*
X109987622Y-82933824D01*
X110035241Y-82981443D01*
X110082860Y-83076681D01*
X110082860Y-83267158D01*
X110035241Y-83362396D01*
X109987622Y-83410015D01*
X109892384Y-83457634D01*
X109701908Y-83457634D01*
X109606670Y-83410015D01*
X109559051Y-83362396D01*
X109511432Y-83267158D01*
G04 #@! TO.C,R35*
X97382860Y-118224062D02*
X96906670Y-117890729D01*
X97382860Y-117652634D02*
X96382860Y-117652634D01*
X96382860Y-118033586D01*
X96430480Y-118128824D01*
X96478099Y-118176443D01*
X96573337Y-118224062D01*
X96716194Y-118224062D01*
X96811432Y-118176443D01*
X96859051Y-118128824D01*
X96906670Y-118033586D01*
X96906670Y-117652634D01*
X96382860Y-118557396D02*
X96382860Y-119176443D01*
X96763813Y-118843110D01*
X96763813Y-118985967D01*
X96811432Y-119081205D01*
X96859051Y-119128824D01*
X96954289Y-119176443D01*
X97192384Y-119176443D01*
X97287622Y-119128824D01*
X97335241Y-119081205D01*
X97382860Y-118985967D01*
X97382860Y-118700253D01*
X97335241Y-118605015D01*
X97287622Y-118557396D01*
X96382860Y-120081205D02*
X96382860Y-119605015D01*
X96859051Y-119557396D01*
X96811432Y-119605015D01*
X96763813Y-119700253D01*
X96763813Y-119938348D01*
X96811432Y-120033586D01*
X96859051Y-120081205D01*
X96954289Y-120128824D01*
X97192384Y-120128824D01*
X97287622Y-120081205D01*
X97335241Y-120033586D01*
X97382860Y-119938348D01*
X97382860Y-119700253D01*
X97335241Y-119605015D01*
X97287622Y-119557396D01*
G04 #@! TO.C,R36*
X110082860Y-118224062D02*
X109606670Y-117890729D01*
X110082860Y-117652634D02*
X109082860Y-117652634D01*
X109082860Y-118033586D01*
X109130480Y-118128824D01*
X109178099Y-118176443D01*
X109273337Y-118224062D01*
X109416194Y-118224062D01*
X109511432Y-118176443D01*
X109559051Y-118128824D01*
X109606670Y-118033586D01*
X109606670Y-117652634D01*
X109082860Y-118557396D02*
X109082860Y-119176443D01*
X109463813Y-118843110D01*
X109463813Y-118985967D01*
X109511432Y-119081205D01*
X109559051Y-119128824D01*
X109654289Y-119176443D01*
X109892384Y-119176443D01*
X109987622Y-119128824D01*
X110035241Y-119081205D01*
X110082860Y-118985967D01*
X110082860Y-118700253D01*
X110035241Y-118605015D01*
X109987622Y-118557396D01*
X109082860Y-120033586D02*
X109082860Y-119843110D01*
X109130480Y-119747872D01*
X109178099Y-119700253D01*
X109320956Y-119605015D01*
X109511432Y-119557396D01*
X109892384Y-119557396D01*
X109987622Y-119605015D01*
X110035241Y-119652634D01*
X110082860Y-119747872D01*
X110082860Y-119938348D01*
X110035241Y-120033586D01*
X109987622Y-120081205D01*
X109892384Y-120128824D01*
X109654289Y-120128824D01*
X109559051Y-120081205D01*
X109511432Y-120033586D01*
X109463813Y-119938348D01*
X109463813Y-119747872D01*
X109511432Y-119652634D01*
X109559051Y-119605015D01*
X109654289Y-119557396D01*
G04 #@! TO.C,R37*
X86177380Y-85209142D02*
X85701190Y-84875809D01*
X86177380Y-84637714D02*
X85177380Y-84637714D01*
X85177380Y-85018666D01*
X85225000Y-85113904D01*
X85272619Y-85161523D01*
X85367857Y-85209142D01*
X85510714Y-85209142D01*
X85605952Y-85161523D01*
X85653571Y-85113904D01*
X85701190Y-85018666D01*
X85701190Y-84637714D01*
X85177380Y-85542476D02*
X85177380Y-86161523D01*
X85558333Y-85828190D01*
X85558333Y-85971047D01*
X85605952Y-86066285D01*
X85653571Y-86113904D01*
X85748809Y-86161523D01*
X85986904Y-86161523D01*
X86082142Y-86113904D01*
X86129761Y-86066285D01*
X86177380Y-85971047D01*
X86177380Y-85685333D01*
X86129761Y-85590095D01*
X86082142Y-85542476D01*
X85177380Y-86494857D02*
X85177380Y-87161523D01*
X86177380Y-86732952D01*
G04 #@! TO.C,R38*
X93797380Y-118102142D02*
X93321190Y-117768809D01*
X93797380Y-117530714D02*
X92797380Y-117530714D01*
X92797380Y-117911666D01*
X92845000Y-118006904D01*
X92892619Y-118054523D01*
X92987857Y-118102142D01*
X93130714Y-118102142D01*
X93225952Y-118054523D01*
X93273571Y-118006904D01*
X93321190Y-117911666D01*
X93321190Y-117530714D01*
X92797380Y-118435476D02*
X92797380Y-119054523D01*
X93178333Y-118721190D01*
X93178333Y-118864047D01*
X93225952Y-118959285D01*
X93273571Y-119006904D01*
X93368809Y-119054523D01*
X93606904Y-119054523D01*
X93702142Y-119006904D01*
X93749761Y-118959285D01*
X93797380Y-118864047D01*
X93797380Y-118578333D01*
X93749761Y-118483095D01*
X93702142Y-118435476D01*
X93225952Y-119625952D02*
X93178333Y-119530714D01*
X93130714Y-119483095D01*
X93035476Y-119435476D01*
X92987857Y-119435476D01*
X92892619Y-119483095D01*
X92845000Y-119530714D01*
X92797380Y-119625952D01*
X92797380Y-119816428D01*
X92845000Y-119911666D01*
X92892619Y-119959285D01*
X92987857Y-120006904D01*
X93035476Y-120006904D01*
X93130714Y-119959285D01*
X93178333Y-119911666D01*
X93225952Y-119816428D01*
X93225952Y-119625952D01*
X93273571Y-119530714D01*
X93321190Y-119483095D01*
X93416428Y-119435476D01*
X93606904Y-119435476D01*
X93702142Y-119483095D01*
X93749761Y-119530714D01*
X93797380Y-119625952D01*
X93797380Y-119816428D01*
X93749761Y-119911666D01*
X93702142Y-119959285D01*
X93606904Y-120006904D01*
X93416428Y-120006904D01*
X93321190Y-119959285D01*
X93273571Y-119911666D01*
X93225952Y-119816428D01*
G04 #@! TO.C,R39*
X119959380Y-81907142D02*
X119483190Y-81573809D01*
X119959380Y-81335714D02*
X118959380Y-81335714D01*
X118959380Y-81716666D01*
X119007000Y-81811904D01*
X119054619Y-81859523D01*
X119149857Y-81907142D01*
X119292714Y-81907142D01*
X119387952Y-81859523D01*
X119435571Y-81811904D01*
X119483190Y-81716666D01*
X119483190Y-81335714D01*
X118959380Y-82240476D02*
X118959380Y-82859523D01*
X119340333Y-82526190D01*
X119340333Y-82669047D01*
X119387952Y-82764285D01*
X119435571Y-82811904D01*
X119530809Y-82859523D01*
X119768904Y-82859523D01*
X119864142Y-82811904D01*
X119911761Y-82764285D01*
X119959380Y-82669047D01*
X119959380Y-82383333D01*
X119911761Y-82288095D01*
X119864142Y-82240476D01*
X119959380Y-83335714D02*
X119959380Y-83526190D01*
X119911761Y-83621428D01*
X119864142Y-83669047D01*
X119721285Y-83764285D01*
X119530809Y-83811904D01*
X119149857Y-83811904D01*
X119054619Y-83764285D01*
X119007000Y-83716666D01*
X118959380Y-83621428D01*
X118959380Y-83430952D01*
X119007000Y-83335714D01*
X119054619Y-83288095D01*
X119149857Y-83240476D01*
X119387952Y-83240476D01*
X119483190Y-83288095D01*
X119530809Y-83335714D01*
X119578428Y-83430952D01*
X119578428Y-83621428D01*
X119530809Y-83716666D01*
X119483190Y-83764285D01*
X119387952Y-83811904D01*
G04 #@! TO.C,R40*
X114117380Y-118102142D02*
X113641190Y-117768809D01*
X114117380Y-117530714D02*
X113117380Y-117530714D01*
X113117380Y-117911666D01*
X113165000Y-118006904D01*
X113212619Y-118054523D01*
X113307857Y-118102142D01*
X113450714Y-118102142D01*
X113545952Y-118054523D01*
X113593571Y-118006904D01*
X113641190Y-117911666D01*
X113641190Y-117530714D01*
X113450714Y-118959285D02*
X114117380Y-118959285D01*
X113069761Y-118721190D02*
X113784047Y-118483095D01*
X113784047Y-119102142D01*
X113117380Y-119673571D02*
X113117380Y-119768809D01*
X113165000Y-119864047D01*
X113212619Y-119911666D01*
X113307857Y-119959285D01*
X113498333Y-120006904D01*
X113736428Y-120006904D01*
X113926904Y-119959285D01*
X114022142Y-119911666D01*
X114069761Y-119864047D01*
X114117380Y-119768809D01*
X114117380Y-119673571D01*
X114069761Y-119578333D01*
X114022142Y-119530714D01*
X113926904Y-119483095D01*
X113736428Y-119435476D01*
X113498333Y-119435476D01*
X113307857Y-119483095D01*
X113212619Y-119530714D01*
X113165000Y-119578333D01*
X113117380Y-119673571D01*
G04 #@! TO.C,R26*
X117419380Y-98544142D02*
X116943190Y-98210809D01*
X117419380Y-97972714D02*
X116419380Y-97972714D01*
X116419380Y-98353666D01*
X116467000Y-98448904D01*
X116514619Y-98496523D01*
X116609857Y-98544142D01*
X116752714Y-98544142D01*
X116847952Y-98496523D01*
X116895571Y-98448904D01*
X116943190Y-98353666D01*
X116943190Y-97972714D01*
X116514619Y-98925095D02*
X116467000Y-98972714D01*
X116419380Y-99067952D01*
X116419380Y-99306047D01*
X116467000Y-99401285D01*
X116514619Y-99448904D01*
X116609857Y-99496523D01*
X116705095Y-99496523D01*
X116847952Y-99448904D01*
X117419380Y-98877476D01*
X117419380Y-99496523D01*
X116419380Y-100353666D02*
X116419380Y-100163190D01*
X116467000Y-100067952D01*
X116514619Y-100020333D01*
X116657476Y-99925095D01*
X116847952Y-99877476D01*
X117228904Y-99877476D01*
X117324142Y-99925095D01*
X117371761Y-99972714D01*
X117419380Y-100067952D01*
X117419380Y-100258428D01*
X117371761Y-100353666D01*
X117324142Y-100401285D01*
X117228904Y-100448904D01*
X116990809Y-100448904D01*
X116895571Y-100401285D01*
X116847952Y-100353666D01*
X116800333Y-100258428D01*
X116800333Y-100067952D01*
X116847952Y-99972714D01*
X116895571Y-99925095D01*
X116990809Y-99877476D01*
G04 #@! TO.C,R21*
X85952860Y-67424062D02*
X85476670Y-67090729D01*
X85952860Y-66852634D02*
X84952860Y-66852634D01*
X84952860Y-67233586D01*
X85000480Y-67328824D01*
X85048099Y-67376443D01*
X85143337Y-67424062D01*
X85286194Y-67424062D01*
X85381432Y-67376443D01*
X85429051Y-67328824D01*
X85476670Y-67233586D01*
X85476670Y-66852634D01*
X85048099Y-67805015D02*
X85000480Y-67852634D01*
X84952860Y-67947872D01*
X84952860Y-68185967D01*
X85000480Y-68281205D01*
X85048099Y-68328824D01*
X85143337Y-68376443D01*
X85238575Y-68376443D01*
X85381432Y-68328824D01*
X85952860Y-67757396D01*
X85952860Y-68376443D01*
X85952860Y-69328824D02*
X85952860Y-68757396D01*
X85952860Y-69043110D02*
X84952860Y-69043110D01*
X85095718Y-68947872D01*
X85190956Y-68852634D01*
X85238575Y-68757396D01*
G04 #@! TO.C,R20*
X109957860Y-71869062D02*
X109481670Y-71535729D01*
X109957860Y-71297634D02*
X108957860Y-71297634D01*
X108957860Y-71678586D01*
X109005480Y-71773824D01*
X109053099Y-71821443D01*
X109148337Y-71869062D01*
X109291194Y-71869062D01*
X109386432Y-71821443D01*
X109434051Y-71773824D01*
X109481670Y-71678586D01*
X109481670Y-71297634D01*
X109053099Y-72250015D02*
X109005480Y-72297634D01*
X108957860Y-72392872D01*
X108957860Y-72630967D01*
X109005480Y-72726205D01*
X109053099Y-72773824D01*
X109148337Y-72821443D01*
X109243575Y-72821443D01*
X109386432Y-72773824D01*
X109957860Y-72202396D01*
X109957860Y-72821443D01*
X108957860Y-73440491D02*
X108957860Y-73535729D01*
X109005480Y-73630967D01*
X109053099Y-73678586D01*
X109148337Y-73726205D01*
X109338813Y-73773824D01*
X109576908Y-73773824D01*
X109767384Y-73726205D01*
X109862622Y-73678586D01*
X109910241Y-73630967D01*
X109957860Y-73535729D01*
X109957860Y-73440491D01*
X109910241Y-73345253D01*
X109862622Y-73297634D01*
X109767384Y-73250015D01*
X109576908Y-73202396D01*
X109338813Y-73202396D01*
X109148337Y-73250015D01*
X109053099Y-73297634D01*
X109005480Y-73345253D01*
X108957860Y-73440491D01*
G04 #@! TO.C,R19*
X97257860Y-71869062D02*
X96781670Y-71535729D01*
X97257860Y-71297634D02*
X96257860Y-71297634D01*
X96257860Y-71678586D01*
X96305480Y-71773824D01*
X96353099Y-71821443D01*
X96448337Y-71869062D01*
X96591194Y-71869062D01*
X96686432Y-71821443D01*
X96734051Y-71773824D01*
X96781670Y-71678586D01*
X96781670Y-71297634D01*
X97257860Y-72821443D02*
X97257860Y-72250015D01*
X97257860Y-72535729D02*
X96257860Y-72535729D01*
X96400718Y-72440491D01*
X96495956Y-72345253D01*
X96543575Y-72250015D01*
X97257860Y-73297634D02*
X97257860Y-73488110D01*
X97210241Y-73583348D01*
X97162622Y-73630967D01*
X97019765Y-73726205D01*
X96829289Y-73773824D01*
X96448337Y-73773824D01*
X96353099Y-73726205D01*
X96305480Y-73678586D01*
X96257860Y-73583348D01*
X96257860Y-73392872D01*
X96305480Y-73297634D01*
X96353099Y-73250015D01*
X96448337Y-73202396D01*
X96686432Y-73202396D01*
X96781670Y-73250015D01*
X96829289Y-73297634D01*
X96876908Y-73392872D01*
X96876908Y-73583348D01*
X96829289Y-73678586D01*
X96781670Y-73726205D01*
X96686432Y-73773824D01*
G04 #@! TO.C,R34*
X110053380Y-113022142D02*
X109577190Y-112688809D01*
X110053380Y-112450714D02*
X109053380Y-112450714D01*
X109053380Y-112831666D01*
X109101000Y-112926904D01*
X109148619Y-112974523D01*
X109243857Y-113022142D01*
X109386714Y-113022142D01*
X109481952Y-112974523D01*
X109529571Y-112926904D01*
X109577190Y-112831666D01*
X109577190Y-112450714D01*
X109053380Y-113355476D02*
X109053380Y-113974523D01*
X109434333Y-113641190D01*
X109434333Y-113784047D01*
X109481952Y-113879285D01*
X109529571Y-113926904D01*
X109624809Y-113974523D01*
X109862904Y-113974523D01*
X109958142Y-113926904D01*
X110005761Y-113879285D01*
X110053380Y-113784047D01*
X110053380Y-113498333D01*
X110005761Y-113403095D01*
X109958142Y-113355476D01*
X109386714Y-114831666D02*
X110053380Y-114831666D01*
X109005761Y-114593571D02*
X109720047Y-114355476D01*
X109720047Y-114974523D01*
G04 #@! TO.C,R17*
X97382860Y-67424062D02*
X96906670Y-67090729D01*
X97382860Y-66852634D02*
X96382860Y-66852634D01*
X96382860Y-67233586D01*
X96430480Y-67328824D01*
X96478099Y-67376443D01*
X96573337Y-67424062D01*
X96716194Y-67424062D01*
X96811432Y-67376443D01*
X96859051Y-67328824D01*
X96906670Y-67233586D01*
X96906670Y-66852634D01*
X97382860Y-68376443D02*
X97382860Y-67805015D01*
X97382860Y-68090729D02*
X96382860Y-68090729D01*
X96525718Y-67995491D01*
X96620956Y-67900253D01*
X96668575Y-67805015D01*
X96382860Y-68709777D02*
X96382860Y-69376443D01*
X97382860Y-68947872D01*
G04 #@! TO.C,R16*
X110082860Y-97269062D02*
X109606670Y-96935729D01*
X110082860Y-96697634D02*
X109082860Y-96697634D01*
X109082860Y-97078586D01*
X109130480Y-97173824D01*
X109178099Y-97221443D01*
X109273337Y-97269062D01*
X109416194Y-97269062D01*
X109511432Y-97221443D01*
X109559051Y-97173824D01*
X109606670Y-97078586D01*
X109606670Y-96697634D01*
X110082860Y-98221443D02*
X110082860Y-97650015D01*
X110082860Y-97935729D02*
X109082860Y-97935729D01*
X109225718Y-97840491D01*
X109320956Y-97745253D01*
X109368575Y-97650015D01*
X109082860Y-99078586D02*
X109082860Y-98888110D01*
X109130480Y-98792872D01*
X109178099Y-98745253D01*
X109320956Y-98650015D01*
X109511432Y-98602396D01*
X109892384Y-98602396D01*
X109987622Y-98650015D01*
X110035241Y-98697634D01*
X110082860Y-98792872D01*
X110082860Y-98983348D01*
X110035241Y-99078586D01*
X109987622Y-99126205D01*
X109892384Y-99173824D01*
X109654289Y-99173824D01*
X109559051Y-99126205D01*
X109511432Y-99078586D01*
X109463813Y-98983348D01*
X109463813Y-98792872D01*
X109511432Y-98697634D01*
X109559051Y-98650015D01*
X109654289Y-98602396D01*
G04 #@! TO.C,R15*
X97382860Y-97269062D02*
X96906670Y-96935729D01*
X97382860Y-96697634D02*
X96382860Y-96697634D01*
X96382860Y-97078586D01*
X96430480Y-97173824D01*
X96478099Y-97221443D01*
X96573337Y-97269062D01*
X96716194Y-97269062D01*
X96811432Y-97221443D01*
X96859051Y-97173824D01*
X96906670Y-97078586D01*
X96906670Y-96697634D01*
X97382860Y-98221443D02*
X97382860Y-97650015D01*
X97382860Y-97935729D02*
X96382860Y-97935729D01*
X96525718Y-97840491D01*
X96620956Y-97745253D01*
X96668575Y-97650015D01*
X96382860Y-99126205D02*
X96382860Y-98650015D01*
X96859051Y-98602396D01*
X96811432Y-98650015D01*
X96763813Y-98745253D01*
X96763813Y-98983348D01*
X96811432Y-99078586D01*
X96859051Y-99126205D01*
X96954289Y-99173824D01*
X97192384Y-99173824D01*
X97287622Y-99126205D01*
X97335241Y-99078586D01*
X97382860Y-98983348D01*
X97382860Y-98745253D01*
X97335241Y-98650015D01*
X97287622Y-98602396D01*
G04 #@! TO.C,R14*
X117702860Y-88379062D02*
X117226670Y-88045729D01*
X117702860Y-87807634D02*
X116702860Y-87807634D01*
X116702860Y-88188586D01*
X116750480Y-88283824D01*
X116798099Y-88331443D01*
X116893337Y-88379062D01*
X117036194Y-88379062D01*
X117131432Y-88331443D01*
X117179051Y-88283824D01*
X117226670Y-88188586D01*
X117226670Y-87807634D01*
X117702860Y-89331443D02*
X117702860Y-88760015D01*
X117702860Y-89045729D02*
X116702860Y-89045729D01*
X116845718Y-88950491D01*
X116940956Y-88855253D01*
X116988575Y-88760015D01*
X117036194Y-90188586D02*
X117702860Y-90188586D01*
X116655241Y-89950491D02*
X117369527Y-89712396D01*
X117369527Y-90331443D01*
G04 #@! TO.C,R13*
X110082860Y-92189062D02*
X109606670Y-91855729D01*
X110082860Y-91617634D02*
X109082860Y-91617634D01*
X109082860Y-91998586D01*
X109130480Y-92093824D01*
X109178099Y-92141443D01*
X109273337Y-92189062D01*
X109416194Y-92189062D01*
X109511432Y-92141443D01*
X109559051Y-92093824D01*
X109606670Y-91998586D01*
X109606670Y-91617634D01*
X110082860Y-93141443D02*
X110082860Y-92570015D01*
X110082860Y-92855729D02*
X109082860Y-92855729D01*
X109225718Y-92760491D01*
X109320956Y-92665253D01*
X109368575Y-92570015D01*
X109082860Y-93474777D02*
X109082860Y-94093824D01*
X109463813Y-93760491D01*
X109463813Y-93903348D01*
X109511432Y-93998586D01*
X109559051Y-94046205D01*
X109654289Y-94093824D01*
X109892384Y-94093824D01*
X109987622Y-94046205D01*
X110035241Y-93998586D01*
X110082860Y-93903348D01*
X110082860Y-93617634D01*
X110035241Y-93522396D01*
X109987622Y-93474777D01*
G04 #@! TO.C,R12*
X89762860Y-88379062D02*
X89286670Y-88045729D01*
X89762860Y-87807634D02*
X88762860Y-87807634D01*
X88762860Y-88188586D01*
X88810480Y-88283824D01*
X88858099Y-88331443D01*
X88953337Y-88379062D01*
X89096194Y-88379062D01*
X89191432Y-88331443D01*
X89239051Y-88283824D01*
X89286670Y-88188586D01*
X89286670Y-87807634D01*
X89762860Y-89331443D02*
X89762860Y-88760015D01*
X89762860Y-89045729D02*
X88762860Y-89045729D01*
X88905718Y-88950491D01*
X89000956Y-88855253D01*
X89048575Y-88760015D01*
X88858099Y-89712396D02*
X88810480Y-89760015D01*
X88762860Y-89855253D01*
X88762860Y-90093348D01*
X88810480Y-90188586D01*
X88858099Y-90236205D01*
X88953337Y-90283824D01*
X89048575Y-90283824D01*
X89191432Y-90236205D01*
X89762860Y-89664777D01*
X89762860Y-90283824D01*
G04 #@! TO.C,R11*
X97382860Y-92189062D02*
X96906670Y-91855729D01*
X97382860Y-91617634D02*
X96382860Y-91617634D01*
X96382860Y-91998586D01*
X96430480Y-92093824D01*
X96478099Y-92141443D01*
X96573337Y-92189062D01*
X96716194Y-92189062D01*
X96811432Y-92141443D01*
X96859051Y-92093824D01*
X96906670Y-91998586D01*
X96906670Y-91617634D01*
X97382860Y-93141443D02*
X97382860Y-92570015D01*
X97382860Y-92855729D02*
X96382860Y-92855729D01*
X96525718Y-92760491D01*
X96620956Y-92665253D01*
X96668575Y-92570015D01*
X97382860Y-94093824D02*
X97382860Y-93522396D01*
X97382860Y-93808110D02*
X96382860Y-93808110D01*
X96525718Y-93712872D01*
X96620956Y-93617634D01*
X96668575Y-93522396D01*
G04 #@! TO.C,R23*
X97257860Y-76949062D02*
X96781670Y-76615729D01*
X97257860Y-76377634D02*
X96257860Y-76377634D01*
X96257860Y-76758586D01*
X96305480Y-76853824D01*
X96353099Y-76901443D01*
X96448337Y-76949062D01*
X96591194Y-76949062D01*
X96686432Y-76901443D01*
X96734051Y-76853824D01*
X96781670Y-76758586D01*
X96781670Y-76377634D01*
X96353099Y-77330015D02*
X96305480Y-77377634D01*
X96257860Y-77472872D01*
X96257860Y-77710967D01*
X96305480Y-77806205D01*
X96353099Y-77853824D01*
X96448337Y-77901443D01*
X96543575Y-77901443D01*
X96686432Y-77853824D01*
X97257860Y-77282396D01*
X97257860Y-77901443D01*
X96257860Y-78234777D02*
X96257860Y-78853824D01*
X96638813Y-78520491D01*
X96638813Y-78663348D01*
X96686432Y-78758586D01*
X96734051Y-78806205D01*
X96829289Y-78853824D01*
X97067384Y-78853824D01*
X97162622Y-78806205D01*
X97210241Y-78758586D01*
X97257860Y-78663348D01*
X97257860Y-78377634D01*
X97210241Y-78282396D01*
X97162622Y-78234777D01*
G04 #@! TO.C,R24*
X109957860Y-76949062D02*
X109481670Y-76615729D01*
X109957860Y-76377634D02*
X108957860Y-76377634D01*
X108957860Y-76758586D01*
X109005480Y-76853824D01*
X109053099Y-76901443D01*
X109148337Y-76949062D01*
X109291194Y-76949062D01*
X109386432Y-76901443D01*
X109434051Y-76853824D01*
X109481670Y-76758586D01*
X109481670Y-76377634D01*
X109053099Y-77330015D02*
X109005480Y-77377634D01*
X108957860Y-77472872D01*
X108957860Y-77710967D01*
X109005480Y-77806205D01*
X109053099Y-77853824D01*
X109148337Y-77901443D01*
X109243575Y-77901443D01*
X109386432Y-77853824D01*
X109957860Y-77282396D01*
X109957860Y-77901443D01*
X109291194Y-78758586D02*
X109957860Y-78758586D01*
X108910241Y-78520491D02*
X109624527Y-78282396D01*
X109624527Y-78901443D01*
G04 #@! TO.C,R18*
X110082860Y-67424062D02*
X109606670Y-67090729D01*
X110082860Y-66852634D02*
X109082860Y-66852634D01*
X109082860Y-67233586D01*
X109130480Y-67328824D01*
X109178099Y-67376443D01*
X109273337Y-67424062D01*
X109416194Y-67424062D01*
X109511432Y-67376443D01*
X109559051Y-67328824D01*
X109606670Y-67233586D01*
X109606670Y-66852634D01*
X110082860Y-68376443D02*
X110082860Y-67805015D01*
X110082860Y-68090729D02*
X109082860Y-68090729D01*
X109225718Y-67995491D01*
X109320956Y-67900253D01*
X109368575Y-67805015D01*
X109511432Y-68947872D02*
X109463813Y-68852634D01*
X109416194Y-68805015D01*
X109320956Y-68757396D01*
X109273337Y-68757396D01*
X109178099Y-68805015D01*
X109130480Y-68852634D01*
X109082860Y-68947872D01*
X109082860Y-69138348D01*
X109130480Y-69233586D01*
X109178099Y-69281205D01*
X109273337Y-69328824D01*
X109320956Y-69328824D01*
X109416194Y-69281205D01*
X109463813Y-69233586D01*
X109511432Y-69138348D01*
X109511432Y-68947872D01*
X109559051Y-68852634D01*
X109606670Y-68805015D01*
X109701908Y-68757396D01*
X109892384Y-68757396D01*
X109987622Y-68805015D01*
X110035241Y-68852634D01*
X110082860Y-68947872D01*
X110082860Y-69138348D01*
X110035241Y-69233586D01*
X109987622Y-69281205D01*
X109892384Y-69328824D01*
X109701908Y-69328824D01*
X109606670Y-69281205D01*
X109559051Y-69233586D01*
X109511432Y-69138348D01*
G04 #@! TO.C,R7*
X97382860Y-82505253D02*
X96906670Y-82171920D01*
X97382860Y-81933824D02*
X96382860Y-81933824D01*
X96382860Y-82314777D01*
X96430480Y-82410015D01*
X96478099Y-82457634D01*
X96573337Y-82505253D01*
X96716194Y-82505253D01*
X96811432Y-82457634D01*
X96859051Y-82410015D01*
X96906670Y-82314777D01*
X96906670Y-81933824D01*
X96382860Y-82838586D02*
X96382860Y-83505253D01*
X97382860Y-83076681D01*
G04 #@! TO.C,R6*
X117927380Y-67778333D02*
X117451190Y-67445000D01*
X117927380Y-67206904D02*
X116927380Y-67206904D01*
X116927380Y-67587857D01*
X116975000Y-67683095D01*
X117022619Y-67730714D01*
X117117857Y-67778333D01*
X117260714Y-67778333D01*
X117355952Y-67730714D01*
X117403571Y-67683095D01*
X117451190Y-67587857D01*
X117451190Y-67206904D01*
X116927380Y-68635476D02*
X116927380Y-68445000D01*
X116975000Y-68349761D01*
X117022619Y-68302142D01*
X117165476Y-68206904D01*
X117355952Y-68159285D01*
X117736904Y-68159285D01*
X117832142Y-68206904D01*
X117879761Y-68254523D01*
X117927380Y-68349761D01*
X117927380Y-68540238D01*
X117879761Y-68635476D01*
X117832142Y-68683095D01*
X117736904Y-68730714D01*
X117498809Y-68730714D01*
X117403571Y-68683095D01*
X117355952Y-68635476D01*
X117308333Y-68540238D01*
X117308333Y-68349761D01*
X117355952Y-68254523D01*
X117403571Y-68206904D01*
X117498809Y-68159285D01*
G04 #@! TO.C,R5*
X111987860Y-48215253D02*
X111511670Y-47881920D01*
X111987860Y-47643824D02*
X110987860Y-47643824D01*
X110987860Y-48024777D01*
X111035480Y-48120015D01*
X111083099Y-48167634D01*
X111178337Y-48215253D01*
X111321194Y-48215253D01*
X111416432Y-48167634D01*
X111464051Y-48120015D01*
X111511670Y-48024777D01*
X111511670Y-47643824D01*
X110987860Y-49120015D02*
X110987860Y-48643824D01*
X111464051Y-48596205D01*
X111416432Y-48643824D01*
X111368813Y-48739062D01*
X111368813Y-48977158D01*
X111416432Y-49072396D01*
X111464051Y-49120015D01*
X111559289Y-49167634D01*
X111797384Y-49167634D01*
X111892622Y-49120015D01*
X111940241Y-49072396D01*
X111987860Y-48977158D01*
X111987860Y-48739062D01*
X111940241Y-48643824D01*
X111892622Y-48596205D01*
G04 #@! TO.C,R4*
X113892860Y-67900253D02*
X113416670Y-67566920D01*
X113892860Y-67328824D02*
X112892860Y-67328824D01*
X112892860Y-67709777D01*
X112940480Y-67805015D01*
X112988099Y-67852634D01*
X113083337Y-67900253D01*
X113226194Y-67900253D01*
X113321432Y-67852634D01*
X113369051Y-67805015D01*
X113416670Y-67709777D01*
X113416670Y-67328824D01*
X113226194Y-68757396D02*
X113892860Y-68757396D01*
X112845241Y-68519300D02*
X113559527Y-68281205D01*
X113559527Y-68900253D01*
G04 #@! TO.C,R3*
X89762860Y-67900253D02*
X89286670Y-67566920D01*
X89762860Y-67328824D02*
X88762860Y-67328824D01*
X88762860Y-67709777D01*
X88810480Y-67805015D01*
X88858099Y-67852634D01*
X88953337Y-67900253D01*
X89096194Y-67900253D01*
X89191432Y-67852634D01*
X89239051Y-67805015D01*
X89286670Y-67709777D01*
X89286670Y-67328824D01*
X88762860Y-68233586D02*
X88762860Y-68852634D01*
X89143813Y-68519300D01*
X89143813Y-68662158D01*
X89191432Y-68757396D01*
X89239051Y-68805015D01*
X89334289Y-68852634D01*
X89572384Y-68852634D01*
X89667622Y-68805015D01*
X89715241Y-68757396D01*
X89762860Y-68662158D01*
X89762860Y-68376443D01*
X89715241Y-68281205D01*
X89667622Y-68233586D01*
G04 #@! TO.C,R2*
X91667860Y-48215253D02*
X91191670Y-47881920D01*
X91667860Y-47643824D02*
X90667860Y-47643824D01*
X90667860Y-48024777D01*
X90715480Y-48120015D01*
X90763099Y-48167634D01*
X90858337Y-48215253D01*
X91001194Y-48215253D01*
X91096432Y-48167634D01*
X91144051Y-48120015D01*
X91191670Y-48024777D01*
X91191670Y-47643824D01*
X90763099Y-48596205D02*
X90715480Y-48643824D01*
X90667860Y-48739062D01*
X90667860Y-48977158D01*
X90715480Y-49072396D01*
X90763099Y-49120015D01*
X90858337Y-49167634D01*
X90953575Y-49167634D01*
X91096432Y-49120015D01*
X91667860Y-48548586D01*
X91667860Y-49167634D01*
G04 #@! TO.C,R1*
X93572860Y-67900253D02*
X93096670Y-67566920D01*
X93572860Y-67328824D02*
X92572860Y-67328824D01*
X92572860Y-67709777D01*
X92620480Y-67805015D01*
X92668099Y-67852634D01*
X92763337Y-67900253D01*
X92906194Y-67900253D01*
X93001432Y-67852634D01*
X93049051Y-67805015D01*
X93096670Y-67709777D01*
X93096670Y-67328824D01*
X93572860Y-68852634D02*
X93572860Y-68281205D01*
X93572860Y-68566920D02*
X92572860Y-68566920D01*
X92715718Y-68471681D01*
X92810956Y-68376443D01*
X92858575Y-68281205D01*
G04 #@! TO.C,R22*
X119832380Y-64000142D02*
X119356190Y-63666809D01*
X119832380Y-63428714D02*
X118832380Y-63428714D01*
X118832380Y-63809666D01*
X118880000Y-63904904D01*
X118927619Y-63952523D01*
X119022857Y-64000142D01*
X119165714Y-64000142D01*
X119260952Y-63952523D01*
X119308571Y-63904904D01*
X119356190Y-63809666D01*
X119356190Y-63428714D01*
X118927619Y-64381095D02*
X118880000Y-64428714D01*
X118832380Y-64523952D01*
X118832380Y-64762047D01*
X118880000Y-64857285D01*
X118927619Y-64904904D01*
X119022857Y-64952523D01*
X119118095Y-64952523D01*
X119260952Y-64904904D01*
X119832380Y-64333476D01*
X119832380Y-64952523D01*
X118927619Y-65333476D02*
X118880000Y-65381095D01*
X118832380Y-65476333D01*
X118832380Y-65714428D01*
X118880000Y-65809666D01*
X118927619Y-65857285D01*
X119022857Y-65904904D01*
X119118095Y-65904904D01*
X119260952Y-65857285D01*
X119832380Y-65285857D01*
X119832380Y-65904904D01*
G04 #@! TO.C,R9*
X95477860Y-48215253D02*
X95001670Y-47881920D01*
X95477860Y-47643824D02*
X94477860Y-47643824D01*
X94477860Y-48024777D01*
X94525480Y-48120015D01*
X94573099Y-48167634D01*
X94668337Y-48215253D01*
X94811194Y-48215253D01*
X94906432Y-48167634D01*
X94954051Y-48120015D01*
X95001670Y-48024777D01*
X95001670Y-47643824D01*
X95477860Y-48691443D02*
X95477860Y-48881920D01*
X95430241Y-48977158D01*
X95382622Y-49024777D01*
X95239765Y-49120015D01*
X95049289Y-49167634D01*
X94668337Y-49167634D01*
X94573099Y-49120015D01*
X94525480Y-49072396D01*
X94477860Y-48977158D01*
X94477860Y-48786681D01*
X94525480Y-48691443D01*
X94573099Y-48643824D01*
X94668337Y-48596205D01*
X94906432Y-48596205D01*
X95001670Y-48643824D01*
X95049289Y-48691443D01*
X95096908Y-48786681D01*
X95096908Y-48977158D01*
X95049289Y-49072396D01*
X95001670Y-49120015D01*
X94906432Y-49167634D01*
G04 #@! TD*
M02*
