G04 #@! TF.GenerationSoftware,KiCad,Pcbnew,(5.0.0)*
G04 #@! TF.CreationDate,2018-08-12T23:07:36+08:00*
G04 #@! TF.ProjectId,VCA,5643412E6B696361645F706362000000,rev?*
G04 #@! TF.SameCoordinates,PX18392c0PY18392c0*
G04 #@! TF.FileFunction,Soldermask,Top*
G04 #@! TF.FilePolarity,Negative*
%FSLAX46Y46*%
G04 Gerber Fmt 4.6, Leading zero omitted, Abs format (unit mm)*
G04 Created by KiCad (PCBNEW (5.0.0)) date 08/12/18 23:07:36*
%MOMM*%
%LPD*%
G01*
G04 APERTURE LIST*
%ADD10R,1.900000X1.900000*%
%ADD11C,1.900000*%
%ADD12O,3.000000X1.900000*%
%ADD13O,2.800000X2.000000*%
%ADD14O,3.000000X2.000000*%
%ADD15O,3.400000X2.600000*%
%ADD16C,2.200000*%
%ADD17C,2.000000*%
%ADD18O,2.100000X2.100000*%
%ADD19R,2.100000X2.100000*%
%ADD20R,2.200000X2.200000*%
%ADD21O,1.900000X3.000000*%
%ADD22O,2.000000X2.800000*%
%ADD23O,2.000000X3.000000*%
%ADD24O,3.956000X2.432000*%
%ADD25C,1.840000*%
G04 APERTURE END LIST*
D10*
G04 #@! TO.C,Q3*
X98298000Y-74422000D03*
D11*
X98298000Y-79502000D03*
X98298000Y-76962000D03*
G04 #@! TD*
G04 #@! TO.C,Q4*
X105156000Y-76962000D03*
X105156000Y-79502000D03*
D10*
X105156000Y-74422000D03*
G04 #@! TD*
G04 #@! TO.C,Q1*
X84836000Y-74422000D03*
D11*
X84836000Y-79502000D03*
X84836000Y-76962000D03*
G04 #@! TD*
G04 #@! TO.C,Q2*
X118110000Y-76962000D03*
X118110000Y-79502000D03*
D10*
X118110000Y-74422000D03*
G04 #@! TD*
D12*
G04 #@! TO.C,J2*
X91470480Y-102516920D03*
D13*
X91470480Y-113916920D03*
D14*
X91470480Y-110816920D03*
G04 #@! TD*
D15*
G04 #@! TO.C,RV8*
X116590480Y-56636920D03*
D16*
X109290480Y-64136930D03*
X111830480Y-64136930D03*
X114290480Y-64136930D03*
D15*
X106990480Y-56636920D03*
G04 #@! TD*
G04 #@! TO.C,RV7*
X96270480Y-56636920D03*
D16*
X88970480Y-64136930D03*
X91510480Y-64136930D03*
X93970480Y-64136930D03*
D15*
X86670480Y-56636920D03*
G04 #@! TD*
G04 #@! TO.C,RV2*
X116590480Y-36316920D03*
D16*
X109290480Y-43816930D03*
X111830480Y-43816930D03*
X114290480Y-43816930D03*
D15*
X106990480Y-36316920D03*
G04 #@! TD*
G04 #@! TO.C,RV1*
X96270480Y-36316920D03*
D16*
X88970480Y-43816930D03*
X91510480Y-43816930D03*
X93970480Y-43816930D03*
D15*
X86670480Y-36316920D03*
G04 #@! TD*
D17*
G04 #@! TO.C,C11*
X83850480Y-89736920D03*
X83850480Y-94736920D03*
G04 #@! TD*
G04 #@! TO.C,C13*
X119410480Y-89736920D03*
X119410480Y-94736920D03*
G04 #@! TD*
G04 #@! TO.C,C12*
X99170480Y-118866920D03*
X104170480Y-118866920D03*
G04 #@! TD*
G04 #@! TO.C,C14*
X99170480Y-123946920D03*
X104170480Y-123946920D03*
G04 #@! TD*
D18*
G04 #@! TO.C,J7*
X102900480Y-29966920D03*
X100360480Y-29966920D03*
X102900480Y-32506920D03*
X100360480Y-32506920D03*
X102900480Y-35046920D03*
X100360480Y-35046920D03*
X102900480Y-37586920D03*
X100360480Y-37586920D03*
X102900480Y-40126920D03*
D19*
X100360480Y-40126920D03*
G04 #@! TD*
D16*
G04 #@! TO.C,D3*
X101630480Y-47746920D03*
D20*
X101630480Y-45206920D03*
G04 #@! TD*
D16*
G04 #@! TO.C,D4*
X101630480Y-68066920D03*
D20*
X101630480Y-65526920D03*
G04 #@! TD*
D12*
G04 #@! TO.C,J5*
X111790480Y-102516920D03*
D13*
X111790480Y-113916920D03*
D14*
X111790480Y-110816920D03*
G04 #@! TD*
D12*
G04 #@! TO.C,J4*
X111790480Y-87276920D03*
D13*
X111790480Y-98676920D03*
D14*
X111790480Y-95576920D03*
G04 #@! TD*
D21*
G04 #@! TO.C,J3*
X96390480Y-122676920D03*
D22*
X84990480Y-122676920D03*
D23*
X88090480Y-122676920D03*
G04 #@! TD*
D12*
G04 #@! TO.C,J1*
X91470480Y-87276920D03*
D13*
X91470480Y-98676920D03*
D14*
X91470480Y-95576920D03*
G04 #@! TD*
D21*
G04 #@! TO.C,J6*
X106870480Y-122676920D03*
D22*
X118270480Y-122676920D03*
D23*
X115170480Y-122676920D03*
G04 #@! TD*
D24*
G04 #@! TO.C,SW2*
X111760000Y-81662000D03*
X111760000Y-76962000D03*
X111760000Y-72262000D03*
G04 #@! TD*
G04 #@! TO.C,SW1*
X91440000Y-81662000D03*
X91440000Y-76962000D03*
X91440000Y-72262000D03*
G04 #@! TD*
D25*
G04 #@! TO.C,RV5*
X84455000Y-114935000D03*
X84455000Y-112395000D03*
X84455000Y-109855000D03*
G04 #@! TD*
G04 #@! TO.C,RV6*
X118745000Y-114935000D03*
X118745000Y-112395000D03*
X118745000Y-109855000D03*
G04 #@! TD*
G04 #@! TO.C,RV3*
X84455000Y-104775000D03*
X84455000Y-102235000D03*
X84455000Y-99695000D03*
G04 #@! TD*
G04 #@! TO.C,RV4*
X118745000Y-104775000D03*
X118745000Y-102235000D03*
X118745000Y-99695000D03*
G04 #@! TD*
M02*
