G04 #@! TF.GenerationSoftware,KiCad,Pcbnew,(5.0.0)*
G04 #@! TF.CreationDate,2018-08-12T22:18:08+08:00*
G04 #@! TF.ProjectId,VCA,5643412E6B696361645F706362000000,rev?*
G04 #@! TF.SameCoordinates,PX18392c0PY18392c0*
G04 #@! TF.FileFunction,Paste,Bot*
G04 #@! TF.FilePolarity,Positive*
%FSLAX46Y46*%
G04 Gerber Fmt 4.6, Leading zero omitted, Abs format (unit mm)*
G04 Created by KiCad (PCBNEW (5.0.0)) date 08/12/18 22:18:08*
%MOMM*%
%LPD*%
G01*
G04 APERTURE LIST*
%ADD10R,1.500000X1.050000*%
%ADD11R,1.500000X2.400000*%
%ADD12C,0.100000*%
%ADD13C,0.975000*%
%ADD14R,1.600000X2.600000*%
%ADD15R,1.100000X1.100000*%
%ADD16R,1.500000X0.600000*%
G04 APERTURE END LIST*
D10*
G04 #@! TO.C,D7*
X106426000Y-42927000D03*
D11*
X106426000Y-40552000D03*
G04 #@! TD*
D12*
G04 #@! TO.C,R28*
G36*
X108460622Y-102203094D02*
X108484283Y-102206604D01*
X108507487Y-102212416D01*
X108530009Y-102220474D01*
X108551633Y-102230702D01*
X108572150Y-102242999D01*
X108591363Y-102257249D01*
X108609087Y-102273313D01*
X108625151Y-102291037D01*
X108639401Y-102310250D01*
X108651698Y-102330767D01*
X108661926Y-102352391D01*
X108669984Y-102374913D01*
X108675796Y-102398117D01*
X108679306Y-102421778D01*
X108680480Y-102445670D01*
X108680480Y-102933170D01*
X108679306Y-102957062D01*
X108675796Y-102980723D01*
X108669984Y-103003927D01*
X108661926Y-103026449D01*
X108651698Y-103048073D01*
X108639401Y-103068590D01*
X108625151Y-103087803D01*
X108609087Y-103105527D01*
X108591363Y-103121591D01*
X108572150Y-103135841D01*
X108551633Y-103148138D01*
X108530009Y-103158366D01*
X108507487Y-103166424D01*
X108484283Y-103172236D01*
X108460622Y-103175746D01*
X108436730Y-103176920D01*
X107524230Y-103176920D01*
X107500338Y-103175746D01*
X107476677Y-103172236D01*
X107453473Y-103166424D01*
X107430951Y-103158366D01*
X107409327Y-103148138D01*
X107388810Y-103135841D01*
X107369597Y-103121591D01*
X107351873Y-103105527D01*
X107335809Y-103087803D01*
X107321559Y-103068590D01*
X107309262Y-103048073D01*
X107299034Y-103026449D01*
X107290976Y-103003927D01*
X107285164Y-102980723D01*
X107281654Y-102957062D01*
X107280480Y-102933170D01*
X107280480Y-102445670D01*
X107281654Y-102421778D01*
X107285164Y-102398117D01*
X107290976Y-102374913D01*
X107299034Y-102352391D01*
X107309262Y-102330767D01*
X107321559Y-102310250D01*
X107335809Y-102291037D01*
X107351873Y-102273313D01*
X107369597Y-102257249D01*
X107388810Y-102242999D01*
X107409327Y-102230702D01*
X107430951Y-102220474D01*
X107453473Y-102212416D01*
X107476677Y-102206604D01*
X107500338Y-102203094D01*
X107524230Y-102201920D01*
X108436730Y-102201920D01*
X108460622Y-102203094D01*
X108460622Y-102203094D01*
G37*
D13*
X107980480Y-102689420D03*
D12*
G36*
X108460622Y-104078094D02*
X108484283Y-104081604D01*
X108507487Y-104087416D01*
X108530009Y-104095474D01*
X108551633Y-104105702D01*
X108572150Y-104117999D01*
X108591363Y-104132249D01*
X108609087Y-104148313D01*
X108625151Y-104166037D01*
X108639401Y-104185250D01*
X108651698Y-104205767D01*
X108661926Y-104227391D01*
X108669984Y-104249913D01*
X108675796Y-104273117D01*
X108679306Y-104296778D01*
X108680480Y-104320670D01*
X108680480Y-104808170D01*
X108679306Y-104832062D01*
X108675796Y-104855723D01*
X108669984Y-104878927D01*
X108661926Y-104901449D01*
X108651698Y-104923073D01*
X108639401Y-104943590D01*
X108625151Y-104962803D01*
X108609087Y-104980527D01*
X108591363Y-104996591D01*
X108572150Y-105010841D01*
X108551633Y-105023138D01*
X108530009Y-105033366D01*
X108507487Y-105041424D01*
X108484283Y-105047236D01*
X108460622Y-105050746D01*
X108436730Y-105051920D01*
X107524230Y-105051920D01*
X107500338Y-105050746D01*
X107476677Y-105047236D01*
X107453473Y-105041424D01*
X107430951Y-105033366D01*
X107409327Y-105023138D01*
X107388810Y-105010841D01*
X107369597Y-104996591D01*
X107351873Y-104980527D01*
X107335809Y-104962803D01*
X107321559Y-104943590D01*
X107309262Y-104923073D01*
X107299034Y-104901449D01*
X107290976Y-104878927D01*
X107285164Y-104855723D01*
X107281654Y-104832062D01*
X107280480Y-104808170D01*
X107280480Y-104320670D01*
X107281654Y-104296778D01*
X107285164Y-104273117D01*
X107290976Y-104249913D01*
X107299034Y-104227391D01*
X107309262Y-104205767D01*
X107321559Y-104185250D01*
X107335809Y-104166037D01*
X107351873Y-104148313D01*
X107369597Y-104132249D01*
X107388810Y-104117999D01*
X107409327Y-104105702D01*
X107430951Y-104095474D01*
X107453473Y-104087416D01*
X107476677Y-104081604D01*
X107500338Y-104078094D01*
X107524230Y-104076920D01*
X108436730Y-104076920D01*
X108460622Y-104078094D01*
X108460622Y-104078094D01*
G37*
D13*
X107980480Y-104564420D03*
G04 #@! TD*
D14*
G04 #@! TO.C,C10*
X111760000Y-38122000D03*
X111760000Y-34522000D03*
G04 #@! TD*
G04 #@! TO.C,C9*
X91440000Y-38122000D03*
X91440000Y-34522000D03*
G04 #@! TD*
D12*
G04 #@! TO.C,C1*
G36*
X88140622Y-85028094D02*
X88164283Y-85031604D01*
X88187487Y-85037416D01*
X88210009Y-85045474D01*
X88231633Y-85055702D01*
X88252150Y-85067999D01*
X88271363Y-85082249D01*
X88289087Y-85098313D01*
X88305151Y-85116037D01*
X88319401Y-85135250D01*
X88331698Y-85155767D01*
X88341926Y-85177391D01*
X88349984Y-85199913D01*
X88355796Y-85223117D01*
X88359306Y-85246778D01*
X88360480Y-85270670D01*
X88360480Y-85758170D01*
X88359306Y-85782062D01*
X88355796Y-85805723D01*
X88349984Y-85828927D01*
X88341926Y-85851449D01*
X88331698Y-85873073D01*
X88319401Y-85893590D01*
X88305151Y-85912803D01*
X88289087Y-85930527D01*
X88271363Y-85946591D01*
X88252150Y-85960841D01*
X88231633Y-85973138D01*
X88210009Y-85983366D01*
X88187487Y-85991424D01*
X88164283Y-85997236D01*
X88140622Y-86000746D01*
X88116730Y-86001920D01*
X87204230Y-86001920D01*
X87180338Y-86000746D01*
X87156677Y-85997236D01*
X87133473Y-85991424D01*
X87110951Y-85983366D01*
X87089327Y-85973138D01*
X87068810Y-85960841D01*
X87049597Y-85946591D01*
X87031873Y-85930527D01*
X87015809Y-85912803D01*
X87001559Y-85893590D01*
X86989262Y-85873073D01*
X86979034Y-85851449D01*
X86970976Y-85828927D01*
X86965164Y-85805723D01*
X86961654Y-85782062D01*
X86960480Y-85758170D01*
X86960480Y-85270670D01*
X86961654Y-85246778D01*
X86965164Y-85223117D01*
X86970976Y-85199913D01*
X86979034Y-85177391D01*
X86989262Y-85155767D01*
X87001559Y-85135250D01*
X87015809Y-85116037D01*
X87031873Y-85098313D01*
X87049597Y-85082249D01*
X87068810Y-85067999D01*
X87089327Y-85055702D01*
X87110951Y-85045474D01*
X87133473Y-85037416D01*
X87156677Y-85031604D01*
X87180338Y-85028094D01*
X87204230Y-85026920D01*
X88116730Y-85026920D01*
X88140622Y-85028094D01*
X88140622Y-85028094D01*
G37*
D13*
X87660480Y-85514420D03*
D12*
G36*
X88140622Y-83153094D02*
X88164283Y-83156604D01*
X88187487Y-83162416D01*
X88210009Y-83170474D01*
X88231633Y-83180702D01*
X88252150Y-83192999D01*
X88271363Y-83207249D01*
X88289087Y-83223313D01*
X88305151Y-83241037D01*
X88319401Y-83260250D01*
X88331698Y-83280767D01*
X88341926Y-83302391D01*
X88349984Y-83324913D01*
X88355796Y-83348117D01*
X88359306Y-83371778D01*
X88360480Y-83395670D01*
X88360480Y-83883170D01*
X88359306Y-83907062D01*
X88355796Y-83930723D01*
X88349984Y-83953927D01*
X88341926Y-83976449D01*
X88331698Y-83998073D01*
X88319401Y-84018590D01*
X88305151Y-84037803D01*
X88289087Y-84055527D01*
X88271363Y-84071591D01*
X88252150Y-84085841D01*
X88231633Y-84098138D01*
X88210009Y-84108366D01*
X88187487Y-84116424D01*
X88164283Y-84122236D01*
X88140622Y-84125746D01*
X88116730Y-84126920D01*
X87204230Y-84126920D01*
X87180338Y-84125746D01*
X87156677Y-84122236D01*
X87133473Y-84116424D01*
X87110951Y-84108366D01*
X87089327Y-84098138D01*
X87068810Y-84085841D01*
X87049597Y-84071591D01*
X87031873Y-84055527D01*
X87015809Y-84037803D01*
X87001559Y-84018590D01*
X86989262Y-83998073D01*
X86979034Y-83976449D01*
X86970976Y-83953927D01*
X86965164Y-83930723D01*
X86961654Y-83907062D01*
X86960480Y-83883170D01*
X86960480Y-83395670D01*
X86961654Y-83371778D01*
X86965164Y-83348117D01*
X86970976Y-83324913D01*
X86979034Y-83302391D01*
X86989262Y-83280767D01*
X87001559Y-83260250D01*
X87015809Y-83241037D01*
X87031873Y-83223313D01*
X87049597Y-83207249D01*
X87068810Y-83192999D01*
X87089327Y-83180702D01*
X87110951Y-83170474D01*
X87133473Y-83162416D01*
X87156677Y-83156604D01*
X87180338Y-83153094D01*
X87204230Y-83151920D01*
X88116730Y-83151920D01*
X88140622Y-83153094D01*
X88140622Y-83153094D01*
G37*
D13*
X87660480Y-83639420D03*
G04 #@! TD*
D12*
G04 #@! TO.C,C2*
G36*
X116080622Y-85028094D02*
X116104283Y-85031604D01*
X116127487Y-85037416D01*
X116150009Y-85045474D01*
X116171633Y-85055702D01*
X116192150Y-85067999D01*
X116211363Y-85082249D01*
X116229087Y-85098313D01*
X116245151Y-85116037D01*
X116259401Y-85135250D01*
X116271698Y-85155767D01*
X116281926Y-85177391D01*
X116289984Y-85199913D01*
X116295796Y-85223117D01*
X116299306Y-85246778D01*
X116300480Y-85270670D01*
X116300480Y-85758170D01*
X116299306Y-85782062D01*
X116295796Y-85805723D01*
X116289984Y-85828927D01*
X116281926Y-85851449D01*
X116271698Y-85873073D01*
X116259401Y-85893590D01*
X116245151Y-85912803D01*
X116229087Y-85930527D01*
X116211363Y-85946591D01*
X116192150Y-85960841D01*
X116171633Y-85973138D01*
X116150009Y-85983366D01*
X116127487Y-85991424D01*
X116104283Y-85997236D01*
X116080622Y-86000746D01*
X116056730Y-86001920D01*
X115144230Y-86001920D01*
X115120338Y-86000746D01*
X115096677Y-85997236D01*
X115073473Y-85991424D01*
X115050951Y-85983366D01*
X115029327Y-85973138D01*
X115008810Y-85960841D01*
X114989597Y-85946591D01*
X114971873Y-85930527D01*
X114955809Y-85912803D01*
X114941559Y-85893590D01*
X114929262Y-85873073D01*
X114919034Y-85851449D01*
X114910976Y-85828927D01*
X114905164Y-85805723D01*
X114901654Y-85782062D01*
X114900480Y-85758170D01*
X114900480Y-85270670D01*
X114901654Y-85246778D01*
X114905164Y-85223117D01*
X114910976Y-85199913D01*
X114919034Y-85177391D01*
X114929262Y-85155767D01*
X114941559Y-85135250D01*
X114955809Y-85116037D01*
X114971873Y-85098313D01*
X114989597Y-85082249D01*
X115008810Y-85067999D01*
X115029327Y-85055702D01*
X115050951Y-85045474D01*
X115073473Y-85037416D01*
X115096677Y-85031604D01*
X115120338Y-85028094D01*
X115144230Y-85026920D01*
X116056730Y-85026920D01*
X116080622Y-85028094D01*
X116080622Y-85028094D01*
G37*
D13*
X115600480Y-85514420D03*
D12*
G36*
X116080622Y-83153094D02*
X116104283Y-83156604D01*
X116127487Y-83162416D01*
X116150009Y-83170474D01*
X116171633Y-83180702D01*
X116192150Y-83192999D01*
X116211363Y-83207249D01*
X116229087Y-83223313D01*
X116245151Y-83241037D01*
X116259401Y-83260250D01*
X116271698Y-83280767D01*
X116281926Y-83302391D01*
X116289984Y-83324913D01*
X116295796Y-83348117D01*
X116299306Y-83371778D01*
X116300480Y-83395670D01*
X116300480Y-83883170D01*
X116299306Y-83907062D01*
X116295796Y-83930723D01*
X116289984Y-83953927D01*
X116281926Y-83976449D01*
X116271698Y-83998073D01*
X116259401Y-84018590D01*
X116245151Y-84037803D01*
X116229087Y-84055527D01*
X116211363Y-84071591D01*
X116192150Y-84085841D01*
X116171633Y-84098138D01*
X116150009Y-84108366D01*
X116127487Y-84116424D01*
X116104283Y-84122236D01*
X116080622Y-84125746D01*
X116056730Y-84126920D01*
X115144230Y-84126920D01*
X115120338Y-84125746D01*
X115096677Y-84122236D01*
X115073473Y-84116424D01*
X115050951Y-84108366D01*
X115029327Y-84098138D01*
X115008810Y-84085841D01*
X114989597Y-84071591D01*
X114971873Y-84055527D01*
X114955809Y-84037803D01*
X114941559Y-84018590D01*
X114929262Y-83998073D01*
X114919034Y-83976449D01*
X114910976Y-83953927D01*
X114905164Y-83930723D01*
X114901654Y-83907062D01*
X114900480Y-83883170D01*
X114900480Y-83395670D01*
X114901654Y-83371778D01*
X114905164Y-83348117D01*
X114910976Y-83324913D01*
X114919034Y-83302391D01*
X114929262Y-83280767D01*
X114941559Y-83260250D01*
X114955809Y-83241037D01*
X114971873Y-83223313D01*
X114989597Y-83207249D01*
X115008810Y-83192999D01*
X115029327Y-83180702D01*
X115050951Y-83170474D01*
X115073473Y-83162416D01*
X115096677Y-83156604D01*
X115120338Y-83153094D01*
X115144230Y-83151920D01*
X116056730Y-83151920D01*
X116080622Y-83153094D01*
X116080622Y-83153094D01*
G37*
D13*
X115600480Y-83639420D03*
G04 #@! TD*
D12*
G04 #@! TO.C,C3*
G36*
X91950622Y-90773094D02*
X91974283Y-90776604D01*
X91997487Y-90782416D01*
X92020009Y-90790474D01*
X92041633Y-90800702D01*
X92062150Y-90812999D01*
X92081363Y-90827249D01*
X92099087Y-90843313D01*
X92115151Y-90861037D01*
X92129401Y-90880250D01*
X92141698Y-90900767D01*
X92151926Y-90922391D01*
X92159984Y-90944913D01*
X92165796Y-90968117D01*
X92169306Y-90991778D01*
X92170480Y-91015670D01*
X92170480Y-91503170D01*
X92169306Y-91527062D01*
X92165796Y-91550723D01*
X92159984Y-91573927D01*
X92151926Y-91596449D01*
X92141698Y-91618073D01*
X92129401Y-91638590D01*
X92115151Y-91657803D01*
X92099087Y-91675527D01*
X92081363Y-91691591D01*
X92062150Y-91705841D01*
X92041633Y-91718138D01*
X92020009Y-91728366D01*
X91997487Y-91736424D01*
X91974283Y-91742236D01*
X91950622Y-91745746D01*
X91926730Y-91746920D01*
X91014230Y-91746920D01*
X90990338Y-91745746D01*
X90966677Y-91742236D01*
X90943473Y-91736424D01*
X90920951Y-91728366D01*
X90899327Y-91718138D01*
X90878810Y-91705841D01*
X90859597Y-91691591D01*
X90841873Y-91675527D01*
X90825809Y-91657803D01*
X90811559Y-91638590D01*
X90799262Y-91618073D01*
X90789034Y-91596449D01*
X90780976Y-91573927D01*
X90775164Y-91550723D01*
X90771654Y-91527062D01*
X90770480Y-91503170D01*
X90770480Y-91015670D01*
X90771654Y-90991778D01*
X90775164Y-90968117D01*
X90780976Y-90944913D01*
X90789034Y-90922391D01*
X90799262Y-90900767D01*
X90811559Y-90880250D01*
X90825809Y-90861037D01*
X90841873Y-90843313D01*
X90859597Y-90827249D01*
X90878810Y-90812999D01*
X90899327Y-90800702D01*
X90920951Y-90790474D01*
X90943473Y-90782416D01*
X90966677Y-90776604D01*
X90990338Y-90773094D01*
X91014230Y-90771920D01*
X91926730Y-90771920D01*
X91950622Y-90773094D01*
X91950622Y-90773094D01*
G37*
D13*
X91470480Y-91259420D03*
D12*
G36*
X91950622Y-92648094D02*
X91974283Y-92651604D01*
X91997487Y-92657416D01*
X92020009Y-92665474D01*
X92041633Y-92675702D01*
X92062150Y-92687999D01*
X92081363Y-92702249D01*
X92099087Y-92718313D01*
X92115151Y-92736037D01*
X92129401Y-92755250D01*
X92141698Y-92775767D01*
X92151926Y-92797391D01*
X92159984Y-92819913D01*
X92165796Y-92843117D01*
X92169306Y-92866778D01*
X92170480Y-92890670D01*
X92170480Y-93378170D01*
X92169306Y-93402062D01*
X92165796Y-93425723D01*
X92159984Y-93448927D01*
X92151926Y-93471449D01*
X92141698Y-93493073D01*
X92129401Y-93513590D01*
X92115151Y-93532803D01*
X92099087Y-93550527D01*
X92081363Y-93566591D01*
X92062150Y-93580841D01*
X92041633Y-93593138D01*
X92020009Y-93603366D01*
X91997487Y-93611424D01*
X91974283Y-93617236D01*
X91950622Y-93620746D01*
X91926730Y-93621920D01*
X91014230Y-93621920D01*
X90990338Y-93620746D01*
X90966677Y-93617236D01*
X90943473Y-93611424D01*
X90920951Y-93603366D01*
X90899327Y-93593138D01*
X90878810Y-93580841D01*
X90859597Y-93566591D01*
X90841873Y-93550527D01*
X90825809Y-93532803D01*
X90811559Y-93513590D01*
X90799262Y-93493073D01*
X90789034Y-93471449D01*
X90780976Y-93448927D01*
X90775164Y-93425723D01*
X90771654Y-93402062D01*
X90770480Y-93378170D01*
X90770480Y-92890670D01*
X90771654Y-92866778D01*
X90775164Y-92843117D01*
X90780976Y-92819913D01*
X90789034Y-92797391D01*
X90799262Y-92775767D01*
X90811559Y-92755250D01*
X90825809Y-92736037D01*
X90841873Y-92718313D01*
X90859597Y-92702249D01*
X90878810Y-92687999D01*
X90899327Y-92675702D01*
X90920951Y-92665474D01*
X90943473Y-92657416D01*
X90966677Y-92651604D01*
X90990338Y-92648094D01*
X91014230Y-92646920D01*
X91926730Y-92646920D01*
X91950622Y-92648094D01*
X91950622Y-92648094D01*
G37*
D13*
X91470480Y-93134420D03*
G04 #@! TD*
D12*
G04 #@! TO.C,C4*
G36*
X112270622Y-90773094D02*
X112294283Y-90776604D01*
X112317487Y-90782416D01*
X112340009Y-90790474D01*
X112361633Y-90800702D01*
X112382150Y-90812999D01*
X112401363Y-90827249D01*
X112419087Y-90843313D01*
X112435151Y-90861037D01*
X112449401Y-90880250D01*
X112461698Y-90900767D01*
X112471926Y-90922391D01*
X112479984Y-90944913D01*
X112485796Y-90968117D01*
X112489306Y-90991778D01*
X112490480Y-91015670D01*
X112490480Y-91503170D01*
X112489306Y-91527062D01*
X112485796Y-91550723D01*
X112479984Y-91573927D01*
X112471926Y-91596449D01*
X112461698Y-91618073D01*
X112449401Y-91638590D01*
X112435151Y-91657803D01*
X112419087Y-91675527D01*
X112401363Y-91691591D01*
X112382150Y-91705841D01*
X112361633Y-91718138D01*
X112340009Y-91728366D01*
X112317487Y-91736424D01*
X112294283Y-91742236D01*
X112270622Y-91745746D01*
X112246730Y-91746920D01*
X111334230Y-91746920D01*
X111310338Y-91745746D01*
X111286677Y-91742236D01*
X111263473Y-91736424D01*
X111240951Y-91728366D01*
X111219327Y-91718138D01*
X111198810Y-91705841D01*
X111179597Y-91691591D01*
X111161873Y-91675527D01*
X111145809Y-91657803D01*
X111131559Y-91638590D01*
X111119262Y-91618073D01*
X111109034Y-91596449D01*
X111100976Y-91573927D01*
X111095164Y-91550723D01*
X111091654Y-91527062D01*
X111090480Y-91503170D01*
X111090480Y-91015670D01*
X111091654Y-90991778D01*
X111095164Y-90968117D01*
X111100976Y-90944913D01*
X111109034Y-90922391D01*
X111119262Y-90900767D01*
X111131559Y-90880250D01*
X111145809Y-90861037D01*
X111161873Y-90843313D01*
X111179597Y-90827249D01*
X111198810Y-90812999D01*
X111219327Y-90800702D01*
X111240951Y-90790474D01*
X111263473Y-90782416D01*
X111286677Y-90776604D01*
X111310338Y-90773094D01*
X111334230Y-90771920D01*
X112246730Y-90771920D01*
X112270622Y-90773094D01*
X112270622Y-90773094D01*
G37*
D13*
X111790480Y-91259420D03*
D12*
G36*
X112270622Y-92648094D02*
X112294283Y-92651604D01*
X112317487Y-92657416D01*
X112340009Y-92665474D01*
X112361633Y-92675702D01*
X112382150Y-92687999D01*
X112401363Y-92702249D01*
X112419087Y-92718313D01*
X112435151Y-92736037D01*
X112449401Y-92755250D01*
X112461698Y-92775767D01*
X112471926Y-92797391D01*
X112479984Y-92819913D01*
X112485796Y-92843117D01*
X112489306Y-92866778D01*
X112490480Y-92890670D01*
X112490480Y-93378170D01*
X112489306Y-93402062D01*
X112485796Y-93425723D01*
X112479984Y-93448927D01*
X112471926Y-93471449D01*
X112461698Y-93493073D01*
X112449401Y-93513590D01*
X112435151Y-93532803D01*
X112419087Y-93550527D01*
X112401363Y-93566591D01*
X112382150Y-93580841D01*
X112361633Y-93593138D01*
X112340009Y-93603366D01*
X112317487Y-93611424D01*
X112294283Y-93617236D01*
X112270622Y-93620746D01*
X112246730Y-93621920D01*
X111334230Y-93621920D01*
X111310338Y-93620746D01*
X111286677Y-93617236D01*
X111263473Y-93611424D01*
X111240951Y-93603366D01*
X111219327Y-93593138D01*
X111198810Y-93580841D01*
X111179597Y-93566591D01*
X111161873Y-93550527D01*
X111145809Y-93532803D01*
X111131559Y-93513590D01*
X111119262Y-93493073D01*
X111109034Y-93471449D01*
X111100976Y-93448927D01*
X111095164Y-93425723D01*
X111091654Y-93402062D01*
X111090480Y-93378170D01*
X111090480Y-92890670D01*
X111091654Y-92866778D01*
X111095164Y-92843117D01*
X111100976Y-92819913D01*
X111109034Y-92797391D01*
X111119262Y-92775767D01*
X111131559Y-92755250D01*
X111145809Y-92736037D01*
X111161873Y-92718313D01*
X111179597Y-92702249D01*
X111198810Y-92687999D01*
X111219327Y-92675702D01*
X111240951Y-92665474D01*
X111263473Y-92657416D01*
X111286677Y-92651604D01*
X111310338Y-92648094D01*
X111334230Y-92646920D01*
X112246730Y-92646920D01*
X112270622Y-92648094D01*
X112270622Y-92648094D01*
G37*
D13*
X111790480Y-93134420D03*
G04 #@! TD*
D12*
G04 #@! TO.C,C5*
G36*
X108460622Y-107283094D02*
X108484283Y-107286604D01*
X108507487Y-107292416D01*
X108530009Y-107300474D01*
X108551633Y-107310702D01*
X108572150Y-107322999D01*
X108591363Y-107337249D01*
X108609087Y-107353313D01*
X108625151Y-107371037D01*
X108639401Y-107390250D01*
X108651698Y-107410767D01*
X108661926Y-107432391D01*
X108669984Y-107454913D01*
X108675796Y-107478117D01*
X108679306Y-107501778D01*
X108680480Y-107525670D01*
X108680480Y-108013170D01*
X108679306Y-108037062D01*
X108675796Y-108060723D01*
X108669984Y-108083927D01*
X108661926Y-108106449D01*
X108651698Y-108128073D01*
X108639401Y-108148590D01*
X108625151Y-108167803D01*
X108609087Y-108185527D01*
X108591363Y-108201591D01*
X108572150Y-108215841D01*
X108551633Y-108228138D01*
X108530009Y-108238366D01*
X108507487Y-108246424D01*
X108484283Y-108252236D01*
X108460622Y-108255746D01*
X108436730Y-108256920D01*
X107524230Y-108256920D01*
X107500338Y-108255746D01*
X107476677Y-108252236D01*
X107453473Y-108246424D01*
X107430951Y-108238366D01*
X107409327Y-108228138D01*
X107388810Y-108215841D01*
X107369597Y-108201591D01*
X107351873Y-108185527D01*
X107335809Y-108167803D01*
X107321559Y-108148590D01*
X107309262Y-108128073D01*
X107299034Y-108106449D01*
X107290976Y-108083927D01*
X107285164Y-108060723D01*
X107281654Y-108037062D01*
X107280480Y-108013170D01*
X107280480Y-107525670D01*
X107281654Y-107501778D01*
X107285164Y-107478117D01*
X107290976Y-107454913D01*
X107299034Y-107432391D01*
X107309262Y-107410767D01*
X107321559Y-107390250D01*
X107335809Y-107371037D01*
X107351873Y-107353313D01*
X107369597Y-107337249D01*
X107388810Y-107322999D01*
X107409327Y-107310702D01*
X107430951Y-107300474D01*
X107453473Y-107292416D01*
X107476677Y-107286604D01*
X107500338Y-107283094D01*
X107524230Y-107281920D01*
X108436730Y-107281920D01*
X108460622Y-107283094D01*
X108460622Y-107283094D01*
G37*
D13*
X107980480Y-107769420D03*
D12*
G36*
X108460622Y-109158094D02*
X108484283Y-109161604D01*
X108507487Y-109167416D01*
X108530009Y-109175474D01*
X108551633Y-109185702D01*
X108572150Y-109197999D01*
X108591363Y-109212249D01*
X108609087Y-109228313D01*
X108625151Y-109246037D01*
X108639401Y-109265250D01*
X108651698Y-109285767D01*
X108661926Y-109307391D01*
X108669984Y-109329913D01*
X108675796Y-109353117D01*
X108679306Y-109376778D01*
X108680480Y-109400670D01*
X108680480Y-109888170D01*
X108679306Y-109912062D01*
X108675796Y-109935723D01*
X108669984Y-109958927D01*
X108661926Y-109981449D01*
X108651698Y-110003073D01*
X108639401Y-110023590D01*
X108625151Y-110042803D01*
X108609087Y-110060527D01*
X108591363Y-110076591D01*
X108572150Y-110090841D01*
X108551633Y-110103138D01*
X108530009Y-110113366D01*
X108507487Y-110121424D01*
X108484283Y-110127236D01*
X108460622Y-110130746D01*
X108436730Y-110131920D01*
X107524230Y-110131920D01*
X107500338Y-110130746D01*
X107476677Y-110127236D01*
X107453473Y-110121424D01*
X107430951Y-110113366D01*
X107409327Y-110103138D01*
X107388810Y-110090841D01*
X107369597Y-110076591D01*
X107351873Y-110060527D01*
X107335809Y-110042803D01*
X107321559Y-110023590D01*
X107309262Y-110003073D01*
X107299034Y-109981449D01*
X107290976Y-109958927D01*
X107285164Y-109935723D01*
X107281654Y-109912062D01*
X107280480Y-109888170D01*
X107280480Y-109400670D01*
X107281654Y-109376778D01*
X107285164Y-109353117D01*
X107290976Y-109329913D01*
X107299034Y-109307391D01*
X107309262Y-109285767D01*
X107321559Y-109265250D01*
X107335809Y-109246037D01*
X107351873Y-109228313D01*
X107369597Y-109212249D01*
X107388810Y-109197999D01*
X107409327Y-109185702D01*
X107430951Y-109175474D01*
X107453473Y-109167416D01*
X107476677Y-109161604D01*
X107500338Y-109158094D01*
X107524230Y-109156920D01*
X108436730Y-109156920D01*
X108460622Y-109158094D01*
X108460622Y-109158094D01*
G37*
D13*
X107980480Y-109644420D03*
G04 #@! TD*
D12*
G04 #@! TO.C,C6*
G36*
X95760622Y-107283094D02*
X95784283Y-107286604D01*
X95807487Y-107292416D01*
X95830009Y-107300474D01*
X95851633Y-107310702D01*
X95872150Y-107322999D01*
X95891363Y-107337249D01*
X95909087Y-107353313D01*
X95925151Y-107371037D01*
X95939401Y-107390250D01*
X95951698Y-107410767D01*
X95961926Y-107432391D01*
X95969984Y-107454913D01*
X95975796Y-107478117D01*
X95979306Y-107501778D01*
X95980480Y-107525670D01*
X95980480Y-108013170D01*
X95979306Y-108037062D01*
X95975796Y-108060723D01*
X95969984Y-108083927D01*
X95961926Y-108106449D01*
X95951698Y-108128073D01*
X95939401Y-108148590D01*
X95925151Y-108167803D01*
X95909087Y-108185527D01*
X95891363Y-108201591D01*
X95872150Y-108215841D01*
X95851633Y-108228138D01*
X95830009Y-108238366D01*
X95807487Y-108246424D01*
X95784283Y-108252236D01*
X95760622Y-108255746D01*
X95736730Y-108256920D01*
X94824230Y-108256920D01*
X94800338Y-108255746D01*
X94776677Y-108252236D01*
X94753473Y-108246424D01*
X94730951Y-108238366D01*
X94709327Y-108228138D01*
X94688810Y-108215841D01*
X94669597Y-108201591D01*
X94651873Y-108185527D01*
X94635809Y-108167803D01*
X94621559Y-108148590D01*
X94609262Y-108128073D01*
X94599034Y-108106449D01*
X94590976Y-108083927D01*
X94585164Y-108060723D01*
X94581654Y-108037062D01*
X94580480Y-108013170D01*
X94580480Y-107525670D01*
X94581654Y-107501778D01*
X94585164Y-107478117D01*
X94590976Y-107454913D01*
X94599034Y-107432391D01*
X94609262Y-107410767D01*
X94621559Y-107390250D01*
X94635809Y-107371037D01*
X94651873Y-107353313D01*
X94669597Y-107337249D01*
X94688810Y-107322999D01*
X94709327Y-107310702D01*
X94730951Y-107300474D01*
X94753473Y-107292416D01*
X94776677Y-107286604D01*
X94800338Y-107283094D01*
X94824230Y-107281920D01*
X95736730Y-107281920D01*
X95760622Y-107283094D01*
X95760622Y-107283094D01*
G37*
D13*
X95280480Y-107769420D03*
D12*
G36*
X95760622Y-109158094D02*
X95784283Y-109161604D01*
X95807487Y-109167416D01*
X95830009Y-109175474D01*
X95851633Y-109185702D01*
X95872150Y-109197999D01*
X95891363Y-109212249D01*
X95909087Y-109228313D01*
X95925151Y-109246037D01*
X95939401Y-109265250D01*
X95951698Y-109285767D01*
X95961926Y-109307391D01*
X95969984Y-109329913D01*
X95975796Y-109353117D01*
X95979306Y-109376778D01*
X95980480Y-109400670D01*
X95980480Y-109888170D01*
X95979306Y-109912062D01*
X95975796Y-109935723D01*
X95969984Y-109958927D01*
X95961926Y-109981449D01*
X95951698Y-110003073D01*
X95939401Y-110023590D01*
X95925151Y-110042803D01*
X95909087Y-110060527D01*
X95891363Y-110076591D01*
X95872150Y-110090841D01*
X95851633Y-110103138D01*
X95830009Y-110113366D01*
X95807487Y-110121424D01*
X95784283Y-110127236D01*
X95760622Y-110130746D01*
X95736730Y-110131920D01*
X94824230Y-110131920D01*
X94800338Y-110130746D01*
X94776677Y-110127236D01*
X94753473Y-110121424D01*
X94730951Y-110113366D01*
X94709327Y-110103138D01*
X94688810Y-110090841D01*
X94669597Y-110076591D01*
X94651873Y-110060527D01*
X94635809Y-110042803D01*
X94621559Y-110023590D01*
X94609262Y-110003073D01*
X94599034Y-109981449D01*
X94590976Y-109958927D01*
X94585164Y-109935723D01*
X94581654Y-109912062D01*
X94580480Y-109888170D01*
X94580480Y-109400670D01*
X94581654Y-109376778D01*
X94585164Y-109353117D01*
X94590976Y-109329913D01*
X94599034Y-109307391D01*
X94609262Y-109285767D01*
X94621559Y-109265250D01*
X94635809Y-109246037D01*
X94651873Y-109228313D01*
X94669597Y-109212249D01*
X94688810Y-109197999D01*
X94709327Y-109185702D01*
X94730951Y-109175474D01*
X94753473Y-109167416D01*
X94776677Y-109161604D01*
X94800338Y-109158094D01*
X94824230Y-109156920D01*
X95736730Y-109156920D01*
X95760622Y-109158094D01*
X95760622Y-109158094D01*
G37*
D13*
X95280480Y-109644420D03*
G04 #@! TD*
D12*
G04 #@! TO.C,C7*
G36*
X108460622Y-88203094D02*
X108484283Y-88206604D01*
X108507487Y-88212416D01*
X108530009Y-88220474D01*
X108551633Y-88230702D01*
X108572150Y-88242999D01*
X108591363Y-88257249D01*
X108609087Y-88273313D01*
X108625151Y-88291037D01*
X108639401Y-88310250D01*
X108651698Y-88330767D01*
X108661926Y-88352391D01*
X108669984Y-88374913D01*
X108675796Y-88398117D01*
X108679306Y-88421778D01*
X108680480Y-88445670D01*
X108680480Y-88933170D01*
X108679306Y-88957062D01*
X108675796Y-88980723D01*
X108669984Y-89003927D01*
X108661926Y-89026449D01*
X108651698Y-89048073D01*
X108639401Y-89068590D01*
X108625151Y-89087803D01*
X108609087Y-89105527D01*
X108591363Y-89121591D01*
X108572150Y-89135841D01*
X108551633Y-89148138D01*
X108530009Y-89158366D01*
X108507487Y-89166424D01*
X108484283Y-89172236D01*
X108460622Y-89175746D01*
X108436730Y-89176920D01*
X107524230Y-89176920D01*
X107500338Y-89175746D01*
X107476677Y-89172236D01*
X107453473Y-89166424D01*
X107430951Y-89158366D01*
X107409327Y-89148138D01*
X107388810Y-89135841D01*
X107369597Y-89121591D01*
X107351873Y-89105527D01*
X107335809Y-89087803D01*
X107321559Y-89068590D01*
X107309262Y-89048073D01*
X107299034Y-89026449D01*
X107290976Y-89003927D01*
X107285164Y-88980723D01*
X107281654Y-88957062D01*
X107280480Y-88933170D01*
X107280480Y-88445670D01*
X107281654Y-88421778D01*
X107285164Y-88398117D01*
X107290976Y-88374913D01*
X107299034Y-88352391D01*
X107309262Y-88330767D01*
X107321559Y-88310250D01*
X107335809Y-88291037D01*
X107351873Y-88273313D01*
X107369597Y-88257249D01*
X107388810Y-88242999D01*
X107409327Y-88230702D01*
X107430951Y-88220474D01*
X107453473Y-88212416D01*
X107476677Y-88206604D01*
X107500338Y-88203094D01*
X107524230Y-88201920D01*
X108436730Y-88201920D01*
X108460622Y-88203094D01*
X108460622Y-88203094D01*
G37*
D13*
X107980480Y-88689420D03*
D12*
G36*
X108460622Y-86328094D02*
X108484283Y-86331604D01*
X108507487Y-86337416D01*
X108530009Y-86345474D01*
X108551633Y-86355702D01*
X108572150Y-86367999D01*
X108591363Y-86382249D01*
X108609087Y-86398313D01*
X108625151Y-86416037D01*
X108639401Y-86435250D01*
X108651698Y-86455767D01*
X108661926Y-86477391D01*
X108669984Y-86499913D01*
X108675796Y-86523117D01*
X108679306Y-86546778D01*
X108680480Y-86570670D01*
X108680480Y-87058170D01*
X108679306Y-87082062D01*
X108675796Y-87105723D01*
X108669984Y-87128927D01*
X108661926Y-87151449D01*
X108651698Y-87173073D01*
X108639401Y-87193590D01*
X108625151Y-87212803D01*
X108609087Y-87230527D01*
X108591363Y-87246591D01*
X108572150Y-87260841D01*
X108551633Y-87273138D01*
X108530009Y-87283366D01*
X108507487Y-87291424D01*
X108484283Y-87297236D01*
X108460622Y-87300746D01*
X108436730Y-87301920D01*
X107524230Y-87301920D01*
X107500338Y-87300746D01*
X107476677Y-87297236D01*
X107453473Y-87291424D01*
X107430951Y-87283366D01*
X107409327Y-87273138D01*
X107388810Y-87260841D01*
X107369597Y-87246591D01*
X107351873Y-87230527D01*
X107335809Y-87212803D01*
X107321559Y-87193590D01*
X107309262Y-87173073D01*
X107299034Y-87151449D01*
X107290976Y-87128927D01*
X107285164Y-87105723D01*
X107281654Y-87082062D01*
X107280480Y-87058170D01*
X107280480Y-86570670D01*
X107281654Y-86546778D01*
X107285164Y-86523117D01*
X107290976Y-86499913D01*
X107299034Y-86477391D01*
X107309262Y-86455767D01*
X107321559Y-86435250D01*
X107335809Y-86416037D01*
X107351873Y-86398313D01*
X107369597Y-86382249D01*
X107388810Y-86367999D01*
X107409327Y-86355702D01*
X107430951Y-86345474D01*
X107453473Y-86337416D01*
X107476677Y-86331604D01*
X107500338Y-86328094D01*
X107524230Y-86326920D01*
X108436730Y-86326920D01*
X108460622Y-86328094D01*
X108460622Y-86328094D01*
G37*
D13*
X107980480Y-86814420D03*
G04 #@! TD*
D12*
G04 #@! TO.C,C8*
G36*
X95760622Y-86328094D02*
X95784283Y-86331604D01*
X95807487Y-86337416D01*
X95830009Y-86345474D01*
X95851633Y-86355702D01*
X95872150Y-86367999D01*
X95891363Y-86382249D01*
X95909087Y-86398313D01*
X95925151Y-86416037D01*
X95939401Y-86435250D01*
X95951698Y-86455767D01*
X95961926Y-86477391D01*
X95969984Y-86499913D01*
X95975796Y-86523117D01*
X95979306Y-86546778D01*
X95980480Y-86570670D01*
X95980480Y-87058170D01*
X95979306Y-87082062D01*
X95975796Y-87105723D01*
X95969984Y-87128927D01*
X95961926Y-87151449D01*
X95951698Y-87173073D01*
X95939401Y-87193590D01*
X95925151Y-87212803D01*
X95909087Y-87230527D01*
X95891363Y-87246591D01*
X95872150Y-87260841D01*
X95851633Y-87273138D01*
X95830009Y-87283366D01*
X95807487Y-87291424D01*
X95784283Y-87297236D01*
X95760622Y-87300746D01*
X95736730Y-87301920D01*
X94824230Y-87301920D01*
X94800338Y-87300746D01*
X94776677Y-87297236D01*
X94753473Y-87291424D01*
X94730951Y-87283366D01*
X94709327Y-87273138D01*
X94688810Y-87260841D01*
X94669597Y-87246591D01*
X94651873Y-87230527D01*
X94635809Y-87212803D01*
X94621559Y-87193590D01*
X94609262Y-87173073D01*
X94599034Y-87151449D01*
X94590976Y-87128927D01*
X94585164Y-87105723D01*
X94581654Y-87082062D01*
X94580480Y-87058170D01*
X94580480Y-86570670D01*
X94581654Y-86546778D01*
X94585164Y-86523117D01*
X94590976Y-86499913D01*
X94599034Y-86477391D01*
X94609262Y-86455767D01*
X94621559Y-86435250D01*
X94635809Y-86416037D01*
X94651873Y-86398313D01*
X94669597Y-86382249D01*
X94688810Y-86367999D01*
X94709327Y-86355702D01*
X94730951Y-86345474D01*
X94753473Y-86337416D01*
X94776677Y-86331604D01*
X94800338Y-86328094D01*
X94824230Y-86326920D01*
X95736730Y-86326920D01*
X95760622Y-86328094D01*
X95760622Y-86328094D01*
G37*
D13*
X95280480Y-86814420D03*
D12*
G36*
X95760622Y-88203094D02*
X95784283Y-88206604D01*
X95807487Y-88212416D01*
X95830009Y-88220474D01*
X95851633Y-88230702D01*
X95872150Y-88242999D01*
X95891363Y-88257249D01*
X95909087Y-88273313D01*
X95925151Y-88291037D01*
X95939401Y-88310250D01*
X95951698Y-88330767D01*
X95961926Y-88352391D01*
X95969984Y-88374913D01*
X95975796Y-88398117D01*
X95979306Y-88421778D01*
X95980480Y-88445670D01*
X95980480Y-88933170D01*
X95979306Y-88957062D01*
X95975796Y-88980723D01*
X95969984Y-89003927D01*
X95961926Y-89026449D01*
X95951698Y-89048073D01*
X95939401Y-89068590D01*
X95925151Y-89087803D01*
X95909087Y-89105527D01*
X95891363Y-89121591D01*
X95872150Y-89135841D01*
X95851633Y-89148138D01*
X95830009Y-89158366D01*
X95807487Y-89166424D01*
X95784283Y-89172236D01*
X95760622Y-89175746D01*
X95736730Y-89176920D01*
X94824230Y-89176920D01*
X94800338Y-89175746D01*
X94776677Y-89172236D01*
X94753473Y-89166424D01*
X94730951Y-89158366D01*
X94709327Y-89148138D01*
X94688810Y-89135841D01*
X94669597Y-89121591D01*
X94651873Y-89105527D01*
X94635809Y-89087803D01*
X94621559Y-89068590D01*
X94609262Y-89048073D01*
X94599034Y-89026449D01*
X94590976Y-89003927D01*
X94585164Y-88980723D01*
X94581654Y-88957062D01*
X94580480Y-88933170D01*
X94580480Y-88445670D01*
X94581654Y-88421778D01*
X94585164Y-88398117D01*
X94590976Y-88374913D01*
X94599034Y-88352391D01*
X94609262Y-88330767D01*
X94621559Y-88310250D01*
X94635809Y-88291037D01*
X94651873Y-88273313D01*
X94669597Y-88257249D01*
X94688810Y-88242999D01*
X94709327Y-88230702D01*
X94730951Y-88220474D01*
X94753473Y-88212416D01*
X94776677Y-88206604D01*
X94800338Y-88203094D01*
X94824230Y-88201920D01*
X95736730Y-88201920D01*
X95760622Y-88203094D01*
X95760622Y-88203094D01*
G37*
D13*
X95280480Y-88689420D03*
G04 #@! TD*
D10*
G04 #@! TO.C,D6*
X95280480Y-29711920D03*
D11*
X95280480Y-32086920D03*
G04 #@! TD*
D15*
G04 #@! TO.C,D1*
X87660480Y-95501920D03*
X87660480Y-92701920D03*
G04 #@! TD*
G04 #@! TO.C,D2*
X115600480Y-95501920D03*
X115600480Y-92701920D03*
G04 #@! TD*
G04 #@! TO.C,D5*
X102900480Y-99946920D03*
X102900480Y-97146920D03*
G04 #@! TD*
D16*
G04 #@! TO.C,U1*
X104330480Y-92196920D03*
X104330480Y-90926920D03*
X104330480Y-89656920D03*
X104330480Y-88386920D03*
X104330480Y-87116920D03*
X104330480Y-85846920D03*
X104330480Y-84576920D03*
X98930480Y-84576920D03*
X98930480Y-85846920D03*
X98930480Y-87116920D03*
X98930480Y-88386920D03*
X98930480Y-89656920D03*
X98930480Y-90926920D03*
X98930480Y-92196920D03*
G04 #@! TD*
G04 #@! TO.C,U2*
X98930480Y-104261920D03*
X98930480Y-105531920D03*
X98930480Y-106801920D03*
X98930480Y-108071920D03*
X98930480Y-109341920D03*
X98930480Y-110611920D03*
X98930480Y-111881920D03*
X98930480Y-113151920D03*
X104330480Y-113151920D03*
X104330480Y-111881920D03*
X104330480Y-110611920D03*
X104330480Y-109341920D03*
X104330480Y-108071920D03*
X104330480Y-106801920D03*
X104330480Y-105531920D03*
X104330480Y-104261920D03*
G04 #@! TD*
D12*
G04 #@! TO.C,R10*
G36*
X114175622Y-46958094D02*
X114199283Y-46961604D01*
X114222487Y-46967416D01*
X114245009Y-46975474D01*
X114266633Y-46985702D01*
X114287150Y-46997999D01*
X114306363Y-47012249D01*
X114324087Y-47028313D01*
X114340151Y-47046037D01*
X114354401Y-47065250D01*
X114366698Y-47085767D01*
X114376926Y-47107391D01*
X114384984Y-47129913D01*
X114390796Y-47153117D01*
X114394306Y-47176778D01*
X114395480Y-47200670D01*
X114395480Y-47688170D01*
X114394306Y-47712062D01*
X114390796Y-47735723D01*
X114384984Y-47758927D01*
X114376926Y-47781449D01*
X114366698Y-47803073D01*
X114354401Y-47823590D01*
X114340151Y-47842803D01*
X114324087Y-47860527D01*
X114306363Y-47876591D01*
X114287150Y-47890841D01*
X114266633Y-47903138D01*
X114245009Y-47913366D01*
X114222487Y-47921424D01*
X114199283Y-47927236D01*
X114175622Y-47930746D01*
X114151730Y-47931920D01*
X113239230Y-47931920D01*
X113215338Y-47930746D01*
X113191677Y-47927236D01*
X113168473Y-47921424D01*
X113145951Y-47913366D01*
X113124327Y-47903138D01*
X113103810Y-47890841D01*
X113084597Y-47876591D01*
X113066873Y-47860527D01*
X113050809Y-47842803D01*
X113036559Y-47823590D01*
X113024262Y-47803073D01*
X113014034Y-47781449D01*
X113005976Y-47758927D01*
X113000164Y-47735723D01*
X112996654Y-47712062D01*
X112995480Y-47688170D01*
X112995480Y-47200670D01*
X112996654Y-47176778D01*
X113000164Y-47153117D01*
X113005976Y-47129913D01*
X113014034Y-47107391D01*
X113024262Y-47085767D01*
X113036559Y-47065250D01*
X113050809Y-47046037D01*
X113066873Y-47028313D01*
X113084597Y-47012249D01*
X113103810Y-46997999D01*
X113124327Y-46985702D01*
X113145951Y-46975474D01*
X113168473Y-46967416D01*
X113191677Y-46961604D01*
X113215338Y-46958094D01*
X113239230Y-46956920D01*
X114151730Y-46956920D01*
X114175622Y-46958094D01*
X114175622Y-46958094D01*
G37*
D13*
X113695480Y-47444420D03*
D12*
G36*
X114175622Y-48833094D02*
X114199283Y-48836604D01*
X114222487Y-48842416D01*
X114245009Y-48850474D01*
X114266633Y-48860702D01*
X114287150Y-48872999D01*
X114306363Y-48887249D01*
X114324087Y-48903313D01*
X114340151Y-48921037D01*
X114354401Y-48940250D01*
X114366698Y-48960767D01*
X114376926Y-48982391D01*
X114384984Y-49004913D01*
X114390796Y-49028117D01*
X114394306Y-49051778D01*
X114395480Y-49075670D01*
X114395480Y-49563170D01*
X114394306Y-49587062D01*
X114390796Y-49610723D01*
X114384984Y-49633927D01*
X114376926Y-49656449D01*
X114366698Y-49678073D01*
X114354401Y-49698590D01*
X114340151Y-49717803D01*
X114324087Y-49735527D01*
X114306363Y-49751591D01*
X114287150Y-49765841D01*
X114266633Y-49778138D01*
X114245009Y-49788366D01*
X114222487Y-49796424D01*
X114199283Y-49802236D01*
X114175622Y-49805746D01*
X114151730Y-49806920D01*
X113239230Y-49806920D01*
X113215338Y-49805746D01*
X113191677Y-49802236D01*
X113168473Y-49796424D01*
X113145951Y-49788366D01*
X113124327Y-49778138D01*
X113103810Y-49765841D01*
X113084597Y-49751591D01*
X113066873Y-49735527D01*
X113050809Y-49717803D01*
X113036559Y-49698590D01*
X113024262Y-49678073D01*
X113014034Y-49656449D01*
X113005976Y-49633927D01*
X113000164Y-49610723D01*
X112996654Y-49587062D01*
X112995480Y-49563170D01*
X112995480Y-49075670D01*
X112996654Y-49051778D01*
X113000164Y-49028117D01*
X113005976Y-49004913D01*
X113014034Y-48982391D01*
X113024262Y-48960767D01*
X113036559Y-48940250D01*
X113050809Y-48921037D01*
X113066873Y-48903313D01*
X113084597Y-48887249D01*
X113103810Y-48872999D01*
X113124327Y-48860702D01*
X113145951Y-48850474D01*
X113168473Y-48842416D01*
X113191677Y-48836604D01*
X113215338Y-48833094D01*
X113239230Y-48831920D01*
X114151730Y-48831920D01*
X114175622Y-48833094D01*
X114175622Y-48833094D01*
G37*
D13*
X113695480Y-49319420D03*
G04 #@! TD*
D12*
G04 #@! TO.C,R30*
G36*
X91920142Y-105256174D02*
X91943803Y-105259684D01*
X91967007Y-105265496D01*
X91989529Y-105273554D01*
X92011153Y-105283782D01*
X92031670Y-105296079D01*
X92050883Y-105310329D01*
X92068607Y-105326393D01*
X92084671Y-105344117D01*
X92098921Y-105363330D01*
X92111218Y-105383847D01*
X92121446Y-105405471D01*
X92129504Y-105427993D01*
X92135316Y-105451197D01*
X92138826Y-105474858D01*
X92140000Y-105498750D01*
X92140000Y-105986250D01*
X92138826Y-106010142D01*
X92135316Y-106033803D01*
X92129504Y-106057007D01*
X92121446Y-106079529D01*
X92111218Y-106101153D01*
X92098921Y-106121670D01*
X92084671Y-106140883D01*
X92068607Y-106158607D01*
X92050883Y-106174671D01*
X92031670Y-106188921D01*
X92011153Y-106201218D01*
X91989529Y-106211446D01*
X91967007Y-106219504D01*
X91943803Y-106225316D01*
X91920142Y-106228826D01*
X91896250Y-106230000D01*
X90983750Y-106230000D01*
X90959858Y-106228826D01*
X90936197Y-106225316D01*
X90912993Y-106219504D01*
X90890471Y-106211446D01*
X90868847Y-106201218D01*
X90848330Y-106188921D01*
X90829117Y-106174671D01*
X90811393Y-106158607D01*
X90795329Y-106140883D01*
X90781079Y-106121670D01*
X90768782Y-106101153D01*
X90758554Y-106079529D01*
X90750496Y-106057007D01*
X90744684Y-106033803D01*
X90741174Y-106010142D01*
X90740000Y-105986250D01*
X90740000Y-105498750D01*
X90741174Y-105474858D01*
X90744684Y-105451197D01*
X90750496Y-105427993D01*
X90758554Y-105405471D01*
X90768782Y-105383847D01*
X90781079Y-105363330D01*
X90795329Y-105344117D01*
X90811393Y-105326393D01*
X90829117Y-105310329D01*
X90848330Y-105296079D01*
X90868847Y-105283782D01*
X90890471Y-105273554D01*
X90912993Y-105265496D01*
X90936197Y-105259684D01*
X90959858Y-105256174D01*
X90983750Y-105255000D01*
X91896250Y-105255000D01*
X91920142Y-105256174D01*
X91920142Y-105256174D01*
G37*
D13*
X91440000Y-105742500D03*
D12*
G36*
X91920142Y-107131174D02*
X91943803Y-107134684D01*
X91967007Y-107140496D01*
X91989529Y-107148554D01*
X92011153Y-107158782D01*
X92031670Y-107171079D01*
X92050883Y-107185329D01*
X92068607Y-107201393D01*
X92084671Y-107219117D01*
X92098921Y-107238330D01*
X92111218Y-107258847D01*
X92121446Y-107280471D01*
X92129504Y-107302993D01*
X92135316Y-107326197D01*
X92138826Y-107349858D01*
X92140000Y-107373750D01*
X92140000Y-107861250D01*
X92138826Y-107885142D01*
X92135316Y-107908803D01*
X92129504Y-107932007D01*
X92121446Y-107954529D01*
X92111218Y-107976153D01*
X92098921Y-107996670D01*
X92084671Y-108015883D01*
X92068607Y-108033607D01*
X92050883Y-108049671D01*
X92031670Y-108063921D01*
X92011153Y-108076218D01*
X91989529Y-108086446D01*
X91967007Y-108094504D01*
X91943803Y-108100316D01*
X91920142Y-108103826D01*
X91896250Y-108105000D01*
X90983750Y-108105000D01*
X90959858Y-108103826D01*
X90936197Y-108100316D01*
X90912993Y-108094504D01*
X90890471Y-108086446D01*
X90868847Y-108076218D01*
X90848330Y-108063921D01*
X90829117Y-108049671D01*
X90811393Y-108033607D01*
X90795329Y-108015883D01*
X90781079Y-107996670D01*
X90768782Y-107976153D01*
X90758554Y-107954529D01*
X90750496Y-107932007D01*
X90744684Y-107908803D01*
X90741174Y-107885142D01*
X90740000Y-107861250D01*
X90740000Y-107373750D01*
X90741174Y-107349858D01*
X90744684Y-107326197D01*
X90750496Y-107302993D01*
X90758554Y-107280471D01*
X90768782Y-107258847D01*
X90781079Y-107238330D01*
X90795329Y-107219117D01*
X90811393Y-107201393D01*
X90829117Y-107185329D01*
X90848330Y-107171079D01*
X90868847Y-107158782D01*
X90890471Y-107148554D01*
X90912993Y-107140496D01*
X90936197Y-107134684D01*
X90959858Y-107131174D01*
X90983750Y-107130000D01*
X91896250Y-107130000D01*
X91920142Y-107131174D01*
X91920142Y-107131174D01*
G37*
D13*
X91440000Y-107617500D03*
G04 #@! TD*
D12*
G04 #@! TO.C,R27*
G36*
X95760622Y-102203094D02*
X95784283Y-102206604D01*
X95807487Y-102212416D01*
X95830009Y-102220474D01*
X95851633Y-102230702D01*
X95872150Y-102242999D01*
X95891363Y-102257249D01*
X95909087Y-102273313D01*
X95925151Y-102291037D01*
X95939401Y-102310250D01*
X95951698Y-102330767D01*
X95961926Y-102352391D01*
X95969984Y-102374913D01*
X95975796Y-102398117D01*
X95979306Y-102421778D01*
X95980480Y-102445670D01*
X95980480Y-102933170D01*
X95979306Y-102957062D01*
X95975796Y-102980723D01*
X95969984Y-103003927D01*
X95961926Y-103026449D01*
X95951698Y-103048073D01*
X95939401Y-103068590D01*
X95925151Y-103087803D01*
X95909087Y-103105527D01*
X95891363Y-103121591D01*
X95872150Y-103135841D01*
X95851633Y-103148138D01*
X95830009Y-103158366D01*
X95807487Y-103166424D01*
X95784283Y-103172236D01*
X95760622Y-103175746D01*
X95736730Y-103176920D01*
X94824230Y-103176920D01*
X94800338Y-103175746D01*
X94776677Y-103172236D01*
X94753473Y-103166424D01*
X94730951Y-103158366D01*
X94709327Y-103148138D01*
X94688810Y-103135841D01*
X94669597Y-103121591D01*
X94651873Y-103105527D01*
X94635809Y-103087803D01*
X94621559Y-103068590D01*
X94609262Y-103048073D01*
X94599034Y-103026449D01*
X94590976Y-103003927D01*
X94585164Y-102980723D01*
X94581654Y-102957062D01*
X94580480Y-102933170D01*
X94580480Y-102445670D01*
X94581654Y-102421778D01*
X94585164Y-102398117D01*
X94590976Y-102374913D01*
X94599034Y-102352391D01*
X94609262Y-102330767D01*
X94621559Y-102310250D01*
X94635809Y-102291037D01*
X94651873Y-102273313D01*
X94669597Y-102257249D01*
X94688810Y-102242999D01*
X94709327Y-102230702D01*
X94730951Y-102220474D01*
X94753473Y-102212416D01*
X94776677Y-102206604D01*
X94800338Y-102203094D01*
X94824230Y-102201920D01*
X95736730Y-102201920D01*
X95760622Y-102203094D01*
X95760622Y-102203094D01*
G37*
D13*
X95280480Y-102689420D03*
D12*
G36*
X95760622Y-104078094D02*
X95784283Y-104081604D01*
X95807487Y-104087416D01*
X95830009Y-104095474D01*
X95851633Y-104105702D01*
X95872150Y-104117999D01*
X95891363Y-104132249D01*
X95909087Y-104148313D01*
X95925151Y-104166037D01*
X95939401Y-104185250D01*
X95951698Y-104205767D01*
X95961926Y-104227391D01*
X95969984Y-104249913D01*
X95975796Y-104273117D01*
X95979306Y-104296778D01*
X95980480Y-104320670D01*
X95980480Y-104808170D01*
X95979306Y-104832062D01*
X95975796Y-104855723D01*
X95969984Y-104878927D01*
X95961926Y-104901449D01*
X95951698Y-104923073D01*
X95939401Y-104943590D01*
X95925151Y-104962803D01*
X95909087Y-104980527D01*
X95891363Y-104996591D01*
X95872150Y-105010841D01*
X95851633Y-105023138D01*
X95830009Y-105033366D01*
X95807487Y-105041424D01*
X95784283Y-105047236D01*
X95760622Y-105050746D01*
X95736730Y-105051920D01*
X94824230Y-105051920D01*
X94800338Y-105050746D01*
X94776677Y-105047236D01*
X94753473Y-105041424D01*
X94730951Y-105033366D01*
X94709327Y-105023138D01*
X94688810Y-105010841D01*
X94669597Y-104996591D01*
X94651873Y-104980527D01*
X94635809Y-104962803D01*
X94621559Y-104943590D01*
X94609262Y-104923073D01*
X94599034Y-104901449D01*
X94590976Y-104878927D01*
X94585164Y-104855723D01*
X94581654Y-104832062D01*
X94580480Y-104808170D01*
X94580480Y-104320670D01*
X94581654Y-104296778D01*
X94585164Y-104273117D01*
X94590976Y-104249913D01*
X94599034Y-104227391D01*
X94609262Y-104205767D01*
X94621559Y-104185250D01*
X94635809Y-104166037D01*
X94651873Y-104148313D01*
X94669597Y-104132249D01*
X94688810Y-104117999D01*
X94709327Y-104105702D01*
X94730951Y-104095474D01*
X94753473Y-104087416D01*
X94776677Y-104081604D01*
X94800338Y-104078094D01*
X94824230Y-104076920D01*
X95736730Y-104076920D01*
X95760622Y-104078094D01*
X95760622Y-104078094D01*
G37*
D13*
X95280480Y-104564420D03*
G04 #@! TD*
D12*
G04 #@! TO.C,R25*
G36*
X88745142Y-97636174D02*
X88768803Y-97639684D01*
X88792007Y-97645496D01*
X88814529Y-97653554D01*
X88836153Y-97663782D01*
X88856670Y-97676079D01*
X88875883Y-97690329D01*
X88893607Y-97706393D01*
X88909671Y-97724117D01*
X88923921Y-97743330D01*
X88936218Y-97763847D01*
X88946446Y-97785471D01*
X88954504Y-97807993D01*
X88960316Y-97831197D01*
X88963826Y-97854858D01*
X88965000Y-97878750D01*
X88965000Y-98366250D01*
X88963826Y-98390142D01*
X88960316Y-98413803D01*
X88954504Y-98437007D01*
X88946446Y-98459529D01*
X88936218Y-98481153D01*
X88923921Y-98501670D01*
X88909671Y-98520883D01*
X88893607Y-98538607D01*
X88875883Y-98554671D01*
X88856670Y-98568921D01*
X88836153Y-98581218D01*
X88814529Y-98591446D01*
X88792007Y-98599504D01*
X88768803Y-98605316D01*
X88745142Y-98608826D01*
X88721250Y-98610000D01*
X87808750Y-98610000D01*
X87784858Y-98608826D01*
X87761197Y-98605316D01*
X87737993Y-98599504D01*
X87715471Y-98591446D01*
X87693847Y-98581218D01*
X87673330Y-98568921D01*
X87654117Y-98554671D01*
X87636393Y-98538607D01*
X87620329Y-98520883D01*
X87606079Y-98501670D01*
X87593782Y-98481153D01*
X87583554Y-98459529D01*
X87575496Y-98437007D01*
X87569684Y-98413803D01*
X87566174Y-98390142D01*
X87565000Y-98366250D01*
X87565000Y-97878750D01*
X87566174Y-97854858D01*
X87569684Y-97831197D01*
X87575496Y-97807993D01*
X87583554Y-97785471D01*
X87593782Y-97763847D01*
X87606079Y-97743330D01*
X87620329Y-97724117D01*
X87636393Y-97706393D01*
X87654117Y-97690329D01*
X87673330Y-97676079D01*
X87693847Y-97663782D01*
X87715471Y-97653554D01*
X87737993Y-97645496D01*
X87761197Y-97639684D01*
X87784858Y-97636174D01*
X87808750Y-97635000D01*
X88721250Y-97635000D01*
X88745142Y-97636174D01*
X88745142Y-97636174D01*
G37*
D13*
X88265000Y-98122500D03*
D12*
G36*
X88745142Y-99511174D02*
X88768803Y-99514684D01*
X88792007Y-99520496D01*
X88814529Y-99528554D01*
X88836153Y-99538782D01*
X88856670Y-99551079D01*
X88875883Y-99565329D01*
X88893607Y-99581393D01*
X88909671Y-99599117D01*
X88923921Y-99618330D01*
X88936218Y-99638847D01*
X88946446Y-99660471D01*
X88954504Y-99682993D01*
X88960316Y-99706197D01*
X88963826Y-99729858D01*
X88965000Y-99753750D01*
X88965000Y-100241250D01*
X88963826Y-100265142D01*
X88960316Y-100288803D01*
X88954504Y-100312007D01*
X88946446Y-100334529D01*
X88936218Y-100356153D01*
X88923921Y-100376670D01*
X88909671Y-100395883D01*
X88893607Y-100413607D01*
X88875883Y-100429671D01*
X88856670Y-100443921D01*
X88836153Y-100456218D01*
X88814529Y-100466446D01*
X88792007Y-100474504D01*
X88768803Y-100480316D01*
X88745142Y-100483826D01*
X88721250Y-100485000D01*
X87808750Y-100485000D01*
X87784858Y-100483826D01*
X87761197Y-100480316D01*
X87737993Y-100474504D01*
X87715471Y-100466446D01*
X87693847Y-100456218D01*
X87673330Y-100443921D01*
X87654117Y-100429671D01*
X87636393Y-100413607D01*
X87620329Y-100395883D01*
X87606079Y-100376670D01*
X87593782Y-100356153D01*
X87583554Y-100334529D01*
X87575496Y-100312007D01*
X87569684Y-100288803D01*
X87566174Y-100265142D01*
X87565000Y-100241250D01*
X87565000Y-99753750D01*
X87566174Y-99729858D01*
X87569684Y-99706197D01*
X87575496Y-99682993D01*
X87583554Y-99660471D01*
X87593782Y-99638847D01*
X87606079Y-99618330D01*
X87620329Y-99599117D01*
X87636393Y-99581393D01*
X87654117Y-99565329D01*
X87673330Y-99551079D01*
X87693847Y-99538782D01*
X87715471Y-99528554D01*
X87737993Y-99520496D01*
X87761197Y-99514684D01*
X87784858Y-99511174D01*
X87808750Y-99510000D01*
X88721250Y-99510000D01*
X88745142Y-99511174D01*
X88745142Y-99511174D01*
G37*
D13*
X88265000Y-99997500D03*
G04 #@! TD*
D12*
G04 #@! TO.C,R29*
G36*
X88745142Y-107131174D02*
X88768803Y-107134684D01*
X88792007Y-107140496D01*
X88814529Y-107148554D01*
X88836153Y-107158782D01*
X88856670Y-107171079D01*
X88875883Y-107185329D01*
X88893607Y-107201393D01*
X88909671Y-107219117D01*
X88923921Y-107238330D01*
X88936218Y-107258847D01*
X88946446Y-107280471D01*
X88954504Y-107302993D01*
X88960316Y-107326197D01*
X88963826Y-107349858D01*
X88965000Y-107373750D01*
X88965000Y-107861250D01*
X88963826Y-107885142D01*
X88960316Y-107908803D01*
X88954504Y-107932007D01*
X88946446Y-107954529D01*
X88936218Y-107976153D01*
X88923921Y-107996670D01*
X88909671Y-108015883D01*
X88893607Y-108033607D01*
X88875883Y-108049671D01*
X88856670Y-108063921D01*
X88836153Y-108076218D01*
X88814529Y-108086446D01*
X88792007Y-108094504D01*
X88768803Y-108100316D01*
X88745142Y-108103826D01*
X88721250Y-108105000D01*
X87808750Y-108105000D01*
X87784858Y-108103826D01*
X87761197Y-108100316D01*
X87737993Y-108094504D01*
X87715471Y-108086446D01*
X87693847Y-108076218D01*
X87673330Y-108063921D01*
X87654117Y-108049671D01*
X87636393Y-108033607D01*
X87620329Y-108015883D01*
X87606079Y-107996670D01*
X87593782Y-107976153D01*
X87583554Y-107954529D01*
X87575496Y-107932007D01*
X87569684Y-107908803D01*
X87566174Y-107885142D01*
X87565000Y-107861250D01*
X87565000Y-107373750D01*
X87566174Y-107349858D01*
X87569684Y-107326197D01*
X87575496Y-107302993D01*
X87583554Y-107280471D01*
X87593782Y-107258847D01*
X87606079Y-107238330D01*
X87620329Y-107219117D01*
X87636393Y-107201393D01*
X87654117Y-107185329D01*
X87673330Y-107171079D01*
X87693847Y-107158782D01*
X87715471Y-107148554D01*
X87737993Y-107140496D01*
X87761197Y-107134684D01*
X87784858Y-107131174D01*
X87808750Y-107130000D01*
X88721250Y-107130000D01*
X88745142Y-107131174D01*
X88745142Y-107131174D01*
G37*
D13*
X88265000Y-107617500D03*
D12*
G36*
X88745142Y-105256174D02*
X88768803Y-105259684D01*
X88792007Y-105265496D01*
X88814529Y-105273554D01*
X88836153Y-105283782D01*
X88856670Y-105296079D01*
X88875883Y-105310329D01*
X88893607Y-105326393D01*
X88909671Y-105344117D01*
X88923921Y-105363330D01*
X88936218Y-105383847D01*
X88946446Y-105405471D01*
X88954504Y-105427993D01*
X88960316Y-105451197D01*
X88963826Y-105474858D01*
X88965000Y-105498750D01*
X88965000Y-105986250D01*
X88963826Y-106010142D01*
X88960316Y-106033803D01*
X88954504Y-106057007D01*
X88946446Y-106079529D01*
X88936218Y-106101153D01*
X88923921Y-106121670D01*
X88909671Y-106140883D01*
X88893607Y-106158607D01*
X88875883Y-106174671D01*
X88856670Y-106188921D01*
X88836153Y-106201218D01*
X88814529Y-106211446D01*
X88792007Y-106219504D01*
X88768803Y-106225316D01*
X88745142Y-106228826D01*
X88721250Y-106230000D01*
X87808750Y-106230000D01*
X87784858Y-106228826D01*
X87761197Y-106225316D01*
X87737993Y-106219504D01*
X87715471Y-106211446D01*
X87693847Y-106201218D01*
X87673330Y-106188921D01*
X87654117Y-106174671D01*
X87636393Y-106158607D01*
X87620329Y-106140883D01*
X87606079Y-106121670D01*
X87593782Y-106101153D01*
X87583554Y-106079529D01*
X87575496Y-106057007D01*
X87569684Y-106033803D01*
X87566174Y-106010142D01*
X87565000Y-105986250D01*
X87565000Y-105498750D01*
X87566174Y-105474858D01*
X87569684Y-105451197D01*
X87575496Y-105427993D01*
X87583554Y-105405471D01*
X87593782Y-105383847D01*
X87606079Y-105363330D01*
X87620329Y-105344117D01*
X87636393Y-105326393D01*
X87654117Y-105310329D01*
X87673330Y-105296079D01*
X87693847Y-105283782D01*
X87715471Y-105273554D01*
X87737993Y-105265496D01*
X87761197Y-105259684D01*
X87784858Y-105256174D01*
X87808750Y-105255000D01*
X88721250Y-105255000D01*
X88745142Y-105256174D01*
X88745142Y-105256174D01*
G37*
D13*
X88265000Y-105742500D03*
G04 #@! TD*
D12*
G04 #@! TO.C,R31*
G36*
X115415142Y-107131174D02*
X115438803Y-107134684D01*
X115462007Y-107140496D01*
X115484529Y-107148554D01*
X115506153Y-107158782D01*
X115526670Y-107171079D01*
X115545883Y-107185329D01*
X115563607Y-107201393D01*
X115579671Y-107219117D01*
X115593921Y-107238330D01*
X115606218Y-107258847D01*
X115616446Y-107280471D01*
X115624504Y-107302993D01*
X115630316Y-107326197D01*
X115633826Y-107349858D01*
X115635000Y-107373750D01*
X115635000Y-107861250D01*
X115633826Y-107885142D01*
X115630316Y-107908803D01*
X115624504Y-107932007D01*
X115616446Y-107954529D01*
X115606218Y-107976153D01*
X115593921Y-107996670D01*
X115579671Y-108015883D01*
X115563607Y-108033607D01*
X115545883Y-108049671D01*
X115526670Y-108063921D01*
X115506153Y-108076218D01*
X115484529Y-108086446D01*
X115462007Y-108094504D01*
X115438803Y-108100316D01*
X115415142Y-108103826D01*
X115391250Y-108105000D01*
X114478750Y-108105000D01*
X114454858Y-108103826D01*
X114431197Y-108100316D01*
X114407993Y-108094504D01*
X114385471Y-108086446D01*
X114363847Y-108076218D01*
X114343330Y-108063921D01*
X114324117Y-108049671D01*
X114306393Y-108033607D01*
X114290329Y-108015883D01*
X114276079Y-107996670D01*
X114263782Y-107976153D01*
X114253554Y-107954529D01*
X114245496Y-107932007D01*
X114239684Y-107908803D01*
X114236174Y-107885142D01*
X114235000Y-107861250D01*
X114235000Y-107373750D01*
X114236174Y-107349858D01*
X114239684Y-107326197D01*
X114245496Y-107302993D01*
X114253554Y-107280471D01*
X114263782Y-107258847D01*
X114276079Y-107238330D01*
X114290329Y-107219117D01*
X114306393Y-107201393D01*
X114324117Y-107185329D01*
X114343330Y-107171079D01*
X114363847Y-107158782D01*
X114385471Y-107148554D01*
X114407993Y-107140496D01*
X114431197Y-107134684D01*
X114454858Y-107131174D01*
X114478750Y-107130000D01*
X115391250Y-107130000D01*
X115415142Y-107131174D01*
X115415142Y-107131174D01*
G37*
D13*
X114935000Y-107617500D03*
D12*
G36*
X115415142Y-105256174D02*
X115438803Y-105259684D01*
X115462007Y-105265496D01*
X115484529Y-105273554D01*
X115506153Y-105283782D01*
X115526670Y-105296079D01*
X115545883Y-105310329D01*
X115563607Y-105326393D01*
X115579671Y-105344117D01*
X115593921Y-105363330D01*
X115606218Y-105383847D01*
X115616446Y-105405471D01*
X115624504Y-105427993D01*
X115630316Y-105451197D01*
X115633826Y-105474858D01*
X115635000Y-105498750D01*
X115635000Y-105986250D01*
X115633826Y-106010142D01*
X115630316Y-106033803D01*
X115624504Y-106057007D01*
X115616446Y-106079529D01*
X115606218Y-106101153D01*
X115593921Y-106121670D01*
X115579671Y-106140883D01*
X115563607Y-106158607D01*
X115545883Y-106174671D01*
X115526670Y-106188921D01*
X115506153Y-106201218D01*
X115484529Y-106211446D01*
X115462007Y-106219504D01*
X115438803Y-106225316D01*
X115415142Y-106228826D01*
X115391250Y-106230000D01*
X114478750Y-106230000D01*
X114454858Y-106228826D01*
X114431197Y-106225316D01*
X114407993Y-106219504D01*
X114385471Y-106211446D01*
X114363847Y-106201218D01*
X114343330Y-106188921D01*
X114324117Y-106174671D01*
X114306393Y-106158607D01*
X114290329Y-106140883D01*
X114276079Y-106121670D01*
X114263782Y-106101153D01*
X114253554Y-106079529D01*
X114245496Y-106057007D01*
X114239684Y-106033803D01*
X114236174Y-106010142D01*
X114235000Y-105986250D01*
X114235000Y-105498750D01*
X114236174Y-105474858D01*
X114239684Y-105451197D01*
X114245496Y-105427993D01*
X114253554Y-105405471D01*
X114263782Y-105383847D01*
X114276079Y-105363330D01*
X114290329Y-105344117D01*
X114306393Y-105326393D01*
X114324117Y-105310329D01*
X114343330Y-105296079D01*
X114363847Y-105283782D01*
X114385471Y-105273554D01*
X114407993Y-105265496D01*
X114431197Y-105259684D01*
X114454858Y-105256174D01*
X114478750Y-105255000D01*
X115391250Y-105255000D01*
X115415142Y-105256174D01*
X115415142Y-105256174D01*
G37*
D13*
X114935000Y-105742500D03*
G04 #@! TD*
D12*
G04 #@! TO.C,R32*
G36*
X112240142Y-105256174D02*
X112263803Y-105259684D01*
X112287007Y-105265496D01*
X112309529Y-105273554D01*
X112331153Y-105283782D01*
X112351670Y-105296079D01*
X112370883Y-105310329D01*
X112388607Y-105326393D01*
X112404671Y-105344117D01*
X112418921Y-105363330D01*
X112431218Y-105383847D01*
X112441446Y-105405471D01*
X112449504Y-105427993D01*
X112455316Y-105451197D01*
X112458826Y-105474858D01*
X112460000Y-105498750D01*
X112460000Y-105986250D01*
X112458826Y-106010142D01*
X112455316Y-106033803D01*
X112449504Y-106057007D01*
X112441446Y-106079529D01*
X112431218Y-106101153D01*
X112418921Y-106121670D01*
X112404671Y-106140883D01*
X112388607Y-106158607D01*
X112370883Y-106174671D01*
X112351670Y-106188921D01*
X112331153Y-106201218D01*
X112309529Y-106211446D01*
X112287007Y-106219504D01*
X112263803Y-106225316D01*
X112240142Y-106228826D01*
X112216250Y-106230000D01*
X111303750Y-106230000D01*
X111279858Y-106228826D01*
X111256197Y-106225316D01*
X111232993Y-106219504D01*
X111210471Y-106211446D01*
X111188847Y-106201218D01*
X111168330Y-106188921D01*
X111149117Y-106174671D01*
X111131393Y-106158607D01*
X111115329Y-106140883D01*
X111101079Y-106121670D01*
X111088782Y-106101153D01*
X111078554Y-106079529D01*
X111070496Y-106057007D01*
X111064684Y-106033803D01*
X111061174Y-106010142D01*
X111060000Y-105986250D01*
X111060000Y-105498750D01*
X111061174Y-105474858D01*
X111064684Y-105451197D01*
X111070496Y-105427993D01*
X111078554Y-105405471D01*
X111088782Y-105383847D01*
X111101079Y-105363330D01*
X111115329Y-105344117D01*
X111131393Y-105326393D01*
X111149117Y-105310329D01*
X111168330Y-105296079D01*
X111188847Y-105283782D01*
X111210471Y-105273554D01*
X111232993Y-105265496D01*
X111256197Y-105259684D01*
X111279858Y-105256174D01*
X111303750Y-105255000D01*
X112216250Y-105255000D01*
X112240142Y-105256174D01*
X112240142Y-105256174D01*
G37*
D13*
X111760000Y-105742500D03*
D12*
G36*
X112240142Y-107131174D02*
X112263803Y-107134684D01*
X112287007Y-107140496D01*
X112309529Y-107148554D01*
X112331153Y-107158782D01*
X112351670Y-107171079D01*
X112370883Y-107185329D01*
X112388607Y-107201393D01*
X112404671Y-107219117D01*
X112418921Y-107238330D01*
X112431218Y-107258847D01*
X112441446Y-107280471D01*
X112449504Y-107302993D01*
X112455316Y-107326197D01*
X112458826Y-107349858D01*
X112460000Y-107373750D01*
X112460000Y-107861250D01*
X112458826Y-107885142D01*
X112455316Y-107908803D01*
X112449504Y-107932007D01*
X112441446Y-107954529D01*
X112431218Y-107976153D01*
X112418921Y-107996670D01*
X112404671Y-108015883D01*
X112388607Y-108033607D01*
X112370883Y-108049671D01*
X112351670Y-108063921D01*
X112331153Y-108076218D01*
X112309529Y-108086446D01*
X112287007Y-108094504D01*
X112263803Y-108100316D01*
X112240142Y-108103826D01*
X112216250Y-108105000D01*
X111303750Y-108105000D01*
X111279858Y-108103826D01*
X111256197Y-108100316D01*
X111232993Y-108094504D01*
X111210471Y-108086446D01*
X111188847Y-108076218D01*
X111168330Y-108063921D01*
X111149117Y-108049671D01*
X111131393Y-108033607D01*
X111115329Y-108015883D01*
X111101079Y-107996670D01*
X111088782Y-107976153D01*
X111078554Y-107954529D01*
X111070496Y-107932007D01*
X111064684Y-107908803D01*
X111061174Y-107885142D01*
X111060000Y-107861250D01*
X111060000Y-107373750D01*
X111061174Y-107349858D01*
X111064684Y-107326197D01*
X111070496Y-107302993D01*
X111078554Y-107280471D01*
X111088782Y-107258847D01*
X111101079Y-107238330D01*
X111115329Y-107219117D01*
X111131393Y-107201393D01*
X111149117Y-107185329D01*
X111168330Y-107171079D01*
X111188847Y-107158782D01*
X111210471Y-107148554D01*
X111232993Y-107140496D01*
X111256197Y-107134684D01*
X111279858Y-107131174D01*
X111303750Y-107130000D01*
X112216250Y-107130000D01*
X112240142Y-107131174D01*
X112240142Y-107131174D01*
G37*
D13*
X111760000Y-107617500D03*
G04 #@! TD*
D12*
G04 #@! TO.C,R33*
G36*
X95760622Y-114238094D02*
X95784283Y-114241604D01*
X95807487Y-114247416D01*
X95830009Y-114255474D01*
X95851633Y-114265702D01*
X95872150Y-114277999D01*
X95891363Y-114292249D01*
X95909087Y-114308313D01*
X95925151Y-114326037D01*
X95939401Y-114345250D01*
X95951698Y-114365767D01*
X95961926Y-114387391D01*
X95969984Y-114409913D01*
X95975796Y-114433117D01*
X95979306Y-114456778D01*
X95980480Y-114480670D01*
X95980480Y-114968170D01*
X95979306Y-114992062D01*
X95975796Y-115015723D01*
X95969984Y-115038927D01*
X95961926Y-115061449D01*
X95951698Y-115083073D01*
X95939401Y-115103590D01*
X95925151Y-115122803D01*
X95909087Y-115140527D01*
X95891363Y-115156591D01*
X95872150Y-115170841D01*
X95851633Y-115183138D01*
X95830009Y-115193366D01*
X95807487Y-115201424D01*
X95784283Y-115207236D01*
X95760622Y-115210746D01*
X95736730Y-115211920D01*
X94824230Y-115211920D01*
X94800338Y-115210746D01*
X94776677Y-115207236D01*
X94753473Y-115201424D01*
X94730951Y-115193366D01*
X94709327Y-115183138D01*
X94688810Y-115170841D01*
X94669597Y-115156591D01*
X94651873Y-115140527D01*
X94635809Y-115122803D01*
X94621559Y-115103590D01*
X94609262Y-115083073D01*
X94599034Y-115061449D01*
X94590976Y-115038927D01*
X94585164Y-115015723D01*
X94581654Y-114992062D01*
X94580480Y-114968170D01*
X94580480Y-114480670D01*
X94581654Y-114456778D01*
X94585164Y-114433117D01*
X94590976Y-114409913D01*
X94599034Y-114387391D01*
X94609262Y-114365767D01*
X94621559Y-114345250D01*
X94635809Y-114326037D01*
X94651873Y-114308313D01*
X94669597Y-114292249D01*
X94688810Y-114277999D01*
X94709327Y-114265702D01*
X94730951Y-114255474D01*
X94753473Y-114247416D01*
X94776677Y-114241604D01*
X94800338Y-114238094D01*
X94824230Y-114236920D01*
X95736730Y-114236920D01*
X95760622Y-114238094D01*
X95760622Y-114238094D01*
G37*
D13*
X95280480Y-114724420D03*
D12*
G36*
X95760622Y-112363094D02*
X95784283Y-112366604D01*
X95807487Y-112372416D01*
X95830009Y-112380474D01*
X95851633Y-112390702D01*
X95872150Y-112402999D01*
X95891363Y-112417249D01*
X95909087Y-112433313D01*
X95925151Y-112451037D01*
X95939401Y-112470250D01*
X95951698Y-112490767D01*
X95961926Y-112512391D01*
X95969984Y-112534913D01*
X95975796Y-112558117D01*
X95979306Y-112581778D01*
X95980480Y-112605670D01*
X95980480Y-113093170D01*
X95979306Y-113117062D01*
X95975796Y-113140723D01*
X95969984Y-113163927D01*
X95961926Y-113186449D01*
X95951698Y-113208073D01*
X95939401Y-113228590D01*
X95925151Y-113247803D01*
X95909087Y-113265527D01*
X95891363Y-113281591D01*
X95872150Y-113295841D01*
X95851633Y-113308138D01*
X95830009Y-113318366D01*
X95807487Y-113326424D01*
X95784283Y-113332236D01*
X95760622Y-113335746D01*
X95736730Y-113336920D01*
X94824230Y-113336920D01*
X94800338Y-113335746D01*
X94776677Y-113332236D01*
X94753473Y-113326424D01*
X94730951Y-113318366D01*
X94709327Y-113308138D01*
X94688810Y-113295841D01*
X94669597Y-113281591D01*
X94651873Y-113265527D01*
X94635809Y-113247803D01*
X94621559Y-113228590D01*
X94609262Y-113208073D01*
X94599034Y-113186449D01*
X94590976Y-113163927D01*
X94585164Y-113140723D01*
X94581654Y-113117062D01*
X94580480Y-113093170D01*
X94580480Y-112605670D01*
X94581654Y-112581778D01*
X94585164Y-112558117D01*
X94590976Y-112534913D01*
X94599034Y-112512391D01*
X94609262Y-112490767D01*
X94621559Y-112470250D01*
X94635809Y-112451037D01*
X94651873Y-112433313D01*
X94669597Y-112417249D01*
X94688810Y-112402999D01*
X94709327Y-112390702D01*
X94730951Y-112380474D01*
X94753473Y-112372416D01*
X94776677Y-112366604D01*
X94800338Y-112363094D01*
X94824230Y-112361920D01*
X95736730Y-112361920D01*
X95760622Y-112363094D01*
X95760622Y-112363094D01*
G37*
D13*
X95280480Y-112849420D03*
G04 #@! TD*
D12*
G04 #@! TO.C,R8*
G36*
X108460622Y-81248094D02*
X108484283Y-81251604D01*
X108507487Y-81257416D01*
X108530009Y-81265474D01*
X108551633Y-81275702D01*
X108572150Y-81287999D01*
X108591363Y-81302249D01*
X108609087Y-81318313D01*
X108625151Y-81336037D01*
X108639401Y-81355250D01*
X108651698Y-81375767D01*
X108661926Y-81397391D01*
X108669984Y-81419913D01*
X108675796Y-81443117D01*
X108679306Y-81466778D01*
X108680480Y-81490670D01*
X108680480Y-81978170D01*
X108679306Y-82002062D01*
X108675796Y-82025723D01*
X108669984Y-82048927D01*
X108661926Y-82071449D01*
X108651698Y-82093073D01*
X108639401Y-82113590D01*
X108625151Y-82132803D01*
X108609087Y-82150527D01*
X108591363Y-82166591D01*
X108572150Y-82180841D01*
X108551633Y-82193138D01*
X108530009Y-82203366D01*
X108507487Y-82211424D01*
X108484283Y-82217236D01*
X108460622Y-82220746D01*
X108436730Y-82221920D01*
X107524230Y-82221920D01*
X107500338Y-82220746D01*
X107476677Y-82217236D01*
X107453473Y-82211424D01*
X107430951Y-82203366D01*
X107409327Y-82193138D01*
X107388810Y-82180841D01*
X107369597Y-82166591D01*
X107351873Y-82150527D01*
X107335809Y-82132803D01*
X107321559Y-82113590D01*
X107309262Y-82093073D01*
X107299034Y-82071449D01*
X107290976Y-82048927D01*
X107285164Y-82025723D01*
X107281654Y-82002062D01*
X107280480Y-81978170D01*
X107280480Y-81490670D01*
X107281654Y-81466778D01*
X107285164Y-81443117D01*
X107290976Y-81419913D01*
X107299034Y-81397391D01*
X107309262Y-81375767D01*
X107321559Y-81355250D01*
X107335809Y-81336037D01*
X107351873Y-81318313D01*
X107369597Y-81302249D01*
X107388810Y-81287999D01*
X107409327Y-81275702D01*
X107430951Y-81265474D01*
X107453473Y-81257416D01*
X107476677Y-81251604D01*
X107500338Y-81248094D01*
X107524230Y-81246920D01*
X108436730Y-81246920D01*
X108460622Y-81248094D01*
X108460622Y-81248094D01*
G37*
D13*
X107980480Y-81734420D03*
D12*
G36*
X108460622Y-83123094D02*
X108484283Y-83126604D01*
X108507487Y-83132416D01*
X108530009Y-83140474D01*
X108551633Y-83150702D01*
X108572150Y-83162999D01*
X108591363Y-83177249D01*
X108609087Y-83193313D01*
X108625151Y-83211037D01*
X108639401Y-83230250D01*
X108651698Y-83250767D01*
X108661926Y-83272391D01*
X108669984Y-83294913D01*
X108675796Y-83318117D01*
X108679306Y-83341778D01*
X108680480Y-83365670D01*
X108680480Y-83853170D01*
X108679306Y-83877062D01*
X108675796Y-83900723D01*
X108669984Y-83923927D01*
X108661926Y-83946449D01*
X108651698Y-83968073D01*
X108639401Y-83988590D01*
X108625151Y-84007803D01*
X108609087Y-84025527D01*
X108591363Y-84041591D01*
X108572150Y-84055841D01*
X108551633Y-84068138D01*
X108530009Y-84078366D01*
X108507487Y-84086424D01*
X108484283Y-84092236D01*
X108460622Y-84095746D01*
X108436730Y-84096920D01*
X107524230Y-84096920D01*
X107500338Y-84095746D01*
X107476677Y-84092236D01*
X107453473Y-84086424D01*
X107430951Y-84078366D01*
X107409327Y-84068138D01*
X107388810Y-84055841D01*
X107369597Y-84041591D01*
X107351873Y-84025527D01*
X107335809Y-84007803D01*
X107321559Y-83988590D01*
X107309262Y-83968073D01*
X107299034Y-83946449D01*
X107290976Y-83923927D01*
X107285164Y-83900723D01*
X107281654Y-83877062D01*
X107280480Y-83853170D01*
X107280480Y-83365670D01*
X107281654Y-83341778D01*
X107285164Y-83318117D01*
X107290976Y-83294913D01*
X107299034Y-83272391D01*
X107309262Y-83250767D01*
X107321559Y-83230250D01*
X107335809Y-83211037D01*
X107351873Y-83193313D01*
X107369597Y-83177249D01*
X107388810Y-83162999D01*
X107409327Y-83150702D01*
X107430951Y-83140474D01*
X107453473Y-83132416D01*
X107476677Y-83126604D01*
X107500338Y-83123094D01*
X107524230Y-83121920D01*
X108436730Y-83121920D01*
X108460622Y-83123094D01*
X108460622Y-83123094D01*
G37*
D13*
X107980480Y-83609420D03*
G04 #@! TD*
D12*
G04 #@! TO.C,R35*
G36*
X95760622Y-117443094D02*
X95784283Y-117446604D01*
X95807487Y-117452416D01*
X95830009Y-117460474D01*
X95851633Y-117470702D01*
X95872150Y-117482999D01*
X95891363Y-117497249D01*
X95909087Y-117513313D01*
X95925151Y-117531037D01*
X95939401Y-117550250D01*
X95951698Y-117570767D01*
X95961926Y-117592391D01*
X95969984Y-117614913D01*
X95975796Y-117638117D01*
X95979306Y-117661778D01*
X95980480Y-117685670D01*
X95980480Y-118173170D01*
X95979306Y-118197062D01*
X95975796Y-118220723D01*
X95969984Y-118243927D01*
X95961926Y-118266449D01*
X95951698Y-118288073D01*
X95939401Y-118308590D01*
X95925151Y-118327803D01*
X95909087Y-118345527D01*
X95891363Y-118361591D01*
X95872150Y-118375841D01*
X95851633Y-118388138D01*
X95830009Y-118398366D01*
X95807487Y-118406424D01*
X95784283Y-118412236D01*
X95760622Y-118415746D01*
X95736730Y-118416920D01*
X94824230Y-118416920D01*
X94800338Y-118415746D01*
X94776677Y-118412236D01*
X94753473Y-118406424D01*
X94730951Y-118398366D01*
X94709327Y-118388138D01*
X94688810Y-118375841D01*
X94669597Y-118361591D01*
X94651873Y-118345527D01*
X94635809Y-118327803D01*
X94621559Y-118308590D01*
X94609262Y-118288073D01*
X94599034Y-118266449D01*
X94590976Y-118243927D01*
X94585164Y-118220723D01*
X94581654Y-118197062D01*
X94580480Y-118173170D01*
X94580480Y-117685670D01*
X94581654Y-117661778D01*
X94585164Y-117638117D01*
X94590976Y-117614913D01*
X94599034Y-117592391D01*
X94609262Y-117570767D01*
X94621559Y-117550250D01*
X94635809Y-117531037D01*
X94651873Y-117513313D01*
X94669597Y-117497249D01*
X94688810Y-117482999D01*
X94709327Y-117470702D01*
X94730951Y-117460474D01*
X94753473Y-117452416D01*
X94776677Y-117446604D01*
X94800338Y-117443094D01*
X94824230Y-117441920D01*
X95736730Y-117441920D01*
X95760622Y-117443094D01*
X95760622Y-117443094D01*
G37*
D13*
X95280480Y-117929420D03*
D12*
G36*
X95760622Y-119318094D02*
X95784283Y-119321604D01*
X95807487Y-119327416D01*
X95830009Y-119335474D01*
X95851633Y-119345702D01*
X95872150Y-119357999D01*
X95891363Y-119372249D01*
X95909087Y-119388313D01*
X95925151Y-119406037D01*
X95939401Y-119425250D01*
X95951698Y-119445767D01*
X95961926Y-119467391D01*
X95969984Y-119489913D01*
X95975796Y-119513117D01*
X95979306Y-119536778D01*
X95980480Y-119560670D01*
X95980480Y-120048170D01*
X95979306Y-120072062D01*
X95975796Y-120095723D01*
X95969984Y-120118927D01*
X95961926Y-120141449D01*
X95951698Y-120163073D01*
X95939401Y-120183590D01*
X95925151Y-120202803D01*
X95909087Y-120220527D01*
X95891363Y-120236591D01*
X95872150Y-120250841D01*
X95851633Y-120263138D01*
X95830009Y-120273366D01*
X95807487Y-120281424D01*
X95784283Y-120287236D01*
X95760622Y-120290746D01*
X95736730Y-120291920D01*
X94824230Y-120291920D01*
X94800338Y-120290746D01*
X94776677Y-120287236D01*
X94753473Y-120281424D01*
X94730951Y-120273366D01*
X94709327Y-120263138D01*
X94688810Y-120250841D01*
X94669597Y-120236591D01*
X94651873Y-120220527D01*
X94635809Y-120202803D01*
X94621559Y-120183590D01*
X94609262Y-120163073D01*
X94599034Y-120141449D01*
X94590976Y-120118927D01*
X94585164Y-120095723D01*
X94581654Y-120072062D01*
X94580480Y-120048170D01*
X94580480Y-119560670D01*
X94581654Y-119536778D01*
X94585164Y-119513117D01*
X94590976Y-119489913D01*
X94599034Y-119467391D01*
X94609262Y-119445767D01*
X94621559Y-119425250D01*
X94635809Y-119406037D01*
X94651873Y-119388313D01*
X94669597Y-119372249D01*
X94688810Y-119357999D01*
X94709327Y-119345702D01*
X94730951Y-119335474D01*
X94753473Y-119327416D01*
X94776677Y-119321604D01*
X94800338Y-119318094D01*
X94824230Y-119316920D01*
X95736730Y-119316920D01*
X95760622Y-119318094D01*
X95760622Y-119318094D01*
G37*
D13*
X95280480Y-119804420D03*
G04 #@! TD*
D12*
G04 #@! TO.C,R36*
G36*
X108460622Y-117443094D02*
X108484283Y-117446604D01*
X108507487Y-117452416D01*
X108530009Y-117460474D01*
X108551633Y-117470702D01*
X108572150Y-117482999D01*
X108591363Y-117497249D01*
X108609087Y-117513313D01*
X108625151Y-117531037D01*
X108639401Y-117550250D01*
X108651698Y-117570767D01*
X108661926Y-117592391D01*
X108669984Y-117614913D01*
X108675796Y-117638117D01*
X108679306Y-117661778D01*
X108680480Y-117685670D01*
X108680480Y-118173170D01*
X108679306Y-118197062D01*
X108675796Y-118220723D01*
X108669984Y-118243927D01*
X108661926Y-118266449D01*
X108651698Y-118288073D01*
X108639401Y-118308590D01*
X108625151Y-118327803D01*
X108609087Y-118345527D01*
X108591363Y-118361591D01*
X108572150Y-118375841D01*
X108551633Y-118388138D01*
X108530009Y-118398366D01*
X108507487Y-118406424D01*
X108484283Y-118412236D01*
X108460622Y-118415746D01*
X108436730Y-118416920D01*
X107524230Y-118416920D01*
X107500338Y-118415746D01*
X107476677Y-118412236D01*
X107453473Y-118406424D01*
X107430951Y-118398366D01*
X107409327Y-118388138D01*
X107388810Y-118375841D01*
X107369597Y-118361591D01*
X107351873Y-118345527D01*
X107335809Y-118327803D01*
X107321559Y-118308590D01*
X107309262Y-118288073D01*
X107299034Y-118266449D01*
X107290976Y-118243927D01*
X107285164Y-118220723D01*
X107281654Y-118197062D01*
X107280480Y-118173170D01*
X107280480Y-117685670D01*
X107281654Y-117661778D01*
X107285164Y-117638117D01*
X107290976Y-117614913D01*
X107299034Y-117592391D01*
X107309262Y-117570767D01*
X107321559Y-117550250D01*
X107335809Y-117531037D01*
X107351873Y-117513313D01*
X107369597Y-117497249D01*
X107388810Y-117482999D01*
X107409327Y-117470702D01*
X107430951Y-117460474D01*
X107453473Y-117452416D01*
X107476677Y-117446604D01*
X107500338Y-117443094D01*
X107524230Y-117441920D01*
X108436730Y-117441920D01*
X108460622Y-117443094D01*
X108460622Y-117443094D01*
G37*
D13*
X107980480Y-117929420D03*
D12*
G36*
X108460622Y-119318094D02*
X108484283Y-119321604D01*
X108507487Y-119327416D01*
X108530009Y-119335474D01*
X108551633Y-119345702D01*
X108572150Y-119357999D01*
X108591363Y-119372249D01*
X108609087Y-119388313D01*
X108625151Y-119406037D01*
X108639401Y-119425250D01*
X108651698Y-119445767D01*
X108661926Y-119467391D01*
X108669984Y-119489913D01*
X108675796Y-119513117D01*
X108679306Y-119536778D01*
X108680480Y-119560670D01*
X108680480Y-120048170D01*
X108679306Y-120072062D01*
X108675796Y-120095723D01*
X108669984Y-120118927D01*
X108661926Y-120141449D01*
X108651698Y-120163073D01*
X108639401Y-120183590D01*
X108625151Y-120202803D01*
X108609087Y-120220527D01*
X108591363Y-120236591D01*
X108572150Y-120250841D01*
X108551633Y-120263138D01*
X108530009Y-120273366D01*
X108507487Y-120281424D01*
X108484283Y-120287236D01*
X108460622Y-120290746D01*
X108436730Y-120291920D01*
X107524230Y-120291920D01*
X107500338Y-120290746D01*
X107476677Y-120287236D01*
X107453473Y-120281424D01*
X107430951Y-120273366D01*
X107409327Y-120263138D01*
X107388810Y-120250841D01*
X107369597Y-120236591D01*
X107351873Y-120220527D01*
X107335809Y-120202803D01*
X107321559Y-120183590D01*
X107309262Y-120163073D01*
X107299034Y-120141449D01*
X107290976Y-120118927D01*
X107285164Y-120095723D01*
X107281654Y-120072062D01*
X107280480Y-120048170D01*
X107280480Y-119560670D01*
X107281654Y-119536778D01*
X107285164Y-119513117D01*
X107290976Y-119489913D01*
X107299034Y-119467391D01*
X107309262Y-119445767D01*
X107321559Y-119425250D01*
X107335809Y-119406037D01*
X107351873Y-119388313D01*
X107369597Y-119372249D01*
X107388810Y-119357999D01*
X107409327Y-119345702D01*
X107430951Y-119335474D01*
X107453473Y-119327416D01*
X107476677Y-119321604D01*
X107500338Y-119318094D01*
X107524230Y-119316920D01*
X108436730Y-119316920D01*
X108460622Y-119318094D01*
X108460622Y-119318094D01*
G37*
D13*
X107980480Y-119804420D03*
G04 #@! TD*
D12*
G04 #@! TO.C,R37*
G36*
X84330622Y-86298094D02*
X84354283Y-86301604D01*
X84377487Y-86307416D01*
X84400009Y-86315474D01*
X84421633Y-86325702D01*
X84442150Y-86337999D01*
X84461363Y-86352249D01*
X84479087Y-86368313D01*
X84495151Y-86386037D01*
X84509401Y-86405250D01*
X84521698Y-86425767D01*
X84531926Y-86447391D01*
X84539984Y-86469913D01*
X84545796Y-86493117D01*
X84549306Y-86516778D01*
X84550480Y-86540670D01*
X84550480Y-87028170D01*
X84549306Y-87052062D01*
X84545796Y-87075723D01*
X84539984Y-87098927D01*
X84531926Y-87121449D01*
X84521698Y-87143073D01*
X84509401Y-87163590D01*
X84495151Y-87182803D01*
X84479087Y-87200527D01*
X84461363Y-87216591D01*
X84442150Y-87230841D01*
X84421633Y-87243138D01*
X84400009Y-87253366D01*
X84377487Y-87261424D01*
X84354283Y-87267236D01*
X84330622Y-87270746D01*
X84306730Y-87271920D01*
X83394230Y-87271920D01*
X83370338Y-87270746D01*
X83346677Y-87267236D01*
X83323473Y-87261424D01*
X83300951Y-87253366D01*
X83279327Y-87243138D01*
X83258810Y-87230841D01*
X83239597Y-87216591D01*
X83221873Y-87200527D01*
X83205809Y-87182803D01*
X83191559Y-87163590D01*
X83179262Y-87143073D01*
X83169034Y-87121449D01*
X83160976Y-87098927D01*
X83155164Y-87075723D01*
X83151654Y-87052062D01*
X83150480Y-87028170D01*
X83150480Y-86540670D01*
X83151654Y-86516778D01*
X83155164Y-86493117D01*
X83160976Y-86469913D01*
X83169034Y-86447391D01*
X83179262Y-86425767D01*
X83191559Y-86405250D01*
X83205809Y-86386037D01*
X83221873Y-86368313D01*
X83239597Y-86352249D01*
X83258810Y-86337999D01*
X83279327Y-86325702D01*
X83300951Y-86315474D01*
X83323473Y-86307416D01*
X83346677Y-86301604D01*
X83370338Y-86298094D01*
X83394230Y-86296920D01*
X84306730Y-86296920D01*
X84330622Y-86298094D01*
X84330622Y-86298094D01*
G37*
D13*
X83850480Y-86784420D03*
D12*
G36*
X84330622Y-84423094D02*
X84354283Y-84426604D01*
X84377487Y-84432416D01*
X84400009Y-84440474D01*
X84421633Y-84450702D01*
X84442150Y-84462999D01*
X84461363Y-84477249D01*
X84479087Y-84493313D01*
X84495151Y-84511037D01*
X84509401Y-84530250D01*
X84521698Y-84550767D01*
X84531926Y-84572391D01*
X84539984Y-84594913D01*
X84545796Y-84618117D01*
X84549306Y-84641778D01*
X84550480Y-84665670D01*
X84550480Y-85153170D01*
X84549306Y-85177062D01*
X84545796Y-85200723D01*
X84539984Y-85223927D01*
X84531926Y-85246449D01*
X84521698Y-85268073D01*
X84509401Y-85288590D01*
X84495151Y-85307803D01*
X84479087Y-85325527D01*
X84461363Y-85341591D01*
X84442150Y-85355841D01*
X84421633Y-85368138D01*
X84400009Y-85378366D01*
X84377487Y-85386424D01*
X84354283Y-85392236D01*
X84330622Y-85395746D01*
X84306730Y-85396920D01*
X83394230Y-85396920D01*
X83370338Y-85395746D01*
X83346677Y-85392236D01*
X83323473Y-85386424D01*
X83300951Y-85378366D01*
X83279327Y-85368138D01*
X83258810Y-85355841D01*
X83239597Y-85341591D01*
X83221873Y-85325527D01*
X83205809Y-85307803D01*
X83191559Y-85288590D01*
X83179262Y-85268073D01*
X83169034Y-85246449D01*
X83160976Y-85223927D01*
X83155164Y-85200723D01*
X83151654Y-85177062D01*
X83150480Y-85153170D01*
X83150480Y-84665670D01*
X83151654Y-84641778D01*
X83155164Y-84618117D01*
X83160976Y-84594913D01*
X83169034Y-84572391D01*
X83179262Y-84550767D01*
X83191559Y-84530250D01*
X83205809Y-84511037D01*
X83221873Y-84493313D01*
X83239597Y-84477249D01*
X83258810Y-84462999D01*
X83279327Y-84450702D01*
X83300951Y-84440474D01*
X83323473Y-84432416D01*
X83346677Y-84426604D01*
X83370338Y-84423094D01*
X83394230Y-84421920D01*
X84306730Y-84421920D01*
X84330622Y-84423094D01*
X84330622Y-84423094D01*
G37*
D13*
X83850480Y-84909420D03*
G04 #@! TD*
D12*
G04 #@! TO.C,R38*
G36*
X91950622Y-119318094D02*
X91974283Y-119321604D01*
X91997487Y-119327416D01*
X92020009Y-119335474D01*
X92041633Y-119345702D01*
X92062150Y-119357999D01*
X92081363Y-119372249D01*
X92099087Y-119388313D01*
X92115151Y-119406037D01*
X92129401Y-119425250D01*
X92141698Y-119445767D01*
X92151926Y-119467391D01*
X92159984Y-119489913D01*
X92165796Y-119513117D01*
X92169306Y-119536778D01*
X92170480Y-119560670D01*
X92170480Y-120048170D01*
X92169306Y-120072062D01*
X92165796Y-120095723D01*
X92159984Y-120118927D01*
X92151926Y-120141449D01*
X92141698Y-120163073D01*
X92129401Y-120183590D01*
X92115151Y-120202803D01*
X92099087Y-120220527D01*
X92081363Y-120236591D01*
X92062150Y-120250841D01*
X92041633Y-120263138D01*
X92020009Y-120273366D01*
X91997487Y-120281424D01*
X91974283Y-120287236D01*
X91950622Y-120290746D01*
X91926730Y-120291920D01*
X91014230Y-120291920D01*
X90990338Y-120290746D01*
X90966677Y-120287236D01*
X90943473Y-120281424D01*
X90920951Y-120273366D01*
X90899327Y-120263138D01*
X90878810Y-120250841D01*
X90859597Y-120236591D01*
X90841873Y-120220527D01*
X90825809Y-120202803D01*
X90811559Y-120183590D01*
X90799262Y-120163073D01*
X90789034Y-120141449D01*
X90780976Y-120118927D01*
X90775164Y-120095723D01*
X90771654Y-120072062D01*
X90770480Y-120048170D01*
X90770480Y-119560670D01*
X90771654Y-119536778D01*
X90775164Y-119513117D01*
X90780976Y-119489913D01*
X90789034Y-119467391D01*
X90799262Y-119445767D01*
X90811559Y-119425250D01*
X90825809Y-119406037D01*
X90841873Y-119388313D01*
X90859597Y-119372249D01*
X90878810Y-119357999D01*
X90899327Y-119345702D01*
X90920951Y-119335474D01*
X90943473Y-119327416D01*
X90966677Y-119321604D01*
X90990338Y-119318094D01*
X91014230Y-119316920D01*
X91926730Y-119316920D01*
X91950622Y-119318094D01*
X91950622Y-119318094D01*
G37*
D13*
X91470480Y-119804420D03*
D12*
G36*
X91950622Y-117443094D02*
X91974283Y-117446604D01*
X91997487Y-117452416D01*
X92020009Y-117460474D01*
X92041633Y-117470702D01*
X92062150Y-117482999D01*
X92081363Y-117497249D01*
X92099087Y-117513313D01*
X92115151Y-117531037D01*
X92129401Y-117550250D01*
X92141698Y-117570767D01*
X92151926Y-117592391D01*
X92159984Y-117614913D01*
X92165796Y-117638117D01*
X92169306Y-117661778D01*
X92170480Y-117685670D01*
X92170480Y-118173170D01*
X92169306Y-118197062D01*
X92165796Y-118220723D01*
X92159984Y-118243927D01*
X92151926Y-118266449D01*
X92141698Y-118288073D01*
X92129401Y-118308590D01*
X92115151Y-118327803D01*
X92099087Y-118345527D01*
X92081363Y-118361591D01*
X92062150Y-118375841D01*
X92041633Y-118388138D01*
X92020009Y-118398366D01*
X91997487Y-118406424D01*
X91974283Y-118412236D01*
X91950622Y-118415746D01*
X91926730Y-118416920D01*
X91014230Y-118416920D01*
X90990338Y-118415746D01*
X90966677Y-118412236D01*
X90943473Y-118406424D01*
X90920951Y-118398366D01*
X90899327Y-118388138D01*
X90878810Y-118375841D01*
X90859597Y-118361591D01*
X90841873Y-118345527D01*
X90825809Y-118327803D01*
X90811559Y-118308590D01*
X90799262Y-118288073D01*
X90789034Y-118266449D01*
X90780976Y-118243927D01*
X90775164Y-118220723D01*
X90771654Y-118197062D01*
X90770480Y-118173170D01*
X90770480Y-117685670D01*
X90771654Y-117661778D01*
X90775164Y-117638117D01*
X90780976Y-117614913D01*
X90789034Y-117592391D01*
X90799262Y-117570767D01*
X90811559Y-117550250D01*
X90825809Y-117531037D01*
X90841873Y-117513313D01*
X90859597Y-117497249D01*
X90878810Y-117482999D01*
X90899327Y-117470702D01*
X90920951Y-117460474D01*
X90943473Y-117452416D01*
X90966677Y-117446604D01*
X90990338Y-117443094D01*
X91014230Y-117441920D01*
X91926730Y-117441920D01*
X91950622Y-117443094D01*
X91950622Y-117443094D01*
G37*
D13*
X91470480Y-117929420D03*
G04 #@! TD*
D12*
G04 #@! TO.C,R39*
G36*
X119890622Y-86298094D02*
X119914283Y-86301604D01*
X119937487Y-86307416D01*
X119960009Y-86315474D01*
X119981633Y-86325702D01*
X120002150Y-86337999D01*
X120021363Y-86352249D01*
X120039087Y-86368313D01*
X120055151Y-86386037D01*
X120069401Y-86405250D01*
X120081698Y-86425767D01*
X120091926Y-86447391D01*
X120099984Y-86469913D01*
X120105796Y-86493117D01*
X120109306Y-86516778D01*
X120110480Y-86540670D01*
X120110480Y-87028170D01*
X120109306Y-87052062D01*
X120105796Y-87075723D01*
X120099984Y-87098927D01*
X120091926Y-87121449D01*
X120081698Y-87143073D01*
X120069401Y-87163590D01*
X120055151Y-87182803D01*
X120039087Y-87200527D01*
X120021363Y-87216591D01*
X120002150Y-87230841D01*
X119981633Y-87243138D01*
X119960009Y-87253366D01*
X119937487Y-87261424D01*
X119914283Y-87267236D01*
X119890622Y-87270746D01*
X119866730Y-87271920D01*
X118954230Y-87271920D01*
X118930338Y-87270746D01*
X118906677Y-87267236D01*
X118883473Y-87261424D01*
X118860951Y-87253366D01*
X118839327Y-87243138D01*
X118818810Y-87230841D01*
X118799597Y-87216591D01*
X118781873Y-87200527D01*
X118765809Y-87182803D01*
X118751559Y-87163590D01*
X118739262Y-87143073D01*
X118729034Y-87121449D01*
X118720976Y-87098927D01*
X118715164Y-87075723D01*
X118711654Y-87052062D01*
X118710480Y-87028170D01*
X118710480Y-86540670D01*
X118711654Y-86516778D01*
X118715164Y-86493117D01*
X118720976Y-86469913D01*
X118729034Y-86447391D01*
X118739262Y-86425767D01*
X118751559Y-86405250D01*
X118765809Y-86386037D01*
X118781873Y-86368313D01*
X118799597Y-86352249D01*
X118818810Y-86337999D01*
X118839327Y-86325702D01*
X118860951Y-86315474D01*
X118883473Y-86307416D01*
X118906677Y-86301604D01*
X118930338Y-86298094D01*
X118954230Y-86296920D01*
X119866730Y-86296920D01*
X119890622Y-86298094D01*
X119890622Y-86298094D01*
G37*
D13*
X119410480Y-86784420D03*
D12*
G36*
X119890622Y-84423094D02*
X119914283Y-84426604D01*
X119937487Y-84432416D01*
X119960009Y-84440474D01*
X119981633Y-84450702D01*
X120002150Y-84462999D01*
X120021363Y-84477249D01*
X120039087Y-84493313D01*
X120055151Y-84511037D01*
X120069401Y-84530250D01*
X120081698Y-84550767D01*
X120091926Y-84572391D01*
X120099984Y-84594913D01*
X120105796Y-84618117D01*
X120109306Y-84641778D01*
X120110480Y-84665670D01*
X120110480Y-85153170D01*
X120109306Y-85177062D01*
X120105796Y-85200723D01*
X120099984Y-85223927D01*
X120091926Y-85246449D01*
X120081698Y-85268073D01*
X120069401Y-85288590D01*
X120055151Y-85307803D01*
X120039087Y-85325527D01*
X120021363Y-85341591D01*
X120002150Y-85355841D01*
X119981633Y-85368138D01*
X119960009Y-85378366D01*
X119937487Y-85386424D01*
X119914283Y-85392236D01*
X119890622Y-85395746D01*
X119866730Y-85396920D01*
X118954230Y-85396920D01*
X118930338Y-85395746D01*
X118906677Y-85392236D01*
X118883473Y-85386424D01*
X118860951Y-85378366D01*
X118839327Y-85368138D01*
X118818810Y-85355841D01*
X118799597Y-85341591D01*
X118781873Y-85325527D01*
X118765809Y-85307803D01*
X118751559Y-85288590D01*
X118739262Y-85268073D01*
X118729034Y-85246449D01*
X118720976Y-85223927D01*
X118715164Y-85200723D01*
X118711654Y-85177062D01*
X118710480Y-85153170D01*
X118710480Y-84665670D01*
X118711654Y-84641778D01*
X118715164Y-84618117D01*
X118720976Y-84594913D01*
X118729034Y-84572391D01*
X118739262Y-84550767D01*
X118751559Y-84530250D01*
X118765809Y-84511037D01*
X118781873Y-84493313D01*
X118799597Y-84477249D01*
X118818810Y-84462999D01*
X118839327Y-84450702D01*
X118860951Y-84440474D01*
X118883473Y-84432416D01*
X118906677Y-84426604D01*
X118930338Y-84423094D01*
X118954230Y-84421920D01*
X119866730Y-84421920D01*
X119890622Y-84423094D01*
X119890622Y-84423094D01*
G37*
D13*
X119410480Y-84909420D03*
G04 #@! TD*
D12*
G04 #@! TO.C,R40*
G36*
X112270622Y-119318094D02*
X112294283Y-119321604D01*
X112317487Y-119327416D01*
X112340009Y-119335474D01*
X112361633Y-119345702D01*
X112382150Y-119357999D01*
X112401363Y-119372249D01*
X112419087Y-119388313D01*
X112435151Y-119406037D01*
X112449401Y-119425250D01*
X112461698Y-119445767D01*
X112471926Y-119467391D01*
X112479984Y-119489913D01*
X112485796Y-119513117D01*
X112489306Y-119536778D01*
X112490480Y-119560670D01*
X112490480Y-120048170D01*
X112489306Y-120072062D01*
X112485796Y-120095723D01*
X112479984Y-120118927D01*
X112471926Y-120141449D01*
X112461698Y-120163073D01*
X112449401Y-120183590D01*
X112435151Y-120202803D01*
X112419087Y-120220527D01*
X112401363Y-120236591D01*
X112382150Y-120250841D01*
X112361633Y-120263138D01*
X112340009Y-120273366D01*
X112317487Y-120281424D01*
X112294283Y-120287236D01*
X112270622Y-120290746D01*
X112246730Y-120291920D01*
X111334230Y-120291920D01*
X111310338Y-120290746D01*
X111286677Y-120287236D01*
X111263473Y-120281424D01*
X111240951Y-120273366D01*
X111219327Y-120263138D01*
X111198810Y-120250841D01*
X111179597Y-120236591D01*
X111161873Y-120220527D01*
X111145809Y-120202803D01*
X111131559Y-120183590D01*
X111119262Y-120163073D01*
X111109034Y-120141449D01*
X111100976Y-120118927D01*
X111095164Y-120095723D01*
X111091654Y-120072062D01*
X111090480Y-120048170D01*
X111090480Y-119560670D01*
X111091654Y-119536778D01*
X111095164Y-119513117D01*
X111100976Y-119489913D01*
X111109034Y-119467391D01*
X111119262Y-119445767D01*
X111131559Y-119425250D01*
X111145809Y-119406037D01*
X111161873Y-119388313D01*
X111179597Y-119372249D01*
X111198810Y-119357999D01*
X111219327Y-119345702D01*
X111240951Y-119335474D01*
X111263473Y-119327416D01*
X111286677Y-119321604D01*
X111310338Y-119318094D01*
X111334230Y-119316920D01*
X112246730Y-119316920D01*
X112270622Y-119318094D01*
X112270622Y-119318094D01*
G37*
D13*
X111790480Y-119804420D03*
D12*
G36*
X112270622Y-117443094D02*
X112294283Y-117446604D01*
X112317487Y-117452416D01*
X112340009Y-117460474D01*
X112361633Y-117470702D01*
X112382150Y-117482999D01*
X112401363Y-117497249D01*
X112419087Y-117513313D01*
X112435151Y-117531037D01*
X112449401Y-117550250D01*
X112461698Y-117570767D01*
X112471926Y-117592391D01*
X112479984Y-117614913D01*
X112485796Y-117638117D01*
X112489306Y-117661778D01*
X112490480Y-117685670D01*
X112490480Y-118173170D01*
X112489306Y-118197062D01*
X112485796Y-118220723D01*
X112479984Y-118243927D01*
X112471926Y-118266449D01*
X112461698Y-118288073D01*
X112449401Y-118308590D01*
X112435151Y-118327803D01*
X112419087Y-118345527D01*
X112401363Y-118361591D01*
X112382150Y-118375841D01*
X112361633Y-118388138D01*
X112340009Y-118398366D01*
X112317487Y-118406424D01*
X112294283Y-118412236D01*
X112270622Y-118415746D01*
X112246730Y-118416920D01*
X111334230Y-118416920D01*
X111310338Y-118415746D01*
X111286677Y-118412236D01*
X111263473Y-118406424D01*
X111240951Y-118398366D01*
X111219327Y-118388138D01*
X111198810Y-118375841D01*
X111179597Y-118361591D01*
X111161873Y-118345527D01*
X111145809Y-118327803D01*
X111131559Y-118308590D01*
X111119262Y-118288073D01*
X111109034Y-118266449D01*
X111100976Y-118243927D01*
X111095164Y-118220723D01*
X111091654Y-118197062D01*
X111090480Y-118173170D01*
X111090480Y-117685670D01*
X111091654Y-117661778D01*
X111095164Y-117638117D01*
X111100976Y-117614913D01*
X111109034Y-117592391D01*
X111119262Y-117570767D01*
X111131559Y-117550250D01*
X111145809Y-117531037D01*
X111161873Y-117513313D01*
X111179597Y-117497249D01*
X111198810Y-117482999D01*
X111219327Y-117470702D01*
X111240951Y-117460474D01*
X111263473Y-117452416D01*
X111286677Y-117446604D01*
X111310338Y-117443094D01*
X111334230Y-117441920D01*
X112246730Y-117441920D01*
X112270622Y-117443094D01*
X112270622Y-117443094D01*
G37*
D13*
X111790480Y-117929420D03*
G04 #@! TD*
D12*
G04 #@! TO.C,R26*
G36*
X115415142Y-97636174D02*
X115438803Y-97639684D01*
X115462007Y-97645496D01*
X115484529Y-97653554D01*
X115506153Y-97663782D01*
X115526670Y-97676079D01*
X115545883Y-97690329D01*
X115563607Y-97706393D01*
X115579671Y-97724117D01*
X115593921Y-97743330D01*
X115606218Y-97763847D01*
X115616446Y-97785471D01*
X115624504Y-97807993D01*
X115630316Y-97831197D01*
X115633826Y-97854858D01*
X115635000Y-97878750D01*
X115635000Y-98366250D01*
X115633826Y-98390142D01*
X115630316Y-98413803D01*
X115624504Y-98437007D01*
X115616446Y-98459529D01*
X115606218Y-98481153D01*
X115593921Y-98501670D01*
X115579671Y-98520883D01*
X115563607Y-98538607D01*
X115545883Y-98554671D01*
X115526670Y-98568921D01*
X115506153Y-98581218D01*
X115484529Y-98591446D01*
X115462007Y-98599504D01*
X115438803Y-98605316D01*
X115415142Y-98608826D01*
X115391250Y-98610000D01*
X114478750Y-98610000D01*
X114454858Y-98608826D01*
X114431197Y-98605316D01*
X114407993Y-98599504D01*
X114385471Y-98591446D01*
X114363847Y-98581218D01*
X114343330Y-98568921D01*
X114324117Y-98554671D01*
X114306393Y-98538607D01*
X114290329Y-98520883D01*
X114276079Y-98501670D01*
X114263782Y-98481153D01*
X114253554Y-98459529D01*
X114245496Y-98437007D01*
X114239684Y-98413803D01*
X114236174Y-98390142D01*
X114235000Y-98366250D01*
X114235000Y-97878750D01*
X114236174Y-97854858D01*
X114239684Y-97831197D01*
X114245496Y-97807993D01*
X114253554Y-97785471D01*
X114263782Y-97763847D01*
X114276079Y-97743330D01*
X114290329Y-97724117D01*
X114306393Y-97706393D01*
X114324117Y-97690329D01*
X114343330Y-97676079D01*
X114363847Y-97663782D01*
X114385471Y-97653554D01*
X114407993Y-97645496D01*
X114431197Y-97639684D01*
X114454858Y-97636174D01*
X114478750Y-97635000D01*
X115391250Y-97635000D01*
X115415142Y-97636174D01*
X115415142Y-97636174D01*
G37*
D13*
X114935000Y-98122500D03*
D12*
G36*
X115415142Y-99511174D02*
X115438803Y-99514684D01*
X115462007Y-99520496D01*
X115484529Y-99528554D01*
X115506153Y-99538782D01*
X115526670Y-99551079D01*
X115545883Y-99565329D01*
X115563607Y-99581393D01*
X115579671Y-99599117D01*
X115593921Y-99618330D01*
X115606218Y-99638847D01*
X115616446Y-99660471D01*
X115624504Y-99682993D01*
X115630316Y-99706197D01*
X115633826Y-99729858D01*
X115635000Y-99753750D01*
X115635000Y-100241250D01*
X115633826Y-100265142D01*
X115630316Y-100288803D01*
X115624504Y-100312007D01*
X115616446Y-100334529D01*
X115606218Y-100356153D01*
X115593921Y-100376670D01*
X115579671Y-100395883D01*
X115563607Y-100413607D01*
X115545883Y-100429671D01*
X115526670Y-100443921D01*
X115506153Y-100456218D01*
X115484529Y-100466446D01*
X115462007Y-100474504D01*
X115438803Y-100480316D01*
X115415142Y-100483826D01*
X115391250Y-100485000D01*
X114478750Y-100485000D01*
X114454858Y-100483826D01*
X114431197Y-100480316D01*
X114407993Y-100474504D01*
X114385471Y-100466446D01*
X114363847Y-100456218D01*
X114343330Y-100443921D01*
X114324117Y-100429671D01*
X114306393Y-100413607D01*
X114290329Y-100395883D01*
X114276079Y-100376670D01*
X114263782Y-100356153D01*
X114253554Y-100334529D01*
X114245496Y-100312007D01*
X114239684Y-100288803D01*
X114236174Y-100265142D01*
X114235000Y-100241250D01*
X114235000Y-99753750D01*
X114236174Y-99729858D01*
X114239684Y-99706197D01*
X114245496Y-99682993D01*
X114253554Y-99660471D01*
X114263782Y-99638847D01*
X114276079Y-99618330D01*
X114290329Y-99599117D01*
X114306393Y-99581393D01*
X114324117Y-99565329D01*
X114343330Y-99551079D01*
X114363847Y-99538782D01*
X114385471Y-99528554D01*
X114407993Y-99520496D01*
X114431197Y-99514684D01*
X114454858Y-99511174D01*
X114478750Y-99510000D01*
X115391250Y-99510000D01*
X115415142Y-99511174D01*
X115415142Y-99511174D01*
G37*
D13*
X114935000Y-99997500D03*
G04 #@! TD*
D12*
G04 #@! TO.C,R21*
G36*
X84330622Y-66643094D02*
X84354283Y-66646604D01*
X84377487Y-66652416D01*
X84400009Y-66660474D01*
X84421633Y-66670702D01*
X84442150Y-66682999D01*
X84461363Y-66697249D01*
X84479087Y-66713313D01*
X84495151Y-66731037D01*
X84509401Y-66750250D01*
X84521698Y-66770767D01*
X84531926Y-66792391D01*
X84539984Y-66814913D01*
X84545796Y-66838117D01*
X84549306Y-66861778D01*
X84550480Y-66885670D01*
X84550480Y-67373170D01*
X84549306Y-67397062D01*
X84545796Y-67420723D01*
X84539984Y-67443927D01*
X84531926Y-67466449D01*
X84521698Y-67488073D01*
X84509401Y-67508590D01*
X84495151Y-67527803D01*
X84479087Y-67545527D01*
X84461363Y-67561591D01*
X84442150Y-67575841D01*
X84421633Y-67588138D01*
X84400009Y-67598366D01*
X84377487Y-67606424D01*
X84354283Y-67612236D01*
X84330622Y-67615746D01*
X84306730Y-67616920D01*
X83394230Y-67616920D01*
X83370338Y-67615746D01*
X83346677Y-67612236D01*
X83323473Y-67606424D01*
X83300951Y-67598366D01*
X83279327Y-67588138D01*
X83258810Y-67575841D01*
X83239597Y-67561591D01*
X83221873Y-67545527D01*
X83205809Y-67527803D01*
X83191559Y-67508590D01*
X83179262Y-67488073D01*
X83169034Y-67466449D01*
X83160976Y-67443927D01*
X83155164Y-67420723D01*
X83151654Y-67397062D01*
X83150480Y-67373170D01*
X83150480Y-66885670D01*
X83151654Y-66861778D01*
X83155164Y-66838117D01*
X83160976Y-66814913D01*
X83169034Y-66792391D01*
X83179262Y-66770767D01*
X83191559Y-66750250D01*
X83205809Y-66731037D01*
X83221873Y-66713313D01*
X83239597Y-66697249D01*
X83258810Y-66682999D01*
X83279327Y-66670702D01*
X83300951Y-66660474D01*
X83323473Y-66652416D01*
X83346677Y-66646604D01*
X83370338Y-66643094D01*
X83394230Y-66641920D01*
X84306730Y-66641920D01*
X84330622Y-66643094D01*
X84330622Y-66643094D01*
G37*
D13*
X83850480Y-67129420D03*
D12*
G36*
X84330622Y-68518094D02*
X84354283Y-68521604D01*
X84377487Y-68527416D01*
X84400009Y-68535474D01*
X84421633Y-68545702D01*
X84442150Y-68557999D01*
X84461363Y-68572249D01*
X84479087Y-68588313D01*
X84495151Y-68606037D01*
X84509401Y-68625250D01*
X84521698Y-68645767D01*
X84531926Y-68667391D01*
X84539984Y-68689913D01*
X84545796Y-68713117D01*
X84549306Y-68736778D01*
X84550480Y-68760670D01*
X84550480Y-69248170D01*
X84549306Y-69272062D01*
X84545796Y-69295723D01*
X84539984Y-69318927D01*
X84531926Y-69341449D01*
X84521698Y-69363073D01*
X84509401Y-69383590D01*
X84495151Y-69402803D01*
X84479087Y-69420527D01*
X84461363Y-69436591D01*
X84442150Y-69450841D01*
X84421633Y-69463138D01*
X84400009Y-69473366D01*
X84377487Y-69481424D01*
X84354283Y-69487236D01*
X84330622Y-69490746D01*
X84306730Y-69491920D01*
X83394230Y-69491920D01*
X83370338Y-69490746D01*
X83346677Y-69487236D01*
X83323473Y-69481424D01*
X83300951Y-69473366D01*
X83279327Y-69463138D01*
X83258810Y-69450841D01*
X83239597Y-69436591D01*
X83221873Y-69420527D01*
X83205809Y-69402803D01*
X83191559Y-69383590D01*
X83179262Y-69363073D01*
X83169034Y-69341449D01*
X83160976Y-69318927D01*
X83155164Y-69295723D01*
X83151654Y-69272062D01*
X83150480Y-69248170D01*
X83150480Y-68760670D01*
X83151654Y-68736778D01*
X83155164Y-68713117D01*
X83160976Y-68689913D01*
X83169034Y-68667391D01*
X83179262Y-68645767D01*
X83191559Y-68625250D01*
X83205809Y-68606037D01*
X83221873Y-68588313D01*
X83239597Y-68572249D01*
X83258810Y-68557999D01*
X83279327Y-68545702D01*
X83300951Y-68535474D01*
X83323473Y-68527416D01*
X83346677Y-68521604D01*
X83370338Y-68518094D01*
X83394230Y-68516920D01*
X84306730Y-68516920D01*
X84330622Y-68518094D01*
X84330622Y-68518094D01*
G37*
D13*
X83850480Y-69004420D03*
G04 #@! TD*
D12*
G04 #@! TO.C,R20*
G36*
X108460622Y-72963094D02*
X108484283Y-72966604D01*
X108507487Y-72972416D01*
X108530009Y-72980474D01*
X108551633Y-72990702D01*
X108572150Y-73002999D01*
X108591363Y-73017249D01*
X108609087Y-73033313D01*
X108625151Y-73051037D01*
X108639401Y-73070250D01*
X108651698Y-73090767D01*
X108661926Y-73112391D01*
X108669984Y-73134913D01*
X108675796Y-73158117D01*
X108679306Y-73181778D01*
X108680480Y-73205670D01*
X108680480Y-73693170D01*
X108679306Y-73717062D01*
X108675796Y-73740723D01*
X108669984Y-73763927D01*
X108661926Y-73786449D01*
X108651698Y-73808073D01*
X108639401Y-73828590D01*
X108625151Y-73847803D01*
X108609087Y-73865527D01*
X108591363Y-73881591D01*
X108572150Y-73895841D01*
X108551633Y-73908138D01*
X108530009Y-73918366D01*
X108507487Y-73926424D01*
X108484283Y-73932236D01*
X108460622Y-73935746D01*
X108436730Y-73936920D01*
X107524230Y-73936920D01*
X107500338Y-73935746D01*
X107476677Y-73932236D01*
X107453473Y-73926424D01*
X107430951Y-73918366D01*
X107409327Y-73908138D01*
X107388810Y-73895841D01*
X107369597Y-73881591D01*
X107351873Y-73865527D01*
X107335809Y-73847803D01*
X107321559Y-73828590D01*
X107309262Y-73808073D01*
X107299034Y-73786449D01*
X107290976Y-73763927D01*
X107285164Y-73740723D01*
X107281654Y-73717062D01*
X107280480Y-73693170D01*
X107280480Y-73205670D01*
X107281654Y-73181778D01*
X107285164Y-73158117D01*
X107290976Y-73134913D01*
X107299034Y-73112391D01*
X107309262Y-73090767D01*
X107321559Y-73070250D01*
X107335809Y-73051037D01*
X107351873Y-73033313D01*
X107369597Y-73017249D01*
X107388810Y-73002999D01*
X107409327Y-72990702D01*
X107430951Y-72980474D01*
X107453473Y-72972416D01*
X107476677Y-72966604D01*
X107500338Y-72963094D01*
X107524230Y-72961920D01*
X108436730Y-72961920D01*
X108460622Y-72963094D01*
X108460622Y-72963094D01*
G37*
D13*
X107980480Y-73449420D03*
D12*
G36*
X108460622Y-71088094D02*
X108484283Y-71091604D01*
X108507487Y-71097416D01*
X108530009Y-71105474D01*
X108551633Y-71115702D01*
X108572150Y-71127999D01*
X108591363Y-71142249D01*
X108609087Y-71158313D01*
X108625151Y-71176037D01*
X108639401Y-71195250D01*
X108651698Y-71215767D01*
X108661926Y-71237391D01*
X108669984Y-71259913D01*
X108675796Y-71283117D01*
X108679306Y-71306778D01*
X108680480Y-71330670D01*
X108680480Y-71818170D01*
X108679306Y-71842062D01*
X108675796Y-71865723D01*
X108669984Y-71888927D01*
X108661926Y-71911449D01*
X108651698Y-71933073D01*
X108639401Y-71953590D01*
X108625151Y-71972803D01*
X108609087Y-71990527D01*
X108591363Y-72006591D01*
X108572150Y-72020841D01*
X108551633Y-72033138D01*
X108530009Y-72043366D01*
X108507487Y-72051424D01*
X108484283Y-72057236D01*
X108460622Y-72060746D01*
X108436730Y-72061920D01*
X107524230Y-72061920D01*
X107500338Y-72060746D01*
X107476677Y-72057236D01*
X107453473Y-72051424D01*
X107430951Y-72043366D01*
X107409327Y-72033138D01*
X107388810Y-72020841D01*
X107369597Y-72006591D01*
X107351873Y-71990527D01*
X107335809Y-71972803D01*
X107321559Y-71953590D01*
X107309262Y-71933073D01*
X107299034Y-71911449D01*
X107290976Y-71888927D01*
X107285164Y-71865723D01*
X107281654Y-71842062D01*
X107280480Y-71818170D01*
X107280480Y-71330670D01*
X107281654Y-71306778D01*
X107285164Y-71283117D01*
X107290976Y-71259913D01*
X107299034Y-71237391D01*
X107309262Y-71215767D01*
X107321559Y-71195250D01*
X107335809Y-71176037D01*
X107351873Y-71158313D01*
X107369597Y-71142249D01*
X107388810Y-71127999D01*
X107409327Y-71115702D01*
X107430951Y-71105474D01*
X107453473Y-71097416D01*
X107476677Y-71091604D01*
X107500338Y-71088094D01*
X107524230Y-71086920D01*
X108436730Y-71086920D01*
X108460622Y-71088094D01*
X108460622Y-71088094D01*
G37*
D13*
X107980480Y-71574420D03*
G04 #@! TD*
D12*
G04 #@! TO.C,R19*
G36*
X95760622Y-72963094D02*
X95784283Y-72966604D01*
X95807487Y-72972416D01*
X95830009Y-72980474D01*
X95851633Y-72990702D01*
X95872150Y-73002999D01*
X95891363Y-73017249D01*
X95909087Y-73033313D01*
X95925151Y-73051037D01*
X95939401Y-73070250D01*
X95951698Y-73090767D01*
X95961926Y-73112391D01*
X95969984Y-73134913D01*
X95975796Y-73158117D01*
X95979306Y-73181778D01*
X95980480Y-73205670D01*
X95980480Y-73693170D01*
X95979306Y-73717062D01*
X95975796Y-73740723D01*
X95969984Y-73763927D01*
X95961926Y-73786449D01*
X95951698Y-73808073D01*
X95939401Y-73828590D01*
X95925151Y-73847803D01*
X95909087Y-73865527D01*
X95891363Y-73881591D01*
X95872150Y-73895841D01*
X95851633Y-73908138D01*
X95830009Y-73918366D01*
X95807487Y-73926424D01*
X95784283Y-73932236D01*
X95760622Y-73935746D01*
X95736730Y-73936920D01*
X94824230Y-73936920D01*
X94800338Y-73935746D01*
X94776677Y-73932236D01*
X94753473Y-73926424D01*
X94730951Y-73918366D01*
X94709327Y-73908138D01*
X94688810Y-73895841D01*
X94669597Y-73881591D01*
X94651873Y-73865527D01*
X94635809Y-73847803D01*
X94621559Y-73828590D01*
X94609262Y-73808073D01*
X94599034Y-73786449D01*
X94590976Y-73763927D01*
X94585164Y-73740723D01*
X94581654Y-73717062D01*
X94580480Y-73693170D01*
X94580480Y-73205670D01*
X94581654Y-73181778D01*
X94585164Y-73158117D01*
X94590976Y-73134913D01*
X94599034Y-73112391D01*
X94609262Y-73090767D01*
X94621559Y-73070250D01*
X94635809Y-73051037D01*
X94651873Y-73033313D01*
X94669597Y-73017249D01*
X94688810Y-73002999D01*
X94709327Y-72990702D01*
X94730951Y-72980474D01*
X94753473Y-72972416D01*
X94776677Y-72966604D01*
X94800338Y-72963094D01*
X94824230Y-72961920D01*
X95736730Y-72961920D01*
X95760622Y-72963094D01*
X95760622Y-72963094D01*
G37*
D13*
X95280480Y-73449420D03*
D12*
G36*
X95760622Y-71088094D02*
X95784283Y-71091604D01*
X95807487Y-71097416D01*
X95830009Y-71105474D01*
X95851633Y-71115702D01*
X95872150Y-71127999D01*
X95891363Y-71142249D01*
X95909087Y-71158313D01*
X95925151Y-71176037D01*
X95939401Y-71195250D01*
X95951698Y-71215767D01*
X95961926Y-71237391D01*
X95969984Y-71259913D01*
X95975796Y-71283117D01*
X95979306Y-71306778D01*
X95980480Y-71330670D01*
X95980480Y-71818170D01*
X95979306Y-71842062D01*
X95975796Y-71865723D01*
X95969984Y-71888927D01*
X95961926Y-71911449D01*
X95951698Y-71933073D01*
X95939401Y-71953590D01*
X95925151Y-71972803D01*
X95909087Y-71990527D01*
X95891363Y-72006591D01*
X95872150Y-72020841D01*
X95851633Y-72033138D01*
X95830009Y-72043366D01*
X95807487Y-72051424D01*
X95784283Y-72057236D01*
X95760622Y-72060746D01*
X95736730Y-72061920D01*
X94824230Y-72061920D01*
X94800338Y-72060746D01*
X94776677Y-72057236D01*
X94753473Y-72051424D01*
X94730951Y-72043366D01*
X94709327Y-72033138D01*
X94688810Y-72020841D01*
X94669597Y-72006591D01*
X94651873Y-71990527D01*
X94635809Y-71972803D01*
X94621559Y-71953590D01*
X94609262Y-71933073D01*
X94599034Y-71911449D01*
X94590976Y-71888927D01*
X94585164Y-71865723D01*
X94581654Y-71842062D01*
X94580480Y-71818170D01*
X94580480Y-71330670D01*
X94581654Y-71306778D01*
X94585164Y-71283117D01*
X94590976Y-71259913D01*
X94599034Y-71237391D01*
X94609262Y-71215767D01*
X94621559Y-71195250D01*
X94635809Y-71176037D01*
X94651873Y-71158313D01*
X94669597Y-71142249D01*
X94688810Y-71127999D01*
X94709327Y-71115702D01*
X94730951Y-71105474D01*
X94753473Y-71097416D01*
X94776677Y-71091604D01*
X94800338Y-71088094D01*
X94824230Y-71086920D01*
X95736730Y-71086920D01*
X95760622Y-71088094D01*
X95760622Y-71088094D01*
G37*
D13*
X95280480Y-71574420D03*
G04 #@! TD*
D12*
G04 #@! TO.C,R34*
G36*
X108460622Y-114238094D02*
X108484283Y-114241604D01*
X108507487Y-114247416D01*
X108530009Y-114255474D01*
X108551633Y-114265702D01*
X108572150Y-114277999D01*
X108591363Y-114292249D01*
X108609087Y-114308313D01*
X108625151Y-114326037D01*
X108639401Y-114345250D01*
X108651698Y-114365767D01*
X108661926Y-114387391D01*
X108669984Y-114409913D01*
X108675796Y-114433117D01*
X108679306Y-114456778D01*
X108680480Y-114480670D01*
X108680480Y-114968170D01*
X108679306Y-114992062D01*
X108675796Y-115015723D01*
X108669984Y-115038927D01*
X108661926Y-115061449D01*
X108651698Y-115083073D01*
X108639401Y-115103590D01*
X108625151Y-115122803D01*
X108609087Y-115140527D01*
X108591363Y-115156591D01*
X108572150Y-115170841D01*
X108551633Y-115183138D01*
X108530009Y-115193366D01*
X108507487Y-115201424D01*
X108484283Y-115207236D01*
X108460622Y-115210746D01*
X108436730Y-115211920D01*
X107524230Y-115211920D01*
X107500338Y-115210746D01*
X107476677Y-115207236D01*
X107453473Y-115201424D01*
X107430951Y-115193366D01*
X107409327Y-115183138D01*
X107388810Y-115170841D01*
X107369597Y-115156591D01*
X107351873Y-115140527D01*
X107335809Y-115122803D01*
X107321559Y-115103590D01*
X107309262Y-115083073D01*
X107299034Y-115061449D01*
X107290976Y-115038927D01*
X107285164Y-115015723D01*
X107281654Y-114992062D01*
X107280480Y-114968170D01*
X107280480Y-114480670D01*
X107281654Y-114456778D01*
X107285164Y-114433117D01*
X107290976Y-114409913D01*
X107299034Y-114387391D01*
X107309262Y-114365767D01*
X107321559Y-114345250D01*
X107335809Y-114326037D01*
X107351873Y-114308313D01*
X107369597Y-114292249D01*
X107388810Y-114277999D01*
X107409327Y-114265702D01*
X107430951Y-114255474D01*
X107453473Y-114247416D01*
X107476677Y-114241604D01*
X107500338Y-114238094D01*
X107524230Y-114236920D01*
X108436730Y-114236920D01*
X108460622Y-114238094D01*
X108460622Y-114238094D01*
G37*
D13*
X107980480Y-114724420D03*
D12*
G36*
X108460622Y-112363094D02*
X108484283Y-112366604D01*
X108507487Y-112372416D01*
X108530009Y-112380474D01*
X108551633Y-112390702D01*
X108572150Y-112402999D01*
X108591363Y-112417249D01*
X108609087Y-112433313D01*
X108625151Y-112451037D01*
X108639401Y-112470250D01*
X108651698Y-112490767D01*
X108661926Y-112512391D01*
X108669984Y-112534913D01*
X108675796Y-112558117D01*
X108679306Y-112581778D01*
X108680480Y-112605670D01*
X108680480Y-113093170D01*
X108679306Y-113117062D01*
X108675796Y-113140723D01*
X108669984Y-113163927D01*
X108661926Y-113186449D01*
X108651698Y-113208073D01*
X108639401Y-113228590D01*
X108625151Y-113247803D01*
X108609087Y-113265527D01*
X108591363Y-113281591D01*
X108572150Y-113295841D01*
X108551633Y-113308138D01*
X108530009Y-113318366D01*
X108507487Y-113326424D01*
X108484283Y-113332236D01*
X108460622Y-113335746D01*
X108436730Y-113336920D01*
X107524230Y-113336920D01*
X107500338Y-113335746D01*
X107476677Y-113332236D01*
X107453473Y-113326424D01*
X107430951Y-113318366D01*
X107409327Y-113308138D01*
X107388810Y-113295841D01*
X107369597Y-113281591D01*
X107351873Y-113265527D01*
X107335809Y-113247803D01*
X107321559Y-113228590D01*
X107309262Y-113208073D01*
X107299034Y-113186449D01*
X107290976Y-113163927D01*
X107285164Y-113140723D01*
X107281654Y-113117062D01*
X107280480Y-113093170D01*
X107280480Y-112605670D01*
X107281654Y-112581778D01*
X107285164Y-112558117D01*
X107290976Y-112534913D01*
X107299034Y-112512391D01*
X107309262Y-112490767D01*
X107321559Y-112470250D01*
X107335809Y-112451037D01*
X107351873Y-112433313D01*
X107369597Y-112417249D01*
X107388810Y-112402999D01*
X107409327Y-112390702D01*
X107430951Y-112380474D01*
X107453473Y-112372416D01*
X107476677Y-112366604D01*
X107500338Y-112363094D01*
X107524230Y-112361920D01*
X108436730Y-112361920D01*
X108460622Y-112363094D01*
X108460622Y-112363094D01*
G37*
D13*
X107980480Y-112849420D03*
G04 #@! TD*
D12*
G04 #@! TO.C,R17*
G36*
X95760622Y-66643094D02*
X95784283Y-66646604D01*
X95807487Y-66652416D01*
X95830009Y-66660474D01*
X95851633Y-66670702D01*
X95872150Y-66682999D01*
X95891363Y-66697249D01*
X95909087Y-66713313D01*
X95925151Y-66731037D01*
X95939401Y-66750250D01*
X95951698Y-66770767D01*
X95961926Y-66792391D01*
X95969984Y-66814913D01*
X95975796Y-66838117D01*
X95979306Y-66861778D01*
X95980480Y-66885670D01*
X95980480Y-67373170D01*
X95979306Y-67397062D01*
X95975796Y-67420723D01*
X95969984Y-67443927D01*
X95961926Y-67466449D01*
X95951698Y-67488073D01*
X95939401Y-67508590D01*
X95925151Y-67527803D01*
X95909087Y-67545527D01*
X95891363Y-67561591D01*
X95872150Y-67575841D01*
X95851633Y-67588138D01*
X95830009Y-67598366D01*
X95807487Y-67606424D01*
X95784283Y-67612236D01*
X95760622Y-67615746D01*
X95736730Y-67616920D01*
X94824230Y-67616920D01*
X94800338Y-67615746D01*
X94776677Y-67612236D01*
X94753473Y-67606424D01*
X94730951Y-67598366D01*
X94709327Y-67588138D01*
X94688810Y-67575841D01*
X94669597Y-67561591D01*
X94651873Y-67545527D01*
X94635809Y-67527803D01*
X94621559Y-67508590D01*
X94609262Y-67488073D01*
X94599034Y-67466449D01*
X94590976Y-67443927D01*
X94585164Y-67420723D01*
X94581654Y-67397062D01*
X94580480Y-67373170D01*
X94580480Y-66885670D01*
X94581654Y-66861778D01*
X94585164Y-66838117D01*
X94590976Y-66814913D01*
X94599034Y-66792391D01*
X94609262Y-66770767D01*
X94621559Y-66750250D01*
X94635809Y-66731037D01*
X94651873Y-66713313D01*
X94669597Y-66697249D01*
X94688810Y-66682999D01*
X94709327Y-66670702D01*
X94730951Y-66660474D01*
X94753473Y-66652416D01*
X94776677Y-66646604D01*
X94800338Y-66643094D01*
X94824230Y-66641920D01*
X95736730Y-66641920D01*
X95760622Y-66643094D01*
X95760622Y-66643094D01*
G37*
D13*
X95280480Y-67129420D03*
D12*
G36*
X95760622Y-68518094D02*
X95784283Y-68521604D01*
X95807487Y-68527416D01*
X95830009Y-68535474D01*
X95851633Y-68545702D01*
X95872150Y-68557999D01*
X95891363Y-68572249D01*
X95909087Y-68588313D01*
X95925151Y-68606037D01*
X95939401Y-68625250D01*
X95951698Y-68645767D01*
X95961926Y-68667391D01*
X95969984Y-68689913D01*
X95975796Y-68713117D01*
X95979306Y-68736778D01*
X95980480Y-68760670D01*
X95980480Y-69248170D01*
X95979306Y-69272062D01*
X95975796Y-69295723D01*
X95969984Y-69318927D01*
X95961926Y-69341449D01*
X95951698Y-69363073D01*
X95939401Y-69383590D01*
X95925151Y-69402803D01*
X95909087Y-69420527D01*
X95891363Y-69436591D01*
X95872150Y-69450841D01*
X95851633Y-69463138D01*
X95830009Y-69473366D01*
X95807487Y-69481424D01*
X95784283Y-69487236D01*
X95760622Y-69490746D01*
X95736730Y-69491920D01*
X94824230Y-69491920D01*
X94800338Y-69490746D01*
X94776677Y-69487236D01*
X94753473Y-69481424D01*
X94730951Y-69473366D01*
X94709327Y-69463138D01*
X94688810Y-69450841D01*
X94669597Y-69436591D01*
X94651873Y-69420527D01*
X94635809Y-69402803D01*
X94621559Y-69383590D01*
X94609262Y-69363073D01*
X94599034Y-69341449D01*
X94590976Y-69318927D01*
X94585164Y-69295723D01*
X94581654Y-69272062D01*
X94580480Y-69248170D01*
X94580480Y-68760670D01*
X94581654Y-68736778D01*
X94585164Y-68713117D01*
X94590976Y-68689913D01*
X94599034Y-68667391D01*
X94609262Y-68645767D01*
X94621559Y-68625250D01*
X94635809Y-68606037D01*
X94651873Y-68588313D01*
X94669597Y-68572249D01*
X94688810Y-68557999D01*
X94709327Y-68545702D01*
X94730951Y-68535474D01*
X94753473Y-68527416D01*
X94776677Y-68521604D01*
X94800338Y-68518094D01*
X94824230Y-68516920D01*
X95736730Y-68516920D01*
X95760622Y-68518094D01*
X95760622Y-68518094D01*
G37*
D13*
X95280480Y-69004420D03*
G04 #@! TD*
D12*
G04 #@! TO.C,R16*
G36*
X108460622Y-96488094D02*
X108484283Y-96491604D01*
X108507487Y-96497416D01*
X108530009Y-96505474D01*
X108551633Y-96515702D01*
X108572150Y-96527999D01*
X108591363Y-96542249D01*
X108609087Y-96558313D01*
X108625151Y-96576037D01*
X108639401Y-96595250D01*
X108651698Y-96615767D01*
X108661926Y-96637391D01*
X108669984Y-96659913D01*
X108675796Y-96683117D01*
X108679306Y-96706778D01*
X108680480Y-96730670D01*
X108680480Y-97218170D01*
X108679306Y-97242062D01*
X108675796Y-97265723D01*
X108669984Y-97288927D01*
X108661926Y-97311449D01*
X108651698Y-97333073D01*
X108639401Y-97353590D01*
X108625151Y-97372803D01*
X108609087Y-97390527D01*
X108591363Y-97406591D01*
X108572150Y-97420841D01*
X108551633Y-97433138D01*
X108530009Y-97443366D01*
X108507487Y-97451424D01*
X108484283Y-97457236D01*
X108460622Y-97460746D01*
X108436730Y-97461920D01*
X107524230Y-97461920D01*
X107500338Y-97460746D01*
X107476677Y-97457236D01*
X107453473Y-97451424D01*
X107430951Y-97443366D01*
X107409327Y-97433138D01*
X107388810Y-97420841D01*
X107369597Y-97406591D01*
X107351873Y-97390527D01*
X107335809Y-97372803D01*
X107321559Y-97353590D01*
X107309262Y-97333073D01*
X107299034Y-97311449D01*
X107290976Y-97288927D01*
X107285164Y-97265723D01*
X107281654Y-97242062D01*
X107280480Y-97218170D01*
X107280480Y-96730670D01*
X107281654Y-96706778D01*
X107285164Y-96683117D01*
X107290976Y-96659913D01*
X107299034Y-96637391D01*
X107309262Y-96615767D01*
X107321559Y-96595250D01*
X107335809Y-96576037D01*
X107351873Y-96558313D01*
X107369597Y-96542249D01*
X107388810Y-96527999D01*
X107409327Y-96515702D01*
X107430951Y-96505474D01*
X107453473Y-96497416D01*
X107476677Y-96491604D01*
X107500338Y-96488094D01*
X107524230Y-96486920D01*
X108436730Y-96486920D01*
X108460622Y-96488094D01*
X108460622Y-96488094D01*
G37*
D13*
X107980480Y-96974420D03*
D12*
G36*
X108460622Y-98363094D02*
X108484283Y-98366604D01*
X108507487Y-98372416D01*
X108530009Y-98380474D01*
X108551633Y-98390702D01*
X108572150Y-98402999D01*
X108591363Y-98417249D01*
X108609087Y-98433313D01*
X108625151Y-98451037D01*
X108639401Y-98470250D01*
X108651698Y-98490767D01*
X108661926Y-98512391D01*
X108669984Y-98534913D01*
X108675796Y-98558117D01*
X108679306Y-98581778D01*
X108680480Y-98605670D01*
X108680480Y-99093170D01*
X108679306Y-99117062D01*
X108675796Y-99140723D01*
X108669984Y-99163927D01*
X108661926Y-99186449D01*
X108651698Y-99208073D01*
X108639401Y-99228590D01*
X108625151Y-99247803D01*
X108609087Y-99265527D01*
X108591363Y-99281591D01*
X108572150Y-99295841D01*
X108551633Y-99308138D01*
X108530009Y-99318366D01*
X108507487Y-99326424D01*
X108484283Y-99332236D01*
X108460622Y-99335746D01*
X108436730Y-99336920D01*
X107524230Y-99336920D01*
X107500338Y-99335746D01*
X107476677Y-99332236D01*
X107453473Y-99326424D01*
X107430951Y-99318366D01*
X107409327Y-99308138D01*
X107388810Y-99295841D01*
X107369597Y-99281591D01*
X107351873Y-99265527D01*
X107335809Y-99247803D01*
X107321559Y-99228590D01*
X107309262Y-99208073D01*
X107299034Y-99186449D01*
X107290976Y-99163927D01*
X107285164Y-99140723D01*
X107281654Y-99117062D01*
X107280480Y-99093170D01*
X107280480Y-98605670D01*
X107281654Y-98581778D01*
X107285164Y-98558117D01*
X107290976Y-98534913D01*
X107299034Y-98512391D01*
X107309262Y-98490767D01*
X107321559Y-98470250D01*
X107335809Y-98451037D01*
X107351873Y-98433313D01*
X107369597Y-98417249D01*
X107388810Y-98402999D01*
X107409327Y-98390702D01*
X107430951Y-98380474D01*
X107453473Y-98372416D01*
X107476677Y-98366604D01*
X107500338Y-98363094D01*
X107524230Y-98361920D01*
X108436730Y-98361920D01*
X108460622Y-98363094D01*
X108460622Y-98363094D01*
G37*
D13*
X107980480Y-98849420D03*
G04 #@! TD*
D12*
G04 #@! TO.C,R15*
G36*
X95760622Y-96488094D02*
X95784283Y-96491604D01*
X95807487Y-96497416D01*
X95830009Y-96505474D01*
X95851633Y-96515702D01*
X95872150Y-96527999D01*
X95891363Y-96542249D01*
X95909087Y-96558313D01*
X95925151Y-96576037D01*
X95939401Y-96595250D01*
X95951698Y-96615767D01*
X95961926Y-96637391D01*
X95969984Y-96659913D01*
X95975796Y-96683117D01*
X95979306Y-96706778D01*
X95980480Y-96730670D01*
X95980480Y-97218170D01*
X95979306Y-97242062D01*
X95975796Y-97265723D01*
X95969984Y-97288927D01*
X95961926Y-97311449D01*
X95951698Y-97333073D01*
X95939401Y-97353590D01*
X95925151Y-97372803D01*
X95909087Y-97390527D01*
X95891363Y-97406591D01*
X95872150Y-97420841D01*
X95851633Y-97433138D01*
X95830009Y-97443366D01*
X95807487Y-97451424D01*
X95784283Y-97457236D01*
X95760622Y-97460746D01*
X95736730Y-97461920D01*
X94824230Y-97461920D01*
X94800338Y-97460746D01*
X94776677Y-97457236D01*
X94753473Y-97451424D01*
X94730951Y-97443366D01*
X94709327Y-97433138D01*
X94688810Y-97420841D01*
X94669597Y-97406591D01*
X94651873Y-97390527D01*
X94635809Y-97372803D01*
X94621559Y-97353590D01*
X94609262Y-97333073D01*
X94599034Y-97311449D01*
X94590976Y-97288927D01*
X94585164Y-97265723D01*
X94581654Y-97242062D01*
X94580480Y-97218170D01*
X94580480Y-96730670D01*
X94581654Y-96706778D01*
X94585164Y-96683117D01*
X94590976Y-96659913D01*
X94599034Y-96637391D01*
X94609262Y-96615767D01*
X94621559Y-96595250D01*
X94635809Y-96576037D01*
X94651873Y-96558313D01*
X94669597Y-96542249D01*
X94688810Y-96527999D01*
X94709327Y-96515702D01*
X94730951Y-96505474D01*
X94753473Y-96497416D01*
X94776677Y-96491604D01*
X94800338Y-96488094D01*
X94824230Y-96486920D01*
X95736730Y-96486920D01*
X95760622Y-96488094D01*
X95760622Y-96488094D01*
G37*
D13*
X95280480Y-96974420D03*
D12*
G36*
X95760622Y-98363094D02*
X95784283Y-98366604D01*
X95807487Y-98372416D01*
X95830009Y-98380474D01*
X95851633Y-98390702D01*
X95872150Y-98402999D01*
X95891363Y-98417249D01*
X95909087Y-98433313D01*
X95925151Y-98451037D01*
X95939401Y-98470250D01*
X95951698Y-98490767D01*
X95961926Y-98512391D01*
X95969984Y-98534913D01*
X95975796Y-98558117D01*
X95979306Y-98581778D01*
X95980480Y-98605670D01*
X95980480Y-99093170D01*
X95979306Y-99117062D01*
X95975796Y-99140723D01*
X95969984Y-99163927D01*
X95961926Y-99186449D01*
X95951698Y-99208073D01*
X95939401Y-99228590D01*
X95925151Y-99247803D01*
X95909087Y-99265527D01*
X95891363Y-99281591D01*
X95872150Y-99295841D01*
X95851633Y-99308138D01*
X95830009Y-99318366D01*
X95807487Y-99326424D01*
X95784283Y-99332236D01*
X95760622Y-99335746D01*
X95736730Y-99336920D01*
X94824230Y-99336920D01*
X94800338Y-99335746D01*
X94776677Y-99332236D01*
X94753473Y-99326424D01*
X94730951Y-99318366D01*
X94709327Y-99308138D01*
X94688810Y-99295841D01*
X94669597Y-99281591D01*
X94651873Y-99265527D01*
X94635809Y-99247803D01*
X94621559Y-99228590D01*
X94609262Y-99208073D01*
X94599034Y-99186449D01*
X94590976Y-99163927D01*
X94585164Y-99140723D01*
X94581654Y-99117062D01*
X94580480Y-99093170D01*
X94580480Y-98605670D01*
X94581654Y-98581778D01*
X94585164Y-98558117D01*
X94590976Y-98534913D01*
X94599034Y-98512391D01*
X94609262Y-98490767D01*
X94621559Y-98470250D01*
X94635809Y-98451037D01*
X94651873Y-98433313D01*
X94669597Y-98417249D01*
X94688810Y-98402999D01*
X94709327Y-98390702D01*
X94730951Y-98380474D01*
X94753473Y-98372416D01*
X94776677Y-98366604D01*
X94800338Y-98363094D01*
X94824230Y-98361920D01*
X95736730Y-98361920D01*
X95760622Y-98363094D01*
X95760622Y-98363094D01*
G37*
D13*
X95280480Y-98849420D03*
G04 #@! TD*
D12*
G04 #@! TO.C,R14*
G36*
X116080622Y-87598094D02*
X116104283Y-87601604D01*
X116127487Y-87607416D01*
X116150009Y-87615474D01*
X116171633Y-87625702D01*
X116192150Y-87637999D01*
X116211363Y-87652249D01*
X116229087Y-87668313D01*
X116245151Y-87686037D01*
X116259401Y-87705250D01*
X116271698Y-87725767D01*
X116281926Y-87747391D01*
X116289984Y-87769913D01*
X116295796Y-87793117D01*
X116299306Y-87816778D01*
X116300480Y-87840670D01*
X116300480Y-88328170D01*
X116299306Y-88352062D01*
X116295796Y-88375723D01*
X116289984Y-88398927D01*
X116281926Y-88421449D01*
X116271698Y-88443073D01*
X116259401Y-88463590D01*
X116245151Y-88482803D01*
X116229087Y-88500527D01*
X116211363Y-88516591D01*
X116192150Y-88530841D01*
X116171633Y-88543138D01*
X116150009Y-88553366D01*
X116127487Y-88561424D01*
X116104283Y-88567236D01*
X116080622Y-88570746D01*
X116056730Y-88571920D01*
X115144230Y-88571920D01*
X115120338Y-88570746D01*
X115096677Y-88567236D01*
X115073473Y-88561424D01*
X115050951Y-88553366D01*
X115029327Y-88543138D01*
X115008810Y-88530841D01*
X114989597Y-88516591D01*
X114971873Y-88500527D01*
X114955809Y-88482803D01*
X114941559Y-88463590D01*
X114929262Y-88443073D01*
X114919034Y-88421449D01*
X114910976Y-88398927D01*
X114905164Y-88375723D01*
X114901654Y-88352062D01*
X114900480Y-88328170D01*
X114900480Y-87840670D01*
X114901654Y-87816778D01*
X114905164Y-87793117D01*
X114910976Y-87769913D01*
X114919034Y-87747391D01*
X114929262Y-87725767D01*
X114941559Y-87705250D01*
X114955809Y-87686037D01*
X114971873Y-87668313D01*
X114989597Y-87652249D01*
X115008810Y-87637999D01*
X115029327Y-87625702D01*
X115050951Y-87615474D01*
X115073473Y-87607416D01*
X115096677Y-87601604D01*
X115120338Y-87598094D01*
X115144230Y-87596920D01*
X116056730Y-87596920D01*
X116080622Y-87598094D01*
X116080622Y-87598094D01*
G37*
D13*
X115600480Y-88084420D03*
D12*
G36*
X116080622Y-89473094D02*
X116104283Y-89476604D01*
X116127487Y-89482416D01*
X116150009Y-89490474D01*
X116171633Y-89500702D01*
X116192150Y-89512999D01*
X116211363Y-89527249D01*
X116229087Y-89543313D01*
X116245151Y-89561037D01*
X116259401Y-89580250D01*
X116271698Y-89600767D01*
X116281926Y-89622391D01*
X116289984Y-89644913D01*
X116295796Y-89668117D01*
X116299306Y-89691778D01*
X116300480Y-89715670D01*
X116300480Y-90203170D01*
X116299306Y-90227062D01*
X116295796Y-90250723D01*
X116289984Y-90273927D01*
X116281926Y-90296449D01*
X116271698Y-90318073D01*
X116259401Y-90338590D01*
X116245151Y-90357803D01*
X116229087Y-90375527D01*
X116211363Y-90391591D01*
X116192150Y-90405841D01*
X116171633Y-90418138D01*
X116150009Y-90428366D01*
X116127487Y-90436424D01*
X116104283Y-90442236D01*
X116080622Y-90445746D01*
X116056730Y-90446920D01*
X115144230Y-90446920D01*
X115120338Y-90445746D01*
X115096677Y-90442236D01*
X115073473Y-90436424D01*
X115050951Y-90428366D01*
X115029327Y-90418138D01*
X115008810Y-90405841D01*
X114989597Y-90391591D01*
X114971873Y-90375527D01*
X114955809Y-90357803D01*
X114941559Y-90338590D01*
X114929262Y-90318073D01*
X114919034Y-90296449D01*
X114910976Y-90273927D01*
X114905164Y-90250723D01*
X114901654Y-90227062D01*
X114900480Y-90203170D01*
X114900480Y-89715670D01*
X114901654Y-89691778D01*
X114905164Y-89668117D01*
X114910976Y-89644913D01*
X114919034Y-89622391D01*
X114929262Y-89600767D01*
X114941559Y-89580250D01*
X114955809Y-89561037D01*
X114971873Y-89543313D01*
X114989597Y-89527249D01*
X115008810Y-89512999D01*
X115029327Y-89500702D01*
X115050951Y-89490474D01*
X115073473Y-89482416D01*
X115096677Y-89476604D01*
X115120338Y-89473094D01*
X115144230Y-89471920D01*
X116056730Y-89471920D01*
X116080622Y-89473094D01*
X116080622Y-89473094D01*
G37*
D13*
X115600480Y-89959420D03*
G04 #@! TD*
D12*
G04 #@! TO.C,R13*
G36*
X108460622Y-91408094D02*
X108484283Y-91411604D01*
X108507487Y-91417416D01*
X108530009Y-91425474D01*
X108551633Y-91435702D01*
X108572150Y-91447999D01*
X108591363Y-91462249D01*
X108609087Y-91478313D01*
X108625151Y-91496037D01*
X108639401Y-91515250D01*
X108651698Y-91535767D01*
X108661926Y-91557391D01*
X108669984Y-91579913D01*
X108675796Y-91603117D01*
X108679306Y-91626778D01*
X108680480Y-91650670D01*
X108680480Y-92138170D01*
X108679306Y-92162062D01*
X108675796Y-92185723D01*
X108669984Y-92208927D01*
X108661926Y-92231449D01*
X108651698Y-92253073D01*
X108639401Y-92273590D01*
X108625151Y-92292803D01*
X108609087Y-92310527D01*
X108591363Y-92326591D01*
X108572150Y-92340841D01*
X108551633Y-92353138D01*
X108530009Y-92363366D01*
X108507487Y-92371424D01*
X108484283Y-92377236D01*
X108460622Y-92380746D01*
X108436730Y-92381920D01*
X107524230Y-92381920D01*
X107500338Y-92380746D01*
X107476677Y-92377236D01*
X107453473Y-92371424D01*
X107430951Y-92363366D01*
X107409327Y-92353138D01*
X107388810Y-92340841D01*
X107369597Y-92326591D01*
X107351873Y-92310527D01*
X107335809Y-92292803D01*
X107321559Y-92273590D01*
X107309262Y-92253073D01*
X107299034Y-92231449D01*
X107290976Y-92208927D01*
X107285164Y-92185723D01*
X107281654Y-92162062D01*
X107280480Y-92138170D01*
X107280480Y-91650670D01*
X107281654Y-91626778D01*
X107285164Y-91603117D01*
X107290976Y-91579913D01*
X107299034Y-91557391D01*
X107309262Y-91535767D01*
X107321559Y-91515250D01*
X107335809Y-91496037D01*
X107351873Y-91478313D01*
X107369597Y-91462249D01*
X107388810Y-91447999D01*
X107409327Y-91435702D01*
X107430951Y-91425474D01*
X107453473Y-91417416D01*
X107476677Y-91411604D01*
X107500338Y-91408094D01*
X107524230Y-91406920D01*
X108436730Y-91406920D01*
X108460622Y-91408094D01*
X108460622Y-91408094D01*
G37*
D13*
X107980480Y-91894420D03*
D12*
G36*
X108460622Y-93283094D02*
X108484283Y-93286604D01*
X108507487Y-93292416D01*
X108530009Y-93300474D01*
X108551633Y-93310702D01*
X108572150Y-93322999D01*
X108591363Y-93337249D01*
X108609087Y-93353313D01*
X108625151Y-93371037D01*
X108639401Y-93390250D01*
X108651698Y-93410767D01*
X108661926Y-93432391D01*
X108669984Y-93454913D01*
X108675796Y-93478117D01*
X108679306Y-93501778D01*
X108680480Y-93525670D01*
X108680480Y-94013170D01*
X108679306Y-94037062D01*
X108675796Y-94060723D01*
X108669984Y-94083927D01*
X108661926Y-94106449D01*
X108651698Y-94128073D01*
X108639401Y-94148590D01*
X108625151Y-94167803D01*
X108609087Y-94185527D01*
X108591363Y-94201591D01*
X108572150Y-94215841D01*
X108551633Y-94228138D01*
X108530009Y-94238366D01*
X108507487Y-94246424D01*
X108484283Y-94252236D01*
X108460622Y-94255746D01*
X108436730Y-94256920D01*
X107524230Y-94256920D01*
X107500338Y-94255746D01*
X107476677Y-94252236D01*
X107453473Y-94246424D01*
X107430951Y-94238366D01*
X107409327Y-94228138D01*
X107388810Y-94215841D01*
X107369597Y-94201591D01*
X107351873Y-94185527D01*
X107335809Y-94167803D01*
X107321559Y-94148590D01*
X107309262Y-94128073D01*
X107299034Y-94106449D01*
X107290976Y-94083927D01*
X107285164Y-94060723D01*
X107281654Y-94037062D01*
X107280480Y-94013170D01*
X107280480Y-93525670D01*
X107281654Y-93501778D01*
X107285164Y-93478117D01*
X107290976Y-93454913D01*
X107299034Y-93432391D01*
X107309262Y-93410767D01*
X107321559Y-93390250D01*
X107335809Y-93371037D01*
X107351873Y-93353313D01*
X107369597Y-93337249D01*
X107388810Y-93322999D01*
X107409327Y-93310702D01*
X107430951Y-93300474D01*
X107453473Y-93292416D01*
X107476677Y-93286604D01*
X107500338Y-93283094D01*
X107524230Y-93281920D01*
X108436730Y-93281920D01*
X108460622Y-93283094D01*
X108460622Y-93283094D01*
G37*
D13*
X107980480Y-93769420D03*
G04 #@! TD*
D12*
G04 #@! TO.C,R12*
G36*
X88140622Y-87598094D02*
X88164283Y-87601604D01*
X88187487Y-87607416D01*
X88210009Y-87615474D01*
X88231633Y-87625702D01*
X88252150Y-87637999D01*
X88271363Y-87652249D01*
X88289087Y-87668313D01*
X88305151Y-87686037D01*
X88319401Y-87705250D01*
X88331698Y-87725767D01*
X88341926Y-87747391D01*
X88349984Y-87769913D01*
X88355796Y-87793117D01*
X88359306Y-87816778D01*
X88360480Y-87840670D01*
X88360480Y-88328170D01*
X88359306Y-88352062D01*
X88355796Y-88375723D01*
X88349984Y-88398927D01*
X88341926Y-88421449D01*
X88331698Y-88443073D01*
X88319401Y-88463590D01*
X88305151Y-88482803D01*
X88289087Y-88500527D01*
X88271363Y-88516591D01*
X88252150Y-88530841D01*
X88231633Y-88543138D01*
X88210009Y-88553366D01*
X88187487Y-88561424D01*
X88164283Y-88567236D01*
X88140622Y-88570746D01*
X88116730Y-88571920D01*
X87204230Y-88571920D01*
X87180338Y-88570746D01*
X87156677Y-88567236D01*
X87133473Y-88561424D01*
X87110951Y-88553366D01*
X87089327Y-88543138D01*
X87068810Y-88530841D01*
X87049597Y-88516591D01*
X87031873Y-88500527D01*
X87015809Y-88482803D01*
X87001559Y-88463590D01*
X86989262Y-88443073D01*
X86979034Y-88421449D01*
X86970976Y-88398927D01*
X86965164Y-88375723D01*
X86961654Y-88352062D01*
X86960480Y-88328170D01*
X86960480Y-87840670D01*
X86961654Y-87816778D01*
X86965164Y-87793117D01*
X86970976Y-87769913D01*
X86979034Y-87747391D01*
X86989262Y-87725767D01*
X87001559Y-87705250D01*
X87015809Y-87686037D01*
X87031873Y-87668313D01*
X87049597Y-87652249D01*
X87068810Y-87637999D01*
X87089327Y-87625702D01*
X87110951Y-87615474D01*
X87133473Y-87607416D01*
X87156677Y-87601604D01*
X87180338Y-87598094D01*
X87204230Y-87596920D01*
X88116730Y-87596920D01*
X88140622Y-87598094D01*
X88140622Y-87598094D01*
G37*
D13*
X87660480Y-88084420D03*
D12*
G36*
X88140622Y-89473094D02*
X88164283Y-89476604D01*
X88187487Y-89482416D01*
X88210009Y-89490474D01*
X88231633Y-89500702D01*
X88252150Y-89512999D01*
X88271363Y-89527249D01*
X88289087Y-89543313D01*
X88305151Y-89561037D01*
X88319401Y-89580250D01*
X88331698Y-89600767D01*
X88341926Y-89622391D01*
X88349984Y-89644913D01*
X88355796Y-89668117D01*
X88359306Y-89691778D01*
X88360480Y-89715670D01*
X88360480Y-90203170D01*
X88359306Y-90227062D01*
X88355796Y-90250723D01*
X88349984Y-90273927D01*
X88341926Y-90296449D01*
X88331698Y-90318073D01*
X88319401Y-90338590D01*
X88305151Y-90357803D01*
X88289087Y-90375527D01*
X88271363Y-90391591D01*
X88252150Y-90405841D01*
X88231633Y-90418138D01*
X88210009Y-90428366D01*
X88187487Y-90436424D01*
X88164283Y-90442236D01*
X88140622Y-90445746D01*
X88116730Y-90446920D01*
X87204230Y-90446920D01*
X87180338Y-90445746D01*
X87156677Y-90442236D01*
X87133473Y-90436424D01*
X87110951Y-90428366D01*
X87089327Y-90418138D01*
X87068810Y-90405841D01*
X87049597Y-90391591D01*
X87031873Y-90375527D01*
X87015809Y-90357803D01*
X87001559Y-90338590D01*
X86989262Y-90318073D01*
X86979034Y-90296449D01*
X86970976Y-90273927D01*
X86965164Y-90250723D01*
X86961654Y-90227062D01*
X86960480Y-90203170D01*
X86960480Y-89715670D01*
X86961654Y-89691778D01*
X86965164Y-89668117D01*
X86970976Y-89644913D01*
X86979034Y-89622391D01*
X86989262Y-89600767D01*
X87001559Y-89580250D01*
X87015809Y-89561037D01*
X87031873Y-89543313D01*
X87049597Y-89527249D01*
X87068810Y-89512999D01*
X87089327Y-89500702D01*
X87110951Y-89490474D01*
X87133473Y-89482416D01*
X87156677Y-89476604D01*
X87180338Y-89473094D01*
X87204230Y-89471920D01*
X88116730Y-89471920D01*
X88140622Y-89473094D01*
X88140622Y-89473094D01*
G37*
D13*
X87660480Y-89959420D03*
G04 #@! TD*
D12*
G04 #@! TO.C,R11*
G36*
X95760622Y-91408094D02*
X95784283Y-91411604D01*
X95807487Y-91417416D01*
X95830009Y-91425474D01*
X95851633Y-91435702D01*
X95872150Y-91447999D01*
X95891363Y-91462249D01*
X95909087Y-91478313D01*
X95925151Y-91496037D01*
X95939401Y-91515250D01*
X95951698Y-91535767D01*
X95961926Y-91557391D01*
X95969984Y-91579913D01*
X95975796Y-91603117D01*
X95979306Y-91626778D01*
X95980480Y-91650670D01*
X95980480Y-92138170D01*
X95979306Y-92162062D01*
X95975796Y-92185723D01*
X95969984Y-92208927D01*
X95961926Y-92231449D01*
X95951698Y-92253073D01*
X95939401Y-92273590D01*
X95925151Y-92292803D01*
X95909087Y-92310527D01*
X95891363Y-92326591D01*
X95872150Y-92340841D01*
X95851633Y-92353138D01*
X95830009Y-92363366D01*
X95807487Y-92371424D01*
X95784283Y-92377236D01*
X95760622Y-92380746D01*
X95736730Y-92381920D01*
X94824230Y-92381920D01*
X94800338Y-92380746D01*
X94776677Y-92377236D01*
X94753473Y-92371424D01*
X94730951Y-92363366D01*
X94709327Y-92353138D01*
X94688810Y-92340841D01*
X94669597Y-92326591D01*
X94651873Y-92310527D01*
X94635809Y-92292803D01*
X94621559Y-92273590D01*
X94609262Y-92253073D01*
X94599034Y-92231449D01*
X94590976Y-92208927D01*
X94585164Y-92185723D01*
X94581654Y-92162062D01*
X94580480Y-92138170D01*
X94580480Y-91650670D01*
X94581654Y-91626778D01*
X94585164Y-91603117D01*
X94590976Y-91579913D01*
X94599034Y-91557391D01*
X94609262Y-91535767D01*
X94621559Y-91515250D01*
X94635809Y-91496037D01*
X94651873Y-91478313D01*
X94669597Y-91462249D01*
X94688810Y-91447999D01*
X94709327Y-91435702D01*
X94730951Y-91425474D01*
X94753473Y-91417416D01*
X94776677Y-91411604D01*
X94800338Y-91408094D01*
X94824230Y-91406920D01*
X95736730Y-91406920D01*
X95760622Y-91408094D01*
X95760622Y-91408094D01*
G37*
D13*
X95280480Y-91894420D03*
D12*
G36*
X95760622Y-93283094D02*
X95784283Y-93286604D01*
X95807487Y-93292416D01*
X95830009Y-93300474D01*
X95851633Y-93310702D01*
X95872150Y-93322999D01*
X95891363Y-93337249D01*
X95909087Y-93353313D01*
X95925151Y-93371037D01*
X95939401Y-93390250D01*
X95951698Y-93410767D01*
X95961926Y-93432391D01*
X95969984Y-93454913D01*
X95975796Y-93478117D01*
X95979306Y-93501778D01*
X95980480Y-93525670D01*
X95980480Y-94013170D01*
X95979306Y-94037062D01*
X95975796Y-94060723D01*
X95969984Y-94083927D01*
X95961926Y-94106449D01*
X95951698Y-94128073D01*
X95939401Y-94148590D01*
X95925151Y-94167803D01*
X95909087Y-94185527D01*
X95891363Y-94201591D01*
X95872150Y-94215841D01*
X95851633Y-94228138D01*
X95830009Y-94238366D01*
X95807487Y-94246424D01*
X95784283Y-94252236D01*
X95760622Y-94255746D01*
X95736730Y-94256920D01*
X94824230Y-94256920D01*
X94800338Y-94255746D01*
X94776677Y-94252236D01*
X94753473Y-94246424D01*
X94730951Y-94238366D01*
X94709327Y-94228138D01*
X94688810Y-94215841D01*
X94669597Y-94201591D01*
X94651873Y-94185527D01*
X94635809Y-94167803D01*
X94621559Y-94148590D01*
X94609262Y-94128073D01*
X94599034Y-94106449D01*
X94590976Y-94083927D01*
X94585164Y-94060723D01*
X94581654Y-94037062D01*
X94580480Y-94013170D01*
X94580480Y-93525670D01*
X94581654Y-93501778D01*
X94585164Y-93478117D01*
X94590976Y-93454913D01*
X94599034Y-93432391D01*
X94609262Y-93410767D01*
X94621559Y-93390250D01*
X94635809Y-93371037D01*
X94651873Y-93353313D01*
X94669597Y-93337249D01*
X94688810Y-93322999D01*
X94709327Y-93310702D01*
X94730951Y-93300474D01*
X94753473Y-93292416D01*
X94776677Y-93286604D01*
X94800338Y-93283094D01*
X94824230Y-93281920D01*
X95736730Y-93281920D01*
X95760622Y-93283094D01*
X95760622Y-93283094D01*
G37*
D13*
X95280480Y-93769420D03*
G04 #@! TD*
D12*
G04 #@! TO.C,R23*
G36*
X95760622Y-78043094D02*
X95784283Y-78046604D01*
X95807487Y-78052416D01*
X95830009Y-78060474D01*
X95851633Y-78070702D01*
X95872150Y-78082999D01*
X95891363Y-78097249D01*
X95909087Y-78113313D01*
X95925151Y-78131037D01*
X95939401Y-78150250D01*
X95951698Y-78170767D01*
X95961926Y-78192391D01*
X95969984Y-78214913D01*
X95975796Y-78238117D01*
X95979306Y-78261778D01*
X95980480Y-78285670D01*
X95980480Y-78773170D01*
X95979306Y-78797062D01*
X95975796Y-78820723D01*
X95969984Y-78843927D01*
X95961926Y-78866449D01*
X95951698Y-78888073D01*
X95939401Y-78908590D01*
X95925151Y-78927803D01*
X95909087Y-78945527D01*
X95891363Y-78961591D01*
X95872150Y-78975841D01*
X95851633Y-78988138D01*
X95830009Y-78998366D01*
X95807487Y-79006424D01*
X95784283Y-79012236D01*
X95760622Y-79015746D01*
X95736730Y-79016920D01*
X94824230Y-79016920D01*
X94800338Y-79015746D01*
X94776677Y-79012236D01*
X94753473Y-79006424D01*
X94730951Y-78998366D01*
X94709327Y-78988138D01*
X94688810Y-78975841D01*
X94669597Y-78961591D01*
X94651873Y-78945527D01*
X94635809Y-78927803D01*
X94621559Y-78908590D01*
X94609262Y-78888073D01*
X94599034Y-78866449D01*
X94590976Y-78843927D01*
X94585164Y-78820723D01*
X94581654Y-78797062D01*
X94580480Y-78773170D01*
X94580480Y-78285670D01*
X94581654Y-78261778D01*
X94585164Y-78238117D01*
X94590976Y-78214913D01*
X94599034Y-78192391D01*
X94609262Y-78170767D01*
X94621559Y-78150250D01*
X94635809Y-78131037D01*
X94651873Y-78113313D01*
X94669597Y-78097249D01*
X94688810Y-78082999D01*
X94709327Y-78070702D01*
X94730951Y-78060474D01*
X94753473Y-78052416D01*
X94776677Y-78046604D01*
X94800338Y-78043094D01*
X94824230Y-78041920D01*
X95736730Y-78041920D01*
X95760622Y-78043094D01*
X95760622Y-78043094D01*
G37*
D13*
X95280480Y-78529420D03*
D12*
G36*
X95760622Y-76168094D02*
X95784283Y-76171604D01*
X95807487Y-76177416D01*
X95830009Y-76185474D01*
X95851633Y-76195702D01*
X95872150Y-76207999D01*
X95891363Y-76222249D01*
X95909087Y-76238313D01*
X95925151Y-76256037D01*
X95939401Y-76275250D01*
X95951698Y-76295767D01*
X95961926Y-76317391D01*
X95969984Y-76339913D01*
X95975796Y-76363117D01*
X95979306Y-76386778D01*
X95980480Y-76410670D01*
X95980480Y-76898170D01*
X95979306Y-76922062D01*
X95975796Y-76945723D01*
X95969984Y-76968927D01*
X95961926Y-76991449D01*
X95951698Y-77013073D01*
X95939401Y-77033590D01*
X95925151Y-77052803D01*
X95909087Y-77070527D01*
X95891363Y-77086591D01*
X95872150Y-77100841D01*
X95851633Y-77113138D01*
X95830009Y-77123366D01*
X95807487Y-77131424D01*
X95784283Y-77137236D01*
X95760622Y-77140746D01*
X95736730Y-77141920D01*
X94824230Y-77141920D01*
X94800338Y-77140746D01*
X94776677Y-77137236D01*
X94753473Y-77131424D01*
X94730951Y-77123366D01*
X94709327Y-77113138D01*
X94688810Y-77100841D01*
X94669597Y-77086591D01*
X94651873Y-77070527D01*
X94635809Y-77052803D01*
X94621559Y-77033590D01*
X94609262Y-77013073D01*
X94599034Y-76991449D01*
X94590976Y-76968927D01*
X94585164Y-76945723D01*
X94581654Y-76922062D01*
X94580480Y-76898170D01*
X94580480Y-76410670D01*
X94581654Y-76386778D01*
X94585164Y-76363117D01*
X94590976Y-76339913D01*
X94599034Y-76317391D01*
X94609262Y-76295767D01*
X94621559Y-76275250D01*
X94635809Y-76256037D01*
X94651873Y-76238313D01*
X94669597Y-76222249D01*
X94688810Y-76207999D01*
X94709327Y-76195702D01*
X94730951Y-76185474D01*
X94753473Y-76177416D01*
X94776677Y-76171604D01*
X94800338Y-76168094D01*
X94824230Y-76166920D01*
X95736730Y-76166920D01*
X95760622Y-76168094D01*
X95760622Y-76168094D01*
G37*
D13*
X95280480Y-76654420D03*
G04 #@! TD*
D12*
G04 #@! TO.C,R24*
G36*
X108460622Y-78043094D02*
X108484283Y-78046604D01*
X108507487Y-78052416D01*
X108530009Y-78060474D01*
X108551633Y-78070702D01*
X108572150Y-78082999D01*
X108591363Y-78097249D01*
X108609087Y-78113313D01*
X108625151Y-78131037D01*
X108639401Y-78150250D01*
X108651698Y-78170767D01*
X108661926Y-78192391D01*
X108669984Y-78214913D01*
X108675796Y-78238117D01*
X108679306Y-78261778D01*
X108680480Y-78285670D01*
X108680480Y-78773170D01*
X108679306Y-78797062D01*
X108675796Y-78820723D01*
X108669984Y-78843927D01*
X108661926Y-78866449D01*
X108651698Y-78888073D01*
X108639401Y-78908590D01*
X108625151Y-78927803D01*
X108609087Y-78945527D01*
X108591363Y-78961591D01*
X108572150Y-78975841D01*
X108551633Y-78988138D01*
X108530009Y-78998366D01*
X108507487Y-79006424D01*
X108484283Y-79012236D01*
X108460622Y-79015746D01*
X108436730Y-79016920D01*
X107524230Y-79016920D01*
X107500338Y-79015746D01*
X107476677Y-79012236D01*
X107453473Y-79006424D01*
X107430951Y-78998366D01*
X107409327Y-78988138D01*
X107388810Y-78975841D01*
X107369597Y-78961591D01*
X107351873Y-78945527D01*
X107335809Y-78927803D01*
X107321559Y-78908590D01*
X107309262Y-78888073D01*
X107299034Y-78866449D01*
X107290976Y-78843927D01*
X107285164Y-78820723D01*
X107281654Y-78797062D01*
X107280480Y-78773170D01*
X107280480Y-78285670D01*
X107281654Y-78261778D01*
X107285164Y-78238117D01*
X107290976Y-78214913D01*
X107299034Y-78192391D01*
X107309262Y-78170767D01*
X107321559Y-78150250D01*
X107335809Y-78131037D01*
X107351873Y-78113313D01*
X107369597Y-78097249D01*
X107388810Y-78082999D01*
X107409327Y-78070702D01*
X107430951Y-78060474D01*
X107453473Y-78052416D01*
X107476677Y-78046604D01*
X107500338Y-78043094D01*
X107524230Y-78041920D01*
X108436730Y-78041920D01*
X108460622Y-78043094D01*
X108460622Y-78043094D01*
G37*
D13*
X107980480Y-78529420D03*
D12*
G36*
X108460622Y-76168094D02*
X108484283Y-76171604D01*
X108507487Y-76177416D01*
X108530009Y-76185474D01*
X108551633Y-76195702D01*
X108572150Y-76207999D01*
X108591363Y-76222249D01*
X108609087Y-76238313D01*
X108625151Y-76256037D01*
X108639401Y-76275250D01*
X108651698Y-76295767D01*
X108661926Y-76317391D01*
X108669984Y-76339913D01*
X108675796Y-76363117D01*
X108679306Y-76386778D01*
X108680480Y-76410670D01*
X108680480Y-76898170D01*
X108679306Y-76922062D01*
X108675796Y-76945723D01*
X108669984Y-76968927D01*
X108661926Y-76991449D01*
X108651698Y-77013073D01*
X108639401Y-77033590D01*
X108625151Y-77052803D01*
X108609087Y-77070527D01*
X108591363Y-77086591D01*
X108572150Y-77100841D01*
X108551633Y-77113138D01*
X108530009Y-77123366D01*
X108507487Y-77131424D01*
X108484283Y-77137236D01*
X108460622Y-77140746D01*
X108436730Y-77141920D01*
X107524230Y-77141920D01*
X107500338Y-77140746D01*
X107476677Y-77137236D01*
X107453473Y-77131424D01*
X107430951Y-77123366D01*
X107409327Y-77113138D01*
X107388810Y-77100841D01*
X107369597Y-77086591D01*
X107351873Y-77070527D01*
X107335809Y-77052803D01*
X107321559Y-77033590D01*
X107309262Y-77013073D01*
X107299034Y-76991449D01*
X107290976Y-76968927D01*
X107285164Y-76945723D01*
X107281654Y-76922062D01*
X107280480Y-76898170D01*
X107280480Y-76410670D01*
X107281654Y-76386778D01*
X107285164Y-76363117D01*
X107290976Y-76339913D01*
X107299034Y-76317391D01*
X107309262Y-76295767D01*
X107321559Y-76275250D01*
X107335809Y-76256037D01*
X107351873Y-76238313D01*
X107369597Y-76222249D01*
X107388810Y-76207999D01*
X107409327Y-76195702D01*
X107430951Y-76185474D01*
X107453473Y-76177416D01*
X107476677Y-76171604D01*
X107500338Y-76168094D01*
X107524230Y-76166920D01*
X108436730Y-76166920D01*
X108460622Y-76168094D01*
X108460622Y-76168094D01*
G37*
D13*
X107980480Y-76654420D03*
G04 #@! TD*
D12*
G04 #@! TO.C,R18*
G36*
X108460622Y-66643094D02*
X108484283Y-66646604D01*
X108507487Y-66652416D01*
X108530009Y-66660474D01*
X108551633Y-66670702D01*
X108572150Y-66682999D01*
X108591363Y-66697249D01*
X108609087Y-66713313D01*
X108625151Y-66731037D01*
X108639401Y-66750250D01*
X108651698Y-66770767D01*
X108661926Y-66792391D01*
X108669984Y-66814913D01*
X108675796Y-66838117D01*
X108679306Y-66861778D01*
X108680480Y-66885670D01*
X108680480Y-67373170D01*
X108679306Y-67397062D01*
X108675796Y-67420723D01*
X108669984Y-67443927D01*
X108661926Y-67466449D01*
X108651698Y-67488073D01*
X108639401Y-67508590D01*
X108625151Y-67527803D01*
X108609087Y-67545527D01*
X108591363Y-67561591D01*
X108572150Y-67575841D01*
X108551633Y-67588138D01*
X108530009Y-67598366D01*
X108507487Y-67606424D01*
X108484283Y-67612236D01*
X108460622Y-67615746D01*
X108436730Y-67616920D01*
X107524230Y-67616920D01*
X107500338Y-67615746D01*
X107476677Y-67612236D01*
X107453473Y-67606424D01*
X107430951Y-67598366D01*
X107409327Y-67588138D01*
X107388810Y-67575841D01*
X107369597Y-67561591D01*
X107351873Y-67545527D01*
X107335809Y-67527803D01*
X107321559Y-67508590D01*
X107309262Y-67488073D01*
X107299034Y-67466449D01*
X107290976Y-67443927D01*
X107285164Y-67420723D01*
X107281654Y-67397062D01*
X107280480Y-67373170D01*
X107280480Y-66885670D01*
X107281654Y-66861778D01*
X107285164Y-66838117D01*
X107290976Y-66814913D01*
X107299034Y-66792391D01*
X107309262Y-66770767D01*
X107321559Y-66750250D01*
X107335809Y-66731037D01*
X107351873Y-66713313D01*
X107369597Y-66697249D01*
X107388810Y-66682999D01*
X107409327Y-66670702D01*
X107430951Y-66660474D01*
X107453473Y-66652416D01*
X107476677Y-66646604D01*
X107500338Y-66643094D01*
X107524230Y-66641920D01*
X108436730Y-66641920D01*
X108460622Y-66643094D01*
X108460622Y-66643094D01*
G37*
D13*
X107980480Y-67129420D03*
D12*
G36*
X108460622Y-68518094D02*
X108484283Y-68521604D01*
X108507487Y-68527416D01*
X108530009Y-68535474D01*
X108551633Y-68545702D01*
X108572150Y-68557999D01*
X108591363Y-68572249D01*
X108609087Y-68588313D01*
X108625151Y-68606037D01*
X108639401Y-68625250D01*
X108651698Y-68645767D01*
X108661926Y-68667391D01*
X108669984Y-68689913D01*
X108675796Y-68713117D01*
X108679306Y-68736778D01*
X108680480Y-68760670D01*
X108680480Y-69248170D01*
X108679306Y-69272062D01*
X108675796Y-69295723D01*
X108669984Y-69318927D01*
X108661926Y-69341449D01*
X108651698Y-69363073D01*
X108639401Y-69383590D01*
X108625151Y-69402803D01*
X108609087Y-69420527D01*
X108591363Y-69436591D01*
X108572150Y-69450841D01*
X108551633Y-69463138D01*
X108530009Y-69473366D01*
X108507487Y-69481424D01*
X108484283Y-69487236D01*
X108460622Y-69490746D01*
X108436730Y-69491920D01*
X107524230Y-69491920D01*
X107500338Y-69490746D01*
X107476677Y-69487236D01*
X107453473Y-69481424D01*
X107430951Y-69473366D01*
X107409327Y-69463138D01*
X107388810Y-69450841D01*
X107369597Y-69436591D01*
X107351873Y-69420527D01*
X107335809Y-69402803D01*
X107321559Y-69383590D01*
X107309262Y-69363073D01*
X107299034Y-69341449D01*
X107290976Y-69318927D01*
X107285164Y-69295723D01*
X107281654Y-69272062D01*
X107280480Y-69248170D01*
X107280480Y-68760670D01*
X107281654Y-68736778D01*
X107285164Y-68713117D01*
X107290976Y-68689913D01*
X107299034Y-68667391D01*
X107309262Y-68645767D01*
X107321559Y-68625250D01*
X107335809Y-68606037D01*
X107351873Y-68588313D01*
X107369597Y-68572249D01*
X107388810Y-68557999D01*
X107409327Y-68545702D01*
X107430951Y-68535474D01*
X107453473Y-68527416D01*
X107476677Y-68521604D01*
X107500338Y-68518094D01*
X107524230Y-68516920D01*
X108436730Y-68516920D01*
X108460622Y-68518094D01*
X108460622Y-68518094D01*
G37*
D13*
X107980480Y-69004420D03*
G04 #@! TD*
D12*
G04 #@! TO.C,R7*
G36*
X95760622Y-81248094D02*
X95784283Y-81251604D01*
X95807487Y-81257416D01*
X95830009Y-81265474D01*
X95851633Y-81275702D01*
X95872150Y-81287999D01*
X95891363Y-81302249D01*
X95909087Y-81318313D01*
X95925151Y-81336037D01*
X95939401Y-81355250D01*
X95951698Y-81375767D01*
X95961926Y-81397391D01*
X95969984Y-81419913D01*
X95975796Y-81443117D01*
X95979306Y-81466778D01*
X95980480Y-81490670D01*
X95980480Y-81978170D01*
X95979306Y-82002062D01*
X95975796Y-82025723D01*
X95969984Y-82048927D01*
X95961926Y-82071449D01*
X95951698Y-82093073D01*
X95939401Y-82113590D01*
X95925151Y-82132803D01*
X95909087Y-82150527D01*
X95891363Y-82166591D01*
X95872150Y-82180841D01*
X95851633Y-82193138D01*
X95830009Y-82203366D01*
X95807487Y-82211424D01*
X95784283Y-82217236D01*
X95760622Y-82220746D01*
X95736730Y-82221920D01*
X94824230Y-82221920D01*
X94800338Y-82220746D01*
X94776677Y-82217236D01*
X94753473Y-82211424D01*
X94730951Y-82203366D01*
X94709327Y-82193138D01*
X94688810Y-82180841D01*
X94669597Y-82166591D01*
X94651873Y-82150527D01*
X94635809Y-82132803D01*
X94621559Y-82113590D01*
X94609262Y-82093073D01*
X94599034Y-82071449D01*
X94590976Y-82048927D01*
X94585164Y-82025723D01*
X94581654Y-82002062D01*
X94580480Y-81978170D01*
X94580480Y-81490670D01*
X94581654Y-81466778D01*
X94585164Y-81443117D01*
X94590976Y-81419913D01*
X94599034Y-81397391D01*
X94609262Y-81375767D01*
X94621559Y-81355250D01*
X94635809Y-81336037D01*
X94651873Y-81318313D01*
X94669597Y-81302249D01*
X94688810Y-81287999D01*
X94709327Y-81275702D01*
X94730951Y-81265474D01*
X94753473Y-81257416D01*
X94776677Y-81251604D01*
X94800338Y-81248094D01*
X94824230Y-81246920D01*
X95736730Y-81246920D01*
X95760622Y-81248094D01*
X95760622Y-81248094D01*
G37*
D13*
X95280480Y-81734420D03*
D12*
G36*
X95760622Y-83123094D02*
X95784283Y-83126604D01*
X95807487Y-83132416D01*
X95830009Y-83140474D01*
X95851633Y-83150702D01*
X95872150Y-83162999D01*
X95891363Y-83177249D01*
X95909087Y-83193313D01*
X95925151Y-83211037D01*
X95939401Y-83230250D01*
X95951698Y-83250767D01*
X95961926Y-83272391D01*
X95969984Y-83294913D01*
X95975796Y-83318117D01*
X95979306Y-83341778D01*
X95980480Y-83365670D01*
X95980480Y-83853170D01*
X95979306Y-83877062D01*
X95975796Y-83900723D01*
X95969984Y-83923927D01*
X95961926Y-83946449D01*
X95951698Y-83968073D01*
X95939401Y-83988590D01*
X95925151Y-84007803D01*
X95909087Y-84025527D01*
X95891363Y-84041591D01*
X95872150Y-84055841D01*
X95851633Y-84068138D01*
X95830009Y-84078366D01*
X95807487Y-84086424D01*
X95784283Y-84092236D01*
X95760622Y-84095746D01*
X95736730Y-84096920D01*
X94824230Y-84096920D01*
X94800338Y-84095746D01*
X94776677Y-84092236D01*
X94753473Y-84086424D01*
X94730951Y-84078366D01*
X94709327Y-84068138D01*
X94688810Y-84055841D01*
X94669597Y-84041591D01*
X94651873Y-84025527D01*
X94635809Y-84007803D01*
X94621559Y-83988590D01*
X94609262Y-83968073D01*
X94599034Y-83946449D01*
X94590976Y-83923927D01*
X94585164Y-83900723D01*
X94581654Y-83877062D01*
X94580480Y-83853170D01*
X94580480Y-83365670D01*
X94581654Y-83341778D01*
X94585164Y-83318117D01*
X94590976Y-83294913D01*
X94599034Y-83272391D01*
X94609262Y-83250767D01*
X94621559Y-83230250D01*
X94635809Y-83211037D01*
X94651873Y-83193313D01*
X94669597Y-83177249D01*
X94688810Y-83162999D01*
X94709327Y-83150702D01*
X94730951Y-83140474D01*
X94753473Y-83132416D01*
X94776677Y-83126604D01*
X94800338Y-83123094D01*
X94824230Y-83121920D01*
X95736730Y-83121920D01*
X95760622Y-83123094D01*
X95760622Y-83123094D01*
G37*
D13*
X95280480Y-83609420D03*
G04 #@! TD*
D12*
G04 #@! TO.C,R6*
G36*
X116080622Y-68518094D02*
X116104283Y-68521604D01*
X116127487Y-68527416D01*
X116150009Y-68535474D01*
X116171633Y-68545702D01*
X116192150Y-68557999D01*
X116211363Y-68572249D01*
X116229087Y-68588313D01*
X116245151Y-68606037D01*
X116259401Y-68625250D01*
X116271698Y-68645767D01*
X116281926Y-68667391D01*
X116289984Y-68689913D01*
X116295796Y-68713117D01*
X116299306Y-68736778D01*
X116300480Y-68760670D01*
X116300480Y-69248170D01*
X116299306Y-69272062D01*
X116295796Y-69295723D01*
X116289984Y-69318927D01*
X116281926Y-69341449D01*
X116271698Y-69363073D01*
X116259401Y-69383590D01*
X116245151Y-69402803D01*
X116229087Y-69420527D01*
X116211363Y-69436591D01*
X116192150Y-69450841D01*
X116171633Y-69463138D01*
X116150009Y-69473366D01*
X116127487Y-69481424D01*
X116104283Y-69487236D01*
X116080622Y-69490746D01*
X116056730Y-69491920D01*
X115144230Y-69491920D01*
X115120338Y-69490746D01*
X115096677Y-69487236D01*
X115073473Y-69481424D01*
X115050951Y-69473366D01*
X115029327Y-69463138D01*
X115008810Y-69450841D01*
X114989597Y-69436591D01*
X114971873Y-69420527D01*
X114955809Y-69402803D01*
X114941559Y-69383590D01*
X114929262Y-69363073D01*
X114919034Y-69341449D01*
X114910976Y-69318927D01*
X114905164Y-69295723D01*
X114901654Y-69272062D01*
X114900480Y-69248170D01*
X114900480Y-68760670D01*
X114901654Y-68736778D01*
X114905164Y-68713117D01*
X114910976Y-68689913D01*
X114919034Y-68667391D01*
X114929262Y-68645767D01*
X114941559Y-68625250D01*
X114955809Y-68606037D01*
X114971873Y-68588313D01*
X114989597Y-68572249D01*
X115008810Y-68557999D01*
X115029327Y-68545702D01*
X115050951Y-68535474D01*
X115073473Y-68527416D01*
X115096677Y-68521604D01*
X115120338Y-68518094D01*
X115144230Y-68516920D01*
X116056730Y-68516920D01*
X116080622Y-68518094D01*
X116080622Y-68518094D01*
G37*
D13*
X115600480Y-69004420D03*
D12*
G36*
X116080622Y-66643094D02*
X116104283Y-66646604D01*
X116127487Y-66652416D01*
X116150009Y-66660474D01*
X116171633Y-66670702D01*
X116192150Y-66682999D01*
X116211363Y-66697249D01*
X116229087Y-66713313D01*
X116245151Y-66731037D01*
X116259401Y-66750250D01*
X116271698Y-66770767D01*
X116281926Y-66792391D01*
X116289984Y-66814913D01*
X116295796Y-66838117D01*
X116299306Y-66861778D01*
X116300480Y-66885670D01*
X116300480Y-67373170D01*
X116299306Y-67397062D01*
X116295796Y-67420723D01*
X116289984Y-67443927D01*
X116281926Y-67466449D01*
X116271698Y-67488073D01*
X116259401Y-67508590D01*
X116245151Y-67527803D01*
X116229087Y-67545527D01*
X116211363Y-67561591D01*
X116192150Y-67575841D01*
X116171633Y-67588138D01*
X116150009Y-67598366D01*
X116127487Y-67606424D01*
X116104283Y-67612236D01*
X116080622Y-67615746D01*
X116056730Y-67616920D01*
X115144230Y-67616920D01*
X115120338Y-67615746D01*
X115096677Y-67612236D01*
X115073473Y-67606424D01*
X115050951Y-67598366D01*
X115029327Y-67588138D01*
X115008810Y-67575841D01*
X114989597Y-67561591D01*
X114971873Y-67545527D01*
X114955809Y-67527803D01*
X114941559Y-67508590D01*
X114929262Y-67488073D01*
X114919034Y-67466449D01*
X114910976Y-67443927D01*
X114905164Y-67420723D01*
X114901654Y-67397062D01*
X114900480Y-67373170D01*
X114900480Y-66885670D01*
X114901654Y-66861778D01*
X114905164Y-66838117D01*
X114910976Y-66814913D01*
X114919034Y-66792391D01*
X114929262Y-66770767D01*
X114941559Y-66750250D01*
X114955809Y-66731037D01*
X114971873Y-66713313D01*
X114989597Y-66697249D01*
X115008810Y-66682999D01*
X115029327Y-66670702D01*
X115050951Y-66660474D01*
X115073473Y-66652416D01*
X115096677Y-66646604D01*
X115120338Y-66643094D01*
X115144230Y-66641920D01*
X116056730Y-66641920D01*
X116080622Y-66643094D01*
X116080622Y-66643094D01*
G37*
D13*
X115600480Y-67129420D03*
G04 #@! TD*
D12*
G04 #@! TO.C,R5*
G36*
X110365622Y-46958094D02*
X110389283Y-46961604D01*
X110412487Y-46967416D01*
X110435009Y-46975474D01*
X110456633Y-46985702D01*
X110477150Y-46997999D01*
X110496363Y-47012249D01*
X110514087Y-47028313D01*
X110530151Y-47046037D01*
X110544401Y-47065250D01*
X110556698Y-47085767D01*
X110566926Y-47107391D01*
X110574984Y-47129913D01*
X110580796Y-47153117D01*
X110584306Y-47176778D01*
X110585480Y-47200670D01*
X110585480Y-47688170D01*
X110584306Y-47712062D01*
X110580796Y-47735723D01*
X110574984Y-47758927D01*
X110566926Y-47781449D01*
X110556698Y-47803073D01*
X110544401Y-47823590D01*
X110530151Y-47842803D01*
X110514087Y-47860527D01*
X110496363Y-47876591D01*
X110477150Y-47890841D01*
X110456633Y-47903138D01*
X110435009Y-47913366D01*
X110412487Y-47921424D01*
X110389283Y-47927236D01*
X110365622Y-47930746D01*
X110341730Y-47931920D01*
X109429230Y-47931920D01*
X109405338Y-47930746D01*
X109381677Y-47927236D01*
X109358473Y-47921424D01*
X109335951Y-47913366D01*
X109314327Y-47903138D01*
X109293810Y-47890841D01*
X109274597Y-47876591D01*
X109256873Y-47860527D01*
X109240809Y-47842803D01*
X109226559Y-47823590D01*
X109214262Y-47803073D01*
X109204034Y-47781449D01*
X109195976Y-47758927D01*
X109190164Y-47735723D01*
X109186654Y-47712062D01*
X109185480Y-47688170D01*
X109185480Y-47200670D01*
X109186654Y-47176778D01*
X109190164Y-47153117D01*
X109195976Y-47129913D01*
X109204034Y-47107391D01*
X109214262Y-47085767D01*
X109226559Y-47065250D01*
X109240809Y-47046037D01*
X109256873Y-47028313D01*
X109274597Y-47012249D01*
X109293810Y-46997999D01*
X109314327Y-46985702D01*
X109335951Y-46975474D01*
X109358473Y-46967416D01*
X109381677Y-46961604D01*
X109405338Y-46958094D01*
X109429230Y-46956920D01*
X110341730Y-46956920D01*
X110365622Y-46958094D01*
X110365622Y-46958094D01*
G37*
D13*
X109885480Y-47444420D03*
D12*
G36*
X110365622Y-48833094D02*
X110389283Y-48836604D01*
X110412487Y-48842416D01*
X110435009Y-48850474D01*
X110456633Y-48860702D01*
X110477150Y-48872999D01*
X110496363Y-48887249D01*
X110514087Y-48903313D01*
X110530151Y-48921037D01*
X110544401Y-48940250D01*
X110556698Y-48960767D01*
X110566926Y-48982391D01*
X110574984Y-49004913D01*
X110580796Y-49028117D01*
X110584306Y-49051778D01*
X110585480Y-49075670D01*
X110585480Y-49563170D01*
X110584306Y-49587062D01*
X110580796Y-49610723D01*
X110574984Y-49633927D01*
X110566926Y-49656449D01*
X110556698Y-49678073D01*
X110544401Y-49698590D01*
X110530151Y-49717803D01*
X110514087Y-49735527D01*
X110496363Y-49751591D01*
X110477150Y-49765841D01*
X110456633Y-49778138D01*
X110435009Y-49788366D01*
X110412487Y-49796424D01*
X110389283Y-49802236D01*
X110365622Y-49805746D01*
X110341730Y-49806920D01*
X109429230Y-49806920D01*
X109405338Y-49805746D01*
X109381677Y-49802236D01*
X109358473Y-49796424D01*
X109335951Y-49788366D01*
X109314327Y-49778138D01*
X109293810Y-49765841D01*
X109274597Y-49751591D01*
X109256873Y-49735527D01*
X109240809Y-49717803D01*
X109226559Y-49698590D01*
X109214262Y-49678073D01*
X109204034Y-49656449D01*
X109195976Y-49633927D01*
X109190164Y-49610723D01*
X109186654Y-49587062D01*
X109185480Y-49563170D01*
X109185480Y-49075670D01*
X109186654Y-49051778D01*
X109190164Y-49028117D01*
X109195976Y-49004913D01*
X109204034Y-48982391D01*
X109214262Y-48960767D01*
X109226559Y-48940250D01*
X109240809Y-48921037D01*
X109256873Y-48903313D01*
X109274597Y-48887249D01*
X109293810Y-48872999D01*
X109314327Y-48860702D01*
X109335951Y-48850474D01*
X109358473Y-48842416D01*
X109381677Y-48836604D01*
X109405338Y-48833094D01*
X109429230Y-48831920D01*
X110341730Y-48831920D01*
X110365622Y-48833094D01*
X110365622Y-48833094D01*
G37*
D13*
X109885480Y-49319420D03*
G04 #@! TD*
D12*
G04 #@! TO.C,R4*
G36*
X112270622Y-66643094D02*
X112294283Y-66646604D01*
X112317487Y-66652416D01*
X112340009Y-66660474D01*
X112361633Y-66670702D01*
X112382150Y-66682999D01*
X112401363Y-66697249D01*
X112419087Y-66713313D01*
X112435151Y-66731037D01*
X112449401Y-66750250D01*
X112461698Y-66770767D01*
X112471926Y-66792391D01*
X112479984Y-66814913D01*
X112485796Y-66838117D01*
X112489306Y-66861778D01*
X112490480Y-66885670D01*
X112490480Y-67373170D01*
X112489306Y-67397062D01*
X112485796Y-67420723D01*
X112479984Y-67443927D01*
X112471926Y-67466449D01*
X112461698Y-67488073D01*
X112449401Y-67508590D01*
X112435151Y-67527803D01*
X112419087Y-67545527D01*
X112401363Y-67561591D01*
X112382150Y-67575841D01*
X112361633Y-67588138D01*
X112340009Y-67598366D01*
X112317487Y-67606424D01*
X112294283Y-67612236D01*
X112270622Y-67615746D01*
X112246730Y-67616920D01*
X111334230Y-67616920D01*
X111310338Y-67615746D01*
X111286677Y-67612236D01*
X111263473Y-67606424D01*
X111240951Y-67598366D01*
X111219327Y-67588138D01*
X111198810Y-67575841D01*
X111179597Y-67561591D01*
X111161873Y-67545527D01*
X111145809Y-67527803D01*
X111131559Y-67508590D01*
X111119262Y-67488073D01*
X111109034Y-67466449D01*
X111100976Y-67443927D01*
X111095164Y-67420723D01*
X111091654Y-67397062D01*
X111090480Y-67373170D01*
X111090480Y-66885670D01*
X111091654Y-66861778D01*
X111095164Y-66838117D01*
X111100976Y-66814913D01*
X111109034Y-66792391D01*
X111119262Y-66770767D01*
X111131559Y-66750250D01*
X111145809Y-66731037D01*
X111161873Y-66713313D01*
X111179597Y-66697249D01*
X111198810Y-66682999D01*
X111219327Y-66670702D01*
X111240951Y-66660474D01*
X111263473Y-66652416D01*
X111286677Y-66646604D01*
X111310338Y-66643094D01*
X111334230Y-66641920D01*
X112246730Y-66641920D01*
X112270622Y-66643094D01*
X112270622Y-66643094D01*
G37*
D13*
X111790480Y-67129420D03*
D12*
G36*
X112270622Y-68518094D02*
X112294283Y-68521604D01*
X112317487Y-68527416D01*
X112340009Y-68535474D01*
X112361633Y-68545702D01*
X112382150Y-68557999D01*
X112401363Y-68572249D01*
X112419087Y-68588313D01*
X112435151Y-68606037D01*
X112449401Y-68625250D01*
X112461698Y-68645767D01*
X112471926Y-68667391D01*
X112479984Y-68689913D01*
X112485796Y-68713117D01*
X112489306Y-68736778D01*
X112490480Y-68760670D01*
X112490480Y-69248170D01*
X112489306Y-69272062D01*
X112485796Y-69295723D01*
X112479984Y-69318927D01*
X112471926Y-69341449D01*
X112461698Y-69363073D01*
X112449401Y-69383590D01*
X112435151Y-69402803D01*
X112419087Y-69420527D01*
X112401363Y-69436591D01*
X112382150Y-69450841D01*
X112361633Y-69463138D01*
X112340009Y-69473366D01*
X112317487Y-69481424D01*
X112294283Y-69487236D01*
X112270622Y-69490746D01*
X112246730Y-69491920D01*
X111334230Y-69491920D01*
X111310338Y-69490746D01*
X111286677Y-69487236D01*
X111263473Y-69481424D01*
X111240951Y-69473366D01*
X111219327Y-69463138D01*
X111198810Y-69450841D01*
X111179597Y-69436591D01*
X111161873Y-69420527D01*
X111145809Y-69402803D01*
X111131559Y-69383590D01*
X111119262Y-69363073D01*
X111109034Y-69341449D01*
X111100976Y-69318927D01*
X111095164Y-69295723D01*
X111091654Y-69272062D01*
X111090480Y-69248170D01*
X111090480Y-68760670D01*
X111091654Y-68736778D01*
X111095164Y-68713117D01*
X111100976Y-68689913D01*
X111109034Y-68667391D01*
X111119262Y-68645767D01*
X111131559Y-68625250D01*
X111145809Y-68606037D01*
X111161873Y-68588313D01*
X111179597Y-68572249D01*
X111198810Y-68557999D01*
X111219327Y-68545702D01*
X111240951Y-68535474D01*
X111263473Y-68527416D01*
X111286677Y-68521604D01*
X111310338Y-68518094D01*
X111334230Y-68516920D01*
X112246730Y-68516920D01*
X112270622Y-68518094D01*
X112270622Y-68518094D01*
G37*
D13*
X111790480Y-69004420D03*
G04 #@! TD*
D12*
G04 #@! TO.C,R3*
G36*
X88140622Y-66643094D02*
X88164283Y-66646604D01*
X88187487Y-66652416D01*
X88210009Y-66660474D01*
X88231633Y-66670702D01*
X88252150Y-66682999D01*
X88271363Y-66697249D01*
X88289087Y-66713313D01*
X88305151Y-66731037D01*
X88319401Y-66750250D01*
X88331698Y-66770767D01*
X88341926Y-66792391D01*
X88349984Y-66814913D01*
X88355796Y-66838117D01*
X88359306Y-66861778D01*
X88360480Y-66885670D01*
X88360480Y-67373170D01*
X88359306Y-67397062D01*
X88355796Y-67420723D01*
X88349984Y-67443927D01*
X88341926Y-67466449D01*
X88331698Y-67488073D01*
X88319401Y-67508590D01*
X88305151Y-67527803D01*
X88289087Y-67545527D01*
X88271363Y-67561591D01*
X88252150Y-67575841D01*
X88231633Y-67588138D01*
X88210009Y-67598366D01*
X88187487Y-67606424D01*
X88164283Y-67612236D01*
X88140622Y-67615746D01*
X88116730Y-67616920D01*
X87204230Y-67616920D01*
X87180338Y-67615746D01*
X87156677Y-67612236D01*
X87133473Y-67606424D01*
X87110951Y-67598366D01*
X87089327Y-67588138D01*
X87068810Y-67575841D01*
X87049597Y-67561591D01*
X87031873Y-67545527D01*
X87015809Y-67527803D01*
X87001559Y-67508590D01*
X86989262Y-67488073D01*
X86979034Y-67466449D01*
X86970976Y-67443927D01*
X86965164Y-67420723D01*
X86961654Y-67397062D01*
X86960480Y-67373170D01*
X86960480Y-66885670D01*
X86961654Y-66861778D01*
X86965164Y-66838117D01*
X86970976Y-66814913D01*
X86979034Y-66792391D01*
X86989262Y-66770767D01*
X87001559Y-66750250D01*
X87015809Y-66731037D01*
X87031873Y-66713313D01*
X87049597Y-66697249D01*
X87068810Y-66682999D01*
X87089327Y-66670702D01*
X87110951Y-66660474D01*
X87133473Y-66652416D01*
X87156677Y-66646604D01*
X87180338Y-66643094D01*
X87204230Y-66641920D01*
X88116730Y-66641920D01*
X88140622Y-66643094D01*
X88140622Y-66643094D01*
G37*
D13*
X87660480Y-67129420D03*
D12*
G36*
X88140622Y-68518094D02*
X88164283Y-68521604D01*
X88187487Y-68527416D01*
X88210009Y-68535474D01*
X88231633Y-68545702D01*
X88252150Y-68557999D01*
X88271363Y-68572249D01*
X88289087Y-68588313D01*
X88305151Y-68606037D01*
X88319401Y-68625250D01*
X88331698Y-68645767D01*
X88341926Y-68667391D01*
X88349984Y-68689913D01*
X88355796Y-68713117D01*
X88359306Y-68736778D01*
X88360480Y-68760670D01*
X88360480Y-69248170D01*
X88359306Y-69272062D01*
X88355796Y-69295723D01*
X88349984Y-69318927D01*
X88341926Y-69341449D01*
X88331698Y-69363073D01*
X88319401Y-69383590D01*
X88305151Y-69402803D01*
X88289087Y-69420527D01*
X88271363Y-69436591D01*
X88252150Y-69450841D01*
X88231633Y-69463138D01*
X88210009Y-69473366D01*
X88187487Y-69481424D01*
X88164283Y-69487236D01*
X88140622Y-69490746D01*
X88116730Y-69491920D01*
X87204230Y-69491920D01*
X87180338Y-69490746D01*
X87156677Y-69487236D01*
X87133473Y-69481424D01*
X87110951Y-69473366D01*
X87089327Y-69463138D01*
X87068810Y-69450841D01*
X87049597Y-69436591D01*
X87031873Y-69420527D01*
X87015809Y-69402803D01*
X87001559Y-69383590D01*
X86989262Y-69363073D01*
X86979034Y-69341449D01*
X86970976Y-69318927D01*
X86965164Y-69295723D01*
X86961654Y-69272062D01*
X86960480Y-69248170D01*
X86960480Y-68760670D01*
X86961654Y-68736778D01*
X86965164Y-68713117D01*
X86970976Y-68689913D01*
X86979034Y-68667391D01*
X86989262Y-68645767D01*
X87001559Y-68625250D01*
X87015809Y-68606037D01*
X87031873Y-68588313D01*
X87049597Y-68572249D01*
X87068810Y-68557999D01*
X87089327Y-68545702D01*
X87110951Y-68535474D01*
X87133473Y-68527416D01*
X87156677Y-68521604D01*
X87180338Y-68518094D01*
X87204230Y-68516920D01*
X88116730Y-68516920D01*
X88140622Y-68518094D01*
X88140622Y-68518094D01*
G37*
D13*
X87660480Y-69004420D03*
G04 #@! TD*
D12*
G04 #@! TO.C,R2*
G36*
X90045622Y-46958094D02*
X90069283Y-46961604D01*
X90092487Y-46967416D01*
X90115009Y-46975474D01*
X90136633Y-46985702D01*
X90157150Y-46997999D01*
X90176363Y-47012249D01*
X90194087Y-47028313D01*
X90210151Y-47046037D01*
X90224401Y-47065250D01*
X90236698Y-47085767D01*
X90246926Y-47107391D01*
X90254984Y-47129913D01*
X90260796Y-47153117D01*
X90264306Y-47176778D01*
X90265480Y-47200670D01*
X90265480Y-47688170D01*
X90264306Y-47712062D01*
X90260796Y-47735723D01*
X90254984Y-47758927D01*
X90246926Y-47781449D01*
X90236698Y-47803073D01*
X90224401Y-47823590D01*
X90210151Y-47842803D01*
X90194087Y-47860527D01*
X90176363Y-47876591D01*
X90157150Y-47890841D01*
X90136633Y-47903138D01*
X90115009Y-47913366D01*
X90092487Y-47921424D01*
X90069283Y-47927236D01*
X90045622Y-47930746D01*
X90021730Y-47931920D01*
X89109230Y-47931920D01*
X89085338Y-47930746D01*
X89061677Y-47927236D01*
X89038473Y-47921424D01*
X89015951Y-47913366D01*
X88994327Y-47903138D01*
X88973810Y-47890841D01*
X88954597Y-47876591D01*
X88936873Y-47860527D01*
X88920809Y-47842803D01*
X88906559Y-47823590D01*
X88894262Y-47803073D01*
X88884034Y-47781449D01*
X88875976Y-47758927D01*
X88870164Y-47735723D01*
X88866654Y-47712062D01*
X88865480Y-47688170D01*
X88865480Y-47200670D01*
X88866654Y-47176778D01*
X88870164Y-47153117D01*
X88875976Y-47129913D01*
X88884034Y-47107391D01*
X88894262Y-47085767D01*
X88906559Y-47065250D01*
X88920809Y-47046037D01*
X88936873Y-47028313D01*
X88954597Y-47012249D01*
X88973810Y-46997999D01*
X88994327Y-46985702D01*
X89015951Y-46975474D01*
X89038473Y-46967416D01*
X89061677Y-46961604D01*
X89085338Y-46958094D01*
X89109230Y-46956920D01*
X90021730Y-46956920D01*
X90045622Y-46958094D01*
X90045622Y-46958094D01*
G37*
D13*
X89565480Y-47444420D03*
D12*
G36*
X90045622Y-48833094D02*
X90069283Y-48836604D01*
X90092487Y-48842416D01*
X90115009Y-48850474D01*
X90136633Y-48860702D01*
X90157150Y-48872999D01*
X90176363Y-48887249D01*
X90194087Y-48903313D01*
X90210151Y-48921037D01*
X90224401Y-48940250D01*
X90236698Y-48960767D01*
X90246926Y-48982391D01*
X90254984Y-49004913D01*
X90260796Y-49028117D01*
X90264306Y-49051778D01*
X90265480Y-49075670D01*
X90265480Y-49563170D01*
X90264306Y-49587062D01*
X90260796Y-49610723D01*
X90254984Y-49633927D01*
X90246926Y-49656449D01*
X90236698Y-49678073D01*
X90224401Y-49698590D01*
X90210151Y-49717803D01*
X90194087Y-49735527D01*
X90176363Y-49751591D01*
X90157150Y-49765841D01*
X90136633Y-49778138D01*
X90115009Y-49788366D01*
X90092487Y-49796424D01*
X90069283Y-49802236D01*
X90045622Y-49805746D01*
X90021730Y-49806920D01*
X89109230Y-49806920D01*
X89085338Y-49805746D01*
X89061677Y-49802236D01*
X89038473Y-49796424D01*
X89015951Y-49788366D01*
X88994327Y-49778138D01*
X88973810Y-49765841D01*
X88954597Y-49751591D01*
X88936873Y-49735527D01*
X88920809Y-49717803D01*
X88906559Y-49698590D01*
X88894262Y-49678073D01*
X88884034Y-49656449D01*
X88875976Y-49633927D01*
X88870164Y-49610723D01*
X88866654Y-49587062D01*
X88865480Y-49563170D01*
X88865480Y-49075670D01*
X88866654Y-49051778D01*
X88870164Y-49028117D01*
X88875976Y-49004913D01*
X88884034Y-48982391D01*
X88894262Y-48960767D01*
X88906559Y-48940250D01*
X88920809Y-48921037D01*
X88936873Y-48903313D01*
X88954597Y-48887249D01*
X88973810Y-48872999D01*
X88994327Y-48860702D01*
X89015951Y-48850474D01*
X89038473Y-48842416D01*
X89061677Y-48836604D01*
X89085338Y-48833094D01*
X89109230Y-48831920D01*
X90021730Y-48831920D01*
X90045622Y-48833094D01*
X90045622Y-48833094D01*
G37*
D13*
X89565480Y-49319420D03*
G04 #@! TD*
D12*
G04 #@! TO.C,R1*
G36*
X91950622Y-66643094D02*
X91974283Y-66646604D01*
X91997487Y-66652416D01*
X92020009Y-66660474D01*
X92041633Y-66670702D01*
X92062150Y-66682999D01*
X92081363Y-66697249D01*
X92099087Y-66713313D01*
X92115151Y-66731037D01*
X92129401Y-66750250D01*
X92141698Y-66770767D01*
X92151926Y-66792391D01*
X92159984Y-66814913D01*
X92165796Y-66838117D01*
X92169306Y-66861778D01*
X92170480Y-66885670D01*
X92170480Y-67373170D01*
X92169306Y-67397062D01*
X92165796Y-67420723D01*
X92159984Y-67443927D01*
X92151926Y-67466449D01*
X92141698Y-67488073D01*
X92129401Y-67508590D01*
X92115151Y-67527803D01*
X92099087Y-67545527D01*
X92081363Y-67561591D01*
X92062150Y-67575841D01*
X92041633Y-67588138D01*
X92020009Y-67598366D01*
X91997487Y-67606424D01*
X91974283Y-67612236D01*
X91950622Y-67615746D01*
X91926730Y-67616920D01*
X91014230Y-67616920D01*
X90990338Y-67615746D01*
X90966677Y-67612236D01*
X90943473Y-67606424D01*
X90920951Y-67598366D01*
X90899327Y-67588138D01*
X90878810Y-67575841D01*
X90859597Y-67561591D01*
X90841873Y-67545527D01*
X90825809Y-67527803D01*
X90811559Y-67508590D01*
X90799262Y-67488073D01*
X90789034Y-67466449D01*
X90780976Y-67443927D01*
X90775164Y-67420723D01*
X90771654Y-67397062D01*
X90770480Y-67373170D01*
X90770480Y-66885670D01*
X90771654Y-66861778D01*
X90775164Y-66838117D01*
X90780976Y-66814913D01*
X90789034Y-66792391D01*
X90799262Y-66770767D01*
X90811559Y-66750250D01*
X90825809Y-66731037D01*
X90841873Y-66713313D01*
X90859597Y-66697249D01*
X90878810Y-66682999D01*
X90899327Y-66670702D01*
X90920951Y-66660474D01*
X90943473Y-66652416D01*
X90966677Y-66646604D01*
X90990338Y-66643094D01*
X91014230Y-66641920D01*
X91926730Y-66641920D01*
X91950622Y-66643094D01*
X91950622Y-66643094D01*
G37*
D13*
X91470480Y-67129420D03*
D12*
G36*
X91950622Y-68518094D02*
X91974283Y-68521604D01*
X91997487Y-68527416D01*
X92020009Y-68535474D01*
X92041633Y-68545702D01*
X92062150Y-68557999D01*
X92081363Y-68572249D01*
X92099087Y-68588313D01*
X92115151Y-68606037D01*
X92129401Y-68625250D01*
X92141698Y-68645767D01*
X92151926Y-68667391D01*
X92159984Y-68689913D01*
X92165796Y-68713117D01*
X92169306Y-68736778D01*
X92170480Y-68760670D01*
X92170480Y-69248170D01*
X92169306Y-69272062D01*
X92165796Y-69295723D01*
X92159984Y-69318927D01*
X92151926Y-69341449D01*
X92141698Y-69363073D01*
X92129401Y-69383590D01*
X92115151Y-69402803D01*
X92099087Y-69420527D01*
X92081363Y-69436591D01*
X92062150Y-69450841D01*
X92041633Y-69463138D01*
X92020009Y-69473366D01*
X91997487Y-69481424D01*
X91974283Y-69487236D01*
X91950622Y-69490746D01*
X91926730Y-69491920D01*
X91014230Y-69491920D01*
X90990338Y-69490746D01*
X90966677Y-69487236D01*
X90943473Y-69481424D01*
X90920951Y-69473366D01*
X90899327Y-69463138D01*
X90878810Y-69450841D01*
X90859597Y-69436591D01*
X90841873Y-69420527D01*
X90825809Y-69402803D01*
X90811559Y-69383590D01*
X90799262Y-69363073D01*
X90789034Y-69341449D01*
X90780976Y-69318927D01*
X90775164Y-69295723D01*
X90771654Y-69272062D01*
X90770480Y-69248170D01*
X90770480Y-68760670D01*
X90771654Y-68736778D01*
X90775164Y-68713117D01*
X90780976Y-68689913D01*
X90789034Y-68667391D01*
X90799262Y-68645767D01*
X90811559Y-68625250D01*
X90825809Y-68606037D01*
X90841873Y-68588313D01*
X90859597Y-68572249D01*
X90878810Y-68557999D01*
X90899327Y-68545702D01*
X90920951Y-68535474D01*
X90943473Y-68527416D01*
X90966677Y-68521604D01*
X90990338Y-68518094D01*
X91014230Y-68516920D01*
X91926730Y-68516920D01*
X91950622Y-68518094D01*
X91950622Y-68518094D01*
G37*
D13*
X91470480Y-69004420D03*
G04 #@! TD*
D12*
G04 #@! TO.C,R22*
G36*
X119890622Y-66643094D02*
X119914283Y-66646604D01*
X119937487Y-66652416D01*
X119960009Y-66660474D01*
X119981633Y-66670702D01*
X120002150Y-66682999D01*
X120021363Y-66697249D01*
X120039087Y-66713313D01*
X120055151Y-66731037D01*
X120069401Y-66750250D01*
X120081698Y-66770767D01*
X120091926Y-66792391D01*
X120099984Y-66814913D01*
X120105796Y-66838117D01*
X120109306Y-66861778D01*
X120110480Y-66885670D01*
X120110480Y-67373170D01*
X120109306Y-67397062D01*
X120105796Y-67420723D01*
X120099984Y-67443927D01*
X120091926Y-67466449D01*
X120081698Y-67488073D01*
X120069401Y-67508590D01*
X120055151Y-67527803D01*
X120039087Y-67545527D01*
X120021363Y-67561591D01*
X120002150Y-67575841D01*
X119981633Y-67588138D01*
X119960009Y-67598366D01*
X119937487Y-67606424D01*
X119914283Y-67612236D01*
X119890622Y-67615746D01*
X119866730Y-67616920D01*
X118954230Y-67616920D01*
X118930338Y-67615746D01*
X118906677Y-67612236D01*
X118883473Y-67606424D01*
X118860951Y-67598366D01*
X118839327Y-67588138D01*
X118818810Y-67575841D01*
X118799597Y-67561591D01*
X118781873Y-67545527D01*
X118765809Y-67527803D01*
X118751559Y-67508590D01*
X118739262Y-67488073D01*
X118729034Y-67466449D01*
X118720976Y-67443927D01*
X118715164Y-67420723D01*
X118711654Y-67397062D01*
X118710480Y-67373170D01*
X118710480Y-66885670D01*
X118711654Y-66861778D01*
X118715164Y-66838117D01*
X118720976Y-66814913D01*
X118729034Y-66792391D01*
X118739262Y-66770767D01*
X118751559Y-66750250D01*
X118765809Y-66731037D01*
X118781873Y-66713313D01*
X118799597Y-66697249D01*
X118818810Y-66682999D01*
X118839327Y-66670702D01*
X118860951Y-66660474D01*
X118883473Y-66652416D01*
X118906677Y-66646604D01*
X118930338Y-66643094D01*
X118954230Y-66641920D01*
X119866730Y-66641920D01*
X119890622Y-66643094D01*
X119890622Y-66643094D01*
G37*
D13*
X119410480Y-67129420D03*
D12*
G36*
X119890622Y-68518094D02*
X119914283Y-68521604D01*
X119937487Y-68527416D01*
X119960009Y-68535474D01*
X119981633Y-68545702D01*
X120002150Y-68557999D01*
X120021363Y-68572249D01*
X120039087Y-68588313D01*
X120055151Y-68606037D01*
X120069401Y-68625250D01*
X120081698Y-68645767D01*
X120091926Y-68667391D01*
X120099984Y-68689913D01*
X120105796Y-68713117D01*
X120109306Y-68736778D01*
X120110480Y-68760670D01*
X120110480Y-69248170D01*
X120109306Y-69272062D01*
X120105796Y-69295723D01*
X120099984Y-69318927D01*
X120091926Y-69341449D01*
X120081698Y-69363073D01*
X120069401Y-69383590D01*
X120055151Y-69402803D01*
X120039087Y-69420527D01*
X120021363Y-69436591D01*
X120002150Y-69450841D01*
X119981633Y-69463138D01*
X119960009Y-69473366D01*
X119937487Y-69481424D01*
X119914283Y-69487236D01*
X119890622Y-69490746D01*
X119866730Y-69491920D01*
X118954230Y-69491920D01*
X118930338Y-69490746D01*
X118906677Y-69487236D01*
X118883473Y-69481424D01*
X118860951Y-69473366D01*
X118839327Y-69463138D01*
X118818810Y-69450841D01*
X118799597Y-69436591D01*
X118781873Y-69420527D01*
X118765809Y-69402803D01*
X118751559Y-69383590D01*
X118739262Y-69363073D01*
X118729034Y-69341449D01*
X118720976Y-69318927D01*
X118715164Y-69295723D01*
X118711654Y-69272062D01*
X118710480Y-69248170D01*
X118710480Y-68760670D01*
X118711654Y-68736778D01*
X118715164Y-68713117D01*
X118720976Y-68689913D01*
X118729034Y-68667391D01*
X118739262Y-68645767D01*
X118751559Y-68625250D01*
X118765809Y-68606037D01*
X118781873Y-68588313D01*
X118799597Y-68572249D01*
X118818810Y-68557999D01*
X118839327Y-68545702D01*
X118860951Y-68535474D01*
X118883473Y-68527416D01*
X118906677Y-68521604D01*
X118930338Y-68518094D01*
X118954230Y-68516920D01*
X119866730Y-68516920D01*
X119890622Y-68518094D01*
X119890622Y-68518094D01*
G37*
D13*
X119410480Y-69004420D03*
G04 #@! TD*
D12*
G04 #@! TO.C,R9*
G36*
X93855622Y-46958094D02*
X93879283Y-46961604D01*
X93902487Y-46967416D01*
X93925009Y-46975474D01*
X93946633Y-46985702D01*
X93967150Y-46997999D01*
X93986363Y-47012249D01*
X94004087Y-47028313D01*
X94020151Y-47046037D01*
X94034401Y-47065250D01*
X94046698Y-47085767D01*
X94056926Y-47107391D01*
X94064984Y-47129913D01*
X94070796Y-47153117D01*
X94074306Y-47176778D01*
X94075480Y-47200670D01*
X94075480Y-47688170D01*
X94074306Y-47712062D01*
X94070796Y-47735723D01*
X94064984Y-47758927D01*
X94056926Y-47781449D01*
X94046698Y-47803073D01*
X94034401Y-47823590D01*
X94020151Y-47842803D01*
X94004087Y-47860527D01*
X93986363Y-47876591D01*
X93967150Y-47890841D01*
X93946633Y-47903138D01*
X93925009Y-47913366D01*
X93902487Y-47921424D01*
X93879283Y-47927236D01*
X93855622Y-47930746D01*
X93831730Y-47931920D01*
X92919230Y-47931920D01*
X92895338Y-47930746D01*
X92871677Y-47927236D01*
X92848473Y-47921424D01*
X92825951Y-47913366D01*
X92804327Y-47903138D01*
X92783810Y-47890841D01*
X92764597Y-47876591D01*
X92746873Y-47860527D01*
X92730809Y-47842803D01*
X92716559Y-47823590D01*
X92704262Y-47803073D01*
X92694034Y-47781449D01*
X92685976Y-47758927D01*
X92680164Y-47735723D01*
X92676654Y-47712062D01*
X92675480Y-47688170D01*
X92675480Y-47200670D01*
X92676654Y-47176778D01*
X92680164Y-47153117D01*
X92685976Y-47129913D01*
X92694034Y-47107391D01*
X92704262Y-47085767D01*
X92716559Y-47065250D01*
X92730809Y-47046037D01*
X92746873Y-47028313D01*
X92764597Y-47012249D01*
X92783810Y-46997999D01*
X92804327Y-46985702D01*
X92825951Y-46975474D01*
X92848473Y-46967416D01*
X92871677Y-46961604D01*
X92895338Y-46958094D01*
X92919230Y-46956920D01*
X93831730Y-46956920D01*
X93855622Y-46958094D01*
X93855622Y-46958094D01*
G37*
D13*
X93375480Y-47444420D03*
D12*
G36*
X93855622Y-48833094D02*
X93879283Y-48836604D01*
X93902487Y-48842416D01*
X93925009Y-48850474D01*
X93946633Y-48860702D01*
X93967150Y-48872999D01*
X93986363Y-48887249D01*
X94004087Y-48903313D01*
X94020151Y-48921037D01*
X94034401Y-48940250D01*
X94046698Y-48960767D01*
X94056926Y-48982391D01*
X94064984Y-49004913D01*
X94070796Y-49028117D01*
X94074306Y-49051778D01*
X94075480Y-49075670D01*
X94075480Y-49563170D01*
X94074306Y-49587062D01*
X94070796Y-49610723D01*
X94064984Y-49633927D01*
X94056926Y-49656449D01*
X94046698Y-49678073D01*
X94034401Y-49698590D01*
X94020151Y-49717803D01*
X94004087Y-49735527D01*
X93986363Y-49751591D01*
X93967150Y-49765841D01*
X93946633Y-49778138D01*
X93925009Y-49788366D01*
X93902487Y-49796424D01*
X93879283Y-49802236D01*
X93855622Y-49805746D01*
X93831730Y-49806920D01*
X92919230Y-49806920D01*
X92895338Y-49805746D01*
X92871677Y-49802236D01*
X92848473Y-49796424D01*
X92825951Y-49788366D01*
X92804327Y-49778138D01*
X92783810Y-49765841D01*
X92764597Y-49751591D01*
X92746873Y-49735527D01*
X92730809Y-49717803D01*
X92716559Y-49698590D01*
X92704262Y-49678073D01*
X92694034Y-49656449D01*
X92685976Y-49633927D01*
X92680164Y-49610723D01*
X92676654Y-49587062D01*
X92675480Y-49563170D01*
X92675480Y-49075670D01*
X92676654Y-49051778D01*
X92680164Y-49028117D01*
X92685976Y-49004913D01*
X92694034Y-48982391D01*
X92704262Y-48960767D01*
X92716559Y-48940250D01*
X92730809Y-48921037D01*
X92746873Y-48903313D01*
X92764597Y-48887249D01*
X92783810Y-48872999D01*
X92804327Y-48860702D01*
X92825951Y-48850474D01*
X92848473Y-48842416D01*
X92871677Y-48836604D01*
X92895338Y-48833094D01*
X92919230Y-48831920D01*
X93831730Y-48831920D01*
X93855622Y-48833094D01*
X93855622Y-48833094D01*
G37*
D13*
X93375480Y-49319420D03*
G04 #@! TD*
M02*
